<?xml version="1.0" encoding="UTF-8"?>
<svg width="400px" height="274px" viewBox="0 0 400 274" version="1.1" xmlns="http://www.w3.org/2000/svg" xmlns:xlink="http://www.w3.org/1999/xlink">
    <!-- Generator: Sketch 61.2 (89653) - https://sketch.com -->
    <title>empty_img_zhangdanmingxi</title>
    <desc>Created with Sketch.</desc>
    <defs>
        <linearGradient x1="100%" y1="100%" x2="100%" y2="0%" id="linearGradient-1">
            <stop stop-color="#D5D8E2" offset="0%"></stop>
            <stop stop-color="#F1F3F6" offset="100%"></stop>
        </linearGradient>
        <linearGradient x1="50%" y1="100%" x2="50%" y2="0%" id="linearGradient-2">
            <stop stop-color="#ECEDF3" offset="0%"></stop>
            <stop stop-color="#F8F9FB" offset="100%"></stop>
        </linearGradient>
        <linearGradient x1="50%" y1="-26.2343262%" x2="50%" y2="50%" id="linearGradient-3">
            <stop stop-color="#F0F1F4" offset="0%"></stop>
            <stop stop-color="#FFFFFF" offset="100%"></stop>
        </linearGradient>
        <ellipse id="path-4" cx="200" cy="39" rx="200" ry="39"></ellipse>
        <linearGradient x1="100%" y1="100%" x2="100%" y2="0%" id="linearGradient-6">
            <stop stop-color="#D5D8E2" offset="0%"></stop>
            <stop stop-color="#F1F3F6" offset="100%"></stop>
        </linearGradient>
        <linearGradient x1="50%" y1="100%" x2="50%" y2="0%" id="linearGradient-7">
            <stop stop-color="#D5D8E2" offset="0%"></stop>
            <stop stop-color="#F1F3F6" offset="100%"></stop>
        </linearGradient>
        <linearGradient x1="50%" y1="100%" x2="50%" y2="0%" id="linearGradient-8">
            <stop stop-color="#D5D8E2" offset="0%"></stop>
            <stop stop-color="#F1F3F6" offset="100%"></stop>
        </linearGradient>
        <path d="M23.5639202,-2.27373675e-12 L27.9185665,0.0583483898 C28.2703906,1.66424476 29.6929827,2.8657013 31.3944026,2.8657013 C33.0626919,2.8657013 34.4629065,1.71057959 34.8484741,0.151694233 L40.2026655,0.22258873 C40.6126099,1.74547344 41.9955315,2.8657013 43.6384297,2.8657013 C45.2479917,2.8657013 46.6080204,1.7904736 47.0480434,0.314788549 L52.4953242,0.387354099 C52.9577213,1.8255907 54.2993973,2.8657013 55.8824568,2.8657013 C57.4321419,2.8657013 58.750514,1.86898409 59.2391779,0.477780894 L64.7964992,0.551311016 C65.3051896,1.90397047 66.60424,2.8657013 68.1264839,2.8657013 C69.6153223,2.8657013 70.8906557,1.94571751 71.4218433,0.639792142 L77.1068742,0.715290778 C77.6558585,1.98103562 78.9105305,2.8657013 80.370511,2.8657013 C81.7968756,2.8657013 83.0272771,2.02130535 83.5951106,0.802109613 L89.4273082,0.87988067 C90.0105353,2.05706714 91.2187049,2.8657013 92.6145381,2.8657013 C93.9762774,2.8657013 95.1594086,2.09608726 95.757919,0.965474655 L101.400069,1.04040648 C101.930033,2.34898182 103.20672,3.27131341 104.697457,3.27131341 C106.154751,3.27131341 107.407492,2.38989976 107.958057,1.12788476 L111.581269,1.17552069 L112.000142,101.119742 C112.032086,108.741656 105.8792,114.946333 98.2572865,114.978277 L11.8129404,114.978398 C10.8601928,114.978398 10.0878383,114.206044 10.0878383,113.253296 C10.0878383,112.65843 10.3943199,112.105534 10.8988001,111.790311 L17.2342313,107.831642 C21.2769159,105.305587 23.7297433,100.872067 23.7219069,96.1050766 L23.5639202,-2.27373675e-12 Z" id="path-9"></path>
        <path d="M67.5845844,82.1553945 C54.3297504,82.1553945 43.5845844,71.4102285 43.5845844,58.1553945 C43.5845844,44.9005605 54.3297504,34.1553945 67.5845844,34.1553945 C80.8394184,34.1553945 91.5845844,44.9005605 91.5845844,58.1553945 C91.5845844,71.4102285 80.8394184,82.1553945 67.5845844,82.1553945 Z" id="path-11"></path>
        <filter x="-11.5%" y="-13.5%" width="127.1%" height="127.1%" filterUnits="objectBoundingBox" id="filter-12">
            <feOffset dx="1" dy="0" in="SourceAlpha" result="shadowOffsetOuter1"></feOffset>
            <feGaussianBlur stdDeviation="2" in="shadowOffsetOuter1" result="shadowBlurOuter1"></feGaussianBlur>
            <feComposite in="shadowBlurOuter1" in2="SourceAlpha" operator="out" result="shadowBlurOuter1"></feComposite>
            <feColorMatrix values="0 0 0 0 0   0 0 0 0 0   0 0 0 0 0  0 0 0 0.0796547203 0" type="matrix" in="shadowBlurOuter1"></feColorMatrix>
        </filter>
        <path d="M75.1592194,45.8341324 C76.0157695,46.5266613 76.148735,47.7824379 75.4562062,48.638988 C75.4409224,48.6578917 75.4252942,48.6765144 75.4093296,48.6948467 L73.6435844,50.720933 L76.761142,50.7209706 C77.8786584,50.7209706 78.7845844,51.6268966 78.7845844,52.744413 C78.7845844,53.8619294 77.8786584,54.7678554 76.761142,54.7678554 L69.6831874,54.7670932 C69.6841161,54.7927517 69.6845844,54.8185277 69.6845844,54.844413 L69.6835844,58.813933 L76.761142,58.8147402 C77.8786584,58.8147402 78.7845844,59.7206662 78.7845844,60.8381826 C78.7845844,61.9556989 77.8786584,62.861625 76.761142,62.861625 L69.6835844,62.860933 L69.6845844,68.8553945 C69.6845844,70.0151925 68.7443824,70.9553945 67.5845844,70.9553945 C66.4247865,70.9553945 65.4845844,70.0151925 65.4845844,68.8553945 L65.4835844,62.860933 L58.4080268,62.861625 C57.2905104,62.861625 56.3845844,61.9556989 56.3845844,60.8381826 C56.3845844,59.7206662 57.2905104,58.8147402 58.4080268,58.8147402 L65.4835844,58.813933 L65.4845844,54.844413 L65.4865844,54.766933 L58.4080268,54.7678554 C57.2905104,54.7678554 56.3845844,53.8619294 56.3845844,52.744413 C56.3845844,51.6268966 57.2905104,50.7209706 58.4080268,50.7209706 L61.5245844,50.720933 L59.7598393,48.6948467 C59.0364606,47.8641858 59.1234299,46.6043878 59.9540908,45.8810091 C59.9724231,45.8650444 59.9910458,45.8494163 60.0099495,45.8341324 C60.9077636,45.1082413 62.2189987,45.2228816 62.9772259,46.0935593 L67.0065844,50.720933 L68.1615844,50.720933 L72.1919429,46.0935593 C72.9501702,45.2228816 74.2614052,45.1082413 75.1592194,45.8341324 Z" id="path-13"></path>
        <filter x="-31.2%" y="-31.3%" width="171.4%" height="162.5%" filterUnits="objectBoundingBox" id="filter-14">
            <feOffset dx="1" dy="0" in="SourceAlpha" result="shadowOffsetOuter1"></feOffset>
            <feGaussianBlur stdDeviation="2.5" in="shadowOffsetOuter1" result="shadowBlurOuter1"></feGaussianBlur>
            <feComposite in="shadowBlurOuter1" in2="SourceAlpha" operator="out" result="shadowBlurOuter1"></feComposite>
            <feColorMatrix values="0 0 0 0 0   0 0 0 0 0   0 0 0 0 0  0 0 0 0.0796547203 0" type="matrix" in="shadowBlurOuter1"></feColorMatrix>
        </filter>
        <linearGradient x1="50%" y1="100%" x2="50%" y2="0%" id="linearGradient-15">
            <stop stop-color="#C8CBD6" offset="0%"></stop>
            <stop stop-color="#F1F3F6" offset="100%"></stop>
        </linearGradient>
        <path d="M14.6728045,64.1627824 L23.871988,64.1627824 L23.871988,64.1627824 L23.871988,103.662782 C23.871988,110.014057 18.7232626,115.162782 12.371988,115.162782 C6.02071334,115.162782 0.871987968,110.014057 0.871987968,103.662782 L0.871987968,77.9635989 C0.871987968,70.3416184 7.05082398,64.1627824 14.6728045,64.1627824 Z" id="path-16"></path>
        <linearGradient x1="50%" y1="0%" x2="50%" y2="100%" id="linearGradient-18">
            <stop stop-color="#7DE2FF" offset="0%"></stop>
            <stop stop-color="#02A6FF" offset="100%"></stop>
        </linearGradient>
    </defs>
    <g id="ðŸ”ªåˆ‡å›¾" stroke="none" stroke-width="1" fill="none" fill-rule="evenodd">
        <g id="img" transform="translate(-708.000000, -2495.000000)">
            <g id="empty_img_zhangdanmingxi" transform="translate(708.000000, 2495.000000)">
                <g id="empty/img_zhangdanmingxi">
                    <g>
                        <rect id="çŸ©å½¢" fill="url(#linearGradient-1)" x="330" y="199.22186" width="2" height="17" rx="1"></rect>
                        <path d="M331,200 C338.801428,200 340,194.966329 340,188.756982 C340,182.547635 335.970563,176 331,176 C326.029437,176 322,182.547635 322,188.756982 C322,194.966329 323.198572,200 331,200 Z" id="æ¤­åœ†å½¢" fill="url(#linearGradient-2)"></path>
                        <g id="Group-7" transform="translate(0.000000, 196.000000)">
                            <g id="Oval-6-Copy-3-+-Oval-6-Copy-4-+-Oval-6-+-Oval-6-Copy-2-Mask">
                                <mask id="mask-5" fill="white">
                                    <use xlink:href="#path-4"></use>
                                </mask>
                                <use id="Mask" fill="url(#linearGradient-3)" xlink:href="#path-4"></use>
                                <ellipse id="Oval-2" fill="#F6F6F6" mask="url(#mask-5)" cx="113.272727" cy="13.1408412" rx="27.2727273" ry="4.14084117"></ellipse>
                                <ellipse id="æ¤­åœ†å½¢" fill="#F6F6F6" mask="url(#mask-5)" cx="69" cy="39.5" rx="5" ry="1.5"></ellipse>
                            </g>
                        </g>
                        <rect id="çŸ©å½¢" fill="url(#linearGradient-6)" x="68" y="218" width="2" height="18" rx="1"></rect>
                        <path d="M69,219 C80.2687288,219 82,211.612698 82,202.5 C82,193.387302 76.1797017,183.77814 69,183.77814 C61.8202983,183.77814 56,193.387302 56,202.5 C56,211.612698 57.7312712,219 69,219 Z" id="æ¤­åœ†å½¢" fill="url(#linearGradient-7)"></path>
                        <path d="M314.607843,45 C320.304923,45 325.056197,49.1039935 326.140313,54.5539973 C331.081365,54.8442884 335,58.9968223 335,64.0769231 C335,69.3448699 330.786209,73.6153846 325.588235,73.6153846 C324.631311,73.6153846 323.707741,73.4706516 322.837677,73.2016071 C321.133778,74.9299292 318.778428,76 316.176471,76 C313.719505,76 311.482429,75.0458641 309.806315,73.4832545 C308.279466,74.5683236 306.418995,75.2051282 304.411765,75.2051282 C299.213791,75.2051282 295,70.9346135 295,65.6666667 C295,60.9338227 298.401219,57.0060697 302.861628,56.2569631 C303.201754,49.9822704 308.330691,45 314.607843,45 Z" id="å½¢çŠ¶ç»“åˆ" fill="#F7F8FA"></path>
                        <g transform="translate(140.000000, 144.000000) rotate(-12.000000) translate(-140.000000, -144.000000) translate(84.000000, 86.000000)">
                            <mask id="mask-10" fill="white">
                                <use xlink:href="#path-9"></use>
                            </mask>
                            <use id="è’™ç‰ˆ" fill="url(#linearGradient-8)" xlink:href="#path-9"></use>
                            <g id="è·¯å¾„">
                                <use fill="black" fill-opacity="1" filter="url(#filter-12)" xlink:href="#path-11"></use>
                                <use fill-opacity="0.7" fill="#FFFFFF" fill-rule="evenodd" xlink:href="#path-11"></use>
                            </g>
                            <g id="Combined-Shape">
                                <use fill="black" fill-opacity="1" filter="url(#filter-14)" xlink:href="#path-13"></use>
                                <use fill-opacity="0.7" fill="#FFFFFF" fill-rule="evenodd" xlink:href="#path-13"></use>
                            </g>
                            <mask id="mask-17" fill="white">
                                <use xlink:href="#path-16"></use>
                            </mask>
                            <use id="è’™ç‰ˆ" fill="url(#linearGradient-15)" xlink:href="#path-16"></use>
                        </g>
                        <ellipse id="XMLID_1705_" fill="#F6F6F6" fill-rule="nonzero" cx="267.3" cy="223.1" rx="18.3" ry="2.1"></ellipse>
                        <g id="ç¼–ç»„-8" transform="translate(224.000000, 76.000000)">
                            <path d="M49.7,27 L57.2,27.6 C59.8,27.8 61.9,29.5 62.9,31.7 C82.6,34.7 97.3,51.5 97.8,71.4 C97.8,72.8 97.8,74.2 97.7,75.6 C97.6,77 97.4,78.4 97.2,79.7 L96.3,91.1 C95.7,98.4 89.8,103.9 82.7,104.2 L81,104.2 L81,104.2 L76.1,103.8 L72.4,103.5 L70.5130021,103.354458 C72.191425,104.738954 75.4425075,108.384537 73.7,114.9 C73.5,115.6 73.2,116.1 72.8,116.3 C72.2,116.6 72.3,116.1 71.5,114.8 C69.9,112.3 67,108.9 63.4,108.9 C57.8,109 50.6,123.2 53.1,131.8 C53.1,131.8 59.9,130.6 63.5,136.6 C63.9,137.2 63.4,138 62.7,137.9 C59.8,137.5 53.7,137.1 50.3,139.6 C47.1,141.9 45,145.2 44,147 C43.7,147.6 42.8,147.6 42.5,147 C41.6,145.1 40.5,141.2 43.2,136.4 C47.1,129.3 37.7,112.5 30.5,109.2 C30.5,109.2 28.1116236,110.95 21.6116236,110.85 C17.5885664,110.47661 13.7443625,107.862725 12.3393664,105.977182 C10.9343704,104.091639 13.2202334,103.8 15.3202334,103.8 C15.9202334,103.8 16.6876505,103.696173 18.1392391,103.5 C19.563446,103.307527 23.834709,102.530109 24.9398135,99.8563304 L13.8,99 C13.3,99 12.8,98.9 12.3,98.8 C5.2,97.5 0.2,91 0.7,83.7 L1.8,69.8 C1.8,69.2 1.8,68.7 1.9,68.1 C1.9,67.5 1.9,66.9 2,66.4 C4.5,45.4 22.5,29.8 43.5,30.1 C44.8,28 47.1,26.8 49.7,27 Z M54.1,25.5 C53.3,27 57.7,10.9 65,11.8 C66.7,12 67.5,13.3 67.4,15 C67.3,16.7 66.1,17.3 64.1,17.8 C60.9,18.5 56.9,20 54.1,25.5 Z M48.7,0.6 C55.7,2.8 53.2,19.3 53.1,17.6 C52.8,11.4 49.7,8.5 47.1,6.5 C45.5,5.3 44.6,4.2 45.2,2.6 C45.8,1 47.1,0.1 48.7,0.6 Z" id="å½¢çŠ¶ç»“åˆ" fill="url(#linearGradient-18)" fill-rule="nonzero"></path>
                            <g id="XMLID_321_" transform="translate(35.000000, 100.000000)" fill-rule="nonzero">
                                <g id="XMLID_323_" fill="#FFFFFF">
                                    <g id="XMLID_1386_">
                                        <g id="XMLID_1387_">
                                            <g id="XMLID_1388_">
                                                <g id="XMLID_1389_">
                                                    <path d="M0.1,0.3 L21.5,1.4 C16.6,6.3 13.6,12.6 13,19.5 C13,19.6 13,19.7 13,19.8 C13,20 13,20.1 12.9,20.3 C12.7,20.9 12.1,21.4 11.4,21.4 C10.6,21.4 10,20.8 9.9,20 C9.9,19.9 9.9,19.9 9.9,19.8 C9.9,19.8 9.9,19.8 9.9,19.8 C9.3,12.9 5,5.3 0.1,0.3 Z" id="XMLID_604_"></path>
                                                </g>
                                            </g>
                                        </g>
                                    </g>
                                </g>
                                <g id="XMLID_322_" transform="translate(6.000000, 0.000000)" fill="#000000">
                                    <g id="XMLID_1380_">
                                        <g id="XMLID_1381_">
                                            <g id="XMLID_1382_">
                                                <g id="XMLID_1383_">
                                                    <polygon id="XMLID_598_" points="0.7 0.9 9.6 1.5 7.5 3.8 8.1 13.8 5.5 15 2.7 13.8 3.4 3.7"></polygon>
                                                </g>
                                            </g>
                                        </g>
                                    </g>
                                </g>
                            </g>
                            <path d="M35.1,100.3 L56.5,101.4 C51.6,106.3 48.6,112.6 48,119.5 C48,119.6 48,119.7 48,119.8 C48,120 48,120.1 47.9,120.3 C47.7,120.9 47.1,121.4 46.4,121.4 C45.6,121.4 45,120.8 44.9,120 C44.9,119.9 44.9,119.9 44.9,119.8 C44.9,119.8 44.9,119.8 44.9,119.8 C44.3,112.9 40,105.3 35.1,100.3 Z" id="XMLID_604_" fill="#FFFFFF" fill-rule="nonzero"></path>
                            <polygon id="XMLID_598_" fill="#000000" fill-rule="nonzero" points="41.7 100.9 50.6 101.5 48.5 103.8 49.1 113.8 46.5 115 43.7 113.8 44.4 103.7"></polygon>
                            <g id="XMLID_279_" transform="translate(42.000000, 29.000000)" fill="#C8C8C8" fill-rule="nonzero">
                                <g id="XMLID_1365_">
                                    <g id="XMLID_1366_">
                                        <g id="XMLID_1371_">
                                            <g id="XMLID_1372_">
                                                <path d="M0.9,1.1 C1.1,1.1 1.3,1.1 1.6,1.1 C1.6,1.1 1.6,1.1 1.6,1.1 C1.3,1.1 1.1,1.1 0.9,1.1 Z" id="XMLID_592_"></path>
                                            </g>
                                        </g>
                                    </g>
                                </g>
                            </g>
                            <g id="XMLID_274_" transform="translate(62.000000, 31.000000)" fill="#72D0EB" fill-rule="nonzero">
                                <g id="XMLID_1334_">
                                    <g id="XMLID_1335_">
                                        <g id="XMLID_1340_">
                                            <g id="XMLID_1341_">
                                                <path d="M0.8,0.5 C6.7,1.4 12.2,3.5 16.8,6.7 C12.1,3.7 6.7,1.6 0.8,0.7 C0.9,0.6 0.9,0.5 0.8,0.5 Z" id="XMLID_580_"></path>
                                            </g>
                                        </g>
                                    </g>
                                </g>
                            </g>
                            <g id="XMLID_251_">
                                <g id="XMLID_273_" transform="translate(0.000000, 26.000000)">
                                    <g id="XMLID_1316_">
                                        <g id="XMLID_1317_">
                                            <g id="XMLID_1322_">
                                                <g id="XMLID_1323_"></g>
                                            </g>
                                        </g>
                                    </g>
                                </g>
                                <path d="M71.9744333,83.6 C72.1744333,83.6 72.3744333,83.5 72.5744333,83.4 C77.9744333,79.4 85.0744333,82.4 85.1744333,82.4 C85.5744333,82.6 86.0744333,82.5 86.2744333,82.2 C86.5744333,81.9 86.5744333,81.4 86.3744333,81 C81.1744333,71.5 72.7744333,71.1 72.3744333,71 C71.8744333,71 71.3744333,71.4 71.3744333,72 C71.3744333,72.6 71.7744333,73 72.3744333,73 C72.6744333,73 78.6744333,73.3 83.2744333,79.7 C80.3744333,79 75.4744333,78.7 71.3744333,81.7 C70.9744333,82 70.8744333,82.7 71.1744333,83.1 C71.2744333,83.5 71.5744333,83.6 71.9744333,83.6 Z" id="XMLID_413_" fill="#000000" fill-rule="nonzero" transform="translate(78.756911, 77.300000) scale(-1, 1) rotate(-7.000000) translate(-78.756911, -77.300000) "></path>
                                <g id="XMLID_265_" transform="translate(5.000000, 63.000000)" fill-rule="nonzero">
                                    <g id="XMLID_266_">
                                        <g id="XMLID_268_" fill="#FFFFFF">
                                            <g id="XMLID_1256_">
                                                <g id="XMLID_1257_">
                                                    <g id="XMLID_1262_">
                                                        <g id="XMLID_1263_">
                                                            <circle id="XMLID_561_" transform="translate(10.499536, 9.827766) rotate(-85.562505) translate(-10.499536, -9.827766) " cx="10.4995356" cy="9.82776623" r="9.0999787"></circle>
                                                        </g>
                                                    </g>
                                                </g>
                                            </g>
                                        </g>
                                        <g id="XMLID_267_" transform="translate(1.000000, 3.000000)" fill="#000000">
                                            <g id="XMLID_1250_">
                                                <g id="XMLID_1251_">
                                                    <g id="XMLID_1252_">
                                                        <g id="XMLID_1253_">
                                                            <path d="M9.5,7 L16.5,1 C18,2.8 18.8,5.1 18.6,7.5 C18.2,12.5 13.9,16.2 8.9,15.8 C3.9,15.4 0.2,11.1 0.6,6.1 C0.8,3.6 2,1.5 3.7,2.84217094e-14 L9.5,7 Z" id="XMLID_555_"></path>
                                                        </g>
                                                    </g>
                                                </g>
                                            </g>
                                        </g>
                                    </g>
                                </g>
                                <g id="XMLID_264_" transform="translate(54.000000, 11.000000)">
                                    <g id="XMLID_1242_">
                                        <g id="XMLID_1243_">
                                            <g id="XMLID_1244_">
                                                <g id="XMLID_1245_"></g>
                                            </g>
                                        </g>
                                    </g>
                                </g>
                                <g id="XMLID_263_" transform="translate(45.000000, 0.000000)">
                                    <g id="XMLID_1236_">
                                        <g id="XMLID_1237_">
                                            <g id="XMLID_1238_">
                                                <g id="XMLID_1239_"></g>
                                            </g>
                                        </g>
                                    </g>
                                </g>
                                <g id="XMLID_258_" opacity="0.798479353" transform="translate(14.000000, 33.000000)" fill="#FFFFFF" fill-rule="nonzero">
                                    <g id="XMLID_261_" transform="translate(0.000000, 4.000000)">
                                        <g id="XMLID_262_">
                                            <g id="XMLID_1230_">
                                                <g id="XMLID_1231_">
                                                    <g id="XMLID_1232_">
                                                        <g id="XMLID_1233_">
                                                            <path d="M2.8,13 C3.5,13.1 4.1,12.8 4.6,12.2 C7.2,9 10.5,6.2 14.2,4.3 C15.2,3.8 15.6,2.5 15.1,1.5 C14.6,0.5 13.3,0.1 12.3,0.6 C8,2.8 4.2,5.9 1.3,9.6 C0.6,10.5 0.8,11.8 1.6,12.5 C2.1,12.8 2.4,12.9 2.8,13 Z" id="XMLID_542_"></path>
                                                        </g>
                                                    </g>
                                                </g>
                                            </g>
                                        </g>
                                    </g>
                                    <g id="XMLID_259_" transform="translate(18.000000, 0.000000)">
                                        <g id="XMLID_260_">
                                            <g id="XMLID_1223_">
                                                <g id="XMLID_1224_">
                                                    <g id="XMLID_1225_">
                                                        <g id="XMLID_1226_">
                                                            <path d="M2.1,5.5 C2.3,5.5 2.5,5.5 2.8,5.4 C3.7,5.2 4.6,5 5.6,4.9 C6.7,4.7 7.5,3.7 7.3,2.6 C7.1,1.5 6.1,0.7 5,0.9 C3.9,1.1 2.9,1.3 1.8,1.5 C0.7,1.8 -2.77555756e-17,2.9 0.3,4 C0.5,4.9 1.3,5.5 2.1,5.5 Z" id="XMLID_541_"></path>
                                                        </g>
                                                    </g>
                                                </g>
                                            </g>
                                        </g>
                                    </g>
                                </g>
                                <g id="XMLID_252_" transform="translate(8.000000, 83.000000)" fill="#FFFFFF" fill-rule="nonzero">
                                    <g id="XMLID_257_" transform="translate(5.000000, 5.000000)">
                                        <g id="XMLID_1180_">
                                            <g id="XMLID_1186_">
                                                <g id="XMLID_1192_">
                                                    <g id="XMLID_1198_">
                                                        <path d="M67.2,5.2 L0.7,0 L20.1,5.7 C28.8,8.2 38,9 47.1,7.8 L67.2,5.2 Z" id="XMLID_535_"></path>
                                                    </g>
                                                </g>
                                            </g>
                                        </g>
                                    </g>
                                    <g id="XMLID_255_" transform="translate(70.000000, 6.000000)">
                                        <g id="XMLID_256_">
                                            <g id="XMLID_1144_">
                                                <g id="XMLID_1150_">
                                                    <g id="XMLID_1156_">
                                                        <g id="XMLID_1162_">
                                                            <circle id="XMLID_529_" transform="translate(3.751790, 3.817864) rotate(-85.557358) translate(-3.751790, -3.817864) " cx="3.7517905" cy="3.81786431" r="3.20001483"></circle>
                                                        </g>
                                                    </g>
                                                </g>
                                            </g>
                                        </g>
                                    </g>
                                    <g id="XMLID_253_">
                                        <g id="XMLID_254_">
                                            <g id="XMLID_1117_">
                                                <g id="XMLID_1123_">
                                                    <g id="XMLID_1124_">
                                                        <g id="XMLID_1125_">
                                                            <circle id="XMLID_528_" transform="translate(4.339366, 4.419308) rotate(-85.557423) translate(-4.339366, -4.419308) " cx="4.33936642" cy="4.41930822" r="3.20001455"></circle>
                                                        </g>
                                                    </g>
                                                </g>
                                            </g>
                                        </g>
                                    </g>
                                </g>
                            </g>
                        </g>
                    </g>
                </g>
            </g>
        </g>
    </g>
</svg>