<?xml version="1.0" encoding="UTF-8"?>
<svg width="400px" height="274px" viewBox="0 0 400 274" version="1.1" xmlns="http://www.w3.org/2000/svg" xmlns:xlink="http://www.w3.org/1999/xlink">
    <!-- Generator: Sketch 61.2 (89653) - https://sketch.com -->
    <title>empty_img_message</title>
    <desc>Created with Sketch.</desc>
    <defs>
        <linearGradient x1="100%" y1="100%" x2="100%" y2="0%" id="linearGradient-1">
            <stop stop-color="#D5D8E2" offset="0%"></stop>
            <stop stop-color="#F1F3F6" offset="100%"></stop>
        </linearGradient>
        <linearGradient x1="50%" y1="100%" x2="50%" y2="0%" id="linearGradient-2">
            <stop stop-color="#ECEDF3" offset="0%"></stop>
            <stop stop-color="#F8F9FB" offset="100%"></stop>
        </linearGradient>
        <linearGradient x1="50%" y1="-26.2343262%" x2="50%" y2="50%" id="linearGradient-3">
            <stop stop-color="#F0F1F4" offset="0%"></stop>
            <stop stop-color="#FFFFFF" offset="100%"></stop>
        </linearGradient>
        <ellipse id="path-4" cx="200" cy="39" rx="200" ry="39"></ellipse>
        <linearGradient x1="100%" y1="100%" x2="100%" y2="0%" id="linearGradient-6">
            <stop stop-color="#D5D8E2" offset="0%"></stop>
            <stop stop-color="#F1F3F6" offset="100%"></stop>
        </linearGradient>
        <linearGradient x1="50%" y1="100%" x2="50%" y2="0%" id="linearGradient-7">
            <stop stop-color="#D5D8E2" offset="0%"></stop>
            <stop stop-color="#F1F3F6" offset="100%"></stop>
        </linearGradient>
        <linearGradient x1="50%" y1="100%" x2="50%" y2="0%" id="linearGradient-8">
            <stop stop-color="#D5D8E2" offset="0%"></stop>
            <stop stop-color="#F1F3F6" offset="100%"></stop>
        </linearGradient>
        <linearGradient x1="62.2692893%" y1="66.4296957%" x2="50%" y2="4.07986111%" id="linearGradient-9">
            <stop stop-color="#D5D8E2" offset="0%"></stop>
            <stop stop-color="#F1F3F6" offset="100%"></stop>
        </linearGradient>
        <circle id="path-10" cx="28" cy="38" r="6"></circle>
        <filter x="-45.8%" y="-54.2%" width="208.3%" height="208.3%" filterUnits="objectBoundingBox" id="filter-11">
            <feOffset dx="1" dy="0" in="SourceAlpha" result="shadowOffsetOuter1"></feOffset>
            <feGaussianBlur stdDeviation="2" in="shadowOffsetOuter1" result="shadowBlurOuter1"></feGaussianBlur>
            <feComposite in="shadowBlurOuter1" in2="SourceAlpha" operator="out" result="shadowBlurOuter1"></feComposite>
            <feColorMatrix values="0 0 0 0 0   0 0 0 0 0   0 0 0 0 0  0 0 0 0.0796547203 0" type="matrix" in="shadowBlurOuter1"></feColorMatrix>
        </filter>
        <circle id="path-12" cx="48" cy="38" r="6"></circle>
        <filter x="-45.8%" y="-54.2%" width="208.3%" height="208.3%" filterUnits="objectBoundingBox" id="filter-13">
            <feOffset dx="1" dy="0" in="SourceAlpha" result="shadowOffsetOuter1"></feOffset>
            <feGaussianBlur stdDeviation="2" in="shadowOffsetOuter1" result="shadowBlurOuter1"></feGaussianBlur>
            <feComposite in="shadowBlurOuter1" in2="SourceAlpha" operator="out" result="shadowBlurOuter1"></feComposite>
            <feColorMatrix values="0 0 0 0 0   0 0 0 0 0   0 0 0 0 0  0 0 0 0.0796547203 0" type="matrix" in="shadowBlurOuter1"></feColorMatrix>
        </filter>
        <circle id="path-14" cx="68" cy="38" r="6"></circle>
        <filter x="-45.8%" y="-54.2%" width="208.3%" height="208.3%" filterUnits="objectBoundingBox" id="filter-15">
            <feOffset dx="1" dy="0" in="SourceAlpha" result="shadowOffsetOuter1"></feOffset>
            <feGaussianBlur stdDeviation="2" in="shadowOffsetOuter1" result="shadowBlurOuter1"></feGaussianBlur>
            <feComposite in="shadowBlurOuter1" in2="SourceAlpha" operator="out" result="shadowBlurOuter1"></feComposite>
            <feColorMatrix values="0 0 0 0 0   0 0 0 0 0   0 0 0 0 0  0 0 0 0.0796547203 0" type="matrix" in="shadowBlurOuter1"></feColorMatrix>
        </filter>
        <linearGradient x1="50%" y1="0%" x2="50%" y2="100%" id="linearGradient-16">
            <stop stop-color="#7DE2FF" offset="0%"></stop>
            <stop stop-color="#02A6FF" offset="100%"></stop>
        </linearGradient>
    </defs>
    <g id="ðŸ”ªåˆ‡å›¾" stroke="none" stroke-width="1" fill="none" fill-rule="evenodd">
        <g id="img" transform="translate(-178.000000, -2051.000000)">
            <g id="empty_img_message" transform="translate(178.000000, 2051.000000)">
                <g id="empty/img_message">
                    <g id="empty/img_order">
                        <rect id="çŸ©å½¢" fill="url(#linearGradient-1)" x="330" y="199.22186" width="2" height="17" rx="1"></rect>
                        <path d="M331,200 C338.801428,200 340,194.966329 340,188.756982 C340,182.547635 335.970563,176 331,176 C326.029437,176 322,182.547635 322,188.756982 C322,194.966329 323.198572,200 331,200 Z" id="æ¤­åœ†å½¢" fill="url(#linearGradient-2)"></path>
                        <g id="Group-7" transform="translate(0.000000, 196.000000)">
                            <g id="Oval-6-Copy-3-+-Oval-6-Copy-4-+-Oval-6-+-Oval-6-Copy-2-Mask">
                                <mask id="mask-5" fill="white">
                                    <use xlink:href="#path-4"></use>
                                </mask>
                                <use id="Mask" fill="url(#linearGradient-3)" xlink:href="#path-4"></use>
                                <ellipse id="XMLID_1705_" fill="#F6F6F6" fill-rule="nonzero" mask="url(#mask-5)" cx="263.3" cy="27.1" rx="18.3" ry="2.1"></ellipse>
                                <ellipse id="Oval-2" fill="#F6F6F6" mask="url(#mask-5)" transform="translate(151.272727, 15.140841) rotate(-180.000000) translate(-151.272727, -15.140841) " cx="151.272727" cy="15.1408412" rx="27.2727273" ry="4.14084117"></ellipse>
                                <ellipse id="æ¤­åœ†å½¢" fill="#F6F6F6" mask="url(#mask-5)" cx="69" cy="39.5" rx="5" ry="1.5"></ellipse>
                            </g>
                        </g>
                        <rect id="çŸ©å½¢" fill="url(#linearGradient-6)" x="68" y="218" width="2" height="18" rx="1"></rect>
                        <path d="M69,219 C80.2687288,219 82,211.612698 82,202.5 C82,193.387302 76.1797017,183.77814 69,183.77814 C61.8202983,183.77814 56,193.387302 56,202.5 C56,211.612698 57.7312712,219 69,219 Z" id="æ¤­åœ†å½¢" fill="url(#linearGradient-7)"></path>
                        <path d="M102.607843,45 C108.304923,45 113.056197,49.1039935 114.140313,54.5539973 C119.081365,54.8442884 123,58.9968223 123,64.0769231 C123,69.3448699 118.786209,73.6153846 113.588235,73.6153846 C112.631311,73.6153846 111.707741,73.4706516 110.837677,73.2016071 C109.133778,74.9299292 106.778428,76 104.176471,76 C101.719505,76 99.4824291,75.0458641 97.8063148,73.4832545 C96.2794663,74.5683236 94.4189946,75.2051282 92.4117647,75.2051282 C87.2137906,75.2051282 83,70.9346135 83,65.6666667 C83,60.9338227 86.4012187,57.0060697 90.861628,56.2569631 C91.2017537,49.9822704 96.330691,45 102.607843,45 Z" id="å½¢çŠ¶ç»“åˆ" fill="#F7F8FA"></path>
                        <g id="message" transform="translate(86.000000, 91.000000)">
                            <path d="M86.5,18 C105.001539,18 120,29.6438617 120,44.0072931 C120,58.3707244 105.001539,70.0145861 86.5,70.0145861 C85.3066507,70.0145861 84.1278751,69.9661448 82.9667579,69.8716567 C80.9102699,79.2319169 71.1019431,81.5142681 68.0295948,80.9092635 C70.9451417,78.1919664 72.4029152,73.7593723 72.4029152,67.6114812 C72.404929,67.6102937 72.4069425,67.6091065 72.4089558,67.6079197 C60.9472788,63.4772317 53,54.4627756 53,44.0072931 C53,29.6438617 67.9984609,18 86.5,18 Z" id="å½¢çŠ¶ç»“åˆ" fill="url(#linearGradient-8)" transform="translate(86.500000, 49.500000) scale(-1, 1) translate(-86.500000, -49.500000) "></path>
                            <path d="M48,0 C74.509668,0 96,17.0037343 96,37.9789036 C96,58.9540729 74.509668,75.9578073 48,75.9578073 C46.2902292,75.9578073 44.6013375,75.887076 42.937744,75.7491098 C39.9911841,89.4179532 25.9371673,92.7510045 21.5349419,91.8674947 C25.7124419,87.8993783 27.8011919,81.4263838 27.8011919,72.4485112 C27.8038767,72.4468977 27.8065612,72.4452846 27.8092453,72.4436719 C11.3873105,66.411385 0,53.2473375 0,37.9789036 C0,17.0037343 21.490332,0 48,0 Z" id="å½¢çŠ¶ç»“åˆ" fill="url(#linearGradient-9)"></path>
                            <g id="æ¤­åœ†å½¢">
                                <use fill="black" fill-opacity="1" filter="url(#filter-11)" xlink:href="#path-10"></use>
                                <use fill-opacity="0.7" fill="#FFFFFF" fill-rule="evenodd" xlink:href="#path-10"></use>
                            </g>
                            <g id="æ¤­åœ†å½¢">
                                <use fill="black" fill-opacity="1" filter="url(#filter-13)" xlink:href="#path-12"></use>
                                <use fill-opacity="0.7" fill="#FFFFFF" fill-rule="evenodd" xlink:href="#path-12"></use>
                            </g>
                            <g id="æ¤­åœ†å½¢">
                                <use fill="black" fill-opacity="1" filter="url(#filter-15)" xlink:href="#path-14"></use>
                                <use fill-opacity="0.7" fill="#FFFFFF" fill-rule="evenodd" xlink:href="#path-14"></use>
                            </g>
                        </g>
                    </g>
                    <g id="ç¼–ç»„-8" transform="translate(220.000000, 76.000000)">
                        <path d="M49.7,27 L57.2,27.6 C59.8,27.8 61.9,29.5 62.9,31.7 C82.6,34.7 97.3,51.5 97.8,71.4 C97.8,72.8 97.8,74.2 97.7,75.6 C97.6,77 97.4,78.4 97.2,79.7 L96.3,91.1 C95.7,98.4 89.8,103.9 82.7,104.2 L81,104.2 L81,104.2 L76.1,103.8 L72.4,103.5 L70.5130021,103.354458 C72.191425,104.738954 75.4425075,108.384537 73.7,114.9 C73.5,115.6 73.2,116.1 72.8,116.3 C72.2,116.6 72.3,116.1 71.5,114.8 C69.9,112.3 67,108.9 63.4,108.9 C57.8,109 50.6,123.2 53.1,131.8 C53.1,131.8 59.9,130.6 63.5,136.6 C63.9,137.2 63.4,138 62.7,137.9 C59.8,137.5 53.7,137.1 50.3,139.6 C47.1,141.9 45,145.2 44,147 C43.7,147.6 42.8,147.6 42.5,147 C41.6,145.1 40.5,141.2 43.2,136.4 C47.1,129.3 37.7,112.5 30.5,109.2 C30.5,109.2 28.1116236,110.95 21.6116236,110.85 C17.5885664,110.47661 13.7443625,107.862725 12.3393664,105.977182 C10.9343704,104.091639 13.2202334,103.8 15.3202334,103.8 C15.9202334,103.8 16.6876505,103.696173 18.1392391,103.5 C19.563446,103.307527 23.834709,102.530109 24.9398135,99.8563304 L13.8,99 C13.3,99 12.8,98.9 12.3,98.8 C5.2,97.5 0.2,91 0.7,83.7 L1.8,69.8 C1.8,69.2 1.8,68.7 1.9,68.1 C1.9,67.5 1.9,66.9 2,66.4 C4.5,45.4 22.5,29.8 43.5,30.1 C44.8,28 47.1,26.8 49.7,27 Z M54.1,25.5 C53.3,27 57.7,10.9 65,11.8 C66.7,12 67.5,13.3 67.4,15 C67.3,16.7 66.1,17.3 64.1,17.8 C60.9,18.5 56.9,20 54.1,25.5 Z M48.7,0.6 C55.7,2.8 53.2,19.3 53.1,17.6 C52.8,11.4 49.7,8.5 47.1,6.5 C45.5,5.3 44.6,4.2 45.2,2.6 C45.8,1 47.1,0.1 48.7,0.6 Z" id="å½¢çŠ¶ç»“åˆ" fill="url(#linearGradient-16)" fill-rule="nonzero"></path>
                        <g id="XMLID_321_" transform="translate(35.000000, 100.000000)" fill-rule="nonzero">
                            <g id="XMLID_323_" fill="#FFFFFF">
                                <g id="XMLID_1386_">
                                    <g id="XMLID_1387_">
                                        <g id="XMLID_1388_">
                                            <g id="XMLID_1389_">
                                                <path d="M0.1,0.3 L21.5,1.4 C16.6,6.3 13.6,12.6 13,19.5 C13,19.6 13,19.7 13,19.8 C13,20 13,20.1 12.9,20.3 C12.7,20.9 12.1,21.4 11.4,21.4 C10.6,21.4 10,20.8 9.9,20 C9.9,19.9 9.9,19.9 9.9,19.8 C9.9,19.8 9.9,19.8 9.9,19.8 C9.3,12.9 5,5.3 0.1,0.3 Z" id="XMLID_604_"></path>
                                            </g>
                                        </g>
                                    </g>
                                </g>
                            </g>
                            <g id="XMLID_322_" transform="translate(6.000000, 0.000000)" fill="#000000">
                                <g id="XMLID_1380_">
                                    <g id="XMLID_1381_">
                                        <g id="XMLID_1382_">
                                            <g id="XMLID_1383_">
                                                <polygon id="XMLID_598_" points="0.7 0.9 9.6 1.5 7.5 3.8 8.1 13.8 5.5 15 2.7 13.8 3.4 3.7"></polygon>
                                            </g>
                                        </g>
                                    </g>
                                </g>
                            </g>
                        </g>
                        <path d="M35.1,100.3 L56.5,101.4 C51.6,106.3 48.6,112.6 48,119.5 C48,119.6 48,119.7 48,119.8 C48,120 48,120.1 47.9,120.3 C47.7,120.9 47.1,121.4 46.4,121.4 C45.6,121.4 45,120.8 44.9,120 C44.9,119.9 44.9,119.9 44.9,119.8 C44.9,119.8 44.9,119.8 44.9,119.8 C44.3,112.9 40,105.3 35.1,100.3 Z" id="XMLID_604_" fill="#FFFFFF" fill-rule="nonzero"></path>
                        <polygon id="XMLID_598_" fill="#000000" fill-rule="nonzero" points="41.7 100.9 50.6 101.5 48.5 103.8 49.1 113.8 46.5 115 43.7 113.8 44.4 103.7"></polygon>
                        <g id="XMLID_279_" transform="translate(42.000000, 29.000000)" fill="#C8C8C8" fill-rule="nonzero">
                            <g id="XMLID_1365_">
                                <g id="XMLID_1366_">
                                    <g id="XMLID_1371_">
                                        <g id="XMLID_1372_">
                                            <path d="M0.9,1.1 C1.1,1.1 1.3,1.1 1.6,1.1 C1.6,1.1 1.6,1.1 1.6,1.1 C1.3,1.1 1.1,1.1 0.9,1.1 Z" id="XMLID_592_"></path>
                                        </g>
                                    </g>
                                </g>
                            </g>
                        </g>
                        <g id="XMLID_274_" transform="translate(62.000000, 31.000000)" fill="#72D0EB" fill-rule="nonzero">
                            <g id="XMLID_1334_">
                                <g id="XMLID_1335_">
                                    <g id="XMLID_1340_">
                                        <g id="XMLID_1341_">
                                            <path d="M0.8,0.5 C6.7,1.4 12.2,3.5 16.8,6.7 C12.1,3.7 6.7,1.6 0.8,0.7 C0.9,0.6 0.9,0.5 0.8,0.5 Z" id="XMLID_580_"></path>
                                        </g>
                                    </g>
                                </g>
                            </g>
                        </g>
                        <g id="XMLID_251_">
                            <g id="XMLID_273_" transform="translate(0.000000, 26.000000)">
                                <g id="XMLID_1316_">
                                    <g id="XMLID_1317_">
                                        <g id="XMLID_1322_">
                                            <g id="XMLID_1323_"></g>
                                        </g>
                                    </g>
                                </g>
                            </g>
                            <g id="XMLID_269_" transform="translate(73.000000, 68.000000)" fill-rule="nonzero">
                                <g id="XMLID_270_">
                                    <g id="XMLID_272_" fill="#FFFFFF">
                                        <g id="XMLID_1298_">
                                            <g id="XMLID_1299_">
                                                <g id="XMLID_1304_">
                                                    <g id="XMLID_1305_">
                                                        <circle id="XMLID_573_" transform="translate(9.936611, 10.031924) rotate(-85.562486) translate(-9.936611, -10.031924) " cx="9.93661145" cy="10.0319236" r="9.09997894"></circle>
                                                    </g>
                                                </g>
                                            </g>
                                        </g>
                                    </g>
                                    <g id="XMLID_271_" transform="translate(1.000000, 3.000000)" fill="#000000">
                                        <g id="XMLID_1280_">
                                            <g id="XMLID_1281_">
                                                <g id="XMLID_1286_">
                                                    <g id="XMLID_1287_">
                                                        <path d="M9,7.2 L16,1.2 C17.5,3 18.3,5.3 18.1,7.7 C17.7,12.7 13.4,16.4 8.4,16 C3.4,15.6 -0.3,11.3 0.1,6.3 C0.3,3.8 1.5,1.7 3.2,0.2 L9,7.2 Z" id="XMLID_567_"></path>
                                                    </g>
                                                </g>
                                            </g>
                                        </g>
                                    </g>
                                </g>
                            </g>
                            <g id="XMLID_265_" transform="translate(5.000000, 63.000000)" fill-rule="nonzero">
                                <g id="XMLID_266_">
                                    <g id="XMLID_268_" fill="#FFFFFF">
                                        <g id="XMLID_1256_">
                                            <g id="XMLID_1257_">
                                                <g id="XMLID_1262_">
                                                    <g id="XMLID_1263_">
                                                        <circle id="XMLID_561_" transform="translate(10.499536, 9.827766) rotate(-85.562505) translate(-10.499536, -9.827766) " cx="10.4995356" cy="9.82776623" r="9.0999787"></circle>
                                                    </g>
                                                </g>
                                            </g>
                                        </g>
                                    </g>
                                    <g id="XMLID_267_" transform="translate(1.000000, 3.000000)" fill="#000000">
                                        <g id="XMLID_1250_">
                                            <g id="XMLID_1251_">
                                                <g id="XMLID_1252_">
                                                    <g id="XMLID_1253_">
                                                        <path d="M9.5,7 L16.5,1 C18,2.8 18.8,5.1 18.6,7.5 C18.2,12.5 13.9,16.2 8.9,15.8 C3.9,15.4 0.2,11.1 0.6,6.1 C0.8,3.6 2,1.5 3.7,2.84217094e-14 L9.5,7 Z" id="XMLID_555_"></path>
                                                    </g>
                                                </g>
                                            </g>
                                        </g>
                                    </g>
                                </g>
                            </g>
                            <g id="XMLID_264_" transform="translate(54.000000, 11.000000)">
                                <g id="XMLID_1242_">
                                    <g id="XMLID_1243_">
                                        <g id="XMLID_1244_">
                                            <g id="XMLID_1245_"></g>
                                        </g>
                                    </g>
                                </g>
                            </g>
                            <g id="XMLID_263_" transform="translate(45.000000, 0.000000)">
                                <g id="XMLID_1236_">
                                    <g id="XMLID_1237_">
                                        <g id="XMLID_1238_">
                                            <g id="XMLID_1239_"></g>
                                        </g>
                                    </g>
                                </g>
                            </g>
                            <g id="XMLID_258_" opacity="0.798479353" transform="translate(14.000000, 33.000000)" fill="#FFFFFF" fill-rule="nonzero">
                                <g id="XMLID_261_" transform="translate(0.000000, 4.000000)">
                                    <g id="XMLID_262_">
                                        <g id="XMLID_1230_">
                                            <g id="XMLID_1231_">
                                                <g id="XMLID_1232_">
                                                    <g id="XMLID_1233_">
                                                        <path d="M2.8,13 C3.5,13.1 4.1,12.8 4.6,12.2 C7.2,9 10.5,6.2 14.2,4.3 C15.2,3.8 15.6,2.5 15.1,1.5 C14.6,0.5 13.3,0.1 12.3,0.6 C8,2.8 4.2,5.9 1.3,9.6 C0.6,10.5 0.8,11.8 1.6,12.5 C2.1,12.8 2.4,12.9 2.8,13 Z" id="XMLID_542_"></path>
                                                    </g>
                                                </g>
                                            </g>
                                        </g>
                                    </g>
                                </g>
                                <g id="XMLID_259_" transform="translate(18.000000, 0.000000)">
                                    <g id="XMLID_260_">
                                        <g id="XMLID_1223_">
                                            <g id="XMLID_1224_">
                                                <g id="XMLID_1225_">
                                                    <g id="XMLID_1226_">
                                                        <path d="M2.1,5.5 C2.3,5.5 2.5,5.5 2.8,5.4 C3.7,5.2 4.6,5 5.6,4.9 C6.7,4.7 7.5,3.7 7.3,2.6 C7.1,1.5 6.1,0.7 5,0.9 C3.9,1.1 2.9,1.3 1.8,1.5 C0.7,1.8 -2.77555756e-17,2.9 0.3,4 C0.5,4.9 1.3,5.5 2.1,5.5 Z" id="XMLID_541_"></path>
                                                    </g>
                                                </g>
                                            </g>
                                        </g>
                                    </g>
                                </g>
                            </g>
                            <g id="XMLID_252_" transform="translate(8.000000, 83.000000)" fill="#FFFFFF" fill-rule="nonzero">
                                <g id="XMLID_257_" transform="translate(5.000000, 5.000000)">
                                    <g id="XMLID_1180_">
                                        <g id="XMLID_1186_">
                                            <g id="XMLID_1192_">
                                                <g id="XMLID_1198_">
                                                    <path d="M67.2,5.2 L0.7,0 L20.1,5.7 C28.8,8.2 38,9 47.1,7.8 L67.2,5.2 Z" id="XMLID_535_"></path>
                                                </g>
                                            </g>
                                        </g>
                                    </g>
                                </g>
                                <g id="XMLID_255_" transform="translate(70.000000, 6.000000)">
                                    <g id="XMLID_256_">
                                        <g id="XMLID_1144_">
                                            <g id="XMLID_1150_">
                                                <g id="XMLID_1156_">
                                                    <g id="XMLID_1162_">
                                                        <circle id="XMLID_529_" transform="translate(3.751790, 3.817864) rotate(-85.557358) translate(-3.751790, -3.817864) " cx="3.7517905" cy="3.81786431" r="3.20001483"></circle>
                                                    </g>
                                                </g>
                                            </g>
                                        </g>
                                    </g>
                                </g>
                                <g id="XMLID_253_">
                                    <g id="XMLID_254_">
                                        <g id="XMLID_1117_">
                                            <g id="XMLID_1123_">
                                                <g id="XMLID_1124_">
                                                    <g id="XMLID_1125_">
                                                        <circle id="XMLID_528_" transform="translate(4.339366, 4.419308) rotate(-85.557423) translate(-4.339366, -4.419308) " cx="4.33936642" cy="4.41930822" r="3.20001455"></circle>
                                                    </g>
                                                </g>
                                            </g>
                                        </g>
                                    </g>
                                </g>
                            </g>
                        </g>
                    </g>
                </g>
            </g>
        </g>
    </g>
</svg>