<?xml version="1.0" encoding="UTF-8"?>
<svg width="400px" height="274px" viewBox="0 0 400 274" version="1.1" xmlns="http://www.w3.org/2000/svg" xmlns:xlink="http://www.w3.org/1999/xlink">
    <!-- Generator: Sketch 61.2 (89653) - https://sketch.com -->
    <title>empty_img_coupon</title>
    <desc>Created with Sketch.</desc>
    <defs>
        <linearGradient x1="100%" y1="100%" x2="100%" y2="0%" id="linearGradient-1">
            <stop stop-color="#D5D8E2" offset="0%"></stop>
            <stop stop-color="#F1F3F6" offset="100%"></stop>
        </linearGradient>
        <linearGradient x1="50%" y1="100%" x2="50%" y2="0%" id="linearGradient-2">
            <stop stop-color="#ECEDF3" offset="0%"></stop>
            <stop stop-color="#F8F9FB" offset="100%"></stop>
        </linearGradient>
        <linearGradient x1="50%" y1="-26.2343262%" x2="50%" y2="50%" id="linearGradient-3">
            <stop stop-color="#F0F1F4" offset="0%"></stop>
            <stop stop-color="#FFFFFF" offset="100%"></stop>
        </linearGradient>
        <ellipse id="path-4" cx="200" cy="39" rx="200" ry="39"></ellipse>
        <linearGradient x1="100%" y1="100%" x2="100%" y2="0%" id="linearGradient-6">
            <stop stop-color="#D5D8E2" offset="0%"></stop>
            <stop stop-color="#F1F3F6" offset="100%"></stop>
        </linearGradient>
        <linearGradient x1="50%" y1="100%" x2="50%" y2="0%" id="linearGradient-7">
            <stop stop-color="#D5D8E2" offset="0%"></stop>
            <stop stop-color="#F1F3F6" offset="100%"></stop>
        </linearGradient>
        <linearGradient x1="50%" y1="0%" x2="50%" y2="100%" id="linearGradient-8">
            <stop stop-color="#7DE2FF" offset="0%"></stop>
            <stop stop-color="#02A6FF" offset="100%"></stop>
        </linearGradient>
        <linearGradient x1="50%" y1="100%" x2="50%" y2="0%" id="linearGradient-9">
            <stop stop-color="#D5D8E2" offset="0%"></stop>
            <stop stop-color="#F1F3F6" offset="100%"></stop>
        </linearGradient>
        <rect id="path-10" x="18" y="60" width="52" height="4" rx="2"></rect>
        <filter x="-10.6%" y="-162.5%" width="125.0%" height="425.0%" filterUnits="objectBoundingBox" id="filter-11">
            <feOffset dx="1" dy="0" in="SourceAlpha" result="shadowOffsetOuter1"></feOffset>
            <feGaussianBlur stdDeviation="2" in="shadowOffsetOuter1" result="shadowBlurOuter1"></feGaussianBlur>
            <feComposite in="shadowBlurOuter1" in2="SourceAlpha" operator="out" result="shadowBlurOuter1"></feComposite>
            <feColorMatrix values="0 0 0 0 0   0 0 0 0 0   0 0 0 0 0  0 0 0 0.0796547203 0" type="matrix" in="shadowBlurOuter1"></feColorMatrix>
        </filter>
        <rect id="path-12" x="18" y="74" width="52" height="4" rx="2"></rect>
        <filter x="-10.6%" y="-162.5%" width="125.0%" height="425.0%" filterUnits="objectBoundingBox" id="filter-13">
            <feOffset dx="1" dy="0" in="SourceAlpha" result="shadowOffsetOuter1"></feOffset>
            <feGaussianBlur stdDeviation="2" in="shadowOffsetOuter1" result="shadowBlurOuter1"></feGaussianBlur>
            <feComposite in="shadowBlurOuter1" in2="SourceAlpha" operator="out" result="shadowBlurOuter1"></feComposite>
            <feColorMatrix values="0 0 0 0 0   0 0 0 0 0   0 0 0 0 0  0 0 0 0.0796547203 0" type="matrix" in="shadowBlurOuter1"></feColorMatrix>
        </filter>
    </defs>
    <g id="ðŸ”ªåˆ‡å›¾" stroke="none" stroke-width="1" fill="none" fill-rule="evenodd">
        <g id="img" transform="translate(-708.000000, -1601.000000)">
            <g id="empty_img_coupon" transform="translate(708.000000, 1601.000000)">
                <g id="empty/img_coupon">
                    <g>
                        <rect id="çŸ©å½¢" fill="url(#linearGradient-1)" x="330" y="199.22186" width="2" height="17" rx="1"></rect>
                        <path d="M331,200 C338.801428,200 340,194.966329 340,188.756982 C340,182.547635 335.970563,176 331,176 C326.029437,176 322,182.547635 322,188.756982 C322,194.966329 323.198572,200 331,200 Z" id="æ¤­åœ†å½¢" fill="url(#linearGradient-2)"></path>
                        <g id="Group-7" transform="translate(0.000000, 196.000000)">
                            <g id="Oval-6-Copy-3-+-Oval-6-Copy-4-+-Oval-6-+-Oval-6-Copy-2-Mask">
                                <mask id="mask-5" fill="white">
                                    <use xlink:href="#path-4"></use>
                                </mask>
                                <use id="Mask" fill="url(#linearGradient-3)" xlink:href="#path-4"></use>
                                <ellipse id="æ¤­åœ†å½¢" fill="#F6F6F6" mask="url(#mask-5)" cx="69" cy="39.5" rx="5" ry="1.5"></ellipse>
                            </g>
                            <g id="search" transform="translate(160.534889, 23.776127) scale(-1, 1) rotate(-255.000000) translate(-160.534889, -23.776127) translate(149.034889, -4.223873)" fill="#F6F6F6">
                                <ellipse id="Oval-2" transform="translate(11.784435, 27.652377) rotate(-285.000000) translate(-11.784435, -27.652377) " cx="11.7844347" cy="27.6523767" rx="27.2727273" ry="4.14084117"></ellipse>
                            </g>
                        </g>
                        <rect id="çŸ©å½¢" fill="url(#linearGradient-6)" x="68" y="218" width="2" height="18" rx="1"></rect>
                        <path d="M69,219 C80.2687288,219 82,211.612698 82,202.5 C82,193.387302 76.1797017,183.77814 69,183.77814 C61.8202983,183.77814 56,193.387302 56,202.5 C56,211.612698 57.7312712,219 69,219 Z" id="æ¤­åœ†å½¢" fill="url(#linearGradient-7)"></path>
                        <path d="M102.607843,45 C108.304923,45 113.056197,49.1039935 114.140313,54.5539973 C119.081365,54.8442884 123,58.9968223 123,64.0769231 C123,69.3448699 118.786209,73.6153846 113.588235,73.6153846 C112.631311,73.6153846 111.707741,73.4706516 110.837677,73.2016071 C109.133778,74.9299292 106.778428,76 104.176471,76 C101.719505,76 99.4824291,75.0458641 97.8063148,73.4832545 C96.2794663,74.5683236 94.4189946,75.2051282 92.4117647,75.2051282 C87.2137906,75.2051282 83,70.9346135 83,65.6666667 C83,60.9338227 86.4012187,57.0060697 90.861628,56.2569631 C91.2017537,49.9822704 96.330691,45 102.607843,45 Z" id="å½¢çŠ¶ç»“åˆ" fill="#F7F8FA"></path>
                        <g id="ç¼–ç»„-4" transform="translate(219.000000, 50.000000)">
                            <g id="XMLID_1700_" transform="translate(48.900000, 168.800000)" fill="#F6F6F6" fill-rule="nonzero">
                                <g id="XMLID_1701_">
                                    <g id="XMLID_1702_">
                                        <g id="XMLID_1703_">
                                            <g id="XMLID_1704_">
                                                <ellipse id="XMLID_1705_" cx="18.7" cy="2.6" rx="18.3" ry="2.1"></ellipse>
                                            </g>
                                        </g>
                                    </g>
                                </g>
                            </g>
                            <g id="XMLID_1694_" transform="translate(0.900000, 0.800000)" fill="url(#linearGradient-8)" fill-rule="nonzero">
                                <g id="XMLID_1695_">
                                    <g id="XMLID_1696_">
                                        <g id="XMLID_1697_">
                                            <g id="XMLID_1698_">
                                                <path d="M55.5,28.2 C58.3,28.2 60.7,29.8 61.9,32.1 C84.5,33.5 102.5,51.8 103.4,74.5 C103.4,75.1 103.4,75.7 103.5,76.3 L103.5,76.3 L103.5,93.1 C103.5,100.422046 98.3457912,106.541444 91.460986,108.03458 C95.365489,114.733647 92.3,120 92.3,120 C84.2,109.6 69.7,114 69.1,125.1 C68.5,136.2 76.9,141.7 76.9,141.7 C85.4,141.3 88.7,144 89.9,145.7 C90.3,146.2 90,147 89.3,147.1 C72.1,149.6 67.8,164.3 66.9,169.1 C66.7,169.8 65.9,170.1 65.4,169.6 C57.4,162.1 65,149.9 65,149.9 C58.8,122.5 17.3,116.6 17.3,116.6 L17.3,116.6 L17.3169184,116.58131 C10.9629564,116.258716 1.2,120.5 1.2,120.5 L1.2,120.5 L1.60840671,112.377572 C4.54469879,109.879817 7.32436129,108.269925 9.90037567,107.300126 C4.27393327,105.027303 0.3,99.5014577 0.3,93.1 L0.3,93.1 L0.3,80.8 C0.2,79.3 0.1,77.8 0.1,76.3 C0.1,74.8 0.2,73.3 0.3,71.8 C2.4,50.5 19.6,33.7 41,32.1 C42.2,29.8 44.6,28.2 47.4,28.2 L47.4,28.2 Z M50.9,26.3 C48.4,20.2 44.2,18.3 40.8,17.2 C38.7,16.5 37.5,15.8 37.5,13.9 C37.5,12.1 38.5,10.7 40.4,10.6 C48.3,10.4 51.6,28.1 50.9,26.3 Z M58.8,0.2 C60.6,-0.2 61.9,0.8 62.4,2.6 C62.9,4.4 61.8,5.4 60,6.6 C57,8.5 53.5,11.4 52.6,18 C52.4,19.8 51,1.9 58.8,0.2 Z" id="å½¢çŠ¶ç»“åˆ"></path>
                                            </g>
                                        </g>
                                    </g>
                                </g>
                            </g>
                            <g id="XMLID_1688_" transform="translate(23.900000, 32.800000)" fill="#72D0EB" fill-rule="nonzero">
                                <g id="XMLID_1689_">
                                    <g id="XMLID_1690_">
                                        <g id="XMLID_1691_">
                                            <g id="XMLID_1692_">
                                                <path d="M18,0 C11.6,0.4 5.6,2.3 0.3,5.3 C5.6,2.4 11.6,0.6 17.9,0.2 C17.9,0.1 18,0.1 18,0 Z" id="XMLID_1693_"></path>
                                            </g>
                                        </g>
                                    </g>
                                </g>
                            </g>
                            <g id="XMLID_1682_" transform="translate(61.900000, 31.800000)" fill="#C8C8C8" fill-rule="nonzero">
                                <g id="XMLID_1683_">
                                    <g id="XMLID_1684_">
                                        <g id="XMLID_1685_">
                                            <g id="XMLID_1686_">
                                                <path d="M1.5,1.2 C1.3,1.2 1,1.1 0.8,1.1 C0.8,1.1 0.8,1.1 0.8,1.1 C1.1,1.2 1.3,1.2 1.5,1.2 Z" id="XMLID_1687_"></path>
                                            </g>
                                        </g>
                                    </g>
                                </g>
                            </g>
                            <g id="XMLID_1676_" transform="translate(37.900000, 10.800000)">
                                <g id="XMLID_1677_">
                                    <g id="XMLID_1678_">
                                        <g id="XMLID_1679_">
                                            <g id="XMLID_1680_"></g>
                                        </g>
                                    </g>
                                </g>
                            </g>
                            <g id="XMLID_1670_" transform="translate(52.900000, 0.800000)">
                                <g id="XMLID_1671_">
                                    <g id="XMLID_1672_">
                                        <g id="XMLID_1673_">
                                            <g id="XMLID_1674_"></g>
                                        </g>
                                    </g>
                                </g>
                            </g>
                            <g id="XMLID_1655_" opacity="0.8" transform="translate(65.900000, 36.800000)" fill="#FFFFFF" fill-rule="nonzero">
                                <g id="XMLID_1663_" transform="translate(11.000000, 5.000000)">
                                    <g id="XMLID_1664_">
                                        <g id="XMLID_1665_">
                                            <g id="XMLID_1666_">
                                                <g id="XMLID_1667_">
                                                    <g id="XMLID_1668_">
                                                        <path d="M12.8,14.7 C12.1,14.7 11.4,14.4 11,13.7 C8.5,10 5.2,6.8 1.3,4.5 C0.3,3.9 -0.1,2.5 0.6,1.5 C1.2,0.5 2.6,0.1 3.6,0.8 C8,3.5 11.8,7.1 14.7,11.4 C15.4,12.4 15.1,13.8 14.1,14.5 C13.7,14.6 13.2,14.7 12.8,14.7 Z" id="XMLID_1669_"></path>
                                                    </g>
                                                </g>
                                            </g>
                                        </g>
                                    </g>
                                </g>
                                <g id="XMLID_1656_">
                                    <g id="XMLID_1657_">
                                        <g id="XMLID_1658_">
                                            <g id="XMLID_1659_">
                                                <g id="XMLID_1660_">
                                                    <g id="XMLID_1661_">
                                                        <path d="M6.2,6 C6,6 5.7,6 5.5,5.9 C4.5,5.6 3.6,5.3 2.6,5.1 C1.4,4.8 0.7,3.6 0.9,2.5 C1.2,1.3 2.4,0.6 3.5,0.8 C4.6,1.1 5.8,1.4 6.9,1.7 C8.1,2.1 8.7,3.3 8.3,4.5 C8,5.4 7.1,6 6.2,6 Z" id="XMLID_1662_"></path>
                                                    </g>
                                                </g>
                                            </g>
                                        </g>
                                    </g>
                                </g>
                            </g>
                            <g id="XMLID_1648_" transform="translate(12.900000, 93.800000)" fill="#FFFFFF" fill-rule="nonzero">
                                <g id="XMLID_1649_">
                                    <g id="XMLID_1650_">
                                        <g id="XMLID_1651_">
                                            <g id="XMLID_1652_">
                                                <g id="XMLID_1653_">
                                                    <circle id="XMLID_1654_" cx="3.5" cy="3.4" r="3.4"></circle>
                                                </g>
                                            </g>
                                        </g>
                                    </g>
                                </g>
                            </g>
                            <g id="XMLID_1641_" transform="translate(84.900000, 93.800000)" fill="#FFFFFF" fill-rule="nonzero">
                                <g id="XMLID_1642_">
                                    <g id="XMLID_1643_">
                                        <g id="XMLID_1644_">
                                            <g id="XMLID_1645_">
                                                <g id="XMLID_1646_">
                                                    <circle id="XMLID_1647_" cx="4.3" cy="3.4" r="3.4"></circle>
                                                </g>
                                            </g>
                                        </g>
                                    </g>
                                </g>
                            </g>
                            <g id="XMLID_1629_" transform="translate(6.900000, 72.800000)" fill="#231815" fill-rule="nonzero">
                                <g id="XMLID_1630_">
                                    <g id="XMLID_1631_">
                                        <g id="XMLID_1632_">
                                            <g id="XMLID_1633_">
                                                <path d="M9.5,0.5 C3.7,0.5 0.3,5.2 0.3,13.5 C0.3,14 0.3,14.5 0.4,15 C0.5,15.6 1,16.1 1.6,16.1 C1.6,16.1 1.7,16.1 1.7,16.1 C2.4,16 2.9,15.5 2.8,14.8 C2.8,14.4 2.7,13.9 2.7,13.5 C2.7,9.6 3.6,2.9 9.4,2.9 C15.3,2.9 16.1,9.5 16.1,13.5 C16.1,13.9 16.1,14.2 16.1,14.5 C16.1,15.2 16.6,15.7 17.2,15.8 C17.9,15.8 18.4,15.3 18.5,14.7 C18.5,14.3 18.5,13.9 18.5,13.5 C18.7,5.2 15.3,0.5 9.5,0.5 Z" id="XMLID_1634_"></path>
                                            </g>
                                        </g>
                                    </g>
                                </g>
                            </g>
                            <g id="XMLID_1623_" transform="translate(79.900000, 72.800000)" fill="#231815" fill-rule="nonzero">
                                <g id="XMLID_1624_">
                                    <g id="XMLID_1625_">
                                        <g id="XMLID_1626_">
                                            <g id="XMLID_1627_">
                                                <path d="M9.3,0.5 C3.5,0.5 0.1,5.2 0.1,13.5 C0.1,14 0.1,14.5 0.2,15 C0.3,15.6 0.8,16.1 1.4,16.1 C1.4,16.1 1.5,16.1 1.5,16.1 C2.2,16 2.7,15.5 2.6,14.8 C2.6,14.4 2.5,13.9 2.5,13.5 C2.5,9.6 3.4,2.9 9.2,2.9 C15.1,2.9 15.9,9.5 15.9,13.5 C15.9,13.9 15.9,14.2 15.9,14.5 C15.9,15.2 16.4,15.7 17,15.8 C17.7,15.8 18.2,15.3 18.3,14.7 C18.3,14.3 18.3,13.9 18.3,13.5 C18.5,5.2 15.1,0.5 9.3,0.5 Z" id="XMLID_1628_"></path>
                                            </g>
                                        </g>
                                    </g>
                                </g>
                            </g>
                            <g id="XMLID_149_" opacity="0.4" transform="translate(78.900000, 107.800000)" fill="#B7B7B7" fill-rule="nonzero">
                                <g id="XMLID_150_">
                                    <g id="XMLID_380_">
                                        <g id="XMLID_1588_">
                                            <g id="XMLID_1620_">
                                                <path d="M0.5,1.5 L1.4,1.5 C1.4,1.4 1.4,1.4 1.4,1.3 C1.2,1.3 0.9,1.4 0.5,1.5 Z" id="XMLID_1621_"></path>
                                            </g>
                                        </g>
                                    </g>
                                </g>
                            </g>
                            <g id="XMLID_93_" transform="translate(17.900000, 105.800000)">
                                <g id="XMLID_101_">
                                    <g id="XMLID_103_">
                                        <g id="XMLID_107_">
                                            <g id="XMLID_118_"></g>
                                        </g>
                                    </g>
                                </g>
                            </g>
                            <g id="XMLID_71_" transform="translate(1.900000, 105.800000)">
                                <g id="XMLID_72_">
                                    <g id="XMLID_74_">
                                        <g id="XMLID_80_">
                                            <g id="XMLID_83_">
                                                <g id="XMLID_85_"></g>
                                            </g>
                                        </g>
                                    </g>
                                </g>
                            </g>
                            <g id="XMLID_55_" transform="translate(40.900000, 107.800000)" fill-rule="nonzero">
                                <g id="XMLID_62_" fill="#FFFFFF">
                                    <g id="XMLID_66_">
                                        <g id="XMLID_67_">
                                            <g id="XMLID_68_">
                                                <g id="XMLID_69_">
                                                    <path d="M27.3,0.8 L0.1,0.8 C9.2,6.8 16.9,14.6 22.1,23.1 C22.1,23.2 22.2,23.3 22.2,23.4 C22.3,23.6 22.4,23.8 22.6,24 C23.2,24.8 24.2,25.3 25.1,25.3 C26.1,25.3 26.5,24.6 26.1,23.6 C26.1,23.5 26,23.4 26,23.4 C26,23.4 26,23.4 26,23.4 C22.5,14.8 24,6.1 27.3,0.8 Z" id="XMLID_70_"></path>
                                                </g>
                                            </g>
                                        </g>
                                    </g>
                                </g>
                                <g id="XMLID_56_" transform="translate(7.000000, 0.000000)" fill="#000000">
                                    <g id="XMLID_57_">
                                        <g id="XMLID_58_">
                                            <g id="XMLID_59_">
                                                <g id="XMLID_60_">
                                                    <polygon id="XMLID_61_" points="10.7 0.8 0.4 0.8 4.6 3.7 10.1 16 14.1 17.4 16.8 16 9.5 3.5"></polygon>
                                                </g>
                                            </g>
                                        </g>
                                    </g>
                                </g>
                            </g>
                            <path d="M50.1,102.5 C49.4,102.5 48.8,102.3 48.3,101.9 C47.2,101.1 46.6,99.6 46.9,98.2 C47,97.6 47.3,97.1 47.7,96.7 L47.9,96.5 L47.7,96.3 C47.3,95.9 47.1,95.5 46.9,95.1 C46.5,94.1 46.7,93.1 47.3,92.2 C47.8,91.4 48.8,91 49.9,91 C51.1,91 52.1,91.4 52.5,92.1 C52.7,92.5 52.7,92.9 52.3,93.2 C52.2,93.3 52,93.3 51.8,93.3 C51.5,93.3 51.3,93.2 51.1,93 C50.9,92.7 50.3,92.6 49.9,92.6 C49.3,92.6 48.8,92.8 48.6,93.1 C48.3,93.6 48.2,94.1 48.4,94.6 C48.6,95.2 49.1,95.6 49.8,95.9 C50.2,96 50.4,96.4 50.4,96.7 C50.4,97.1 50.1,97.4 49.7,97.4 C49,97.5 48.6,97.9 48.4,98.5 C48.2,99.3 48.5,100.2 49.1,100.6 C49.3,100.8 49.6,100.9 50,100.9 C50.6,100.9 51.2,100.6 51.7,100.3 C51.8,100.2 52,100.2 52.1,100.2 C52.4,100.2 52.6,100.3 52.8,100.6 C53,101 52.9,101.5 52.6,101.7 C51.8,102.2 50.9,102.5 50.1,102.5 Z" id="è·¯å¾„" fill="#231815" fill-rule="nonzero"></path>
                        </g>
                        <g id="ç¼–ç»„" transform="translate(175.000000, 155.000000) rotate(-12.000000) translate(-175.000000, -155.000000) translate(131.000000, 95.000000)">
                            <path d="M34,0 C34,5.5228475 38.4771525,10 44,10 C49.5228475,10 54,5.5228475 54,0 L76,0 C82.627417,-1.21743675e-15 88,5.372583 88,12 L88,30 L88,30 C85.2385763,30 83,32.2385763 83,35 C83,37.7614237 85.2385763,40 88,40 L88,108 C88,114.627417 82.627417,120 76,120 L54,120 L54,120 C54,114.477153 49.5228475,110 44,110 C38.4771525,110 34,114.477153 34,120 L12,120 C5.372583,120 8.11624501e-16,114.627417 0,108 L0,40 L0,40 C2.76142375,40 5,37.7614237 5,35 C5,32.2385763 2.76142375,30 0,30 L0,12 C-8.11624501e-16,5.372583 5.372583,1.21743675e-15 12,0 L34,0 L34,0 Z" id="å½¢çŠ¶ç»“åˆ" fill="url(#linearGradient-9)"></path>
                            <g id="çŸ©å½¢">
                                <use fill="black" fill-opacity="1" filter="url(#filter-11)" xlink:href="#path-10"></use>
                                <use fill-opacity="0.7" fill="#FFFFFF" fill-rule="evenodd" xlink:href="#path-10"></use>
                            </g>
                            <g id="çŸ©å½¢">
                                <use fill="black" fill-opacity="1" filter="url(#filter-13)" xlink:href="#path-12"></use>
                                <use fill-opacity="0.7" fill="#FFFFFF" fill-rule="evenodd" xlink:href="#path-12"></use>
                            </g>
                            <path d="M12,33 C13.1045695,33 14,33.8954305 14,35 C14,36.1045695 13.1045695,37 12,37 C10.8954305,37 10,36.1045695 10,35 C10,33.8954305 10.8954305,33 12,33 Z M20,33 C21.1045695,33 22,33.8954305 22,35 C22,36.1045695 21.1045695,37 20,37 C18.8954305,37 18,36.1045695 18,35 C18,33.8954305 18.8954305,33 20,33 Z M28,33 C29.1045695,33 30,33.8954305 30,35 C30,36.1045695 29.1045695,37 28,37 C26.8954305,37 26,36.1045695 26,35 C26,33.8954305 26.8954305,33 28,33 Z M36,33 C37.1045695,33 38,33.8954305 38,35 C38,36.1045695 37.1045695,37 36,37 C34.8954305,37 34,36.1045695 34,35 C34,33.8954305 34.8954305,33 36,33 Z M44,33 C45.1045695,33 46,33.8954305 46,35 C46,36.1045695 45.1045695,37 44,37 C42.8954305,37 42,36.1045695 42,35 C42,33.8954305 42.8954305,33 44,33 Z M52,33 C53.1045695,33 54,33.8954305 54,35 C54,36.1045695 53.1045695,37 52,37 C50.8954305,37 50,36.1045695 50,35 C50,33.8954305 50.8954305,33 52,33 Z M60,33 C61.1045695,33 62,33.8954305 62,35 C62,36.1045695 61.1045695,37 60,37 C58.8954305,37 58,36.1045695 58,35 C58,33.8954305 58.8954305,33 60,33 Z M68,33 C69.1045695,33 70,33.8954305 70,35 C70,36.1045695 69.1045695,37 68,37 C66.8954305,37 66,36.1045695 66,35 C66,33.8954305 66.8954305,33 68,33 Z M76,33 C77.1045695,33 78,33.8954305 78,35 C78,36.1045695 77.1045695,37 76,37 C74.8954305,37 74,36.1045695 74,35 C74,33.8954305 74.8954305,33 76,33 Z" id="å½¢çŠ¶ç»“åˆ" fill="#FFFFFF" opacity="0.510253906"></path>
                        </g>
                    </g>
                </g>
            </g>
        </g>
    </g>
</svg>