<?xml version="1.0" encoding="UTF-8"?>
<svg width="400px" height="274px" viewBox="0 0 400 274" version="1.1" xmlns="http://www.w3.org/2000/svg" xmlns:xlink="http://www.w3.org/1999/xlink">
    <!-- Generator: Sketch 61.2 (89653) - https://sketch.com -->
    <title>empty_img_jifen</title>
    <desc>Created with Sketch.</desc>
    <defs>
        <linearGradient x1="100%" y1="100%" x2="100%" y2="0%" id="linearGradient-1">
            <stop stop-color="#D5D8E2" offset="0%"></stop>
            <stop stop-color="#F1F3F6" offset="100%"></stop>
        </linearGradient>
        <linearGradient x1="50%" y1="100%" x2="50%" y2="0%" id="linearGradient-2">
            <stop stop-color="#ECEDF3" offset="0%"></stop>
            <stop stop-color="#F8F9FB" offset="100%"></stop>
        </linearGradient>
        <linearGradient x1="50%" y1="-26.2343262%" x2="50%" y2="50%" id="linearGradient-3">
            <stop stop-color="#F0F1F4" offset="0%"></stop>
            <stop stop-color="#FFFFFF" offset="100%"></stop>
        </linearGradient>
        <ellipse id="path-4" cx="200" cy="39" rx="200" ry="39"></ellipse>
        <linearGradient x1="100%" y1="100%" x2="100%" y2="0%" id="linearGradient-6">
            <stop stop-color="#D5D8E2" offset="0%"></stop>
            <stop stop-color="#F1F3F6" offset="100%"></stop>
        </linearGradient>
        <linearGradient x1="50%" y1="100%" x2="50%" y2="0%" id="linearGradient-7">
            <stop stop-color="#D5D8E2" offset="0%"></stop>
            <stop stop-color="#F1F3F6" offset="100%"></stop>
        </linearGradient>
        <linearGradient x1="52.9474902%" y1="100%" x2="50%" y2="0%" id="linearGradient-8">
            <stop stop-color="#D5D8E2" offset="0%"></stop>
            <stop stop-color="#F1F3F6" offset="100%"></stop>
        </linearGradient>
        <path d="M49.999938,91 C36.7295066,91 26,80.1429872 26,67.0000628 C26,53.8571384 36.7293826,43 49.999938,43 C63.2704934,43 74,53.8571384 74,67.0000628 C74,80.1428616 63.2704934,91 49.999938,91 Z" id="path-9"></path>
        <filter x="-11.5%" y="-13.5%" width="127.1%" height="127.1%" filterUnits="objectBoundingBox" id="filter-10">
            <feOffset dx="1" dy="0" in="SourceAlpha" result="shadowOffsetOuter1"></feOffset>
            <feGaussianBlur stdDeviation="2" in="shadowOffsetOuter1" result="shadowBlurOuter1"></feGaussianBlur>
            <feComposite in="shadowBlurOuter1" in2="SourceAlpha" operator="out" result="shadowBlurOuter1"></feComposite>
            <feColorMatrix values="0 0 0 0 0   0 0 0 0 0   0 0 0 0 0  0 0 0 0.0796547203 0" type="matrix" in="shadowBlurOuter1"></feColorMatrix>
        </filter>
        <path d="M42,59 C45.6810243,60.2570787 48.6919413,60.8856181 51.032751,60.8856181 C53.3735606,60.8856181 55.695977,60.2570787 58,59 C56.7429213,61.7104811 56.1143819,64.3920134 56.1143819,67.0445969 C56.1143819,69.6971804 56.7429213,72.3489814 58,75 C55.4146319,73.7429213 52.7755487,73.1143819 50.0827504,73.1143819 C47.3899522,73.1143819 44.695702,73.7429213 42,75 C43.2570787,72.4206675 43.8856181,69.7836321 43.8856181,67.0888939 C43.8856181,64.3941556 43.2570787,61.6978577 42,59 Z" id="path-11"></path>
        <filter x="-43.8%" y="-50.0%" width="200.0%" height="200.0%" filterUnits="objectBoundingBox" id="filter-12">
            <feOffset dx="1" dy="0" in="SourceAlpha" result="shadowOffsetOuter1"></feOffset>
            <feGaussianBlur stdDeviation="2.5" in="shadowOffsetOuter1" result="shadowBlurOuter1"></feGaussianBlur>
            <feComposite in="shadowBlurOuter1" in2="SourceAlpha" operator="out" result="shadowBlurOuter1"></feComposite>
            <feColorMatrix values="0 0 0 0 0   0 0 0 0 0   0 0 0 0 0  0 0 0 0.0796547203 0" type="matrix" in="shadowBlurOuter1"></feColorMatrix>
        </filter>
        <linearGradient x1="50%" y1="0%" x2="50%" y2="100%" id="linearGradient-13">
            <stop stop-color="#7DE2FF" offset="0%"></stop>
            <stop stop-color="#02A6FF" offset="100%"></stop>
        </linearGradient>
    </defs>
    <g id="ðŸ”ªåˆ‡å›¾" stroke="none" stroke-width="1" fill="none" fill-rule="evenodd">
        <g id="img" transform="translate(-1238.000000, -1601.000000)">
            <g id="empty_img_jifen" transform="translate(1238.000000, 1601.000000)">
                <g id="empty/img_jifen">
                    <g>
                        <rect id="çŸ©å½¢" fill="url(#linearGradient-1)" x="330" y="199.22186" width="2" height="17" rx="1"></rect>
                        <path d="M331,200 C338.801428,200 340,194.966329 340,188.756982 C340,182.547635 335.970563,176 331,176 C326.029437,176 322,182.547635 322,188.756982 C322,194.966329 323.198572,200 331,200 Z" id="æ¤­åœ†å½¢" fill="url(#linearGradient-2)"></path>
                        <g id="Group-7" transform="translate(0.000000, 196.000000)">
                            <g id="Oval-6-Copy-3-+-Oval-6-Copy-4-+-Oval-6-+-Oval-6-Copy-2-Mask">
                                <mask id="mask-5" fill="white">
                                    <use xlink:href="#path-4"></use>
                                </mask>
                                <use id="Mask" fill="url(#linearGradient-3)" xlink:href="#path-4"></use>
                                <ellipse id="XMLID_1705_" fill="#F6F6F6" fill-rule="nonzero" mask="url(#mask-5)" cx="263.3" cy="27.1" rx="18.3" ry="2.1"></ellipse>
                                <ellipse id="Oval-2" fill="#F6F6F6" mask="url(#mask-5)" transform="translate(151.272727, 15.140841) rotate(-180.000000) translate(-151.272727, -15.140841) " cx="151.272727" cy="15.1408412" rx="27.2727273" ry="4.14084117"></ellipse>
                                <ellipse id="æ¤­åœ†å½¢" fill="#F6F6F6" mask="url(#mask-5)" cx="69" cy="39.5" rx="5" ry="1.5"></ellipse>
                            </g>
                        </g>
                        <rect id="çŸ©å½¢" fill="url(#linearGradient-6)" x="68" y="218" width="2" height="18" rx="1"></rect>
                        <path d="M69,219 C80.2687288,219 82,211.612698 82,202.5 C82,193.387302 76.1797017,183.77814 69,183.77814 C61.8202983,183.77814 56,193.387302 56,202.5 C56,211.612698 57.7312712,219 69,219 Z" id="æ¤­åœ†å½¢" fill="url(#linearGradient-7)"></path>
                        <path d="M102.607843,55 C108.304923,55 113.056197,59.1039935 114.140313,64.5539973 C119.081365,64.8442884 123,68.9968223 123,74.0769231 C123,79.3448699 118.786209,83.6153846 113.588235,83.6153846 C112.631311,83.6153846 111.707741,83.4706516 110.837677,83.2016071 C109.133778,84.9299292 106.778428,86 104.176471,86 C101.719505,86 99.4824291,85.0458641 97.8063148,83.4832545 C96.2794663,84.5683236 94.4189946,85.2051282 92.4117647,85.2051282 C87.2137906,85.2051282 83,80.9346135 83,75.6666667 C83,70.9338227 86.4012187,67.0060697 90.861628,66.2569631 C91.2017537,59.9822704 96.330691,55 102.607843,55 Z" id="å½¢çŠ¶ç»“åˆ" fill="#F7F8FA"></path>
                        <g id="é’±è¢‹å­" transform="translate(100.000000, 112.000000)">
                            <path d="M49.8547929,30.5555556 C62.9243988,30.5555556 73.3800835,21.6049533 73.3800835,21.6049533 C73.3800835,21.6049533 84.7071179,10.8024089 78.8982907,6.17282444 C73.0894635,1.54324002 64.3766056,7.71606445 64.3766056,7.71606445 C64.3766056,7.71606445 57.6965564,0 49.8547929,0 C42.0130293,0 35.6234725,7.71606445 35.6234725,7.71606445 C35.6234725,7.71606445 26.9103594,1.54324002 21.1016598,6.17282444 C15.2929602,10.8024089 26.619867,21.6049533 26.619867,21.6049533 C26.6197393,21.6049533 36.7851869,30.5555556 49.8547929,30.5555556 Z M92.5260623,48.6714347 C83.3929357,30.8299728 71.1203204,30.5555556 71.1203204,30.5555556 C71.1203204,30.5555556 61.9871938,36.0452269 50.0000435,36.0452269 C38.0128933,36.0452269 29.1651063,30.5555556 29.1651063,30.5555556 C29.1651063,30.5555556 16.6071514,30.5555556 7.47402478,48.9459725 C-0.802831989,65.4149864 2.62212184,76.3944496 2.62212184,76.3944496 C2.62212184,76.3944496 -16.7857408,100 50.0000435,100 C116.785828,100 97.3778398,76.1199118 97.3778398,76.1199118 C97.3779652,76.1197911 101.088259,65.6894036 92.5260623,48.6714347 Z" id="å½¢çŠ¶" fill="url(#linearGradient-8)" fill-rule="nonzero"></path>
                            <g id="å½¢çŠ¶ç»“åˆ">
                                <use fill="black" fill-opacity="1" filter="url(#filter-10)" xlink:href="#path-9"></use>
                                <use fill-opacity="0.7" fill="#FFFFFF" fill-rule="evenodd" xlink:href="#path-9"></use>
                            </g>
                            <g id="çŸ©å½¢" transform="translate(50.000000, 67.000000) rotate(-315.000000) translate(-50.000000, -67.000000) ">
                                <use fill="black" fill-opacity="1" filter="url(#filter-12)" xlink:href="#path-11"></use>
                                <use fill-opacity="0.7" fill="#FFFFFF" fill-rule="evenodd" xlink:href="#path-11"></use>
                            </g>
                        </g>
                        <g id="ç¼–ç»„-5" transform="translate(212.000000, 70.000000)">
                            <g id="XMLID_236_" opacity="0.4" transform="translate(78.000000, 108.000000)" fill="#B7B7B7" fill-rule="nonzero">
                                <g id="XMLID_375_">
                                    <g id="XMLID_1362_">
                                        <g id="XMLID_1363_">
                                            <g id="XMLID_1364_">
                                                <path d="M0.6,0.9 L1.5,0.9 C1.5,0.8 1.5,0.8 1.5,0.7 C1.3,0.8 1,0.9 0.6,0.9 Z" id="XMLID_502_"></path>
                                            </g>
                                        </g>
                                    </g>
                                </g>
                            </g>
                            <g id="XMLID_232_">
                                <g id="XMLID_235_" fill-rule="nonzero">
                                    <g id="XMLID_1355_">
                                        <g id="XMLID_1356_">
                                            <g id="XMLID_1357_">
                                                <g id="XMLID_1358_">
                                                    <g id="ç¼–ç»„-2" transform="translate(0.000000, 0.066097)">
                                                        <path d="M55.5,28.5339034 C58.3,28.5339034 60.7,30.1339034 61.9,32.4339034 C84.5,33.8339034 102.6,52.1339034 103.5,74.9339034 C103.5,75.5339034 103.6,76.2339034 103.5,76.8339034 L103.5,76.8339034 L103.5,93.6339034 C103.5,99.5028665 100.188538,104.599155 95.3286901,107.159692 C95.4534752,107.344641 95.5772327,107.536543 95.7,107.733903 C96.1,108.433903 95.6,109.333903 94.8,109.233903 C92.4,109.033903 87.9,108.733903 82.9,109.133903 C79.2,109.433903 75.1,109.633903 71.6,111.333903 L71.7021975,111.176189 C62.2507587,116.22336 56.2436327,127.000113 57.4,134.433903 C57.4,137.133903 57.8,139.733903 58.6,142.233903 C62.6,144.233903 65.7,147.733903 67,152.133903 C67,152.133903 67,152.233903 67.1,152.233903 L67.1,152.233903 L67.1,152.433903 C67.1,152.933903 66.7,153.433903 66.1,153.433903 C65.9,153.433903 65.7,153.333903 65.5,153.233903 C65.44,153.233903 65.38,153.197903 65.3416,153.169103 L65.3,153.133903 C61.5,150.333903 56.8,148.733903 51.7,148.733903 C46.6,148.733903 41.9,150.333903 38,153.133903 C38,153.133903 37.975,153.158903 37.95,153.183903 L37.9,153.233903 C37.7,153.333903 37.5,153.433903 37.3,153.433903 C36.8,153.433903 36.3,153.033903 36.3,152.433903 L36.3,152.433903 L36.3,152.333903 C36.3,152.233903 36.4,152.133903 36.4,152.033903 C37.7,147.733903 40.8,144.133903 44.8,142.233903 C45.6,139.733903 46,137.133903 46,134.433903 C46,127.047764 41.0578841,116.78487 30.6034886,111.184056 L30.7,111.333903 C27.1,109.633903 23.1,109.433903 19.4,109.133903 C14.4,108.733903 9.9,109.033903 7.5,109.233903 C6.7,109.333903 6.2,108.433903 6.6,107.733903 C6.85209254,107.328641 7.10836001,106.946391 7.36827927,106.586098 C3.0624647,103.869165 0.2,99.0668904 0.2,93.6339034 L0.2,93.6339034 L0.2,81.2339034 C0.1,79.7339034 -3.48165941e-13,78.2339034 -3.48165941e-13,76.7339034 C-3.48165941e-13,75.2339034 0.1,73.7339034 0.2,72.2339034 C2.3,50.9339034 19.5,34.0339034 41,32.4339034 C42.2,30.1339034 44.6,28.5339034 47.4,28.5339034 L47.4,28.5339034 Z M50.9,26.6339034 C48.4,20.4339034 44.2,18.5339034 40.8,17.5339034 C38.7,16.8339034 37.4,16.1339034 37.4,14.2339034 C37.4,12.3339034 38.4,11.0339034 40.3,10.9339034 C48.3,10.7339034 51.6,28.3339034 50.9,26.6339034 Z M58.8,0.333903418 C60.6,-0.0660965824 61.9,0.933903418 62.4,2.73390342 C62.9,4.53390342 61.8,5.53390342 60,6.73390342 C57,8.73390342 53.5,11.6339034 52.6,18.2339034 C52.4,20.1339034 51,2.13390342 58.8,0.333903418 Z" id="å½¢çŠ¶ç»“åˆ" fill="url(#linearGradient-13)"></path>
                                                        <circle id="XMLID_791_" fill="#FFFFFF" cx="85.9" cy="80.8339034" r="9.9"></circle>
                                                        <path d="M85.9,80.9339034 L78.8,73.8339034 C77.1,75.6339034 76,78.0339034 76,80.7339034 C76,86.2339034 80.4,90.6339034 85.9,90.6339034 C91.4,90.6339034 95.8,86.2339034 95.8,80.7339034 C95.8,78.0339034 94.7,75.6339034 93,73.8339034 L85.9,80.9339034 Z" id="XMLID_785_" fill="#000000"></path>
                                                        <path d="M61.9,108.833903 L41.5,108.833903 C46.4,113.733903 49.4,120.133903 50.1,127.133903 C50.1,127.233903 50.1,127.333903 50.1,127.433903 C50.1,127.633903 50.1,127.733903 50.2,127.933903 C50.4,128.533903 51,129.033903 51.7,129.033903 C52.5,129.033903 53.1,128.433903 53.2,127.633903 C53.2,127.533903 53.2,127.533903 53.2,127.433903 C53.2,127.433903 53.2,127.433903 53.2,127.433903 C53.9,120.333903 56.9,113.833903 61.9,108.833903 Z" id="XMLID_500_" fill="#FFFFFF"></path>
                                                        <polygon id="XMLID_494_" fill="#000000" points="55.9 108.833903 47.5 108.833903 49.7 111.233903 49 121.333903 51.6 122.533903 54.5 121.333903 53.8 111.133903"></polygon>
                                                        <path d="M88.9,56.1339034 C88.2,56.1339034 87.5,55.8339034 87.1,55.1339034 C84.6,51.4339034 81.3,48.2339034 77.4,45.9339034 C76.4,45.3339034 76,43.9339034 76.7,42.9339034 C77.3,41.9339034 78.7,41.5339034 79.7,42.2339034 C84.1,44.9339034 88,48.5339034 90.8,52.8339034 C91.5,53.8339034 91.2,55.2339034 90.2,55.9339034 C89.8,55.9339034 89.3,56.1339034 88.9,56.1339034 Z" id="XMLID_435_" fill="#FFFFFF" opacity="0.797293527"></path>
                                                        <path d="M71.3,42.3339034 C71.1,42.3339034 70.8,42.3339034 70.6,42.2339034 C69.6,41.9339034 68.6,41.6339034 67.7,41.4339034 C66.5,41.1339034 65.8,39.9339034 66,38.7339034 C66.3,37.5339034 67.5,36.8339034 68.7,37.0339034 C69.8,37.3339034 71,37.6339034 72.1,37.9339034 C73.3,38.3339034 73.9,39.5339034 73.5,40.7339034 C73.1,41.8339034 72.2,42.3339034 71.3,42.3339034 Z" id="XMLID_428_" fill="#FFFFFF" opacity="0.797293527"></path>
                                                        <path d="M8.7,87.0339034 C8.9,87.0339034 9.1,86.9339034 9.3,86.8339034 C14.7,82.8339034 21.8,85.8339034 21.9,85.8339034 C22.3,86.0339034 22.8,85.9339034 23,85.6339034 C23.3,85.3339034 23.3,84.8339034 23.1,84.4339034 C17.9,74.9339034 9.5,74.5339034 9.1,74.4339034 C8.6,74.4339034 8.1,74.8339034 8.1,75.4339034 C8.1,76.0339034 8.5,76.4339034 9.1,76.4339034 C9.4,76.4339034 15.4,76.7339034 20,83.1339034 C17.1,82.4339034 12.2,82.1339034 8.1,85.1339034 C7.7,85.4339034 7.6,86.1339034 7.9,86.5339034 C8,86.9339034 8.3,87.0339034 8.7,87.0339034 Z" id="XMLID_413_" fill="#000000"></path>
                                                        <path d="M16.3,97.2339034 L87,97.2339034 L66,101.633903 C56.5,103.633903 46.8,103.633903 37.3,101.633903 L16.3,97.2339034 Z" id="XMLID_406_" fill="#FFFFFF"></path>
                                                        <circle id="XMLID_400_" fill="#FFFFFF" cx="15.5" cy="96.8339034" r="3.4"></circle>
                                                        <circle id="XMLID_393_" fill="#FFFFFF" cx="89.3" cy="96.8339034" r="3.4"></circle>
                                                    </g>
                                                </g>
                                            </g>
                                        </g>
                                    </g>
                                </g>
                                <g id="XMLID_234_" transform="translate(41.000000, 108.000000)">
                                    <g id="XMLID_1349_">
                                        <g id="XMLID_1350_">
                                            <g id="XMLID_1351_">
                                                <g id="XMLID_1352_"></g>
                                            </g>
                                        </g>
                                    </g>
                                </g>
                                <g id="XMLID_233_" transform="translate(47.000000, 108.000000)">
                                    <g id="XMLID_1343_">
                                        <g id="XMLID_1344_">
                                            <g id="XMLID_1345_">
                                                <g id="XMLID_1346_"></g>
                                            </g>
                                        </g>
                                    </g>
                                </g>
                            </g>
                            <g id="XMLID_152_" transform="translate(23.000000, 32.000000)" fill="#72D0EB" fill-rule="nonzero">
                                <g id="XMLID_1306_">
                                    <g id="XMLID_1307_">
                                        <g id="XMLID_1308_">
                                            <g id="XMLID_1309_">
                                                <path d="M18,0.3 C11.6,0.7 5.5,2.6 0.2,5.6 C5.5,2.7 11.5,0.9 17.9,0.4 C17.9,0.4 18,0.3 18,0.3 Z" id="XMLID_478_"></path>
                                            </g>
                                        </g>
                                    </g>
                                </g>
                            </g>
                            <g id="XMLID_151_" transform="translate(61.000000, 31.000000)" fill="#C8C8C8" fill-rule="nonzero">
                                <g id="XMLID_1300_">
                                    <g id="XMLID_1301_">
                                        <g id="XMLID_1302_">
                                            <g id="XMLID_1303_">
                                                <path d="M1.6,1.5 C1.4,1.5 1.1,1.4 0.9,1.4 C0.9,1.4 0.9,1.4 0.9,1.4 C1.1,1.4 1.3,1.4 1.6,1.5 Z" id="XMLID_472_"></path>
                                            </g>
                                        </g>
                                    </g>
                                </g>
                            </g>
                            <g id="XMLID_146_" transform="translate(6.000000, 101.000000)">
                                <g id="XMLID_1288_">
                                    <g id="XMLID_1289_">
                                        <g id="XMLID_1290_">
                                            <g id="XMLID_1291_"></g>
                                        </g>
                                    </g>
                                </g>
                            </g>
                            <g id="XMLID_145_" transform="translate(71.000000, 101.000000)">
                                <g id="XMLID_1282_">
                                    <g id="XMLID_1283_">
                                        <g id="XMLID_1284_">
                                            <g id="XMLID_1285_"></g>
                                        </g>
                                    </g>
                                </g>
                            </g>
                            <g id="XMLID_119_" transform="translate(5.000000, 101.000000)">
                                <g id="XMLID_120_">
                                    <g id="XMLID_121_">
                                        <g id="XMLID_1014_">
                                            <g id="XMLID_1034_">
                                                <g id="XMLID_1040_">
                                                    <g id="XMLID_1046_"></g>
                                                </g>
                                            </g>
                                        </g>
                                    </g>
                                </g>
                            </g>
                            <g id="XMLID_115_" transform="translate(60.000000, 101.000000)">
                                <g id="XMLID_116_">
                                    <g id="XMLID_117_">
                                        <g id="XMLID_896_">
                                            <g id="XMLID_897_">
                                                <g id="XMLID_918_">
                                                    <g id="XMLID_924_"></g>
                                                </g>
                                            </g>
                                        </g>
                                    </g>
                                </g>
                            </g>
                        </g>
                    </g>
                </g>
            </g>
        </g>
    </g>
</svg>