<?xml version="1.0" encoding="UTF-8"?>
<svg width="400px" height="274px" viewBox="0 0 400 274" version="1.1" xmlns="http://www.w3.org/2000/svg" xmlns:xlink="http://www.w3.org/1999/xlink">
    <!-- Generator: Sketch 61.2 (89653) - https://sketch.com -->
    <title>empty_img_site</title>
    <desc>Created with Sketch.</desc>
    <defs>
        <linearGradient x1="100%" y1="100%" x2="100%" y2="0%" id="linearGradient-1">
            <stop stop-color="#D5D8E2" offset="0%"></stop>
            <stop stop-color="#F1F3F6" offset="100%"></stop>
        </linearGradient>
        <linearGradient x1="50%" y1="100%" x2="50%" y2="0%" id="linearGradient-2">
            <stop stop-color="#ECEDF3" offset="0%"></stop>
            <stop stop-color="#F8F9FB" offset="100%"></stop>
        </linearGradient>
        <linearGradient x1="50%" y1="-26.2343262%" x2="50%" y2="50%" id="linearGradient-3">
            <stop stop-color="#F0F1F4" offset="0%"></stop>
            <stop stop-color="#FFFFFF" offset="100%"></stop>
        </linearGradient>
        <ellipse id="path-4" cx="200" cy="39" rx="200" ry="39"></ellipse>
        <linearGradient x1="100%" y1="100%" x2="100%" y2="0%" id="linearGradient-6">
            <stop stop-color="#D5D8E2" offset="0%"></stop>
            <stop stop-color="#F1F3F6" offset="100%"></stop>
        </linearGradient>
        <linearGradient x1="50%" y1="100%" x2="50%" y2="0%" id="linearGradient-7">
            <stop stop-color="#D5D8E2" offset="0%"></stop>
            <stop stop-color="#F1F3F6" offset="100%"></stop>
        </linearGradient>
        <linearGradient x1="50%" y1="103.805788%" x2="50%" y2="41.8084868%" id="linearGradient-8">
            <stop stop-color="#D5D8E2" offset="0%"></stop>
            <stop stop-color="#F1F3F6" offset="100%"></stop>
        </linearGradient>
        <linearGradient x1="50%" y1="100%" x2="50%" y2="0%" id="linearGradient-9">
            <stop stop-color="#D5D8E2" offset="0%"></stop>
            <stop stop-color="#F1F3F6" offset="100%"></stop>
        </linearGradient>
        <circle id="path-10" cx="58" cy="29" r="11"></circle>
        <filter x="-25.0%" y="-29.5%" width="159.1%" height="159.1%" filterUnits="objectBoundingBox" id="filter-11">
            <feOffset dx="1" dy="0" in="SourceAlpha" result="shadowOffsetOuter1"></feOffset>
            <feGaussianBlur stdDeviation="2" in="shadowOffsetOuter1" result="shadowBlurOuter1"></feGaussianBlur>
            <feComposite in="shadowBlurOuter1" in2="SourceAlpha" operator="out" result="shadowBlurOuter1"></feComposite>
            <feColorMatrix values="0 0 0 0 0   0 0 0 0 0   0 0 0 0 0  0 0 0 0.0796547203 0" type="matrix" in="shadowBlurOuter1"></feColorMatrix>
        </filter>
        <linearGradient x1="50%" y1="0%" x2="50%" y2="100%" id="linearGradient-12">
            <stop stop-color="#7DE2FF" offset="0%"></stop>
            <stop stop-color="#02A6FF" offset="100%"></stop>
        </linearGradient>
    </defs>
    <g id="ðŸ”ªåˆ‡å›¾" stroke="none" stroke-width="1" fill="none" fill-rule="evenodd">
        <g id="img" transform="translate(-1764.000000, -2051.000000)">
            <g id="empty_img_site" transform="translate(1764.000000, 2051.000000)">
                <g id="empty/img_site">
                    <g>
                        <rect id="çŸ©å½¢" fill="url(#linearGradient-1)" x="330" y="199.22186" width="2" height="17" rx="1"></rect>
                        <path d="M331,200 C338.801428,200 340,194.966329 340,188.756982 C340,182.547635 335.970563,176 331,176 C326.029437,176 322,182.547635 322,188.756982 C322,194.966329 323.198572,200 331,200 Z" id="æ¤­åœ†å½¢" fill="url(#linearGradient-2)"></path>
                        <g id="Group-7" transform="translate(0.000000, 196.000000)">
                            <g id="Oval-6-Copy-3-+-Oval-6-Copy-4-+-Oval-6-+-Oval-6-Copy-2-Mask">
                                <mask id="mask-5" fill="white">
                                    <use xlink:href="#path-4"></use>
                                </mask>
                                <use id="Mask" fill="url(#linearGradient-3)" xlink:href="#path-4"></use>
                                <ellipse id="Oval-2" fill="#F6F6F6" mask="url(#mask-5)" cx="258.272727" cy="37.1408412" rx="27.2727273" ry="4.14084117"></ellipse>
                                <ellipse id="XMLID_1705_" fill="#F6F6F6" fill-rule="nonzero" mask="url(#mask-5)" cx="126.6" cy="25.4" rx="18.3" ry="2.1"></ellipse>
                                <ellipse id="æ¤­åœ†å½¢" fill="#F6F6F6" mask="url(#mask-5)" cx="69" cy="39.5" rx="5" ry="1.5"></ellipse>
                            </g>
                        </g>
                        <rect id="çŸ©å½¢" fill="url(#linearGradient-6)" x="68" y="218" width="2" height="18" rx="1"></rect>
                        <path d="M69,219 C80.2687288,219 82,211.612698 82,202.5 C82,193.387302 76.1797017,183.77814 69,183.77814 C61.8202983,183.77814 56,193.387302 56,202.5 C56,211.612698 57.7312712,219 69,219 Z" id="æ¤­åœ†å½¢" fill="url(#linearGradient-7)"></path>
                        <path d="M314.607843,45 C320.304923,45 325.056197,49.1039935 326.140313,54.5539973 C331.081365,54.8442884 335,58.9968223 335,64.0769231 C335,69.3448699 330.786209,73.6153846 325.588235,73.6153846 C324.631311,73.6153846 323.707741,73.4706516 322.837677,73.2016071 C321.133778,74.9299292 318.778428,76 316.176471,76 C313.719505,76 311.482429,75.0458641 309.806315,73.4832545 C308.279466,74.5683236 306.418995,75.2051282 304.411765,75.2051282 C299.213791,75.2051282 295,70.9346135 295,65.6666667 C295,60.9338227 298.401219,57.0060697 302.861628,56.2569631 C303.201754,49.9822704 308.330691,45 314.607843,45 Z" id="å½¢çŠ¶ç»“åˆ" fill="#F7F8FA"></path>
                        <g id="ç¼–ç»„" transform="translate(195.000000, 118.000000)">
                            <path d="M95.54106,51.5 C98.976874,51.5 102.029002,53.6938456 103.123945,56.9505183 L114.483418,90.736828 C115.878544,94.8863296 113.679316,99.3865424 109.548284,100.835443 L69.702553,114.810766 C67.336366,115.640672 64.7179531,115.313137 62.6291004,113.925953 L39.7224653,98.7139089 C37.977483,97.5550854 35.8475979,97.126901 33.7903535,97.5213387 L12.7436029,101.556655 C8.4043621,102.388623 4.2122696,99.5454156 3.38030224,95.2061748 C3.14533533,93.9806724 3.20030116,92.717197 3.54080668,91.5167297 L13.2413701,57.3169651 C14.2176023,53.8752154 17.3602333,51.5 20.9377561,51.5 L29.6134641,51.4985881 C34.3111677,58.4457338 40.7305519,66.0704675 48.8716167,74.3727891 L49.4578246,74.9687695 C54.1124871,79.6864811 61.7102975,79.7375925 66.4280091,75.08293 L66.5421695,74.9687696 L66.5421695,74.9687696 C74.9618537,66.435038 81.5766421,58.6116447 86.3865349,51.4985896 L95.54106,51.5 Z" id="å½¢çŠ¶ç»“åˆ" fill="url(#linearGradient-8)"></path>
                            <path d="M59.388196,71.2511065 C77.7960653,53.5025137 87,39.4188115 87,29 C87,12.9837423 74.0162577,0 58,0 C41.9837423,0 29,12.9837423 29,29 C29,39.4188115 38.2039346,53.5025135 56.6118037,71.2511062 L56.6118034,71.2511065 C57.3865359,71.998092 58.6134636,71.998092 59.388196,71.2511065 Z" id="æ¤­åœ†å½¢" fill="url(#linearGradient-9)"></path>
                            <g id="æ¤­åœ†å½¢">
                                <use fill="black" fill-opacity="1" filter="url(#filter-11)" xlink:href="#path-10"></use>
                                <use fill-opacity="0.7" fill="#FFFFFF" fill-rule="evenodd" xlink:href="#path-10"></use>
                            </g>
                        </g>
                        <g id="é²¸é±¼" transform="translate(85.000000, 59.000000)">
                            <g id="XMLID_247_" fill="url(#linearGradient-12)" fill-rule="nonzero">
                                <g id="XMLID_2260_">
                                    <g id="XMLID_2261_">
                                        <g id="XMLID_2262_">
                                            <g id="XMLID_2263_">
                                                <path d="M57.1,28.8 C59.9,28.8 62.4,30.4 63.6,32.8 C86.6,34.2 105,52.8 105.9,75.9 C105.9,76.38 105.9,76.86 105.9512,77.34 L106,77.7 L106,94.9 C106,103 99.9,109.6 92.1,110.4 C91.6833333,110.483333 91.2666667,110.497222 90.7921296,110.499537 L70.2907012,110.499602 C69.0853441,111.316963 68.0159976,112.136698 67.0674739,112.94558 C70.0399191,113.261977 73.7972666,113.331594 78.1,112.7 C79.3,112.5 80.1,113.9 79.4,114.8 C76.6919485,118.320467 70.6430606,124.040997 59.4880376,123.944191 L59.7,123.8 C46.3,132.8 47.6,143.6 48,150.6 C48.3,155.5 44.9,159.7 42.9,161.8 C42.5,162.3 41.7,162 41.7,161.3 C41.9,158 41.7,151.1 36.4,146.8 C30.8,142.3 22.6,142.8 19.2,143.3 C18.5,143.3 18.1,142.6 18.5,142.1 C24.2,134.2 32.1,138.2 35.3,136.8 C38.6,135.3 41.7,131.4 40.2,122 C39.2395327,115.981071 36.2700707,112.340136 34.2581696,110.499635 L16.2578704,110.499537 C15.7,110.497222 15.2,110.483333 14.7,110.4 C7.11,109.512857 1.17177551,103.184571 1.00366093,95.3419268 L1,95 L1,82.4 C0.9,80.9 0.8,79.4 0.8,77.8 C0.8,76.2 0.8,74.7 1,73.2 C3.1,51.5 20.6,34.4 42.4,32.8 C43.56,30.48 45.8413333,28.9075556 48.6116926,28.8053037 L48.9,28.8 L57.1,28.8 Z M52.5,26.8 C49.9,20.5 45.7,18.6 42.2,17.5 C40.1,16.8 38.8,16.1 38.8,14.2 C38.8,12.3 39.9,11 41.7,10.9 C49.8,10.7 53.2,28.6 52.5,26.8 Z M64.1,2.6 C64.6,4.4 63.6,5.5 61.7,6.7 C58.7,8.6 55.1,11.6 54.2,18.3 C54,20.2 52.6,2 60.4,0.2 C62.2,-0.3 63.6,0.8 64.1,2.6 Z" id="å½¢çŠ¶ç»“åˆ"></path>
                                            </g>
                                        </g>
                                    </g>
                                </g>
                            </g>
                            <g id="XMLID_246_" transform="translate(55.000000, 111.000000)">
                                <g id="XMLID_2254_">
                                    <g id="XMLID_2255_">
                                        <g id="XMLID_2256_">
                                            <g id="XMLID_2257_"></g>
                                        </g>
                                    </g>
                                </g>
                            </g>
                            <g id="XMLID_211_" transform="translate(0.000000, 28.000000)">
                                <g id="XMLID_2175_">
                                    <g id="XMLID_2176_">
                                        <g id="XMLID_2177_">
                                            <g id="XMLID_2178_"></g>
                                        </g>
                                    </g>
                                </g>
                            </g>
                            <g id="XMLID_205_" transform="translate(24.000000, 32.000000)" fill="#72D0EB" fill-rule="nonzero">
                                <g id="XMLID_2169_">
                                    <g id="XMLID_2170_">
                                        <g id="XMLID_2171_">
                                            <g id="XMLID_2172_">
                                                <path d="M18.4,0.6 C11.9,1 5.7,2.9 0.4,6 C5.8,3.1 11.9,1.2 18.3,0.8 C18.3,0.7 18.4,0.7 18.4,0.6 Z" id="XMLID_798_"></path>
                                            </g>
                                        </g>
                                    </g>
                                </g>
                            </g>
                            <g id="XMLID_200_" transform="translate(6.000000, 71.000000)" fill-rule="nonzero">
                                <g id="XMLID_201_">
                                    <g id="XMLID_203_" fill="#FFFFFF">
                                        <g id="XMLID_2157_">
                                            <g id="XMLID_2158_">
                                                <g id="XMLID_2159_">
                                                    <g id="XMLID_2160_">
                                                        <circle id="XMLID_791_" cx="10.5" cy="10.8" r="9.9"></circle>
                                                    </g>
                                                </g>
                                            </g>
                                        </g>
                                    </g>
                                    <g id="XMLID_202_" transform="translate(0.000000, 3.000000)" fill="#000000">
                                        <g id="XMLID_2151_">
                                            <g id="XMLID_2152_">
                                                <g id="XMLID_2153_">
                                                    <g id="XMLID_2154_">
                                                        <path d="M10.5,7.9 L3.4,0.8 C1.7,2.6 0.6,5 0.6,7.7 C0.6,13.2 5,17.6 10.5,17.6 C16,17.6 20.4,13.2 20.4,7.7 C20.4,5 19.3,2.6 17.6,0.8 L10.5,7.9 Z" id="XMLID_785_"></path>
                                                    </g>
                                                </g>
                                            </g>
                                        </g>
                                    </g>
                                </g>
                            </g>
                            <g id="XMLID_196_" transform="translate(80.000000, 71.000000)" fill-rule="nonzero">
                                <g id="XMLID_197_">
                                    <g id="XMLID_199_" fill="#FFFFFF">
                                        <g id="XMLID_2143_">
                                            <g id="XMLID_2144_">
                                                <g id="XMLID_2145_">
                                                    <g id="XMLID_2146_">
                                                        <circle id="XMLID_779_" cx="10.6" cy="10.8" r="9.9"></circle>
                                                    </g>
                                                </g>
                                            </g>
                                        </g>
                                    </g>
                                    <g id="XMLID_198_" transform="translate(0.000000, 3.000000)" fill="#000000">
                                        <g id="XMLID_2137_">
                                            <g id="XMLID_2138_">
                                                <g id="XMLID_2139_">
                                                    <g id="XMLID_2140_">
                                                        <path d="M10.6,7.9 L3.5,0.8 C1.8,2.6 0.7,5 0.7,7.7 C0.7,13.2 5.1,17.6 10.6,17.6 C16.1,17.6 20.5,13.2 20.5,7.7 C20.5,5 19.4,2.6 17.7,0.8 L10.6,7.9 Z" id="XMLID_778_"></path>
                                                    </g>
                                                </g>
                                            </g>
                                        </g>
                                    </g>
                                </g>
                            </g>
                            <g id="XMLID_189_" transform="translate(38.000000, 10.000000)">
                                <g id="XMLID_2129_">
                                    <g id="XMLID_2130_">
                                        <g id="XMLID_2131_">
                                            <g id="XMLID_2132_"></g>
                                        </g>
                                    </g>
                                </g>
                            </g>
                            <g id="XMLID_188_" transform="translate(53.000000, 0.000000)">
                                <g id="XMLID_2123_">
                                    <g id="XMLID_2124_">
                                        <g id="XMLID_2125_">
                                            <g id="XMLID_2126_"></g>
                                        </g>
                                    </g>
                                </g>
                            </g>
                            <g id="XMLID_183_" opacity="0.8" transform="translate(67.000000, 37.000000)" fill="#FFFFFF" fill-rule="nonzero">
                                <g id="XMLID_186_" transform="translate(11.000000, 5.000000)">
                                    <g id="XMLID_187_">
                                        <g id="XMLID_2117_">
                                            <g id="XMLID_2118_">
                                                <g id="XMLID_2119_">
                                                    <g id="XMLID_2120_">
                                                        <path d="M13.1,14.7 C12.4,14.7 11.7,14.3 11.2,13.7 C8.7,9.9 5.3,6.7 1.4,4.3 C0.3,3.7 -2.27429187e-13,2.3 0.6,1.2 C1.2,0.1 2.6,-0.2 3.7,0.4 C8.2,3.1 12.1,6.8 15,11.1 C15.7,12.1 15.4,13.5 14.4,14.2 C13.9,14.6 13.5,14.7 13.1,14.7 Z" id="XMLID_760_"></path>
                                                    </g>
                                                </g>
                                            </g>
                                        </g>
                                    </g>
                                </g>
                                <g id="XMLID_184_">
                                    <g id="XMLID_185_">
                                        <g id="XMLID_2110_">
                                            <g id="XMLID_2111_">
                                                <g id="XMLID_2112_">
                                                    <g id="XMLID_2113_">
                                                        <path d="M6.2,5.8 C6,5.8 5.7,5.8 5.5,5.7 C4.5,5.4 3.5,5.1 2.5,4.9 C1.3,4.6 0.5,3.4 0.8,2.2 C1.1,1 2.3,0.2 3.5,0.5 C4.6,0.8 5.8,1.1 6.9,1.5 C8.1,1.9 8.7,3.2 8.3,4.3 C8,5.2 7.1,5.8 6.2,5.8 Z" id="XMLID_754_"></path>
                                                    </g>
                                                </g>
                                            </g>
                                        </g>
                                    </g>
                                </g>
                            </g>
                            <g id="XMLID_182_" transform="translate(16.000000, 96.000000)" fill="#000000" fill-rule="nonzero">
                                <g id="XMLID_2102_">
                                    <g id="XMLID_2103_">
                                        <g id="XMLID_2104_">
                                            <g id="XMLID_2105_">
                                                <path d="M19.5,7.2 C18,7.2 16.5,7.1 15.2,7 C12.5,6.7 10.4,5.6 8.6,4.6 C6.1,3.2 4,2.1 0.7,3 L0.2,1.3 C4.1,0.2 6.8,1.7 9.3,3.1 C11.1,4.1 12.9,5.1 15.2,5.3 C19,5.7 24,5.4 28.8,5.1 C31.7,4.9 34.5,4.7 36.9,4.7 L36.9,4.7 L37.3,4.7 C39.8,4.7 42.9,4.9 46.2,5 C51.2,5.3 56.4,5.6 60.2,5.3 C62.7,5.1 64.3,4.1 65.9,3.1 C68.1,1.7 70.3,0.3 74.1,1.3 L73.7,3 C70.6,2.2 68.9,3.3 66.8,4.6 C65.1,5.7 63.2,6.9 60.3,7.1 C56.5,7.4 51.2,7.1 46.1,6.8 C42.8,6.6 39.6,6.5 37.1,6.5 C34.7,6.5 31.9,6.7 28.9,6.9 C25.9,7 22.5,7.2 19.5,7.2 Z" id="XMLID_748_"></path>
                                            </g>
                                        </g>
                                    </g>
                                </g>
                            </g>
                            <g id="XMLID_180_" transform="translate(13.000000, 94.000000)" fill="#FFFFFF" fill-rule="nonzero">
                                <g id="XMLID_181_">
                                    <g id="XMLID_2096_">
                                        <g id="XMLID_2097_">
                                            <g id="XMLID_2098_">
                                                <g id="XMLID_2099_">
                                                    <circle id="XMLID_742_" cx="3.5" cy="4.1" r="3.4"></circle>
                                                </g>
                                            </g>
                                        </g>
                                    </g>
                                </g>
                            </g>
                            <g id="XMLID_178_" transform="translate(87.000000, 94.000000)" fill="#FFFFFF" fill-rule="nonzero">
                                <g id="XMLID_179_">
                                    <g id="XMLID_2089_">
                                        <g id="XMLID_2090_">
                                            <g id="XMLID_2091_">
                                                <g id="XMLID_2092_">
                                                    <circle id="XMLID_736_" cx="3.6" cy="4.1" r="3.4"></circle>
                                                </g>
                                            </g>
                                        </g>
                                    </g>
                                </g>
                            </g>
                        </g>
                        <path d="M131,230 C132.687206,239.826296 142.13564,245.653432 159.345304,247.481408 C185.1598,250.223373 200,227.796529 259.272727,234" id="è·¯å¾„-6" stroke="#D5D8E3" stroke-width="2" stroke-linecap="round" stroke-linejoin="round" stroke-dasharray="4,4"></path>
                        <circle id="æ¤­åœ†å½¢" stroke="#E5E8EE" stroke-width="2" fill="#FFFFFF" cx="131" cy="230" r="7"></circle>
                    </g>
                </g>
            </g>
        </g>
    </g>
</svg>