<?xml version="1.0" encoding="UTF-8"?>
<svg width="400px" height="274px" viewBox="0 0 400 274" version="1.1" xmlns="http://www.w3.org/2000/svg" xmlns:xlink="http://www.w3.org/1999/xlink">
    <!-- Generator: Sketch 61.2 (89653) - https://sketch.com -->
    <title>empty_img_search</title>
    <desc>Created with Sketch.</desc>
    <defs>
        <linearGradient x1="100%" y1="100%" x2="100%" y2="0%" id="linearGradient-1">
            <stop stop-color="#D5D8E2" offset="0%"></stop>
            <stop stop-color="#F1F3F6" offset="100%"></stop>
        </linearGradient>
        <linearGradient x1="50%" y1="100%" x2="50%" y2="0%" id="linearGradient-2">
            <stop stop-color="#ECEDF3" offset="0%"></stop>
            <stop stop-color="#F8F9FB" offset="100%"></stop>
        </linearGradient>
        <linearGradient x1="50%" y1="-26.2343262%" x2="50%" y2="50%" id="linearGradient-3">
            <stop stop-color="#F0F1F4" offset="0%"></stop>
            <stop stop-color="#FFFFFF" offset="100%"></stop>
        </linearGradient>
        <ellipse id="path-4" cx="200" cy="39" rx="200" ry="39"></ellipse>
        <linearGradient x1="100%" y1="100%" x2="100%" y2="0%" id="linearGradient-6">
            <stop stop-color="#D5D8E2" offset="0%"></stop>
            <stop stop-color="#F1F3F6" offset="100%"></stop>
        </linearGradient>
        <linearGradient x1="50%" y1="100%" x2="50%" y2="0%" id="linearGradient-7">
            <stop stop-color="#D5D8E2" offset="0%"></stop>
            <stop stop-color="#F1F3F6" offset="100%"></stop>
        </linearGradient>
        <linearGradient x1="100%" y1="50%" x2="3.65127808%" y2="50%" id="linearGradient-8">
            <stop stop-color="#D5D8E2" offset="0%"></stop>
            <stop stop-color="#F1F3F6" offset="100%"></stop>
        </linearGradient>
        <linearGradient x1="89.4968215%" y1="79.6988653%" x2="16.7324325%" y2="21.6643465%" id="linearGradient-9">
            <stop stop-color="#D5D8E2" offset="0%"></stop>
            <stop stop-color="#F1F3F6" offset="100%"></stop>
        </linearGradient>
        <linearGradient x1="83.6602476%" y1="55.9533609%" x2="2.9566581%" y2="36.5392972%" id="linearGradient-10">
            <stop stop-color="#D5D8E2" offset="0%"></stop>
            <stop stop-color="#EBEEF2" offset="100%"></stop>
        </linearGradient>
        <circle id="path-11" cx="60.1261915" cy="60.7968975" r="33.6954733"></circle>
        <filter x="-3.0%" y="-3.0%" width="105.9%" height="105.9%" filterUnits="objectBoundingBox" id="filter-12">
            <feGaussianBlur stdDeviation="2" in="SourceAlpha" result="shadowBlurInner1"></feGaussianBlur>
            <feOffset dx="0" dy="0" in="shadowBlurInner1" result="shadowOffsetInner1"></feOffset>
            <feComposite in="shadowOffsetInner1" in2="SourceAlpha" operator="arithmetic" k2="-1" k3="1" result="shadowInnerInner1"></feComposite>
            <feColorMatrix values="0 0 0 0 0   0 0 0 0 0   0 0 0 0 0  0 0 0 0.100743007 0" type="matrix" in="shadowInnerInner1"></feColorMatrix>
        </filter>
        <linearGradient x1="50%" y1="0%" x2="50%" y2="100%" id="linearGradient-13">
            <stop stop-color="#7DE2FF" offset="0%"></stop>
            <stop stop-color="#02A6FF" offset="100%"></stop>
        </linearGradient>
    </defs>
    <g id="ðŸ”ªåˆ‡å›¾" stroke="none" stroke-width="1" fill="none" fill-rule="evenodd">
        <g id="img" transform="translate(-1238.000000, -2051.000000)">
            <g id="empty_img_search" transform="translate(1238.000000, 2051.000000)">
                <g id="empty/img_search">
                    <g id="cutting/img_search_empty" stroke-width="1">
                        <g id="Group-7" transform="translate(0.000000, 49.000000)">
                            <g id="tree-small" transform="translate(322.000000, 127.000000)">
                                <rect id="çŸ©å½¢" fill="url(#linearGradient-1)" x="8" y="23.2218598" width="2" height="17" rx="1"></rect>
                                <path d="M9,24 C16.8014276,24 18,18.9663294 18,12.7569821 C18,6.5476348 13.9705627,0 9,0 C4.02943725,0 0,6.5476348 0,12.7569821 C0,18.9663294 1.1985724,24 9,24 Z" id="æ¤­åœ†å½¢" fill="url(#linearGradient-2)"></path>
                            </g>
                            <g id="Oval-6-Copy-3-+-Oval-6-Copy-4-+-Oval-6-+-Oval-6-Copy-2-Mask" transform="translate(0.000000, 147.000000)">
                                <mask id="mask-5" fill="white">
                                    <use xlink:href="#path-4"></use>
                                </mask>
                                <use id="Mask" fill="url(#linearGradient-3)" xlink:href="#path-4"></use>
                            </g>
                            <ellipse id="æ¤­åœ†å½¢" fill="#F6F6F6" cx="69" cy="186.5" rx="5" ry="1.5"></ellipse>
                            <g id="tree-big" transform="translate(56.000000, 134.000000)">
                                <rect id="çŸ©å½¢" fill="url(#linearGradient-6)" x="12" y="35" width="2" height="18" rx="1"></rect>
                                <path d="M13,36 C24.2687288,36 26,28.6126984 26,19.5 C26,10.3873016 20.1797017,0.778140161 13,0.778140161 C5.82029825,0.778140161 0,10.3873016 0,19.5 C0,28.6126984 1.73127125,36 13,36 Z" id="æ¤­åœ†å½¢" fill="url(#linearGradient-7)"></path>
                            </g>
                            <g id="search" transform="translate(137.802779, 95.597997) scale(-1, 1) rotate(-255.000000) translate(-137.802779, -95.597997) translate(55.802779, 35.097997)">
                                <ellipse id="Oval-2" fill="#F6F6F6" transform="translate(152.486190, 77.520735) rotate(-285.000000) translate(-152.486190, -77.520735) " cx="152.48619" cy="77.520735" rx="27.2727273" ry="4.14084117"></ellipse>
                                <path d="M99.7619034,67.7689055 L148.261746,67.9583973 C151.441054,67.970819 154.011825,70.5516532 154.011825,73.7309859 C154.011825,76.8943076 151.447446,79.4586865 148.284124,79.4586865 C148.276665,79.4586865 148.269205,79.4586719 148.261746,79.4586427 L99.7619034,79.269151 C96.5825949,79.2567292 94.0118245,76.6758951 94.0118245,73.4965624 C94.0118245,70.3332407 96.5762034,67.7688618 99.7395251,67.7688618 C99.7469845,67.7688618 99.754444,67.7688764 99.7619034,67.7689055 Z" id="Rectangle-7" fill="url(#linearGradient-8)" transform="translate(124.011825, 73.613774) rotate(10.000000) translate(-124.011825, -73.613774) "></path>
                                <path d="M60.1261915,15.3504275 C84.5292209,15.3504275 104.311785,35.6837011 104.311785,60.7660653 C104.311785,85.8484295 84.5292209,106.181703 60.1261915,106.181703 C35.7231621,106.181703 15.940598,85.8484295 15.940598,60.7660653 C15.940598,35.6837011 35.7231621,15.3504275 60.1261915,15.3504275 Z M60.1261915,27.9658824 C42.5017814,27.9658824 28.214374,42.6510245 28.214374,60.7660653 C28.214374,78.8811061 42.5017814,93.5662482 60.1261915,93.5662482 C77.7506016,93.5662482 92.038009,78.8811061 92.038009,60.7660653 C92.038009,42.6510245 77.7506016,27.9658824 60.1261915,27.9658824 Z" id="Combined-Shape" fill="url(#linearGradient-9)" transform="translate(60.126191, 60.766065) rotate(-25.000000) translate(-60.126191, -60.766065) "></path>
                                <g id="Oval-12">
                                    <use fill="url(#linearGradient-10)" fill-rule="evenodd" xlink:href="#path-11"></use>
                                    <use fill="black" fill-opacity="1" filter="url(#filter-12)" xlink:href="#path-11"></use>
                                </g>
                            </g>
                            <g id="é²¸é±¼" transform="translate(194.249264, 25.000000)">
                                <g id="XMLID_2013_" transform="translate(42.000000, 158.800000)">
                                    <g id="XMLID_2014_">
                                        <g id="XMLID_2015_">
                                            <g id="XMLID_2016_">
                                                <g id="XMLID_2017_"></g>
                                            </g>
                                        </g>
                                    </g>
                                </g>
                                <ellipse id="XMLID_2018_" fill="#F6F6F6" fill-rule="nonzero" cx="62" cy="161.5" rx="20" ry="2.3"></ellipse>
                                <g id="XMLID_2007_" opacity="0.4" transform="translate(81.000000, 111.800000)" fill="#B7B7B7" fill-rule="nonzero">
                                    <g id="XMLID_2008_">
                                        <g id="XMLID_2009_">
                                            <g id="XMLID_2010_">
                                                <g id="XMLID_2011_">
                                                    <path d="M0.3,1.2 L1.2,1.2 C1.2,1.1 1.2,1.1 1.2,1 C0.9,1.1 0.6,1.1 0.3,1.2 Z" id="XMLID_2012_"></path>
                                                </g>
                                            </g>
                                        </g>
                                    </g>
                                </g>
                                <g id="XMLID_2001_" transform="translate(24.000000, 111.800000)">
                                    <g id="XMLID_2002_">
                                        <g id="XMLID_2003_">
                                            <g id="XMLID_2004_">
                                                <g id="XMLID_2005_"></g>
                                            </g>
                                        </g>
                                    </g>
                                </g>
                                <path d="M57.6,30.6 C60.5,30.6 63,32.2 64.2,34.6 C87.168,35.986 105.43152,54.42574 106.764793,77.4023629 L106.8,78.1 L106.8,97.2 C106.8,105.3 100.7,112 92.8,112.8 C92.32,112.88 91.904,112.896 91.4496,112.8992 L91.1,112.9 L75.4490791,112.900093 C81.526141,114.927108 83.5286357,120.014285 83.5981144,120.195054 L83.6,120.2 L83.8,120.2 L83.8,120.3 L83.8196012,120.33603 C84.0298776,120.725796 85.8428571,124.168571 84.9,125.3 C83.9,126.5 83.6,125.4 82.9,124.9 C82.8395455,124.856818 82.7768533,124.801702 82.7128254,124.736843 L82.7,124.8 C78.3,121.4 70.1,122.8 70.1,122.8 C65,131.4 65.8,142.5 65.8,142.5 C73.7,142.7 76.4,146.4 77.2,148.5 C77.5,149.1 77,149.8 76.3,149.8 C63.2,149.1 57.2,156.9 55.2,160.3 C54.8,161 53.8,160.9 53.5,160.2 C51.4,154.9 55.1,146.7 54.9,142.1 C54.6,136.9 47,122.7 39.5,119.8 C38.3654244,119.361297 37.2377143,119.096518 36.1407567,118.963081 L36.1,119 C31.2056495,118.905878 27.3743759,120.317781 25.2732396,121.317912 C25.0040976,121.470124 24.84363,121.571939 24.8077185,121.595014 L24.8,121.6 L25.0123928,121.443885 L24.9,121.5 C24.3333333,121.783333 23.6774691,121.442284 23.6905864,120.81382 L23.7,120.7 C24.0116858,118.206513 25.2948522,114.802264 29.1107946,112.900163 L16.6,112.9 C15.9,112.9 15.3,112.9 14.7,112.8 C7.01142857,111.814286 1.07179592,105.387429 0.903661224,97.5419878 L0.9,97.2 L0.9,84.5 C0.8,83 0.7,81.5 0.7,79.9 C0.7,78.3 0.7,76.8 0.9,75.3 C3.1,53.5 20.7,36.2 42.7,34.6 C43.86,32.28 46.2347778,30.7075556 49.0113667,30.6053037 L49.3,30.6 L57.6,30.6 Z M52.9,28.7 C50.3,22.4 46,20.4 42.5,19.3 C40.4,18.6 39.1,17.9 39.1,16 C39.1,14.1 40.2,12.7 42.1,12.7 C50.2,12.4 53.6,30.5 52.9,28.7 Z M61,1.8 C62.8,1.4 64.2,2.5 64.7,4.3 C65.2,6.1 64.2,7.2 62.3,8.4 C59.2,10.4 55.6,13.3 54.7,20.1 C54.4,22 53,3.6 61,1.8 Z" id="å½¢çŠ¶ç»“åˆ" fill="url(#linearGradient-13)" fill-rule="nonzero"></path>
                                <g id="XMLID_1983_" transform="translate(53.000000, 112.800000)" fill="#000000" fill-rule="nonzero">
                                    <g id="XMLID_1984_">
                                        <g id="XMLID_1985_">
                                            <g id="XMLID_1986_">
                                                <g id="XMLID_1987_">
                                                    <polygon id="XMLID_1988_" points="9.4 0.2 0.6 0.2 2.9 2.7 2.2 13 4.9 14.2 7.9 13 7.2 2.5"></polygon>
                                                </g>
                                            </g>
                                        </g>
                                    </g>
                                </g>
                                <path d="M16.5,94.1959443 C22.0228475,94.1959443 26.5,89.7187918 26.5,84.1959443 C26.5,78.6730968 22.0228475,74.1959443 16.5,74.1959443 C10.9771525,74.1959443 6.5,78.6730968 6.5,84.1959443 C6.5,89.7187918 10.9771525,94.1959443 16.5,94.1959443 Z" id="XMLID_1964_" fill="#FFFFFF" fill-rule="nonzero"></path>
                                <g id="XMLID_1951_" transform="translate(6.000000, 73.800000)">
                                    <g id="XMLID_1952_">
                                        <g id="XMLID_1959_">
                                            <g id="XMLID_1960_">
                                                <g id="XMLID_1961_">
                                                    <g id="XMLID_1962_">
                                                        <g id="XMLID_1963_"></g>
                                                    </g>
                                                </g>
                                            </g>
                                        </g>
                                        <g id="XMLID_1953_" transform="translate(0.000000, 3.000000)" fill="#000000" fill-rule="nonzero">
                                            <g id="XMLID_1954_">
                                                <g id="XMLID_1955_">
                                                    <g id="XMLID_1956_">
                                                        <g id="XMLID_1957_">
                                                            <path d="M10.6,7.5 L3.4,0.3 C1.6,2.1 0.5,4.6 0.5,7.3 C0.5,12.8 5,17.3 10.5,17.3 C16,17.3 20.5,12.8 20.5,7.3 C20.5,4.6 19.4,2.1 17.6,0.3 L10.6,7.5 Z" id="XMLID_1958_"></path>
                                                        </g>
                                                    </g>
                                                </g>
                                            </g>
                                        </g>
                                    </g>
                                </g>
                                <g id="XMLID_1945_" transform="translate(39.000000, 11.800000)">
                                    <g id="XMLID_1946_">
                                        <g id="XMLID_1947_">
                                            <g id="XMLID_1948_">
                                                <g id="XMLID_1949_"></g>
                                            </g>
                                        </g>
                                    </g>
                                </g>
                                <g id="XMLID_1939_" transform="translate(54.000000, 0.800000)">
                                    <g id="XMLID_1940_">
                                        <g id="XMLID_1941_">
                                            <g id="XMLID_1942_">
                                                <g id="XMLID_1943_"></g>
                                            </g>
                                        </g>
                                    </g>
                                </g>
                                <g id="XMLID_1924_" opacity="0.8" transform="translate(68.000000, 38.800000)" fill="#FFFFFF" fill-rule="nonzero">
                                    <g id="XMLID_1932_" transform="translate(10.000000, 5.000000)">
                                        <g id="XMLID_1933_">
                                            <g id="XMLID_1934_">
                                                <g id="XMLID_1935_">
                                                    <g id="XMLID_1936_">
                                                        <g id="XMLID_1937_">
                                                            <path d="M13.8,15 C13.1,15 12.3,14.6 11.9,14 C9.4,10.2 5.9,6.9 2,4.5 C0.9,3.8 0.6,2.5 1.2,1.4 C1.9,0.3 3.2,0 4.3,0.6 C8.8,3.3 12.8,7.1 15.7,11.4 C16.4,12.4 16.1,13.9 15.1,14.6 C14.7,14.9 14.3,15 13.8,15 Z" id="XMLID_1938_"></path>
                                                        </g>
                                                    </g>
                                                </g>
                                            </g>
                                        </g>
                                    </g>
                                    <g id="XMLID_1925_">
                                        <g id="XMLID_1926_">
                                            <g id="XMLID_1927_">
                                                <g id="XMLID_1928_">
                                                    <g id="XMLID_1929_">
                                                        <g id="XMLID_1930_">
                                                            <path d="M5.8,6 C5.6,6 5.3,6 5.1,5.9 C4.1,5.6 3.1,5.3 2.1,5.1 C0.9,4.8 0.1,3.6 0.4,2.4 C0.7,1.2 1.9,0.4 3.1,0.7 C4.3,1 5.4,1.3 6.5,1.7 C7.7,2.1 8.3,3.4 7.9,4.6 C7.6,5.4 6.7,6 5.8,6 Z" id="XMLID_1931_"></path>
                                                        </g>
                                                    </g>
                                                </g>
                                            </g>
                                        </g>
                                    </g>
                                </g>
                                <g id="XMLID_1918_" transform="translate(16.000000, 98.800000)" fill="#000000" fill-rule="nonzero">
                                    <g id="XMLID_1919_">
                                        <g id="XMLID_1920_">
                                            <g id="XMLID_1921_">
                                                <g id="XMLID_1922_">
                                                    <path d="M19.8,7 C18.2,7 16.8,6.9 15.4,6.8 C12.7,6.5 10.6,5.4 8.7,4.3 C6.2,2.9 4.1,1.7 0.8,2.6 L0.3,0.9 C4.3,-0.2 6.9,1.3 9.5,2.7 C11.3,3.7 13.1,4.7 15.5,5 C19.3,5.4 24.4,5.1 29.3,4.8 C32.3,4.6 35,4.4 37.4,4.4 L37.4,4.4 L37.8,4.4 C40.3,4.4 43.4,4.6 46.7,4.8 C51.8,5.1 57,5.4 60.8,5.1 C63.3,4.9 65,3.9 66.6,2.9 C68.8,1.5 71,0.1 74.9,1.1 L74.5,2.8 C71.4,2 69.7,3.1 67.5,4.4 C65.8,5.5 63.8,6.7 60.9,6.9 C57,7.2 51.7,6.9 46.6,6.6 C43.2,6.4 40.1,6.2 37.6,6.2 C35.2,6.2 32.4,6.4 29.4,6.6 C26.2,6.7 22.8,7 19.8,7 Z" id="XMLID_1923_"></path>
                                                </g>
                                            </g>
                                        </g>
                                    </g>
                                </g>
                                <g id="XMLID_1891_" transform="translate(83.000000, 76.800000)" fill="#000000" fill-rule="nonzero">
                                    <g id="XMLID_1892_">
                                        <g id="XMLID_1893_">
                                            <g id="XMLID_1894_">
                                                <g id="XMLID_1895_">
                                                    <g id="XMLID_1896_">
                                                        <path d="M15.3,13.7 C15.1,13.7 14.9,13.6 14.7,13.5 C9.2,9.4 1.9,12.5 1.8,12.5 C1.4,12.7 0.9,12.6 0.6,12.2 C0.3,11.9 0.2,11.4 0.5,11 C5.8,1.2 14.5,0.8 14.8,0.8 C15.3,0.8 15.8,1.2 15.9,1.8 C15.9,2.4 15.5,2.8 14.9,2.9 C14.6,2.9 8.4,3.3 3.8,9.7 C6.8,9 11.8,8.6 16,11.8 C16.5,12.1 16.6,12.8 16.2,13.2 C15.9,13.6 15.6,13.7 15.3,13.7 Z" id="XMLID_1897_"></path>
                                                    </g>
                                                </g>
                                            </g>
                                        </g>
                                    </g>
                                </g>
                                <circle id="XMLID_1917_" fill="#FFFFFF" fill-rule="nonzero" cx="16.6" cy="100.6" r="3.5"></circle>
                                <circle id="XMLID_1910_" fill="#FFFFFF" fill-rule="nonzero" cx="91.3" cy="100.6" r="3.5"></circle>
                                <g id="XMLID_1995_" transform="translate(23.000000, 110.800000)">
                                    <g id="XMLID_1996_">
                                        <g id="XMLID_1997_">
                                            <g id="XMLID_1998_">
                                                <g id="XMLID_1999_"></g>
                                            </g>
                                        </g>
                                    </g>
                                </g>
                                <g id="XMLID_1989_" transform="translate(47.000000, 112.800000)">
                                    <g id="XMLID_1990_">
                                        <g id="XMLID_1991_">
                                            <g id="XMLID_1992_">
                                                <g id="XMLID_1993_"></g>
                                            </g>
                                        </g>
                                    </g>
                                </g>
                                <path d="M68.5,113 L47.5,113 C52.6,118.1 55.7,124.7 56.4,131.8 C56.4,131.9 56.4,132 56.4,132.1 C56.4,132.3 56.4,132.4 56.5,132.6 C56.7,133.3 57.3,133.7 58,133.7 C58.8,133.7 59.5,133.1 59.6,132.3 C59.6,132.2 59.6,132.2 59.6,132.1 C59.6,132.1 59.6,132.1 59.6,132.1 C60.2,124.8 63.4,118.1 68.5,113 Z" id="XMLID_1994_" fill="#FFFFFF" fill-rule="nonzero"></path>
                                <g id="XMLID_1971_" transform="translate(24.000000, 33.800000)" fill="#72D0EB" fill-rule="nonzero">
                                    <g id="XMLID_1972_">
                                        <g id="XMLID_1973_">
                                            <g id="XMLID_1974_">
                                                <g id="XMLID_1975_">
                                                    <path d="M18.8,0.7 C12.2,1.1 6,3.1 0.6,6.2 C6.1,3.3 12.2,1.4 18.7,0.9 C18.7,0.9 18.7,0.8 18.8,0.7 Z" id="XMLID_1976_"></path>
                                                </g>
                                            </g>
                                        </g>
                                    </g>
                                </g>
                                <g id="XMLID_1965_" transform="translate(63.000000, 33.800000)" fill="#C8C8C8" fill-rule="nonzero">
                                    <g id="XMLID_1966_">
                                        <g id="XMLID_1967_">
                                            <g id="XMLID_1968_">
                                                <g id="XMLID_1969_">
                                                    <path d="M1.8,0.9 C1.6,0.9 1.3,0.8 1.1,0.8 C1.1,0.8 1.1,0.8 1.1,0.8 C1.4,0.9 1.6,0.9 1.8,0.9 Z" id="XMLID_1970_"></path>
                                                </g>
                                            </g>
                                        </g>
                                    </g>
                                </g>
                                <g id="XMLID_1904_" transform="translate(87.000000, 96.800000)">
                                    <g id="XMLID_1905_">
                                        <g id="XMLID_1906_">
                                            <g id="XMLID_1907_">
                                                <g id="XMLID_1908_">
                                                    <g id="XMLID_1909_"></g>
                                                </g>
                                            </g>
                                        </g>
                                    </g>
                                </g>
                                <g id="XMLID_1883_" transform="translate(23.000000, 110.800000)">
                                    <g id="XMLID_1884_">
                                        <g id="XMLID_1885_">
                                            <g id="XMLID_1886_">
                                                <g id="XMLID_1887_">
                                                    <g id="XMLID_1888_"></g>
                                                </g>
                                            </g>
                                        </g>
                                    </g>
                                </g>
                            </g>
                        </g>
                    </g>
                    <path d="M314.607843,45 C320.304923,45 325.056197,49.1039935 326.140313,54.5539973 C331.081365,54.8442884 335,58.9968223 335,64.0769231 C335,69.3448699 330.786209,73.6153846 325.588235,73.6153846 C324.631311,73.6153846 323.707741,73.4706516 322.837677,73.2016071 C321.133778,74.9299292 318.778428,76 316.176471,76 C313.719505,76 311.482429,75.0458641 309.806315,73.4832545 C308.279466,74.5683236 306.418995,75.2051282 304.411765,75.2051282 C299.213791,75.2051282 295,70.9346135 295,65.6666667 C295,60.9338227 298.401219,57.0060697 302.861628,56.2569631 C303.201754,49.9822704 308.330691,45 314.607843,45 Z" id="å½¢çŠ¶ç»“åˆ" fill="#F7F8FA"></path>
                </g>
            </g>
        </g>
    </g>
</svg>