<?xml version="1.0" encoding="UTF-8"?>
<svg width="400px" height="274px" viewBox="0 0 400 274" version="1.1" xmlns="http://www.w3.org/2000/svg" xmlns:xlink="http://www.w3.org/1999/xlink">
    <!-- Generator: Sketch 61.2 (89653) - https://sketch.com -->
    <title>empty_img_failure</title>
    <desc>Created with Sketch.</desc>
    <defs>
        <linearGradient x1="100%" y1="100%" x2="100%" y2="0%" id="linearGradient-1">
            <stop stop-color="#D5D8E2" offset="0%"></stop>
            <stop stop-color="#F1F3F6" offset="100%"></stop>
        </linearGradient>
        <linearGradient x1="50%" y1="100%" x2="50%" y2="0%" id="linearGradient-2">
            <stop stop-color="#ECEDF3" offset="0%"></stop>
            <stop stop-color="#F8F9FB" offset="100%"></stop>
        </linearGradient>
        <linearGradient x1="50%" y1="-26.2343262%" x2="50%" y2="50%" id="linearGradient-3">
            <stop stop-color="#F0F1F4" offset="0%"></stop>
            <stop stop-color="#FFFFFF" offset="100%"></stop>
        </linearGradient>
        <ellipse id="path-4" cx="200" cy="39" rx="200" ry="39"></ellipse>
        <linearGradient x1="100%" y1="100%" x2="100%" y2="0%" id="linearGradient-6">
            <stop stop-color="#D5D8E2" offset="0%"></stop>
            <stop stop-color="#F1F3F6" offset="100%"></stop>
        </linearGradient>
        <linearGradient x1="50%" y1="100%" x2="50%" y2="0%" id="linearGradient-7">
            <stop stop-color="#D5D8E2" offset="0%"></stop>
            <stop stop-color="#F1F3F6" offset="100%"></stop>
        </linearGradient>
        <linearGradient x1="50%" y1="100%" x2="50%" y2="-15.6111405%" id="linearGradient-8">
            <stop stop-color="#D5D8E2" offset="0%"></stop>
            <stop stop-color="#F0F2F5" offset="100%"></stop>
            <stop stop-color="#F1F3F6" offset="100%"></stop>
        </linearGradient>
        <linearGradient x1="50%" y1="100%" x2="50%" y2="0%" id="linearGradient-9">
            <stop stop-color="#D5D8E2" offset="0%"></stop>
            <stop stop-color="#F1F3F6" offset="100%"></stop>
        </linearGradient>
        <circle id="path-10" cx="12" cy="12" r="4"></circle>
        <filter x="-87.5%" y="-100.0%" width="300.0%" height="300.0%" filterUnits="objectBoundingBox" id="filter-11">
            <feOffset dx="1" dy="0" in="SourceAlpha" result="shadowOffsetOuter1"></feOffset>
            <feGaussianBlur stdDeviation="2.5" in="shadowOffsetOuter1" result="shadowBlurOuter1"></feGaussianBlur>
            <feComposite in="shadowBlurOuter1" in2="SourceAlpha" operator="out" result="shadowBlurOuter1"></feComposite>
            <feColorMatrix values="0 0 0 0 0   0 0 0 0 0   0 0 0 0 0  0 0 0 0.0796547203 0" type="matrix" in="shadowBlurOuter1"></feColorMatrix>
        </filter>
        <circle id="path-12" cx="25" cy="12" r="4"></circle>
        <filter x="-87.5%" y="-100.0%" width="300.0%" height="300.0%" filterUnits="objectBoundingBox" id="filter-13">
            <feOffset dx="1" dy="0" in="SourceAlpha" result="shadowOffsetOuter1"></feOffset>
            <feGaussianBlur stdDeviation="2.5" in="shadowOffsetOuter1" result="shadowBlurOuter1"></feGaussianBlur>
            <feComposite in="shadowBlurOuter1" in2="SourceAlpha" operator="out" result="shadowBlurOuter1"></feComposite>
            <feColorMatrix values="0 0 0 0 0   0 0 0 0 0   0 0 0 0 0  0 0 0 0.0796547203 0" type="matrix" in="shadowBlurOuter1"></feColorMatrix>
        </filter>
        <circle id="path-14" cx="56" cy="59" r="20"></circle>
        <filter x="-21.2%" y="-23.8%" width="147.5%" height="147.5%" filterUnits="objectBoundingBox" id="filter-15">
            <feOffset dx="1" dy="0" in="SourceAlpha" result="shadowOffsetOuter1"></feOffset>
            <feGaussianBlur stdDeviation="3" in="shadowOffsetOuter1" result="shadowBlurOuter1"></feGaussianBlur>
            <feComposite in="shadowBlurOuter1" in2="SourceAlpha" operator="out" result="shadowBlurOuter1"></feComposite>
            <feColorMatrix values="0 0 0 0 0   0 0 0 0 0   0 0 0 0 0  0 0 0 0.0796547203 0" type="matrix" in="shadowBlurOuter1"></feColorMatrix>
        </filter>
        <rect id="path-16" x="54" y="46" width="4" height="26" rx="2"></rect>
        <filter x="-175.0%" y="-30.8%" width="500.0%" height="161.5%" filterUnits="objectBoundingBox" id="filter-17">
            <feOffset dx="1" dy="0" in="SourceAlpha" result="shadowOffsetOuter1"></feOffset>
            <feGaussianBlur stdDeviation="2.5" in="shadowOffsetOuter1" result="shadowBlurOuter1"></feGaussianBlur>
            <feComposite in="shadowBlurOuter1" in2="SourceAlpha" operator="out" result="shadowBlurOuter1"></feComposite>
            <feColorMatrix values="0 0 0 0 0   0 0 0 0 0   0 0 0 0 0  0 0 0 0.0796547203 0" type="matrix" in="shadowBlurOuter1"></feColorMatrix>
        </filter>
        <circle id="path-18" cx="38" cy="12" r="4"></circle>
        <filter x="-87.5%" y="-100.0%" width="300.0%" height="300.0%" filterUnits="objectBoundingBox" id="filter-19">
            <feOffset dx="1" dy="0" in="SourceAlpha" result="shadowOffsetOuter1"></feOffset>
            <feGaussianBlur stdDeviation="2.5" in="shadowOffsetOuter1" result="shadowBlurOuter1"></feGaussianBlur>
            <feComposite in="shadowBlurOuter1" in2="SourceAlpha" operator="out" result="shadowBlurOuter1"></feComposite>
            <feColorMatrix values="0 0 0 0 0   0 0 0 0 0   0 0 0 0 0  0 0 0 0.0796547203 0" type="matrix" in="shadowBlurOuter1"></feColorMatrix>
        </filter>
        <linearGradient x1="50%" y1="0%" x2="50%" y2="100%" id="linearGradient-20">
            <stop stop-color="#7DE2FF" offset="0%"></stop>
            <stop stop-color="#02A6FF" offset="100%"></stop>
        </linearGradient>
    </defs>
    <g id="ðŸ”ªåˆ‡å›¾" stroke="none" stroke-width="1" fill="none" fill-rule="evenodd">
        <g id="img" transform="translate(-1238.000000, -2495.000000)">
            <g id="empty_img_failure" transform="translate(1238.000000, 2495.000000)">
                <g id="empty/img_failure">
                    <g>
                        <rect id="çŸ©å½¢" fill="url(#linearGradient-1)" x="330" y="199.22186" width="2" height="17" rx="1"></rect>
                        <path d="M331,200 C338.801428,200 340,194.966329 340,188.756982 C340,182.547635 335.970563,176 331,176 C326.029437,176 322,182.547635 322,188.756982 C322,194.966329 323.198572,200 331,200 Z" id="æ¤­åœ†å½¢" fill="url(#linearGradient-2)"></path>
                        <g id="Group-7" transform="translate(0.000000, 196.000000)">
                            <g id="Oval-6-Copy-3-+-Oval-6-Copy-4-+-Oval-6-+-Oval-6-Copy-2-Mask">
                                <mask id="mask-5" fill="white">
                                    <use xlink:href="#path-4"></use>
                                </mask>
                                <use id="Mask" fill="url(#linearGradient-3)" xlink:href="#path-4"></use>
                                <ellipse id="Oval-2" fill="#F6F6F6" mask="url(#mask-5)" cx="256.272727" cy="13.1408412" rx="27.2727273" ry="4.14084117"></ellipse>
                                <ellipse id="XMLID_1705_" fill="#F6F6F6" fill-rule="nonzero" mask="url(#mask-5)" cx="126.6" cy="25.4" rx="18.3" ry="2.1"></ellipse>
                                <ellipse id="æ¤­åœ†å½¢" fill="#F6F6F6" mask="url(#mask-5)" cx="69" cy="39.5" rx="5" ry="1.5"></ellipse>
                            </g>
                        </g>
                        <rect id="çŸ©å½¢" fill="url(#linearGradient-6)" x="68" y="218" width="2" height="18" rx="1"></rect>
                        <path d="M69,219 C80.2687288,219 82,211.612698 82,202.5 C82,193.387302 76.1797017,183.77814 69,183.77814 C61.8202983,183.77814 56,193.387302 56,202.5 C56,211.612698 57.7312712,219 69,219 Z" id="æ¤­åœ†å½¢" fill="url(#linearGradient-7)"></path>
                        <path d="M314.607843,45 C320.304923,45 325.056197,49.1039935 326.140313,54.5539973 C331.081365,54.8442884 335,58.9968223 335,64.0769231 C335,69.3448699 330.786209,73.6153846 325.588235,73.6153846 C324.631311,73.6153846 323.707741,73.4706516 322.837677,73.2016071 C321.133778,74.9299292 318.778428,76 316.176471,76 C313.719505,76 311.482429,75.0458641 309.806315,73.4832545 C308.279466,74.5683236 306.418995,75.2051282 304.411765,75.2051282 C299.213791,75.2051282 295,70.9346135 295,65.6666667 C295,60.9338227 298.401219,57.0060697 302.861628,56.2569631 C303.201754,49.9822704 308.330691,45 314.607843,45 Z" id="å½¢çŠ¶ç»“åˆ" fill="#F7F8FA"></path>
                    </g>
                    <g id="page" transform="translate(200.000000, 112.000000)">
                        <path d="M8,0 L104,0 C108.418278,-8.11624501e-16 112,3.581722 112,8 L112,24 L112,24 L0,24 L0,8 C-5.41083001e-16,3.581722 3.581722,8.11624501e-16 8,0 Z" id="çŸ©å½¢" fill="url(#linearGradient-8)"></path>
                        <path d="M0,24 L112,24 L112,88 C112,92.418278 108.418278,96 104,96 L8,96 C3.581722,96 5.41083001e-16,92.418278 0,88 L0,24 L0,24 Z" id="çŸ©å½¢" fill="url(#linearGradient-9)"></path>
                        <g id="æ¤­åœ†å½¢">
                            <use fill="black" fill-opacity="1" filter="url(#filter-11)" xlink:href="#path-10"></use>
                            <use fill-opacity="0.7" fill="#FFFFFF" fill-rule="evenodd" xlink:href="#path-10"></use>
                        </g>
                        <g id="æ¤­åœ†å½¢">
                            <use fill="black" fill-opacity="1" filter="url(#filter-13)" xlink:href="#path-12"></use>
                            <use fill-opacity="0.7" fill="#FFFFFF" fill-rule="evenodd" xlink:href="#path-12"></use>
                        </g>
                        <g id="æ¤­åœ†å½¢">
                            <use fill="black" fill-opacity="1" filter="url(#filter-15)" xlink:href="#path-14"></use>
                            <use fill-opacity="0.7" fill="#FFFFFF" fill-rule="evenodd" xlink:href="#path-14"></use>
                        </g>
                        <g id="çŸ©å½¢" transform="translate(56.000000, 59.000000) rotate(-45.000000) translate(-56.000000, -59.000000) ">
                            <use fill="black" fill-opacity="1" filter="url(#filter-17)" xlink:href="#path-16"></use>
                            <use fill-opacity="0.7" fill="#FFFFFF" fill-rule="evenodd" xlink:href="#path-16"></use>
                        </g>
                        <g id="æ¤­åœ†å½¢">
                            <use fill="black" fill-opacity="1" filter="url(#filter-19)" xlink:href="#path-18"></use>
                            <use fill-opacity="0.7" fill="#FFFFFF" fill-rule="evenodd" xlink:href="#path-18"></use>
                        </g>
                    </g>
                    <g id="é²¸é±¼" transform="translate(85.000000, 59.000000)">
                        <g id="XMLID_247_" fill-rule="nonzero">
                            <g id="XMLID_2260_">
                                <g id="XMLID_2261_">
                                    <g id="XMLID_2262_">
                                        <g id="XMLID_2263_">
                                            <path d="M57.1,28.8 C59.9,28.8 62.4,30.4 63.6,32.8 C86.6,34.2 105,52.8 105.9,75.9 C105.9,76.38 105.9,76.86 105.9512,77.34 L106,77.7 L106,94.9 C106,103 99.9,109.6 92.1,110.4 C91.6833333,110.483333 91.2666667,110.497222 90.7921296,110.499537 L70.2907012,110.499602 C69.0853441,111.316963 68.0159976,112.136698 67.0674739,112.94558 C70.0399191,113.261977 73.7972666,113.331594 78.1,112.7 C79.3,112.5 80.1,113.9 79.4,114.8 C76.6919485,118.320467 70.6430606,124.040997 59.4880376,123.944191 L59.7,123.8 C46.3,132.8 47.6,143.6 48,150.6 C48.3,155.5 44.9,159.7 42.9,161.8 C42.5,162.3 41.7,162 41.7,161.3 C41.9,158 41.7,151.1 36.4,146.8 C30.8,142.3 22.6,142.8 19.2,143.3 C18.5,143.3 18.1,142.6 18.5,142.1 C24.2,134.2 32.1,138.2 35.3,136.8 C38.6,135.3 41.7,131.4 40.2,122 C39.2395327,115.981071 36.2700707,112.340136 34.2581696,110.499635 L16.2578704,110.499537 C15.7,110.497222 15.2,110.483333 14.7,110.4 C7.11,109.512857 1.17177551,103.184571 1.00366093,95.3419268 L1,95 L1,82.4 C0.9,80.9 0.8,79.4 0.8,77.8 C0.8,76.2 0.8,74.7 1,73.2 C3.1,51.5 20.6,34.4 42.4,32.8 C43.56,30.48 45.8413333,28.9075556 48.6116926,28.8053037 L48.9,28.8 L57.1,28.8 Z M52.5,26.8 C49.9,20.5 45.7,18.6 42.2,17.5 C40.1,16.8 38.8,16.1 38.8,14.2 C38.8,12.3 39.9,11 41.7,10.9 C49.8,10.7 53.2,28.6 52.5,26.8 Z M64.1,2.6 C64.6,4.4 63.6,5.5 61.7,6.7 C58.7,8.6 55.1,11.6 54.2,18.3 C54,20.2 52.6,2 60.4,0.2 C62.2,-0.3 63.6,0.8 64.1,2.6 Z" id="å½¢çŠ¶ç»“åˆ" fill="url(#linearGradient-20)"></path>
                                            <path d="M81.9744333,87.6 C82.1744333,87.6 82.3744333,87.5 82.5744333,87.4 C87.9744333,83.4 95.0744333,86.4 95.1744333,86.4 C95.5744333,86.6 96.0744333,86.5 96.2744333,86.2 C96.5744333,85.9 96.5744333,85.4 96.3744333,85 C91.1744333,75.5 82.7744333,75.1 82.3744333,75 C81.8744333,75 81.3744333,75.4 81.3744333,76 C81.3744333,76.6 81.7744333,77 82.3744333,77 C82.6744333,77 88.6744333,77.3 93.2744333,83.7 C90.3744333,83 85.4744333,82.7 81.3744333,85.7 C80.9744333,86 80.8744333,86.7 81.1744333,87.1 C81.2744333,87.5 81.5744333,87.6 81.9744333,87.6 Z" id="XMLID_413_" fill="#000000" transform="translate(88.756911, 81.300000) scale(-1, 1) translate(-88.756911, -81.300000) "></path>
                                            <path d="M19,99 L88.8,99 L68.1,103.3 C58.8,105.2 49.1,105.2 39.8,103.3 L19,99 Z" id="XMLID_650_" fill="#FFFFFF"></path>
                                        </g>
                                    </g>
                                </g>
                            </g>
                        </g>
                        <g id="XMLID_246_" transform="translate(55.000000, 111.000000)">
                            <g id="XMLID_2254_">
                                <g id="XMLID_2255_">
                                    <g id="XMLID_2256_">
                                        <g id="XMLID_2257_"></g>
                                    </g>
                                </g>
                            </g>
                        </g>
                        <g id="XMLID_205_" transform="translate(24.000000, 32.000000)" fill="#72D0EB" fill-rule="nonzero">
                            <g id="XMLID_2169_">
                                <g id="XMLID_2170_">
                                    <g id="XMLID_2171_">
                                        <g id="XMLID_2172_">
                                            <path d="M18.4,0.6 C11.9,1 5.7,2.9 0.4,6 C5.8,3.1 11.9,1.2 18.3,0.8 C18.3,0.7 18.4,0.7 18.4,0.6 Z" id="XMLID_798_"></path>
                                        </g>
                                    </g>
                                </g>
                            </g>
                        </g>
                        <g id="XMLID_200_" transform="translate(6.000000, 71.000000)" fill-rule="nonzero">
                            <g id="XMLID_201_">
                                <g id="XMLID_203_" fill="#FFFFFF">
                                    <g id="XMLID_2157_">
                                        <g id="XMLID_2158_">
                                            <g id="XMLID_2159_">
                                                <g id="XMLID_2160_">
                                                    <circle id="XMLID_791_" cx="10.5" cy="10.8" r="9.9"></circle>
                                                </g>
                                            </g>
                                        </g>
                                    </g>
                                </g>
                                <g id="XMLID_202_" transform="translate(0.000000, 3.000000)" fill="#000000">
                                    <g id="XMLID_2151_">
                                        <g id="XMLID_2152_">
                                            <g id="XMLID_2153_">
                                                <g id="XMLID_2154_">
                                                    <path d="M10.5,7.9 L3.4,0.8 C1.7,2.6 0.6,5 0.6,7.7 C0.6,13.2 5,17.6 10.5,17.6 C16,17.6 20.4,13.2 20.4,7.7 C20.4,5 19.3,2.6 17.6,0.8 L10.5,7.9 Z" id="XMLID_785_"></path>
                                                </g>
                                            </g>
                                        </g>
                                    </g>
                                </g>
                            </g>
                        </g>
                        <g id="XMLID_189_" transform="translate(38.000000, 10.000000)">
                            <g id="XMLID_2129_">
                                <g id="XMLID_2130_">
                                    <g id="XMLID_2131_">
                                        <g id="XMLID_2132_"></g>
                                    </g>
                                </g>
                            </g>
                        </g>
                        <g id="XMLID_188_" transform="translate(53.000000, 0.000000)">
                            <g id="XMLID_2123_">
                                <g id="XMLID_2124_">
                                    <g id="XMLID_2125_">
                                        <g id="XMLID_2126_"></g>
                                    </g>
                                </g>
                            </g>
                        </g>
                        <g id="XMLID_183_" opacity="0.8" transform="translate(67.000000, 37.000000)" fill="#FFFFFF" fill-rule="nonzero">
                            <g id="XMLID_186_" transform="translate(11.000000, 5.000000)">
                                <g id="XMLID_187_">
                                    <g id="XMLID_2117_">
                                        <g id="XMLID_2118_">
                                            <g id="XMLID_2119_">
                                                <g id="XMLID_2120_">
                                                    <path d="M13.1,14.7 C12.4,14.7 11.7,14.3 11.2,13.7 C8.7,9.9 5.3,6.7 1.4,4.3 C0.3,3.7 -2.27429187e-13,2.3 0.6,1.2 C1.2,0.1 2.6,-0.2 3.7,0.4 C8.2,3.1 12.1,6.8 15,11.1 C15.7,12.1 15.4,13.5 14.4,14.2 C13.9,14.6 13.5,14.7 13.1,14.7 Z" id="XMLID_760_"></path>
                                                </g>
                                            </g>
                                        </g>
                                    </g>
                                </g>
                            </g>
                            <g id="XMLID_184_">
                                <g id="XMLID_185_">
                                    <g id="XMLID_2110_">
                                        <g id="XMLID_2111_">
                                            <g id="XMLID_2112_">
                                                <g id="XMLID_2113_">
                                                    <path d="M6.2,5.8 C6,5.8 5.7,5.8 5.5,5.7 C4.5,5.4 3.5,5.1 2.5,4.9 C1.3,4.6 0.5,3.4 0.8,2.2 C1.1,1 2.3,0.2 3.5,0.5 C4.6,0.8 5.8,1.1 6.9,1.5 C8.1,1.9 8.7,3.2 8.3,4.3 C8,5.2 7.1,5.8 6.2,5.8 Z" id="XMLID_754_"></path>
                                                </g>
                                            </g>
                                        </g>
                                    </g>
                                </g>
                            </g>
                        </g>
                        <g id="XMLID_180_" transform="translate(13.000000, 94.000000)" fill="#FFFFFF" fill-rule="nonzero">
                            <g id="XMLID_181_">
                                <g id="XMLID_2096_">
                                    <g id="XMLID_2097_">
                                        <g id="XMLID_2098_">
                                            <g id="XMLID_2099_">
                                                <circle id="XMLID_742_" cx="3.5" cy="4.1" r="3.4"></circle>
                                            </g>
                                        </g>
                                    </g>
                                </g>
                            </g>
                        </g>
                        <g id="XMLID_178_" transform="translate(87.000000, 94.000000)" fill="#FFFFFF" fill-rule="nonzero">
                            <g id="XMLID_179_">
                                <g id="XMLID_2089_">
                                    <g id="XMLID_2090_">
                                        <g id="XMLID_2091_">
                                            <g id="XMLID_2092_">
                                                <circle id="XMLID_736_" cx="3.6" cy="4.1" r="3.4"></circle>
                                            </g>
                                        </g>
                                    </g>
                                </g>
                            </g>
                        </g>
                    </g>
                </g>
            </g>
        </g>
    </g>
</svg>