<?xml version="1.0" encoding="UTF-8"?>
<svg width="400px" height="274px" viewBox="0 0 400 274" version="1.1" xmlns="http://www.w3.org/2000/svg" xmlns:xlink="http://www.w3.org/1999/xlink">
    <!-- Generator: Sketch 61.2 (89653) - https://sketch.com -->
    <title>empty_img_cart</title>
    <desc>Created with Sketch.</desc>
    <defs>
        <linearGradient x1="100%" y1="100%" x2="100%" y2="0%" id="linearGradient-1">
            <stop stop-color="#D5D8E2" offset="0%"></stop>
            <stop stop-color="#F1F3F6" offset="100%"></stop>
        </linearGradient>
        <linearGradient x1="50%" y1="100%" x2="50%" y2="0%" id="linearGradient-2">
            <stop stop-color="#ECEDF3" offset="0%"></stop>
            <stop stop-color="#F8F9FB" offset="100%"></stop>
        </linearGradient>
        <linearGradient x1="50%" y1="-26.2343262%" x2="50%" y2="50%" id="linearGradient-3">
            <stop stop-color="#F0F1F4" offset="0%"></stop>
            <stop stop-color="#FFFFFF" offset="100%"></stop>
        </linearGradient>
        <ellipse id="path-4" cx="200" cy="39" rx="200" ry="39"></ellipse>
        <linearGradient x1="100%" y1="100%" x2="100%" y2="0%" id="linearGradient-6">
            <stop stop-color="#D5D8E2" offset="0%"></stop>
            <stop stop-color="#F1F3F6" offset="100%"></stop>
        </linearGradient>
        <linearGradient x1="50%" y1="100%" x2="50%" y2="0%" id="linearGradient-7">
            <stop stop-color="#D5D8E2" offset="0%"></stop>
            <stop stop-color="#F1F3F6" offset="100%"></stop>
        </linearGradient>
        <linearGradient x1="50%" y1="0%" x2="50%" y2="100%" id="linearGradient-8">
            <stop stop-color="#7DE2FF" offset="0%"></stop>
            <stop stop-color="#02A6FF" offset="100%"></stop>
        </linearGradient>
        <linearGradient x1="-19.6988188%" y1="26.6927845%" x2="70.2043072%" y2="51.8061712%" id="linearGradient-9">
            <stop stop-color="#7DE2FF" offset="0%"></stop>
            <stop stop-color="#21B5FF" offset="100%"></stop>
        </linearGradient>
        <linearGradient x1="28.0395914%" y1="100%" x2="28.0395914%" y2="-8.05504306%" id="linearGradient-10">
            <stop stop-color="#D5D8E2" offset="0%"></stop>
            <stop stop-color="#F1F3F6" offset="100%"></stop>
        </linearGradient>
        <linearGradient x1="100%" y1="50%" x2="3.65127808%" y2="50%" id="linearGradient-11">
            <stop stop-color="#D5D8E2" offset="0%"></stop>
            <stop stop-color="#F1F3F6" offset="100%"></stop>
        </linearGradient>
        <linearGradient x1="50%" y1="92.991972%" x2="50%" y2="8.10281917%" id="linearGradient-12">
            <stop stop-color="#D5D8E2" offset="0%"></stop>
            <stop stop-color="#F1F3F6" offset="100%"></stop>
        </linearGradient>
        <linearGradient x1="50%" y1="100%" x2="50%" y2="0%" id="linearGradient-13">
            <stop stop-color="#D5D8E2" offset="0%"></stop>
            <stop stop-color="#F1F3F6" offset="100%"></stop>
        </linearGradient>
        <path d="M0.810810811,13.0888031 C0.810810811,16.5637066 3.70656371,19.4594595 7.18146718,19.4594595 C10.6563707,19.4594595 13.5521236,16.5637066 13.5521236,13.0888031 C13.5521236,9.61389961 10.6563707,6.71814672 7.18146718,6.71814672 C3.70656371,6.71814672 0.810810811,9.61389961 0.810810811,13.0888031 Z" id="path-14"></path>
        <filter x="-54.9%" y="-62.8%" width="225.6%" height="225.6%" filterUnits="objectBoundingBox" id="filter-15">
            <feOffset dx="1" dy="0" in="SourceAlpha" result="shadowOffsetOuter1"></feOffset>
            <feGaussianBlur stdDeviation="2.5" in="shadowOffsetOuter1" result="shadowBlurOuter1"></feGaussianBlur>
            <feColorMatrix values="0 0 0 0 0   0 0 0 0 0   0 0 0 0 0  0 0 0 0.0796547203 0" type="matrix" in="shadowBlurOuter1"></feColorMatrix>
        </filter>
        <path d="M50.6177606,13.0888031 C50.6177606,16.5637066 53.5135135,19.4594595 56.988417,19.4594595 C60.4633205,19.4594595 63.3590734,16.5637066 63.3590734,13.0888031 C63.3590734,9.61389961 60.4633205,6.71814672 56.988417,6.71814672 C53.5135135,6.71814672 50.6177606,9.61389961 50.6177606,13.0888031 Z" id="path-16"></path>
        <filter x="-54.9%" y="-62.8%" width="225.6%" height="225.6%" filterUnits="objectBoundingBox" id="filter-17">
            <feOffset dx="1" dy="0" in="SourceAlpha" result="shadowOffsetOuter1"></feOffset>
            <feGaussianBlur stdDeviation="2.5" in="shadowOffsetOuter1" result="shadowBlurOuter1"></feGaussianBlur>
            <feColorMatrix values="0 0 0 0 0   0 0 0 0 0   0 0 0 0 0  0 0 0 0.0796547203 0" type="matrix" in="shadowBlurOuter1"></feColorMatrix>
        </filter>
        <filter x="-20.0%" y="-46.2%" width="140.0%" height="192.3%" filterUnits="objectBoundingBox" id="filter-18">
            <feOffset dx="0" dy="1" in="SourceAlpha" result="shadowOffsetOuter1"></feOffset>
            <feGaussianBlur stdDeviation="2.5" in="shadowOffsetOuter1" result="shadowBlurOuter1"></feGaussianBlur>
            <feColorMatrix values="0 0 0 0 0   0 0 0 0 0   0 0 0 0 0  0 0 0 0.0755845717 0" type="matrix" in="shadowBlurOuter1" result="shadowMatrixOuter1"></feColorMatrix>
            <feMerge>
                <feMergeNode in="shadowMatrixOuter1"></feMergeNode>
                <feMergeNode in="SourceGraphic"></feMergeNode>
            </feMerge>
        </filter>
    </defs>
    <g id="ðŸ”ªåˆ‡å›¾" stroke="none" stroke-width="1" fill="none" fill-rule="evenodd">
        <g id="img" transform="translate(-178.000000, -1601.000000)">
            <g id="empty_img_cart" transform="translate(178.000000, 1601.000000)">
                <g id="empty/img_cart">
                    <g>
                        <g id="tree-small" transform="translate(61.000000, 176.000000)">
                            <rect id="çŸ©å½¢" fill="url(#linearGradient-1)" x="8" y="23.2218598" width="2" height="17" rx="1"></rect>
                            <path d="M9,24 C16.8014276,24 18,18.9663294 18,12.7569821 C18,6.5476348 13.9705627,0 9,0 C4.02943725,0 0,6.5476348 0,12.7569821 C0,18.9663294 1.1985724,24 9,24 Z" id="æ¤­åœ†å½¢" fill="url(#linearGradient-2)"></path>
                        </g>
                        <g id="åœ°é¢" transform="translate(0.000000, 196.000000)">
                            <g id="Oval-6-Copy-3-+-Oval-6-Copy-4-+-Oval-6-+-Oval-6-Copy-2-Mask">
                                <mask id="mask-5" fill="white">
                                    <use xlink:href="#path-4"></use>
                                </mask>
                                <use id="Mask" fill="url(#linearGradient-3)" xlink:href="#path-4"></use>
                                <ellipse id="æ¤­åœ†å½¢" fill="#F6F6F6" mask="url(#mask-5)" cx="331" cy="39.5" rx="5" ry="1.5"></ellipse>
                            </g>
                            <g id="search" transform="translate(168.694490, 32.977806) scale(-1, 1) rotate(-255.000000) translate(-168.694490, -32.977806) translate(154.194490, -5.522194)" fill="#F6F6F6">
                                <ellipse id="Oval-2" transform="translate(14.607142, 38.269940) rotate(-285.000000) translate(-14.607142, -38.269940) " cx="14.607142" cy="38.2699405" rx="38.5" ry="4.14084117"></ellipse>
                            </g>
                        </g>
                        <g id="tree-big" transform="translate(318.000000, 183.000000)">
                            <rect id="çŸ©å½¢" fill="url(#linearGradient-6)" x="12" y="35" width="2" height="18" rx="1"></rect>
                            <path d="M13,36 C24.2687288,36 26,28.6126984 26,19.5 C26,10.3873016 20.1797017,0.778140161 13,0.778140161 C5.82029825,0.778140161 0,10.3873016 0,19.5 C0,28.6126984 1.73127125,36 13,36 Z" id="æ¤­åœ†å½¢" fill="url(#linearGradient-7)"></path>
                        </g>
                        <path d="M102.607843,45 C108.304923,45 113.056197,49.1039935 114.140313,54.5539973 C119.081365,54.8442884 123,58.9968223 123,64.0769231 C123,69.3448699 118.786209,73.6153846 113.588235,73.6153846 C112.631311,73.6153846 111.707741,73.4706516 110.837677,73.2016071 C109.133778,74.9299292 106.778428,76 104.176471,76 C101.719505,76 99.4824291,75.0458641 97.8063148,73.4832545 C96.2794663,74.5683236 94.4189946,75.2051282 92.4117647,75.2051282 C87.2137906,75.2051282 83,70.9346135 83,65.6666667 C83,60.9338227 86.4012187,57.0060697 90.861628,56.2569631 C91.2017537,49.9822704 96.330691,45 102.607843,45 Z" id="å½¢çŠ¶ç»“åˆ" fill="#F7F8FA"></path>
                        <g id="ç¼–ç»„-4" transform="translate(115.000000, 49.000000)">
                            <g id="XMLID_364_" transform="translate(135.000000, 174.000000)" fill="#F6F6F6" fill-rule="nonzero">
                                <g id="XMLID_1217_">
                                    <g id="XMLID_1218_">
                                        <g id="XMLID_1219_">
                                            <g id="XMLID_1220_">
                                                <ellipse id="XMLID_1221_" cx="18.9" cy="2.1" rx="18.8" ry="2.1"></ellipse>
                                            </g>
                                        </g>
                                    </g>
                                </g>
                            </g>
                            <g id="ç¼–ç»„-2" transform="translate(95.000000, 0.000000)">
                                <g id="XMLID_352_" fill="url(#linearGradient-8)" fill-rule="nonzero">
                                    <g id="XMLID_1175_">
                                        <g id="XMLID_1176_">
                                            <g id="XMLID_1177_">
                                                <g id="XMLID_1178_">
                                                    <path d="M54.8,28.5 C57.5,28.5 59.9,30 61.1,32.3 C83.3,33.6 101.1,51.6 102,74 C102,74.6 102.1,75.1 102.1,75.7 L102.1,75.7 L102.1,92.3 C102.1,100.1 96.2,106.5 88.6,107.3 C88.1,107.4 87.5,107.4 87,107.4 L87,107.4 L71.094,107.399451 L71.0409726,107.450493 C65.69424,112.5315 50.67,128.916 57.6,140.4 C57.9,140.9 58.6,141 59,140.6 C60.7,138.9 65.4,135.1 71.2,136 C72,136.1 72.2,137.2 71.5,137.7 C67.5,140.1 59.2,146.6 60.9,158.1 C61,158.9 60.2,159.4 59.6,159 C57.4,157.7 53.6,154.5 52.9,147.2 C52.9,146.8 52.6,146.5 52.3,146.4 C48.9627165,145.227441 31.6324215,138.115987 35.0909475,115.30618 L34.6,116.2 L22.8,114.5 C27.8077008,112.49692 30.3391491,108.958509 31.3744712,107.399499 L15.5,107.4 C14.9,107.4 14.3,107.4 13.7,107.3 C6.2,106.4 0.4,100.1 0.4,92.4 L0.4,92.4 L0.4,80.3 C0.3,78.9 0.2,77.4 0.2,75.9 C0.2,74.4 0.3,73 0.4,71.5 C2.5,50.5 19.4,34 40.5,32.4 C41.7,30.1 44,28.5 46.8,28.5 L46.8,28.5 Z M50.4,26.6 C47.9,20.6 43.8,18.7 40.4,17.6 C38.4,17 37.1,16.2 37.1,14.4 C37.1,12.6 38.1,11.3 39.9,11.2 C47.8,11 51.1,28.3 50.4,26.6 Z M58.1,0.8 C59.9,0.4 61.2,1.4 61.7,3.2 C62.1,4.9 61.1,6 59.3,7.1 C56.3,9 52.8,11.9 52,18.4 C51.8,20.2 50.5,2.6 58.1,0.8 Z" id="å½¢çŠ¶ç»“åˆ"></path>
                                                </g>
                                            </g>
                                        </g>
                                    </g>
                                </g>
                                <g id="XMLID_334_" transform="translate(0.000000, 28.000000)">
                                    <g id="XMLID_1163_">
                                        <g id="XMLID_1164_">
                                            <g id="XMLID_1165_">
                                                <g id="XMLID_1166_"></g>
                                            </g>
                                        </g>
                                    </g>
                                </g>
                                <g id="XMLID_331_" transform="translate(37.000000, 11.000000)">
                                    <g id="XMLID_1145_">
                                        <g id="XMLID_1146_">
                                            <g id="XMLID_1147_">
                                                <g id="XMLID_1148_"></g>
                                            </g>
                                        </g>
                                    </g>
                                </g>
                                <g id="XMLID_330_" transform="translate(51.000000, 0.000000)">
                                    <g id="XMLID_1139_">
                                        <g id="XMLID_1140_">
                                            <g id="XMLID_1141_">
                                                <g id="XMLID_1142_"></g>
                                            </g>
                                        </g>
                                    </g>
                                </g>
                                <g id="XMLID_325_" opacity="0.8" transform="translate(65.000000, 36.000000)" fill="#FFFFFF" fill-rule="nonzero">
                                    <g id="XMLID_328_" transform="translate(10.000000, 5.000000)">
                                        <g id="XMLID_329_">
                                            <g id="XMLID_1133_">
                                                <g id="XMLID_1134_">
                                                    <g id="XMLID_1135_">
                                                        <g id="XMLID_1136_">
                                                            <path d="M12.7,14.5 C12,14.5 11.3,14.2 10.9,13.5 C8.5,9.9 5.2,6.7 1.4,4.4 C0.4,3.8 5.55111512e-17,2.4 0.7,1.4 C1.3,0.4 2.7,-5.55111512e-17 3.7,0.7 C8,3.3 11.8,6.9 14.6,11.1 C15.3,12.1 15,13.5 14,14.1 C13.5,14.4 13.1,14.5 12.7,14.5 Z" id="XMLID_1137_"></path>
                                                        </g>
                                                    </g>
                                                </g>
                                            </g>
                                        </g>
                                    </g>
                                    <g id="XMLID_326_">
                                        <g id="XMLID_327_">
                                            <g id="XMLID_1126_">
                                                <g id="XMLID_1127_">
                                                    <g id="XMLID_1128_">
                                                        <g id="XMLID_1129_">
                                                            <path d="M5.4,6 C5.2,6 4.9,6 4.7,5.9 C3.8,5.6 2.8,5.3 1.8,5.1 C0.6,4.8 -0.1,3.7 0.2,2.5 C0.5,1.3 1.6,0.6 2.8,0.9 C3.9,1.2 5,1.5 6.1,1.8 C7.2,2.2 7.9,3.4 7.5,4.6 C7.1,5.5 6.3,6 5.4,6 Z" id="XMLID_1130_"></path>
                                                        </g>
                                                    </g>
                                                </g>
                                            </g>
                                        </g>
                                    </g>
                                </g>
                                <g id="XMLID_308_" transform="translate(15.000000, 94.000000)" fill="#000000" fill-rule="nonzero">
                                    <g id="XMLID_1118_">
                                        <g id="XMLID_1119_">
                                            <g id="XMLID_1120_">
                                                <g id="XMLID_1121_">
                                                    <path d="M18.9,6.5 C17.4,6.5 16,6.4 14.7,6.3 C12.1,6 10.1,4.9 8.3,3.9 C5.9,2.6 3.9,1.5 0.7,2.3 L0.3,0.7 C4.1,-0.3 6.7,1.1 9.2,2.4 C10.9,3.3 12.7,4.3 15,4.6 C18.7,5 23.5,4.7 28.2,4.4 C31,4.2 33.7,4 36,4 L36,4 L36.4,4 C38.8,4 41.8,4.2 45,4.3 C49.9,4.6 54.9,4.8 58.5,4.6 C60.9,4.4 62.5,3.4 64.1,2.5 C66.2,1.2 68.4,-0.2 72.1,0.7 L71.7,2.3 C68.7,1.6 67.1,2.6 65,3.9 C63.3,4.9 61.5,6.1 58.7,6.3 C55,6.6 49.9,6.3 45,6 C41.8,5.8 38.7,5.7 36.3,5.7 C34,5.7 31.3,5.9 28.4,6.1 C25.1,6.3 21.9,6.5 18.9,6.5 Z" id="XMLID_1122_"></path>
                                                </g>
                                            </g>
                                        </g>
                                    </g>
                                </g>
                                <g id="XMLID_306_" transform="translate(12.000000, 92.000000)" fill="#FFFFFF" fill-rule="nonzero">
                                    <g id="XMLID_307_">
                                        <g id="XMLID_1112_">
                                            <g id="XMLID_1113_">
                                                <g id="XMLID_1114_">
                                                    <g id="XMLID_1115_">
                                                        <circle id="XMLID_1116_" cx="3.6" cy="3.5" r="3.3"></circle>
                                                    </g>
                                                </g>
                                            </g>
                                        </g>
                                    </g>
                                </g>
                                <g id="XMLID_304_" transform="translate(83.000000, 92.000000)" fill="#FFFFFF" fill-rule="nonzero">
                                    <g id="XMLID_305_">
                                        <g id="XMLID_1105_">
                                            <g id="XMLID_1106_">
                                                <g id="XMLID_1107_">
                                                    <g id="XMLID_1108_">
                                                        <circle id="XMLID_1109_" cx="4.2" cy="3.5" r="3.3"></circle>
                                                    </g>
                                                </g>
                                            </g>
                                        </g>
                                    </g>
                                </g>
                                <g id="XMLID_300_" transform="translate(6.000000, 72.000000)" fill="#231815" fill-rule="nonzero">
                                    <g id="XMLID_302_">
                                        <g id="XMLID_1092_">
                                            <g id="XMLID_1093_">
                                                <g id="XMLID_1094_">
                                                    <g id="XMLID_1095_">
                                                        <path d="M9.6,0.1 C3.9,0.1 0.6,4.7 0.6,12.9 C0.6,13.4 0.6,13.9 0.7,14.4 C0.8,15 1.3,15.5 1.9,15.5 C1.9,15.5 2,15.5 2,15.5 C2.7,15.4 3.1,14.9 3.1,14.2 C3.1,13.8 3,13.3 3,12.9 C3,9 3.9,2.5 9.6,2.5 C15.4,2.5 16.2,9 16.2,12.9 C16.2,13.2 16.2,13.6 16.2,13.9 C16.2,14.6 16.7,15.1 17.3,15.2 C18,15.2 18.5,14.7 18.6,14.1 C18.6,13.7 18.6,13.3 18.6,12.9 C18.6,4.7 15.3,0.1 9.6,0.1 Z" id="XMLID_1096_"></path>
                                                    </g>
                                                </g>
                                            </g>
                                        </g>
                                    </g>
                                    <g id="XMLID_301_" transform="translate(72.000000, 0.000000)">
                                        <g id="XMLID_1086_">
                                            <g id="XMLID_1087_">
                                                <g id="XMLID_1088_">
                                                    <g id="XMLID_1089_">
                                                        <path d="M9.2,0.1 C3.5,0.1 0.2,4.7 0.2,12.9 C0.2,13.4 0.2,13.9 0.3,14.4 C0.4,15 0.9,15.5 1.5,15.5 C1.5,15.5 1.6,15.5 1.6,15.5 C2.3,15.4 2.7,14.9 2.7,14.2 C2.7,13.8 2.6,13.3 2.6,12.9 C2.6,9 3.5,2.5 9.2,2.5 C15,2.5 15.8,9 15.8,12.9 C15.8,13.2 15.8,13.6 15.8,13.9 C15.8,14.6 16.3,15.1 16.9,15.2 C17.6,15.2 18.1,14.7 18.2,14.1 C18.2,13.7 18.2,13.3 18.2,12.9 C18.2,4.7 14.9,0.1 9.2,0.1 Z" id="XMLID_1090_"></path>
                                                    </g>
                                                </g>
                                            </g>
                                        </g>
                                    </g>
                                </g>
                                <path d="M52.4,106.7 L37.2,106.7 C33.1,119.1 34.4,127.8 37.5,133.9 C39.9,118.5 49.3,109.3 52.4,106.7 Z" id="XMLID_1076_" fill="#FFFFFF" fill-rule="nonzero"></path>
                                <path d="M39.1,111.1 L43.5,108.3 L43.7,106.6 L37.2,106.6 C34.4,115 34.1,121.7 35.2,127 L39.2,122.8 L39.2,111.1 L39.1,111.1 Z" id="XMLID_1070_" fill="#000000" fill-rule="nonzero"></path>
                            </g>
                            <g id="XMLID_351_" transform="translate(172.000000, 106.000000)" fill="#B7B7B7" fill-rule="nonzero">
                                <g id="XMLID_1169_">
                                    <g id="XMLID_1170_">
                                        <g id="XMLID_1171_">
                                            <g id="XMLID_1172_">
                                                <path d="M0.6,1.5 L1.5,1.5 C1.5,1.4 1.5,1.4 1.5,1.3 C1.2,1.3 0.9,1.4 0.6,1.5 Z" id="XMLID_1173_"></path>
                                            </g>
                                        </g>
                                    </g>
                                </g>
                            </g>
                            <g id="XMLID_333_" transform="translate(118.000000, 32.000000)" fill="#72D0EB" fill-rule="nonzero">
                                <g id="XMLID_1157_">
                                    <g id="XMLID_1158_">
                                        <g id="XMLID_1159_">
                                            <g id="XMLID_1160_">
                                                <path d="M17.6,0.2 C11.3,0.6 5.4,2.5 0.2,5.4 C5.4,2.6 11.3,0.8 17.5,0.3 C17.6,0.3 17.6,0.3 17.6,0.2 Z" id="XMLID_1161_"></path>
                                            </g>
                                        </g>
                                    </g>
                                </g>
                            </g>
                            <g id="XMLID_332_" transform="translate(155.000000, 31.000000)" fill="#C8C8C8" fill-rule="nonzero">
                                <g id="XMLID_1151_">
                                    <g id="XMLID_1152_">
                                        <g id="XMLID_1153_">
                                            <g id="XMLID_1154_">
                                                <path d="M1.8,1.4 C1.6,1.4 1.3,1.3 1.1,1.3 C1.1,1.3 1.1,1.3 1.1,1.3 C1.4,1.3 1.6,1.4 1.8,1.4 Z" id="XMLID_1155_"></path>
                                            </g>
                                        </g>
                                    </g>
                                </g>
                            </g>
                            <g id="XMLID_294_" transform="translate(124.000000, 113.000000)" fill="url(#linearGradient-9)" fill-rule="nonzero">
                                <g id="XMLID_1054_">
                                    <g id="XMLID_1055_">
                                        <g id="XMLID_1056_">
                                            <g id="XMLID_1057_">
                                                <path d="M16.873549,0.832273959 C14.0908214,1.33227396 11.5,2.6 1.2,0.5 C0.8,0.4 0.4,0.8 0.5,1.2 C0.9,3.7 2.9,10.8 12.7,11.4 L16.873549,0.832273959 Z" id="XMLID_1058_"></path>
                                            </g>
                                        </g>
                                    </g>
                                </g>
                            </g>
                            <path d="M26.2790698,157 L73.4883721,157 C81.5116279,157 87.3255814,156.421271 88.4883721,150.402491 C88.4883721,150.170999 93.9534884,139.915488 95.1162791,125.33152 C95.2325581,123.363842 95.4651163,120.701689 97.2093023,119.196994 C99.1860465,117.460808 110.930233,117.229316 118.72093,117.576553 C119.418605,117.576553 120,117.11357 120,116.419096 C120,115.724621 119.534884,115.145892 118.837209,115.145892 C115.581395,115.030146 99.0697674,114.335672 95.5813953,117.460808 C93.0232558,119.659977 92.7906977,123.132351 92.6744186,125.100029 C91.5116279,139.683997 86.1627907,149.939508 86.0465116,150.286745 C85.1162791,153.643372 80.2325581,154.569339 73.6046512,154.569339 L26.2790698,154.569339 C25.5813953,154.569339 25,155.148068 25,155.842542 C25,156.537017 25.5813953,157 26.2790698,157 Z" id="è·¯å¾„" fill="url(#linearGradient-10)" fill-rule="nonzero"></path>
                            <g id="ç¼–ç»„" transform="translate(101.000000, 110.000000)" fill="url(#linearGradient-11)" fill-rule="nonzero">
                                <path d="M17.4,0.2 C20.6,0.2 23.1,2.8 23.1,5.9 C23.1,9.1 20.5,11.6 17.4,11.6 L17.4,11.6 L5.8,11.6 C2.6,11.6 0.1,9 0.1,5.9 C0.1,2.7 2.6,0.2 5.8,0.2 L5.8,0.2 Z" id="å½¢çŠ¶ç»“åˆ"></path>
                            </g>
                            <g id="ç¼–ç»„" transform="translate(0.000000, 99.000000)" fill="url(#linearGradient-12)" fill-rule="nonzero">
                                <path d="M89.5366795,0.463320463 C94.5173745,0.463320463 98.5714286,4.51737452 98.5714286,9.4980695 L98.5714286,9.4980695 L98.5714286,9.96138996 L91.3899614,41.1196911 C91.2741313,45.984556 87.2200772,49.9227799 82.3552124,49.9227799 L82.3552124,49.9227799 L82.1235521,49.9227799 L12.3938224,44.8262548 C7.52895753,44.8262548 3.59073359,40.7722008 3.47490347,35.9073359 L3.47490347,35.9073359 L0.463320463,17.3745174 L0.463320463,17.3745174 L0.463320463,17.1428571 C0.463320463,12.1621622 4.4015444,8.10810811 9.38223938,8.10810811 L9.38223938,8.10810811 L89.3050193,0.463320463 L89.3050193,0.463320463 Z" id="å½¢çŠ¶ç»“åˆ"></path>
                            </g>
                            <g id="ç¼–ç»„" transform="translate(15.000000, 154.000000)">
                                <g fill="url(#linearGradient-13)" fill-rule="nonzero" id="å½¢çŠ¶">
                                    <path d="M0.347490347,13.0888031 C0.347490347,20.03861 6.02316602,25.8301158 13.0888031,25.8301158 C20.1544402,25.8301158 25.8301158,20.1544402 25.8301158,13.0888031 C25.8301158,6.13899614 20.1544402,0.347490347 13.0888031,0.347490347 C6.02316602,0.347490347 0.347490347,6.13899614 0.347490347,13.0888031 Z"></path>
                                </g>
                                <g transform="translate(5.791506, 0.000000)" id="å½¢çŠ¶">
                                    <g>
                                        <use fill="black" fill-opacity="1" filter="url(#filter-15)" xlink:href="#path-14"></use>
                                        <use fill="url(#linearGradient-13)" fill-rule="evenodd" xlink:href="#path-14"></use>
                                    </g>
                                    <g transform="translate(44.015444, 0.000000)" fill="url(#linearGradient-13)" fill-rule="nonzero">
                                        <path d="M0.347490347,13.0888031 C0.347490347,20.03861 6.02316602,25.8301158 13.0888031,25.8301158 C20.1544402,25.8301158 25.8301158,20.1544402 25.8301158,13.0888031 C25.8301158,6.13899614 20.1544402,0.347490347 13.0888031,0.347490347 C6.02316602,0.347490347 0.347490347,6.13899614 0.347490347,13.0888031 Z"></path>
                                    </g>
                                    <g>
                                        <use fill="black" fill-opacity="1" filter="url(#filter-17)" xlink:href="#path-16"></use>
                                        <use fill="url(#linearGradient-13)" fill-rule="evenodd" xlink:href="#path-16"></use>
                                    </g>
                                </g>
                            </g>
                            <g id="XMLID_275_" filter="url(#filter-18)" transform="translate(22.000000, 112.000000)" fill="#FFFFFF" fill-rule="nonzero">
                                <g id="XMLID_291_" transform="translate(15.057915, 0.000000)">
                                    <g id="XMLID_1041_">
                                        <g id="XMLID_1042_">
                                            <g id="XMLID_1043_">
                                                <g id="XMLID_1044_">
                                                    <polygon id="XMLID_1045_" points="12.7413127 0.810810811 7.87644788 0.810810811 7.87644788 0.115830116 4.74903475 0.115830116 4.74903475 0.810810811 0.231660232 0.810810811 0.231660232 3.93822394 12.7413127 3.93822394"></polygon>
                                                </g>
                                            </g>
                                        </g>
                                    </g>
                                </g>
                                <g id="XMLID_290_" transform="translate(0.000000, 17.374517)">
                                    <g id="XMLID_1035_">
                                        <g id="XMLID_1036_">
                                            <g id="XMLID_1037_">
                                                <g id="XMLID_1038_">
                                                    <polygon id="XMLID_1039_" points="15.2895753 4.4015444 0.810810811 4.4015444 0.810810811 7.41312741 15.2895753 7.41312741 15.2895753 7.41312741 18.4169884 7.41312741 18.4169884 0.463320463 15.2895753 0.463320463"></polygon>
                                                </g>
                                            </g>
                                        </g>
                                    </g>
                                </g>
                                <g id="XMLID_289_" transform="translate(24.324324, 17.374517)">
                                    <g id="XMLID_1020_">
                                        <g id="XMLID_1021_">
                                            <g id="XMLID_1026_">
                                                <g id="XMLID_1032_">
                                                    <rect id="XMLID_1033_" x="0.347490347" y="0.463320463" width="3.01158301" height="7.06563707"></rect>
                                                </g>
                                            </g>
                                        </g>
                                    </g>
                                </g>
                                <g id="XMLID_288_" transform="translate(33.590734, 0.000000)">
                                    <g id="XMLID_984_">
                                        <g id="XMLID_990_">
                                            <g id="XMLID_996_">
                                                <g id="XMLID_1002_">
                                                    <rect id="XMLID_1008_" x="0.926640927" y="0.115830116" width="3.12741313" height="2.77992278"></rect>
                                                </g>
                                            </g>
                                        </g>
                                    </g>
                                </g>
                                <g id="XMLID_287_" transform="translate(31.274131, 2.316602)">
                                    <g id="XMLID_958_">
                                        <g id="XMLID_964_">
                                            <g id="XMLID_965_">
                                                <g id="XMLID_966_">
                                                    <polygon id="XMLID_972_" points="6.48648649 19.5752896 6.48648649 3.70656371 3.35907336 3.70656371 3.35907336 0.694980695 0.231660232 0.694980695 0.231660232 3.70656371 3.35907336 3.70656371 3.35907336 22.5868726 3.47490347 22.5868726 3.47490347 22.5868726 27.3359073 22.5868726 27.3359073 19.5752896"></polygon>
                                                </g>
                                            </g>
                                        </g>
                                    </g>
                                </g>
                                <g id="XMLID_286_" transform="translate(39.382239, 0.000000)">
                                    <g id="XMLID_937_">
                                        <g id="XMLID_938_">
                                            <g id="XMLID_939_">
                                                <g id="XMLID_945_">
                                                    <polygon id="XMLID_946_" points="0.115830116 20.5019305 3.70656371 20.5019305 7.76061776 13.3204633 10.7722008 13.3204633 10.7722008 20.3861004 10.8880309 20.3861004 19.2277992 20.3861004 19.2277992 17.3745174 13.7837838 17.3745174 13.7837838 13.3204633 18.4169884 13.3204633 18.4169884 10.3088803 10.5405405 10.3088803 10.5405405 6.37065637 17.8378378 6.37065637 17.8378378 3.24324324 10.5405405 3.24324324 10.5405405 0.115830116 7.41312741 0.115830116 7.41312741 3.24324324 3.70656371 3.24324324 3.70656371 0.115830116 0.579150579 0.115830116 0.579150579 3.24324324 0.579150579 3.24324324 0.579150579 6.37065637 7.41312741 6.37065637 7.41312741 10.3088803 0 10.3088803 0 13.3204633 4.28571429 13.3204633"></polygon>
                                                </g>
                                            </g>
                                        </g>
                                    </g>
                                </g>
                                <g id="XMLID_282_">
                                    <g id="XMLID_903_">
                                        <g id="XMLID_904_">
                                            <g id="XMLID_905_">
                                                <g id="XMLID_911_">
                                                    <path d="M0.810810811,13.4362934 C0.810810811,17.3745174 3.93822394,20.5019305 7.87644788,20.5019305 C11.8146718,20.5019305 14.9420849,17.3745174 14.9420849,13.4362934 C14.9420849,10.3088803 12.8571429,7.52895753 9.96138996,6.71814672 L9.96138996,1.50579151 L9.72972973,1.50579151 L9.72972973,1.50579151 L5.55984556,1.50579151 L5.55984556,0.231660232 L2.54826255,0.231660232 L2.54826255,1.50579151 L2.54826255,1.50579151 L2.54826255,4.51737452 L7.06563707,4.51737452 L7.06563707,6.48648649 C3.47490347,6.83397683 0.810810811,9.84555985 0.810810811,13.4362934 Z M4.05405405,14.5945946 L6.83397683,14.5945946 L6.83397683,17.2586873 C5.44401544,16.9111969 4.4015444,15.8687259 4.05405405,14.5945946 Z M11.9305019,13.4362934 C11.9305019,15.2895753 10.6563707,16.7953668 9.03474903,17.2586873 L9.03474903,12.3938224 L4.05405405,12.3938224 C4.51737452,10.6563707 6.02316602,9.38223938 7.99227799,9.38223938 C10.0772201,9.38223938 11.9305019,11.2355212 11.9305019,13.4362934 Z" id="XMLID_917_"></path>
                                                </g>
                                            </g>
                                        </g>
                                    </g>
                                </g>
                                <g id="XMLID_276_" transform="translate(15.057915, 4.633205)">
                                    <g id="XMLID_875_">
                                        <g id="XMLID_876_">
                                            <g id="XMLID_882_">
                                                <g id="XMLID_883_">
                                                    <path d="M12.5096525,6.13899614 C12.5096525,2.77992278 9.84555985,0.115830116 6.48648649,0.115830116 C3.12741313,0.115830116 0.463320463,2.77992278 0.463320463,6.13899614 C0.463320463,8.91891892 2.43243243,11.3513514 5.0965251,11.9305019 L5.21235521,20.1544402 L8.22393822,20.1544402 L8.10810811,11.8146718 C10.6563707,11.2355212 12.5096525,8.91891892 12.5096525,6.13899614 Z M3.59073359,6.13899614 C3.59073359,4.51737452 4.86486486,3.24324324 6.48648649,3.24324324 C8.10810811,3.24324324 9.38223938,4.51737452 9.38223938,6.13899614 C9.38223938,7.76061776 8.10810811,9.03474903 6.48648649,9.03474903 C4.86486486,9.15057915 3.59073359,7.76061776 3.59073359,6.13899614 Z" id="XMLID_889_"></path>
                                                </g>
                                            </g>
                                        </g>
                                    </g>
                                </g>
                            </g>
                        </g>
                    </g>
                </g>
            </g>
        </g>
    </g>
</svg>