<?xml version="1.0" encoding="UTF-8"?>
<svg width="400px" height="274px" viewBox="0 0 400 274" version="1.1" xmlns="http://www.w3.org/2000/svg" xmlns:xlink="http://www.w3.org/1999/xlink">
    <!-- Generator: Sketch 61.2 (89653) - https://sketch.com -->
    <title>empty_img_order</title>
    <desc>Created with Sketch.</desc>
    <defs>
        <linearGradient x1="100%" y1="100%" x2="100%" y2="0%" id="linearGradient-1">
            <stop stop-color="#D5D8E2" offset="0%"></stop>
            <stop stop-color="#F1F3F6" offset="100%"></stop>
        </linearGradient>
        <linearGradient x1="50%" y1="100%" x2="50%" y2="0%" id="linearGradient-2">
            <stop stop-color="#ECEDF3" offset="0%"></stop>
            <stop stop-color="#F8F9FB" offset="100%"></stop>
        </linearGradient>
        <linearGradient x1="50%" y1="-26.2343262%" x2="50%" y2="50%" id="linearGradient-3">
            <stop stop-color="#F0F1F4" offset="0%"></stop>
            <stop stop-color="#FFFFFF" offset="100%"></stop>
        </linearGradient>
        <ellipse id="path-4" cx="200" cy="39" rx="200" ry="39"></ellipse>
        <linearGradient x1="100%" y1="100%" x2="100%" y2="0%" id="linearGradient-6">
            <stop stop-color="#D5D8E2" offset="0%"></stop>
            <stop stop-color="#F1F3F6" offset="100%"></stop>
        </linearGradient>
        <linearGradient x1="50%" y1="100%" x2="50%" y2="0%" id="linearGradient-7">
            <stop stop-color="#D5D8E2" offset="0%"></stop>
            <stop stop-color="#F1F3F6" offset="100%"></stop>
        </linearGradient>
        <linearGradient x1="52.2553214%" y1="-35.2854993%" x2="46.5548796%" y2="150.332588%" id="linearGradient-8">
            <stop stop-color="#D5D8E2" offset="0%"></stop>
            <stop stop-color="#F1F3F6" offset="100%"></stop>
        </linearGradient>
        <linearGradient x1="50%" y1="100%" x2="50%" y2="0%" id="linearGradient-9">
            <stop stop-color="#D5D8E2" offset="0%"></stop>
            <stop stop-color="#F1F3F6" offset="100%"></stop>
        </linearGradient>
        <rect id="path-10" x="19" y="59" width="52" height="4" rx="2"></rect>
        <filter x="-10.6%" y="-162.5%" width="125.0%" height="425.0%" filterUnits="objectBoundingBox" id="filter-11">
            <feOffset dx="1" dy="0" in="SourceAlpha" result="shadowOffsetOuter1"></feOffset>
            <feGaussianBlur stdDeviation="2" in="shadowOffsetOuter1" result="shadowBlurOuter1"></feGaussianBlur>
            <feComposite in="shadowBlurOuter1" in2="SourceAlpha" operator="out" result="shadowBlurOuter1"></feComposite>
            <feColorMatrix values="0 0 0 0 0   0 0 0 0 0   0 0 0 0 0  0 0 0 0.0796547203 0" type="matrix" in="shadowBlurOuter1"></feColorMatrix>
        </filter>
        <rect id="path-12" x="19" y="72" width="52" height="4" rx="2"></rect>
        <filter x="-10.6%" y="-162.5%" width="125.0%" height="425.0%" filterUnits="objectBoundingBox" id="filter-13">
            <feOffset dx="1" dy="0" in="SourceAlpha" result="shadowOffsetOuter1"></feOffset>
            <feGaussianBlur stdDeviation="2" in="shadowOffsetOuter1" result="shadowBlurOuter1"></feGaussianBlur>
            <feComposite in="shadowBlurOuter1" in2="SourceAlpha" operator="out" result="shadowBlurOuter1"></feComposite>
            <feColorMatrix values="0 0 0 0 0   0 0 0 0 0   0 0 0 0 0  0 0 0 0.0796547203 0" type="matrix" in="shadowBlurOuter1"></feColorMatrix>
        </filter>
        <rect id="path-14" x="19" y="85" width="52" height="4" rx="2"></rect>
        <filter x="-10.6%" y="-162.5%" width="125.0%" height="425.0%" filterUnits="objectBoundingBox" id="filter-15">
            <feOffset dx="1" dy="0" in="SourceAlpha" result="shadowOffsetOuter1"></feOffset>
            <feGaussianBlur stdDeviation="2" in="shadowOffsetOuter1" result="shadowBlurOuter1"></feGaussianBlur>
            <feComposite in="shadowBlurOuter1" in2="SourceAlpha" operator="out" result="shadowBlurOuter1"></feComposite>
            <feColorMatrix values="0 0 0 0 0   0 0 0 0 0   0 0 0 0 0  0 0 0 0.0796547203 0" type="matrix" in="shadowBlurOuter1"></feColorMatrix>
        </filter>
        <linearGradient x1="50%" y1="50%" x2="50%" y2="134.723417%" id="linearGradient-16">
            <stop stop-color="#D5D8E2" offset="0%"></stop>
            <stop stop-color="#F1F3F6" offset="100%"></stop>
        </linearGradient>
        <circle id="path-17" cx="45" cy="8" r="2"></circle>
        <filter x="-137.5%" y="-162.5%" width="425.0%" height="425.0%" filterUnits="objectBoundingBox" id="filter-18">
            <feOffset dx="1" dy="0" in="SourceAlpha" result="shadowOffsetOuter1"></feOffset>
            <feGaussianBlur stdDeviation="2" in="shadowOffsetOuter1" result="shadowBlurOuter1"></feGaussianBlur>
            <feComposite in="shadowBlurOuter1" in2="SourceAlpha" operator="out" result="shadowBlurOuter1"></feComposite>
            <feColorMatrix values="0 0 0 0 0   0 0 0 0 0   0 0 0 0 0  0 0 0 0.0796547203 0" type="matrix" in="shadowBlurOuter1"></feColorMatrix>
        </filter>
        <linearGradient x1="50%" y1="0%" x2="50%" y2="100%" id="linearGradient-19">
            <stop stop-color="#7DE2FF" offset="0%"></stop>
            <stop stop-color="#02A6FF" offset="100%"></stop>
        </linearGradient>
        <linearGradient x1="71.9758201%" y1="0%" x2="28.0241799%" y2="100%" id="linearGradient-20">
            <stop stop-color="#4B506A" offset="0%"></stop>
            <stop stop-color="#232C45" offset="100%"></stop>
        </linearGradient>
        <linearGradient x1="50%" y1="0%" x2="50%" y2="100%" id="linearGradient-21">
            <stop stop-color="#7DE2FF" offset="0%"></stop>
            <stop stop-color="#02A6FF" offset="100%"></stop>
        </linearGradient>
    </defs>
    <g id="ðŸ”ªåˆ‡å›¾" stroke="none" stroke-width="1" fill="none" fill-rule="evenodd">
        <g id="img" transform="translate(-708.000000, -2051.000000)">
            <g id="empty_img_order" transform="translate(708.000000, 2051.000000)">
                <g id="empty/img_order">
                    <g id="cutting/img_search_empty">
                        <rect id="çŸ©å½¢" fill="url(#linearGradient-1)" x="330" y="199.22186" width="2" height="17" rx="1"></rect>
                        <path d="M331,200 C338.801428,200 340,194.966329 340,188.756982 C340,182.547635 335.970563,176 331,176 C326.029437,176 322,182.547635 322,188.756982 C322,194.966329 323.198572,200 331,200 Z" id="æ¤­åœ†å½¢" fill="url(#linearGradient-2)"></path>
                        <g id="Group-7" transform="translate(0.000000, 196.000000)">
                            <g id="Oval-6-Copy-3-+-Oval-6-Copy-4-+-Oval-6-+-Oval-6-Copy-2-Mask">
                                <mask id="mask-5" fill="white">
                                    <use xlink:href="#path-4"></use>
                                </mask>
                                <use id="Mask" fill="url(#linearGradient-3)" xlink:href="#path-4"></use>
                                <ellipse id="XMLID_1705_" fill="#F6F6F6" fill-rule="nonzero" mask="url(#mask-5)" cx="134.6" cy="25.4" rx="18.3" ry="2.1"></ellipse>
                                <ellipse id="Oval-2" fill="#F6F6F6" mask="url(#mask-5)" transform="translate(275.902279, 15.140841) rotate(-180.000000) translate(-275.902279, -15.140841) " cx="275.902279" cy="15.1408412" rx="27.2727273" ry="4.14084117"></ellipse>
                                <ellipse id="æ¤­åœ†å½¢" fill="#F6F6F6" mask="url(#mask-5)" cx="69" cy="39.5" rx="5" ry="1.5"></ellipse>
                            </g>
                        </g>
                        <rect id="çŸ©å½¢" fill="url(#linearGradient-6)" x="68" y="218" width="2" height="18" rx="1"></rect>
                        <path d="M69,219 C80.2687288,219 82,211.612698 82,202.5 C82,193.387302 76.1797017,183.77814 69,183.77814 C61.8202983,183.77814 56,193.387302 56,202.5 C56,211.612698 57.7312712,219 69,219 Z" id="æ¤­åœ†å½¢" fill="url(#linearGradient-7)"></path>
                        <path d="M314.607843,45 C320.304923,45 325.056197,49.1039935 326.140313,54.5539973 C331.081365,54.8442884 335,58.9968223 335,64.0769231 C335,69.3448699 330.786209,73.6153846 325.588235,73.6153846 C324.631311,73.6153846 323.707741,73.4706516 322.837677,73.2016071 C321.133778,74.9299292 318.778428,76 316.176471,76 C313.719505,76 311.482429,75.0458641 309.806315,73.4832545 C308.279466,74.5683236 306.418995,75.2051282 304.411765,75.2051282 C299.213791,75.2051282 295,70.9346135 295,65.6666667 C295,60.9338227 298.401219,57.0060697 302.861628,56.2569631 C303.201754,49.9822704 308.330691,45 314.607843,45 Z" id="å½¢çŠ¶ç»“åˆ" fill="#F7F8FA"></path>
                    </g>
                    <g id="ç¼–ç»„" transform="translate(252.629552, 139.000000) rotate(12.000000) translate(-252.629552, -139.000000) translate(207.629552, 73.000000)">
                        <rect id="çŸ©å½¢" fill="url(#linearGradient-8)" x="9.09494702e-13" y="16" width="90" height="116" rx="12"></rect>
                        <rect id="çŸ©å½¢å¤‡ä»½" fill="url(#linearGradient-9)" x="5" y="21" width="80" height="106" rx="6"></rect>
                        <g id="çŸ©å½¢">
                            <use fill="black" fill-opacity="1" filter="url(#filter-11)" xlink:href="#path-10"></use>
                            <use fill-opacity="0.7" fill="#FFFFFF" fill-rule="evenodd" xlink:href="#path-10"></use>
                        </g>
                        <g id="çŸ©å½¢">
                            <use fill="black" fill-opacity="1" filter="url(#filter-13)" xlink:href="#path-12"></use>
                            <use fill-opacity="0.7" fill="#FFFFFF" fill-rule="evenodd" xlink:href="#path-12"></use>
                        </g>
                        <g id="çŸ©å½¢">
                            <use fill="black" fill-opacity="1" filter="url(#filter-15)" xlink:href="#path-14"></use>
                            <use fill-opacity="0.7" fill="#FFFFFF" fill-rule="evenodd" xlink:href="#path-14"></use>
                        </g>
                        <path d="M45,3.41060513e-13 C49.418278,3.41060513e-13 53,3.581722 53,8 L53,8 L59,8 C63.418278,8 67,11.581722 67,16 C67,20.418278 63.418278,24 59,24 L31,24 C26.581722,24 23,20.418278 23,16 C23,11.581722 26.581722,8 31,8 L37,8 C37,3.581722 40.581722,3.41060513e-13 45,3.41060513e-13 Z" id="å½¢çŠ¶ç»“åˆ" fill="url(#linearGradient-16)"></path>
                        <g id="æ¤­åœ†å½¢">
                            <use fill="black" fill-opacity="1" filter="url(#filter-18)" xlink:href="#path-17"></use>
                            <use fill-opacity="0.7" fill="#FFFFFF" fill-rule="evenodd" xlink:href="#path-17"></use>
                        </g>
                    </g>
                    <g id="ç¼–ç»„-7" transform="translate(93.000000, 63.000000)">
                        <path d="M54.15,27.087873 C56.75,27.087873 59.05,28.587873 60.25,30.787873 C81.95,32.087873 99.25,49.587873 100.15,71.387873 C100.25,71.987873 100.25,72.587873 100.15,73.187873 L100.15,73.187873 L100.15,89.387873 C100.15,96.987873 94.45,103.187873 87.05,103.987873 C86.45,104.087873 85.95,104.087873 85.45,104.087873 L75.0786193,104.088219 C78.4848381,108.822299 84.95,107.787873 84.95,107.787873 L84.95,107.787873 L86.65,109.487873 L82.85,111.887873 L81.55,114.387873 C74.2610447,116.268894 68.9992054,114.832815 67.0643848,114.123779 C50.3758644,124.419358 45.55,139.487873 45.55,139.487873 C51.15,151.387873 44.95,156.487873 41.95,158.187873 C41.35,158.587873 40.65,158.087873 40.65,157.387873 C40.85,154.487873 40.85,148.387873 37.45,145.787873 C34.25,143.287873 29.25,143.587873 26.75,143.987873 C26.05,144.087873 25.55,143.287873 25.85,142.687873 C30.05,134.387873 39.25,139.587873 41.55,130.487873 C43.4436233,122.584054 38.016502,115.154728 36.0395997,112.776159 C25.9307106,115.381827 21.0823075,111.166824 19.05,108.487873 C18.45,107.687873 19.05,106.587873 20.05,106.687873 C26.8417052,107.095375 30.5890113,105.288769 32.294423,104.087599 L15.39,104.087073 C14.91,104.083873 14.43,104.067873 13.95,103.987873 C6.65,103.087873 1.05,96.887873 1.05,89.387873 L1.05,89.387873 L1.05,77.587873 C0.95,76.187873 0.85,74.687873 0.85,73.287873 C0.85,71.887873 0.95,70.387873 1.05,68.987873 C3.15,48.587873 19.65,32.387873 40.15,30.887873 C41.35,28.587873 43.65,27.087873 46.35,27.087873 L46.35,27.087873 Z M49.85,25.187873 C47.45,19.287873 43.45,17.487873 40.15,16.387873 C38.15,15.787873 36.95,15.087873 36.95,13.287873 C36.95,11.487873 37.95,10.187873 39.75,10.187873 C47.35,9.98787296 50.55,26.787873 49.85,25.187873 Z M57.35,0.0878729578 C59.05,-0.312127042 60.35,0.687872958 60.85,2.38787296 C61.25,4.08787296 60.35,5.08787296 58.55,6.18787296 C55.65,8.08787296 52.25,10.887873 51.45,17.187873 C51.25,18.887873 49.95,1.78787296 57.35,0.0878729578 Z" id="å½¢çŠ¶ç»“åˆ" fill="url(#linearGradient-19)" fill-rule="nonzero"></path>
                        <g id="XMLID_1853_" transform="translate(24.950000, 102.187873)">
                            <g id="XMLID_1854_">
                                <g id="XMLID_1855_">
                                    <g id="XMLID_1856_">
                                        <g id="XMLID_1857_"></g>
                                    </g>
                                </g>
                            </g>
                        </g>
                        <g id="XMLID_1834_" transform="translate(40.950000, 103.187873)" fill-rule="nonzero">
                            <g id="XMLID_1841_" fill="#FFFFFF">
                                <g id="XMLID_1842_">
                                    <g id="XMLID_1843_">
                                        <g id="XMLID_1844_">
                                            <g id="XMLID_1845_">
                                                <path d="M26.8,0 L0.4,0 C4.7,5.6 6.3,12.9 4.8,20.8 C4.8,20.9 4.7,21 4.7,21.1 C4.6,21.3 4.6,21.5 4.6,21.6 C4.6,22.3 5.2,22.8 6,22.9 C7,22.9 7.9,22.2 8.3,21.4 C8.3,21.3 8.4,21.3 8.4,21.2 C8.4,21.2 8.4,21.2 8.4,21.2 C11.5,13.1 19.2,5.6 26.8,0 Z" id="XMLID_1846_"></path>
                                            </g>
                                        </g>
                                    </g>
                                </g>
                            </g>
                            <g id="XMLID_1835_" transform="translate(5.000000, 0.000000)" fill="#000000">
                                <g id="XMLID_1836_">
                                    <g id="XMLID_1837_">
                                        <g id="XMLID_1838_">
                                            <g id="XMLID_1839_">
                                                <polygon id="XMLID_1840_" points="12.7 0.7 2.5 0.6 4.4 3.3 0.3 14.7 3.1 16.1 6.9 14.8 9.4 3.2"></polygon>
                                            </g>
                                        </g>
                                    </g>
                                </g>
                            </g>
                        </g>
                        <circle id="XMLID_1809_" fill="#FFFFFF" fill-rule="nonzero" cx="15.95" cy="76.987873" r="9.4"></circle>
                        <path d="M15.95,77.087873 L9.25,70.387873 C7.65,72.087873 6.55,74.387873 6.55,76.887873 C6.55,82.087873 10.75,86.287873 15.95,86.287873 C21.15,86.287873 25.35,82.087873 25.35,76.887873 C25.35,74.387873 24.35,72.087873 22.65,70.387873 L15.95,77.087873 Z" id="XMLID_1803_" fill="#000000" fill-rule="nonzero"></path>
                        <circle id="XMLID_1795_" fill="#FFFFFF" fill-rule="nonzero" cx="85.75" cy="76.987873" r="9.4"></circle>
                        <path d="M85.75,77.087873 L79.05,70.387873 C77.45,72.087873 76.35,74.387873 76.35,76.887873 C76.35,82.087873 80.55,86.287873 85.75,86.287873 C90.95,86.287873 95.15,82.087873 95.15,76.887873 C95.15,74.387873 94.15,72.087873 92.45,70.387873 L85.75,77.087873 Z" id="XMLID_1789_" fill="#000000" fill-rule="nonzero"></path>
                        <path d="M86.25,53.387873 C85.55,53.387873 84.85,53.087873 84.45,52.487873 C82.05,48.987873 78.85,45.887873 75.15,43.687873 C74.15,43.087873 73.85,41.787873 74.45,40.787873 C75.05,39.787873 76.35,39.487873 77.35,40.087873 C81.55,42.687873 85.25,46.187873 87.95,50.187873 C88.65,51.187873 88.35,52.487873 87.35,53.087873 C87.05,53.187873 86.65,53.387873 86.25,53.387873 Z" id="XMLID_1769_" fill="#FFFFFF" fill-rule="nonzero" opacity="0.804315476"></path>
                        <path d="M69.35,40.187873 C69.15,40.187873 68.95,40.187873 68.65,40.087873 C67.75,39.787873 66.75,39.487873 65.85,39.287873 C64.75,38.987873 63.95,37.887873 64.25,36.787873 C64.55,35.687873 65.65,34.887873 66.75,35.187873 C67.85,35.387873 68.95,35.687873 69.95,36.087873 C71.05,36.487873 71.65,37.687873 71.25,38.787873 C71.05,39.687873 70.25,40.187873 69.35,40.187873 Z" id="XMLID_1762_" fill="#FFFFFF" fill-rule="nonzero" opacity="0.804315476"></path>
                        <path d="M17.15,92.787873 L84.05,92.787873 L64.15,96.887873 C55.25,98.787873 45.95,98.787873 37.05,96.887873 L17.15,92.787873 Z" id="XMLID_1754_" fill="#FFFFFF" fill-rule="nonzero"></path>
                        <circle id="XMLID_1748_" fill="#FFFFFF" fill-rule="nonzero" cx="85.75" cy="92.387873" r="3.2"></circle>
                        <circle id="XMLID_1741_" fill="#FFFFFF" fill-rule="nonzero" cx="15.95" cy="92.387873" r="3.2"></circle>
                        <path d="M78.25,119.087873 C78.15,119.087873 77.95,119.087873 77.85,118.987873 C77.55,118.787873 77.45,118.387873 77.65,117.987873 L111.05,66.887873 C111.25,66.587873 111.65,66.487873 112.05,66.687873 C112.35,66.887873 112.45,67.287873 112.25,67.687873 L78.85,118.787873 C78.75,118.987873 78.45,119.087873 78.25,119.087873 Z" id="XMLID_1732_" fill="url(#linearGradient-20)" fill-rule="nonzero"></path>
                        <path d="M84.930235,109.498518 C84.930235,109.498518 82,110.4 82,112 C82,113.6 87.7,114.2 88.8,111.6 C89.8,109.2 85.9378075,107.924291 85.9378075,107.924291 L84.930235,109.498518 Z" id="XMLID_1725_" fill="#27B8FF" fill-rule="nonzero"></path>
                        <path d="M115.05,77.387873 C114.85,77.387873 114.65,77.287873 114.65,77.087873 L110.45,69.187873 L101.55,68.087873 C101.35,68.087873 101.25,67.887873 101.15,67.787873 C101.05,67.687873 101.15,67.387873 101.25,67.287873 L107.55,60.887873 L105.85,52.087873 C105.85,51.887873 105.85,51.687873 106.05,51.587873 C106.15,51.487873 106.25,51.487873 106.35,51.487873 C106.45,51.487873 106.55,51.487873 106.55,51.587873 L114.55,55.587873 L122.35,51.187873 C122.45,51.187873 122.55,51.087873 122.55,51.087873 C122.65,51.087873 122.75,51.087873 122.85,51.187873 C123.05,51.287873 123.05,51.487873 123.05,51.687873 L121.75,60.587873 L128.35,66.687873 C128.45,66.787873 128.55,66.987873 128.45,67.187873 C128.35,67.387873 128.25,67.487873 128.05,67.587873 L119.25,69.087873 L115.45,77.187873 C115.35,77.287873 115.25,77.387873 115.05,77.387873 C115.05,77.387873 115.05,77.387873 115.05,77.387873 Z" id="è·¯å¾„" fill="url(#linearGradient-21)" fill-rule="nonzero"></path>
                    </g>
                </g>
            </g>
        </g>
    </g>
</svg>