<?xml version="1.0" encoding="UTF-8"?>
<svg width="400px" height="274px" viewBox="0 0 400 274" version="1.1" xmlns="http://www.w3.org/2000/svg" xmlns:xlink="http://www.w3.org/1999/xlink">
    <!-- Generator: Sketch 61.2 (89653) - https://sketch.com -->
    <title>empty_img_load_fail</title>
    <desc>Created with Sketch.</desc>
    <defs>
        <linearGradient x1="100%" y1="100%" x2="100%" y2="0%" id="linearGradient-1">
            <stop stop-color="#D5D8E2" offset="0%"></stop>
            <stop stop-color="#F1F3F6" offset="100%"></stop>
        </linearGradient>
        <linearGradient x1="50%" y1="100%" x2="50%" y2="0%" id="linearGradient-2">
            <stop stop-color="#ECEDF3" offset="0%"></stop>
            <stop stop-color="#F8F9FB" offset="100%"></stop>
        </linearGradient>
        <linearGradient x1="50%" y1="-26.2343262%" x2="50%" y2="50%" id="linearGradient-3">
            <stop stop-color="#F0F1F4" offset="0%"></stop>
            <stop stop-color="#FFFFFF" offset="100%"></stop>
        </linearGradient>
        <ellipse id="path-4" cx="200" cy="39" rx="200" ry="39"></ellipse>
        <linearGradient x1="100%" y1="100%" x2="100%" y2="0%" id="linearGradient-6">
            <stop stop-color="#D5D8E2" offset="0%"></stop>
            <stop stop-color="#F1F3F6" offset="100%"></stop>
        </linearGradient>
        <linearGradient x1="50%" y1="100%" x2="50%" y2="0%" id="linearGradient-7">
            <stop stop-color="#D5D8E2" offset="0%"></stop>
            <stop stop-color="#F1F3F6" offset="100%"></stop>
        </linearGradient>
        <linearGradient x1="50%" y1="100%" x2="50%" y2="50%" id="linearGradient-8">
            <stop stop-color="#D5D8E2" offset="0%"></stop>
            <stop stop-color="#F1F3F6" offset="100%"></stop>
        </linearGradient>
        <linearGradient x1="50%" y1="100%" x2="50%" y2="76.4957519%" id="linearGradient-9">
            <stop stop-color="#D5D8E2" offset="0%"></stop>
            <stop stop-color="#F1F3F6" offset="100%"></stop>
        </linearGradient>
        <linearGradient x1="50%" y1="147.306534%" x2="50%" y2="39.4025184%" id="linearGradient-10">
            <stop stop-color="#D5D8E2" offset="0%"></stop>
            <stop stop-color="#F1F3F6" offset="100%"></stop>
        </linearGradient>
        <linearGradient x1="14.3981647%" y1="58.583508%" x2="58.247046%" y2="47.9639331%" id="linearGradient-11">
            <stop stop-color="#E7E9EF" stop-opacity="0" offset="0%"></stop>
            <stop stop-color="#C4C8D2" offset="100%"></stop>
        </linearGradient>
        <linearGradient x1="50%" y1="100%" x2="50%" y2="11.8186973%" id="linearGradient-12">
            <stop stop-color="#D5D8E2" offset="0%"></stop>
            <stop stop-color="#F1F3F6" offset="100%"></stop>
        </linearGradient>
        <linearGradient x1="50%" y1="100%" x2="50%" y2="13.627712%" id="linearGradient-13">
            <stop stop-color="#D5D8E2" offset="0%"></stop>
            <stop stop-color="#F1F3F6" offset="100%"></stop>
        </linearGradient>
        <linearGradient x1="50%" y1="113.744193%" x2="50%" y2="-18.2979836%" id="linearGradient-14">
            <stop stop-color="#D5D8E2" offset="0%"></stop>
            <stop stop-color="#F1F3F6" offset="100%"></stop>
        </linearGradient>
        <linearGradient x1="50%" y1="100%" x2="50%" y2="-14.0102708%" id="linearGradient-15">
            <stop stop-color="#D5D8E2" offset="0%"></stop>
            <stop stop-color="#F1F3F6" offset="100%"></stop>
        </linearGradient>
        <linearGradient x1="50%" y1="0%" x2="50%" y2="100%" id="linearGradient-16">
            <stop stop-color="#7DE2FF" offset="0%"></stop>
            <stop stop-color="#02A6FF" offset="100%"></stop>
        </linearGradient>
    </defs>
    <g id="ðŸ”ªåˆ‡å›¾" stroke="none" stroke-width="1" fill="none" fill-rule="evenodd">
        <g id="img" transform="translate(-1768.000000, -1601.000000)">
            <g id="empty_img_load_fail" transform="translate(1768.000000, 1601.000000)">
                <g id="empty/img_load_fail">
                    <g>
                        <rect id="çŸ©å½¢" fill="url(#linearGradient-1)" x="330" y="199.22186" width="2" height="17" rx="1"></rect>
                        <path d="M331,200 C338.801428,200 340,194.966329 340,188.756982 C340,182.547635 335.970563,176 331,176 C326.029437,176 322,182.547635 322,188.756982 C322,194.966329 323.198572,200 331,200 Z" id="æ¤­åœ†å½¢" fill="url(#linearGradient-2)"></path>
                        <g id="Group-7" transform="translate(0.000000, 196.000000)">
                            <g id="Oval-6-Copy-3-+-Oval-6-Copy-4-+-Oval-6-+-Oval-6-Copy-2-Mask">
                                <mask id="mask-5" fill="white">
                                    <use xlink:href="#path-4"></use>
                                </mask>
                                <use id="Mask" fill="url(#linearGradient-3)" xlink:href="#path-4"></use>
                                <ellipse id="XMLID_1705_" fill="#F6F6F6" fill-rule="nonzero" mask="url(#mask-5)" cx="263.3" cy="27.1" rx="18.3" ry="2.1"></ellipse>
                                <ellipse id="Oval-2" fill="#F6F6F6" mask="url(#mask-5)" transform="translate(151.272727, 15.140841) rotate(-180.000000) translate(-151.272727, -15.140841) " cx="151.272727" cy="15.1408412" rx="27.2727273" ry="4.14084117"></ellipse>
                                <ellipse id="æ¤­åœ†å½¢" fill="#F6F6F6" mask="url(#mask-5)" cx="69" cy="39.5" rx="5" ry="1.5"></ellipse>
                            </g>
                        </g>
                        <rect id="çŸ©å½¢" fill="url(#linearGradient-6)" x="68" y="218" width="2" height="18" rx="1"></rect>
                        <path d="M69,219 C80.2687288,219 82,211.612698 82,202.5 C82,193.387302 76.1797017,183.77814 69,183.77814 C61.8202983,183.77814 56,193.387302 56,202.5 C56,211.612698 57.7312712,219 69,219 Z" id="æ¤­åœ†å½¢" fill="url(#linearGradient-7)"></path>
                        <path d="M102.607843,55 C108.304923,55 113.056197,59.1039935 114.140313,64.5539973 C119.081365,64.8442884 123,68.9968223 123,74.0769231 C123,79.3448699 118.786209,83.6153846 113.588235,83.6153846 C112.631311,83.6153846 111.707741,83.4706516 110.837677,83.2016071 C109.133778,84.9299292 106.778428,86 104.176471,86 C101.719505,86 99.4824291,85.0458641 97.8063148,83.4832545 C96.2794663,84.5683236 94.4189946,85.2051282 92.4117647,85.2051282 C87.2137906,85.2051282 83,80.9346135 83,75.6666667 C83,70.9338227 86.4012187,67.0060697 90.861628,66.2569631 C91.2017537,59.9822704 96.330691,55 102.607843,55 Z" id="å½¢çŠ¶ç»“åˆ" fill="#F7F8FA"></path>
                        <g id="ç¼–ç»„-9" transform="translate(138.000000, 155.000000) rotate(-15.000000) translate(-138.000000, -155.000000) translate(92.000000, 96.000000)">
                            <circle id="æ¤­åœ†å½¢" fill="url(#linearGradient-8)" cx="46" cy="109.152732" r="8"></circle>
                            <path d="M46,109.61938 C71.4050985,109.61938 92,89.0938576 92,79.1527321 C92,69.2116066 71.4050985,61.1527321 46,61.1527321 C20.5949015,61.1527321 0,69.2116066 0,79.1527321 C0,89.0938576 20.5949015,109.61938 46,109.61938 Z" id="æ¤­åœ†å½¢å¤‡ä»½-23" fill="url(#linearGradient-9)"></path>
                            <ellipse id="æ¤­åœ†å½¢" fill="url(#linearGradient-10)" cx="46" cy="79.1527321" rx="46" ry="18"></ellipse>
                            <polygon id="è·¯å¾„-8" fill="url(#linearGradient-11)" points="53.6681944 85.1527321 28.0451029 92.7840858 21.3072139 88.1596573 39.2084444 76.4888397"></polygon>
                            <polygon id="ä¸‰è§’å½¢" fill="url(#linearGradient-12)" points="46 17.1527321 54 85.1527321 38 85.1527321"></polygon>
                            <circle id="æ¤­åœ†å½¢" fill="url(#linearGradient-13)" cx="46" cy="20.1527321" r="5"></circle>
                            <path d="M38.9960987,6.88488827 C34.2404243,9.40054499 31,14.3982177 31,20.1527321 C31,25.9443359 34.2823297,30.9693104 39.0882418,33.4689084 M52.9826036,33.43182 C57.7498985,30.9198314 61,25.9158327 61,20.1527321 C61,14.4127277 57.7758965,9.42575302 53.0398466,6.90396524" id="å½¢çŠ¶" stroke="url(#linearGradient-14)" stroke-width="4" stroke-linecap="round" stroke-linejoin="round"></path>
                            <path d="M31.2030221,1.13686838e-13 C25.0154583,4.55081493 21,11.8828432 21,20.1527321 C21,28.3803094 24.9744745,35.6795984 31.1082198,40.2353955 M61.0552855,40.1129171 C67.0960635,35.5493987 71,28.306972 71,20.1527321 C71,11.9608069 67.0598955,4.68914233 60.9713953,0.129447168" id="å½¢çŠ¶" stroke="url(#linearGradient-15)" stroke-width="4" stroke-linecap="round" stroke-linejoin="round"></path>
                        </g>
                        <g id="ç¼–ç»„-7" transform="translate(254.500000, 145.000000) scale(-1, 1) translate(-254.500000, -145.000000) translate(204.000000, 65.000000)">
                            <path d="M54.15,27.087873 C56.75,27.087873 59.05,28.587873 60.25,30.787873 C81.95,32.087873 99.25,49.587873 100.15,71.387873 C100.25,71.987873 100.25,72.587873 100.15,73.187873 L100.15,73.187873 L100.15,89.387873 C100.15,96.987873 94.45,103.187873 87.05,103.987873 C86.45,104.087873 85.95,104.087873 85.45,104.087873 L74.7242364,104.088026 C75.779033,106.342321 78.5354875,107.046013 83.1249931,108.5033 C88.4431333,110.191947 90.868946,109.377969 91.1178595,110.888447 C91.3667729,112.398925 88.763758,115.312965 81.2758991,116.300644 C75.2495692,117.095541 69.1907355,114.983366 67.0551202,114.128546 C50.3741381,124.424748 45.55,139.487873 45.55,139.487873 C51.15,151.387873 44.95,156.487873 41.95,158.187873 C41.35,158.587873 40.65,158.087873 40.65,157.387873 C40.85,154.487873 40.85,148.387873 37.45,145.787873 C34.25,143.287873 29.25,143.587873 26.75,143.987873 C26.05,144.087873 25.55,143.287873 25.85,142.687873 C30.05,134.387873 39.25,139.587873 41.55,130.487873 C43.4436233,122.584054 38.016502,115.154728 36.0395997,112.776159 C25.9307106,115.381827 21.0823075,111.166824 19.05,108.487873 C18.45,107.687873 19.05,106.587873 20.05,106.687873 C26.8417052,107.095375 30.5890113,105.288769 32.294423,104.087599 L15.39,104.087073 C14.91,104.083873 14.43,104.067873 13.95,103.987873 C6.65,103.087873 1.05,96.887873 1.05,89.387873 L1.05,89.387873 L1.05,77.587873 C0.95,76.187873 0.85,74.687873 0.85,73.287873 C0.85,71.887873 0.95,70.387873 1.05,68.987873 C3.15,48.587873 19.65,32.387873 40.15,30.887873 C41.35,28.587873 43.65,27.087873 46.35,27.087873 L46.35,27.087873 Z M49.85,25.187873 C47.45,19.287873 43.45,17.487873 40.15,16.387873 C38.15,15.787873 36.95,15.087873 36.95,13.287873 C36.95,11.487873 37.95,10.187873 39.75,10.187873 C47.35,9.98787296 50.55,26.787873 49.85,25.187873 Z M57.35,0.0878729578 C59.05,-0.312127042 60.35,0.687872958 60.85,2.38787296 C61.25,4.08787296 60.35,5.08787296 58.55,6.18787296 C55.65,8.08787296 52.25,10.887873 51.45,17.187873 C51.25,18.887873 49.95,1.78787296 57.35,0.0878729578 Z" id="å½¢çŠ¶ç»“åˆ" fill="url(#linearGradient-16)" fill-rule="nonzero"></path>
                            <g id="XMLID_1853_" transform="translate(24.950000, 102.187873)">
                                <g id="XMLID_1854_">
                                    <g id="XMLID_1855_">
                                        <g id="XMLID_1856_">
                                            <g id="XMLID_1857_"></g>
                                        </g>
                                    </g>
                                </g>
                            </g>
                            <g id="XMLID_1834_" transform="translate(40.950000, 103.187873)" fill-rule="nonzero">
                                <g id="XMLID_1841_" fill="#FFFFFF">
                                    <g id="XMLID_1842_">
                                        <g id="XMLID_1843_">
                                            <g id="XMLID_1844_">
                                                <g id="XMLID_1845_">
                                                    <path d="M26.8,0 L0.4,0 C4.7,5.6 6.3,12.9 4.8,20.8 C4.8,20.9 4.7,21 4.7,21.1 C4.6,21.3 4.6,21.5 4.6,21.6 C4.6,22.3 5.2,22.8 6,22.9 C7,22.9 7.9,22.2 8.3,21.4 C8.3,21.3 8.4,21.3 8.4,21.2 C8.4,21.2 8.4,21.2 8.4,21.2 C11.5,13.1 19.2,5.6 26.8,0 Z" id="XMLID_1846_"></path>
                                                </g>
                                            </g>
                                        </g>
                                    </g>
                                </g>
                                <g id="XMLID_1835_" transform="translate(5.000000, 0.000000)" fill="#000000">
                                    <g id="XMLID_1836_">
                                        <g id="XMLID_1837_">
                                            <g id="XMLID_1838_">
                                                <g id="XMLID_1839_">
                                                    <polygon id="XMLID_1840_" points="12.7 0.7 2.5 0.6 4.4 3.3 0.3 14.7 3.1 16.1 6.9 14.8 9.4 3.2"></polygon>
                                                </g>
                                            </g>
                                        </g>
                                    </g>
                                </g>
                            </g>
                            <circle id="XMLID_1809_" fill="#FFFFFF" fill-rule="nonzero" cx="15.95" cy="76.987873" r="9.4"></circle>
                            <path d="M15.95,77.087873 L9.25,70.387873 C7.65,72.087873 6.55,74.387873 6.55,76.887873 C6.55,82.087873 10.75,86.287873 15.95,86.287873 C21.15,86.287873 25.35,82.087873 25.35,76.887873 C25.35,74.387873 24.35,72.087873 22.65,70.387873 L15.95,77.087873 Z" id="XMLID_1803_" fill="#000000" fill-rule="nonzero"></path>
                            <circle id="XMLID_1795_" fill="#FFFFFF" fill-rule="nonzero" cx="85.75" cy="76.987873" r="9.4"></circle>
                            <path d="M85.75,77.087873 L79.05,70.387873 C77.45,72.087873 76.35,74.387873 76.35,76.887873 C76.35,82.087873 80.55,86.287873 85.75,86.287873 C90.95,86.287873 95.15,82.087873 95.15,76.887873 C95.15,74.387873 94.15,72.087873 92.45,70.387873 L85.75,77.087873 Z" id="XMLID_1789_" fill="#000000" fill-rule="nonzero"></path>
                            <path d="M86.25,53.387873 C85.55,53.387873 84.85,53.087873 84.45,52.487873 C82.05,48.987873 78.85,45.887873 75.15,43.687873 C74.15,43.087873 73.85,41.787873 74.45,40.787873 C75.05,39.787873 76.35,39.487873 77.35,40.087873 C81.55,42.687873 85.25,46.187873 87.95,50.187873 C88.65,51.187873 88.35,52.487873 87.35,53.087873 C87.05,53.187873 86.65,53.387873 86.25,53.387873 Z" id="XMLID_1769_" fill="#FFFFFF" fill-rule="nonzero" opacity="0.799641927"></path>
                            <path d="M69.35,40.187873 C69.15,40.187873 68.95,40.187873 68.65,40.087873 C67.75,39.787873 66.75,39.487873 65.85,39.287873 C64.75,38.987873 63.95,37.887873 64.25,36.787873 C64.55,35.687873 65.65,34.887873 66.75,35.187873 C67.85,35.387873 68.95,35.687873 69.95,36.087873 C71.05,36.487873 71.65,37.687873 71.25,38.787873 C71.05,39.687873 70.25,40.187873 69.35,40.187873 Z" id="XMLID_1762_" fill="#FFFFFF" fill-rule="nonzero" opacity="0.799641927"></path>
                            <path d="M17.15,92.787873 L84.05,92.787873 L64.15,96.887873 C55.25,98.787873 45.95,98.787873 37.05,96.887873 L17.15,92.787873 Z" id="XMLID_1754_" fill="#FFFFFF" fill-rule="nonzero"></path>
                            <circle id="XMLID_1748_" fill="#FFFFFF" fill-rule="nonzero" cx="85.75" cy="92.387873" r="3.2"></circle>
                            <circle id="XMLID_1741_" fill="#FFFFFF" fill-rule="nonzero" cx="15.95" cy="92.387873" r="3.2"></circle>
                        </g>
                    </g>
                </g>
            </g>
        </g>
    </g>
</svg>