<?xml version="1.0" encoding="UTF-8"?>
<svg width="400px" height="274px" viewBox="0 0 400 274" version="1.1" xmlns="http://www.w3.org/2000/svg" xmlns:xlink="http://www.w3.org/1999/xlink">
    <!-- Generator: Sketch 61.2 (89653) - https://sketch.com -->
    <title>empty_img_zanwuneirong</title>
    <desc>Created with Sketch.</desc>
    <defs>
        <linearGradient x1="100%" y1="100%" x2="100%" y2="0%" id="linearGradient-1">
            <stop stop-color="#D5D8E2" offset="0%"></stop>
            <stop stop-color="#F1F3F6" offset="100%"></stop>
        </linearGradient>
        <linearGradient x1="50%" y1="100%" x2="50%" y2="0%" id="linearGradient-2">
            <stop stop-color="#ECEDF3" offset="0%"></stop>
            <stop stop-color="#F8F9FB" offset="100%"></stop>
        </linearGradient>
        <linearGradient x1="50%" y1="-26.2343262%" x2="50%" y2="50%" id="linearGradient-3">
            <stop stop-color="#F0F1F4" offset="0%"></stop>
            <stop stop-color="#FFFFFF" offset="100%"></stop>
        </linearGradient>
        <ellipse id="path-4" cx="200" cy="39" rx="200" ry="39"></ellipse>
        <linearGradient x1="100%" y1="100%" x2="100%" y2="0%" id="linearGradient-6">
            <stop stop-color="#D5D8E2" offset="0%"></stop>
            <stop stop-color="#F1F3F6" offset="100%"></stop>
        </linearGradient>
        <linearGradient x1="50%" y1="100%" x2="50%" y2="0%" id="linearGradient-7">
            <stop stop-color="#D5D8E2" offset="0%"></stop>
            <stop stop-color="#F1F3F6" offset="100%"></stop>
        </linearGradient>
        <linearGradient x1="50%" y1="52.7943294%" x2="50%" y2="0%" id="linearGradient-8">
            <stop stop-color="#D5D8E2" offset="0%"></stop>
            <stop stop-color="#F1F3F6" offset="100%"></stop>
        </linearGradient>
        <linearGradient x1="50%" y1="121.72872%" x2="50%" y2="0%" id="linearGradient-9">
            <stop stop-color="#D5D8E2" offset="0%"></stop>
            <stop stop-color="#F1F3F6" offset="100%"></stop>
        </linearGradient>
        <linearGradient x1="50%" y1="-23.7649956%" x2="50%" y2="41.0843991%" id="linearGradient-10">
            <stop stop-color="#EAECF1" offset="0%"></stop>
            <stop stop-color="#F4F5F7" offset="100%"></stop>
        </linearGradient>
        <polygon id="path-11" points="51.6417973 65.4311774 60.1139308 88.5799332 101.408451 76.598528 94.4679564 58.6104254"></polygon>
        <filter x="-10.0%" y="-13.3%" width="120.1%" height="133.4%" filterUnits="objectBoundingBox" id="filter-12">
            <feOffset dx="0" dy="1" in="SourceAlpha" result="shadowOffsetOuter1"></feOffset>
            <feGaussianBlur stdDeviation="1.5" in="shadowOffsetOuter1" result="shadowBlurOuter1"></feGaussianBlur>
            <feColorMatrix values="0 0 0 0 0   0 0 0 0 0   0 0 0 0 0  0 0 0 0.0507529438 0" type="matrix" in="shadowBlurOuter1"></feColorMatrix>
        </filter>
        <linearGradient x1="50%" y1="-23.7649956%" x2="50%" y2="41.0843991%" id="linearGradient-13">
            <stop stop-color="#EAECF1" offset="0%"></stop>
            <stop stop-color="#F4F5F7" offset="100%"></stop>
        </linearGradient>
        <polygon id="path-14" points="5.39608819 59.2347902 0 74.9704746 43.8536312 87.3312037 51.6609695 65.4059803"></polygon>
        <filter x="-9.7%" y="-14.2%" width="119.4%" height="135.6%" filterUnits="objectBoundingBox" id="filter-15">
            <feOffset dx="0" dy="1" in="SourceAlpha" result="shadowOffsetOuter1"></feOffset>
            <feGaussianBlur stdDeviation="1.5" in="shadowOffsetOuter1" result="shadowBlurOuter1"></feGaussianBlur>
            <feColorMatrix values="0 0 0 0 0   0 0 0 0 0   0 0 0 0 0  0 0 0 0.0507529438 0" type="matrix" in="shadowBlurOuter1"></feColorMatrix>
        </filter>
        <linearGradient x1="50%" y1="0%" x2="50%" y2="100%" id="linearGradient-16">
            <stop stop-color="#7DE2FF" offset="0%"></stop>
            <stop stop-color="#02A6FF" offset="100%"></stop>
        </linearGradient>
    </defs>
    <g id="ðŸ”ªåˆ‡å›¾" stroke="none" stroke-width="1" fill="none" fill-rule="evenodd">
        <g id="img" transform="translate(-178.000000, -2495.000000)">
            <g id="empty_img_zanwuneirong" transform="translate(178.000000, 2495.000000)">
                <g id="empty/img_zanwuneirong">
                    <g>
                        <rect id="çŸ©å½¢" fill="url(#linearGradient-1)" x="330" y="199.22186" width="2" height="17" rx="1"></rect>
                        <path d="M331,200 C338.801428,200 340,194.966329 340,188.756982 C340,182.547635 335.970563,176 331,176 C326.029437,176 322,182.547635 322,188.756982 C322,194.966329 323.198572,200 331,200 Z" id="æ¤­åœ†å½¢" fill="url(#linearGradient-2)"></path>
                        <g id="Group-7" transform="translate(0.000000, 196.000000)">
                            <g id="Oval-6-Copy-3-+-Oval-6-Copy-4-+-Oval-6-+-Oval-6-Copy-2-Mask">
                                <mask id="mask-5" fill="white">
                                    <use xlink:href="#path-4"></use>
                                </mask>
                                <use id="Mask" fill="url(#linearGradient-3)" xlink:href="#path-4"></use>
                                <ellipse id="Oval-2" fill="#F6F6F6" mask="url(#mask-5)" cx="264.272727" cy="12.1408412" rx="27.2727273" ry="4.14084117"></ellipse>
                                <ellipse id="XMLID_1705_" fill="#F6F6F6" fill-rule="nonzero" mask="url(#mask-5)" cx="133.3" cy="25.4" rx="18.3" ry="2.1"></ellipse>
                                <ellipse id="æ¤­åœ†å½¢" fill="#F6F6F6" mask="url(#mask-5)" cx="69" cy="39.5" rx="5" ry="1.5"></ellipse>
                            </g>
                        </g>
                        <rect id="çŸ©å½¢" fill="url(#linearGradient-6)" x="68" y="218" width="2" height="18" rx="1"></rect>
                        <path d="M69,219 C80.2687288,219 82,211.612698 82,202.5 C82,193.387302 76.1797017,183.77814 69,183.77814 C61.8202983,183.77814 56,193.387302 56,202.5 C56,211.612698 57.7312712,219 69,219 Z" id="æ¤­åœ†å½¢" fill="url(#linearGradient-7)"></path>
                        <path d="M314.607843,45 C320.304923,45 325.056197,49.1039935 326.140313,54.5539973 C331.081365,54.8442884 335,58.9968223 335,64.0769231 C335,69.3448699 330.786209,73.6153846 325.588235,73.6153846 C324.631311,73.6153846 323.707741,73.4706516 322.837677,73.2016071 C321.133778,74.9299292 318.778428,76 316.176471,76 C313.719505,76 311.482429,75.0458641 309.806315,73.4832545 C308.279466,74.5683236 306.418995,75.2051282 304.411765,75.2051282 C299.213791,75.2051282 295,70.9346135 295,65.6666667 C295,60.9338227 298.401219,57.0060697 302.861628,56.2569631 C303.201754,49.9822704 308.330691,45 314.607843,45 Z" id="å½¢çŠ¶ç»“åˆ" fill="#F7F8FA"></path>
                        <g id="é£žæœº+ç›’å­" transform="translate(213.000000, 89.000000)">
                            <polygon id="Path-21" fill="#DFE4E8" points="5.50718754 59.2522922 51.6150797 54.2398722 51.6150797 65.4784376"></polygon>
                            <polygon id="Path-22" fill="#E4E9EE" points="94.1216159 58.6039774 51.6150797 65.509484 51.6150797 54.2398722"></polygon>
                            <path d="M25.6651017,17.3241728 C28.9195895,17.8169401 32.3993364,19.2406658 36.1043424,21.59535 C47.7496035,28.9963942 49.8436599,38.7864689 49.8436599,40.6868866 C49.8436599,43.0853777 48.3670302,51.9119167 43.8531799,51.2140389 C30.5156679,49.1519517 29.6946244,43.7249948 30.5509265,39.7924842 C31.4072286,35.8599736 43.8531799,36.140404 44.3268392,48.7802457 C44.6098077,56.3314054 41.7708002,59.9947717 41.3379972,64.9658553 C40.2380282,77.599868 52.6789426,82.975628 60.462764,78.0070031" id="Path-4" stroke="#D5D8E3" stroke-width="2" stroke-linecap="round" stroke-linejoin="round" stroke-dasharray="2.816901341290541,2.816901341290541" transform="translate(43.063933, 48.583151) scale(-1, 1) translate(-43.063933, -48.583151) "></path>
                            <polygon id="Path-19" fill="url(#linearGradient-8)" points="51.325504 119.804611 94.1216159 102.436662 94.1216159 58.6104254 51.5389744 65.468159"></polygon>
                            <polygon id="Path-20" fill="url(#linearGradient-9)" points="5.46512609 100.755387 51.3328779 119.802505 51.6716834 65.4153167 5.46512609 59.2347902"></polygon>
                            <g id="Path-6">
                                <use fill="black" fill-opacity="1" filter="url(#filter-12)" xlink:href="#path-11"></use>
                                <use fill="url(#linearGradient-10)" fill-rule="evenodd" xlink:href="#path-11"></use>
                            </g>
                            <g id="Path-18">
                                <use fill="black" fill-opacity="1" filter="url(#filter-15)" xlink:href="#path-14"></use>
                                <use fill="url(#linearGradient-13)" fill-rule="evenodd" xlink:href="#path-14"></use>
                            </g>
                            <g id="emiçº¸é£žæœº" transform="translate(64.448819, 15.687319) rotate(-327.000000) translate(-64.448819, -15.687319) translate(52.448819, 5.187319)" fill="#D5D8E3" fill-rule="nonzero">
                                <path d="M10.3194515,20.0668067 L13.1009215,16.2753381 L10.3194515,15.4760955 L10.3194515,20.0668067 L10.3194515,20.0668067 Z M0.494769289,11.1445139 L8.39710961,13.5322066 L18.1294599,5.2900449 L10.5870295,14.1681274 L19.0359556,16.7713247 L23.3876823,0.0871348493 L0.494769289,11.1445139 L0.494769289,11.1445139 Z" id="Shape"></path>
                            </g>
                        </g>
                        <g id="é²¸é±¼" transform="translate(91.000000, 60.000000)">
                            <g id="XMLID_247_" fill-rule="nonzero">
                                <g id="XMLID_2260_">
                                    <g id="XMLID_2261_">
                                        <g id="XMLID_2262_">
                                            <g id="XMLID_2263_">
                                                <path d="M57.1,28.8 C59.9,28.8 62.4,30.4 63.6,32.8 C86.6,34.2 105,52.8 105.9,75.9 C105.9,76.38 105.9,76.86 105.9512,77.34 L106,77.7 L106,94.9 C106,103 99.9,109.6 92.1,110.4 C91.6833333,110.483333 91.2666667,110.497222 90.7921296,110.499537 L70.2907012,110.499602 C69.0853441,111.316963 68.0159976,112.136698 67.0674739,112.94558 C70.0399191,113.261977 73.7972666,113.331594 78.1,112.7 C79.3,112.5 80.1,113.9 79.4,114.8 C76.6919485,118.320467 70.6430606,124.040997 59.4880376,123.944191 L59.7,123.8 C46.3,132.8 47.6,143.6 48,150.6 C48.3,155.5 44.9,159.7 42.9,161.8 C42.5,162.3 41.7,162 41.7,161.3 C41.9,158 41.7,151.1 36.4,146.8 C30.8,142.3 22.6,142.8 19.2,143.3 C18.5,143.3 18.1,142.6 18.5,142.1 C24.2,134.2 32.1,138.2 35.3,136.8 C38.6,135.3 41.7,131.4 40.2,122 C39.2395327,115.981071 36.2700707,112.340136 34.2581696,110.499635 L16.2578704,110.499537 C15.7,110.497222 15.2,110.483333 14.7,110.4 C7.11,109.512857 1.17177551,103.184571 1.00366093,95.3419268 L1,95 L1,82.4 C0.9,80.9 0.8,79.4 0.8,77.8 C0.8,76.2 0.8,74.7 1,73.2 C3.1,51.5 20.6,34.4 42.4,32.8 C43.56,30.48 45.8413333,28.9075556 48.6116926,28.8053037 L48.9,28.8 L57.1,28.8 Z M52.5,26.8 C49.9,20.5 45.7,18.6 42.2,17.5 C40.1,16.8 38.8,16.1 38.8,14.2 C38.8,12.3 39.9,11 41.7,10.9 C49.8,10.7 53.2,28.6 52.5,26.8 Z M64.1,2.6 C64.6,4.4 63.6,5.5 61.7,6.7 C58.7,8.6 55.1,11.6 54.2,18.3 C54,20.2 52.6,2 60.4,0.2 C62.2,-0.3 63.6,0.8 64.1,2.6 Z" id="å½¢çŠ¶ç»“åˆ" fill="url(#linearGradient-16)"></path>
                                                <path d="M19,97.787873 L85.9,97.787873 L66,101.887873 C57.1,103.787873 47.8,103.787873 38.9,101.887873 L19,97.787873 Z" id="XMLID_1754_" fill="#FFFFFF"></path>
                                                <circle id="XMLID_1748_" fill="#FFFFFF" cx="18.25" cy="97.387873" r="3.2"></circle>
                                                <circle id="XMLID_1741_" fill="#FFFFFF" cx="88.05" cy="97.387873" r="3.2"></circle>
                                                <path d="M17.2,66.3 C11.4,66.3 8,71 8,79.3 C8,79.8 8,80.3 8.1,80.8 C8.2,81.4 8.7,81.9 9.3,81.9 C9.3,81.9 9.4,81.9 9.4,81.9 C10.1,81.8 10.6,81.3 10.5,80.6 C10.5,80.2 10.4,79.7 10.4,79.3 C10.4,75.4 11.3,68.7 17.1,68.7 C23,68.7 23.8,75.3 23.8,79.3 C23.8,79.7 23.8,80 23.8,80.3 C23.8,81 24.3,81.5 24.9,81.6 C25.6,81.6 26.1,81.1 26.2,80.5 C26.2,80.1 26.2,79.7 26.2,79.3 C26.4,71 23,66.3 17.2,66.3 Z" id="XMLID_1634_" fill="#231815"></path>
                                                <path d="M90,66.3 C84.2,66.3 80.8,71 80.8,79.3 C80.8,79.8 80.8,80.3 80.9,80.8 C81,81.4 81.5,81.9 82.1,81.9 C82.1,81.9 82.2,81.9 82.2,81.9 C82.9,81.8 83.4,81.3 83.3,80.6 C83.3,80.2 83.2,79.7 83.2,79.3 C83.2,75.4 84.1,68.7 89.9,68.7 C95.8,68.7 96.6,75.3 96.6,79.3 C96.6,79.7 96.6,80 96.6,80.3 C96.6,81 97.1,81.5 97.7,81.6 C98.4,81.6 98.9,81.1 99,80.5 C99,80.1 99,79.7 99,79.3 C99.2,71 95.8,66.3 90,66.3 Z" id="XMLID_1628_" fill="#231815"></path>
                                                <g id="ç¼–ç»„" transform="translate(67.551133, 38.000000)" fill="#FFFFFF" opacity="0.796526228">
                                                    <path d="M23.1744333,19.1339034 C22.4744333,19.1339034 21.7744333,18.8339034 21.3744333,18.1339034 C18.8744333,14.4339034 15.5744333,11.2339034 11.6744333,8.93390342 C10.6744333,8.33390342 10.2744333,6.93390342 10.9744333,5.93390342 C11.5744333,4.93390342 12.9744333,4.53390342 13.9744333,5.23390342 C18.3744333,7.93390342 22.2744333,11.5339034 25.0744333,15.8339034 C25.7744333,16.8339034 25.4744333,18.2339034 24.4744333,18.9339034 C24.0744333,18.9339034 23.5744333,19.1339034 23.1744333,19.1339034 Z" id="XMLID_435_"></path>
                                                    <path d="M5.57443332,5.33390342 C5.37443332,5.33390342 5.07443332,5.33390342 4.87443332,5.23390342 C3.87443332,4.93390342 2.87443332,4.63390342 1.97443332,4.43390342 C0.774433316,4.13390342 0.0744333162,2.93390342 0.274433316,1.73390342 C0.574433316,0.533903418 1.77443332,-0.166096582 2.97443332,0.0339034176 C4.07443332,0.333903418 5.27443332,0.633903418 6.37443332,0.933903418 C7.57443332,1.33390342 8.17443332,2.53390342 7.77443332,3.73390342 C7.37443332,4.83390342 6.47443332,5.33390342 5.57443332,5.33390342 Z" id="XMLID_428_"></path>
                                                </g>
                                            </g>
                                        </g>
                                    </g>
                                </g>
                            </g>
                            <g id="XMLID_246_" transform="translate(55.000000, 111.000000)">
                                <g id="XMLID_2254_">
                                    <g id="XMLID_2255_">
                                        <g id="XMLID_2256_">
                                            <g id="XMLID_2257_"></g>
                                        </g>
                                    </g>
                                </g>
                            </g>
                            <g id="XMLID_205_" transform="translate(24.000000, 32.000000)" fill="#72D0EB" fill-rule="nonzero">
                                <g id="XMLID_2169_">
                                    <g id="XMLID_2170_">
                                        <g id="XMLID_2171_">
                                            <g id="XMLID_2172_">
                                                <path d="M18.4,0.6 C11.9,1 5.7,2.9 0.4,6 C5.8,3.1 11.9,1.2 18.3,0.8 C18.3,0.7 18.4,0.7 18.4,0.6 Z" id="XMLID_798_"></path>
                                            </g>
                                        </g>
                                    </g>
                                </g>
                            </g>
                        </g>
                    </g>
                </g>
            </g>
        </g>
    </g>
</svg>