<?xml version="1.0" encoding="UTF-8"?>
<svg width="750px" height="750px" viewBox="0 0 750 750" version="1.1" xmlns="http://www.w3.org/2000/svg" xmlns:xlink="http://www.w3.org/1999/xlink" style="background: #FFFFFF;">
    <!-- Generator: Sketch 61.2 (89653) - https://sketch.com -->
    <title>img_goods_load_failed750</title>
    <desc>Created with Sketch.</desc>
    <defs>
        <linearGradient x1="50%" y1="100%" x2="50%" y2="0%" id="linearGradient-1">
            <stop stop-color="#F8F8F9" offset="0%"></stop>
            <stop stop-color="#DBDEE6" offset="100%"></stop>
        </linearGradient>
    </defs>
    <g id="img_goods_load_failed750" stroke="none" stroke-width="1" fill="none" fill-rule="evenodd">
        <rect fill="#FFFFFF" x="0" y="0" width="750" height="750"></rect>
        <rect id="矩形" fill="#FFFFFF" x="0" y="0" width="750" height="750"></rect>
        <g id="img_goods_load_failed" transform="translate(155.000000, 94.000000)">
            <g id="Rectangle-2">
                <path d="M204.117657,120.607 L195.491126,186.375515 C195.04303,189.79178 196.043475,195.004062 197.718898,198.005323 L218.765174,235.706459 C220.443635,238.71316 221.333724,243.904433 220.754401,247.294728 L213.940797,287.169062 C212.78042,293.959779 214.417694,294.511633 217.592485,288.411779 L238.298947,248.627618 C239.88953,245.571566 240.389009,240.419685 239.412259,237.112759 L227.44592,196.599024 C226.470202,193.295594 226.722127,188.037037 228.014482,184.839177 L252.231341,124.917396 C256.936889,127.762761 260.807493,131.876234 263.558167,136.830105 C358.800978,142.183699 433.914382,218.558065 439.602518,313.482633 L439.753584,316.364759 L439.753584,396.398279 C439.753584,429.590559 414.326964,457.482782 382.352989,461.185541 L381.382096,461.290323 L59.2579592,461.290323 C27.1536408,457.007448 2.46541997,430.464331 1.97486599,397.402143 L1.9674247,396.398279 L1.9674247,344.484644 C0.946524194,338.355951 0.889807499,332.227258 0.886656571,326.098565 L0.886656571,323.935497 C0.889807499,317.806804 0.946524194,311.678111 1.9674247,305.549418 C10.6150525,214.700557 84.1198892,143.31931 174.919982,136.830105 C179.189064,127.219511 189.78071,120.771898 201.492812,120.610207 L201.943819,120.607094 L204.117657,120.607 Z M217.077167,111.954822 C206.267632,85.9980045 188.972377,77.345732 173.839028,73.0195958 C165.1914,69.7749936 159.786633,66.5303915 159.786633,58.9596531 C159.786633,51.3889147 164.110447,44.8997103 171.677121,44.8997103 C205.186679,43.8181762 219.239074,118.444026 217.077167,111.954822 Z M264.63912,10.2906205 C266.801027,17.8613589 262.477213,22.1874951 254.910539,27.5951654 C241.939097,36.2474378 226.805749,48.1443125 223.562888,76.264198 C222.481935,83.8349364 217.077167,8.12755234 249.505772,0.55681393 C257.072446,-1.60625419 262.477213,2.71988205 264.63912,10.2906205 Z" id="形状结合" fill="url(#linearGradient-1)" fill-rule="nonzero"></path>
                <path d="M92.5044389,411.958404 C95.6728565,372.290111 119.132825,341.482975 147.603047,341.482975 C173.62458,341.482975 195.460647,367.218639 201.443521,401.933555 C201.427165,401.131654 201.420251,400.326617 201.420251,399.519368 C201.420251,343.759584 234.407156,298.557348 275.098566,298.557348 C315.789976,298.557348 348.776882,343.759584 348.776882,399.519368 C348.776882,403.730799 348.588708,407.882004 348.223254,411.958057 L92.5044389,411.958404 Z M149.204749,217.831541 C173.442676,217.831541 193.091398,237.480263 193.091398,261.71819 C193.091398,285.956117 173.442676,305.604839 149.204749,305.604839 C124.966822,305.604839 105.3181,285.956117 105.3181,261.71819 C105.3181,237.480263 124.966822,217.831541 149.204749,217.831541 Z" id="形状结合" fill="#DCDFE7"></path>
            </g>
        </g>
        <path d="M388.770492,584.007949 L388.770492,592.45469 L397.076503,592.45469 L397.076503,636.553259 L455,636.553259 L455,645 L388.879781,645 L388.879781,644.890302 L388.661202,644.890302 L388.661202,592.564388 L380.027322,592.564388 L380.027322,584.007949 L388.770492,584.007949 Z M352.377049,589.163752 C361.557377,589.163752 368.989071,596.623211 368.989071,605.837838 C368.989071,613.406995 363.852459,619.769475 356.967213,621.744038 L356.967213,621.744038 L357.185792,644.780604 L348.661202,644.890302 L348.442623,621.963434 C341.229508,620.208267 335.765027,613.626391 335.765027,605.837838 C335.765027,596.623211 343.196721,589.163752 352.377049,589.163752 Z M343.52459,625.144674 L343.52459,644.780604 L335.10929,644.780604 L335.10929,644.670906 L295,644.670906 L295,636.224165 L335.10929,636.224165 L335.10929,625.144674 L343.52459,625.144674 Z M369.644809,625.144674 L369.644809,644.780604 L361.120219,644.780604 L361.120219,625.144674 L369.644809,625.144674 Z M308.005464,576 L308.005464,579.839428 L320.355191,579.839428 L320.355191,594.319555 C328.333333,596.732909 334.125683,604.302067 334.125683,613.077901 C334.125683,623.937997 325.382514,632.713831 314.562842,632.713831 C303.743169,632.713831 295,623.937997 295,613.077901 C295,603.09539 302.322404,594.868045 311.939891,593.661367 L311.939891,593.661367 L311.939891,588.286169 L299.480874,588.286169 L299.480874,576 L308.005464,576 Z M411.939891,576 L411.939891,584.885533 L422.431694,584.885533 L422.431694,576 L430.846995,576 L430.846995,584.885533 L450.956284,584.885533 L450.956284,593.441971 L430.846995,593.441971 L430.846995,604.302067 L452.595628,604.302067 L452.595628,612.858506 L440.027322,612.858506 L440.027322,624.047695 L455,624.047695 L455,632.494436 L431.502732,632.494436 L431.502732,612.858506 L423.306011,612.858506 L411.939891,632.604134 L402.103825,632.604134 L413.469945,612.858506 L401.885246,612.858506 L401.885246,604.302067 L422.431694,604.302067 L422.431694,593.441971 L403.415301,593.441971 L403.415301,576 L411.939891,576 Z M314.672131,601.888712 C309.42623,601.888712 305.054645,605.508744 303.852459,610.335453 L303.852459,610.335453 L317.622951,610.335453 L317.622951,623.828299 C322.322404,622.511924 325.710383,618.124006 325.710383,613.077901 C325.710383,606.825119 320.68306,601.888712 314.672131,601.888712 Z M311.502732,616.368839 L303.961749,616.368839 C305.054645,619.988871 307.896175,622.73132 311.502732,623.718601 L311.502732,623.718601 L311.502732,616.368839 Z M352.377049,597.720191 C347.896175,597.720191 344.289617,601.340223 344.289617,605.837838 C344.289617,610.335453 347.896175,613.955485 352.377049,613.955485 C356.857923,613.955485 360.464481,610.335453 360.464481,605.837838 C360.464481,601.340223 356.857923,597.720191 352.377049,597.720191 Z M356.202186,576 L356.202186,578.084261 L369.644809,578.084261 L369.644809,586.531002 L335.10929,586.531002 L335.10929,578.084261 L347.677596,578.084261 L347.677596,576 L356.202186,576 Z M397.076503,576 L397.076503,583.788553 L388.333333,583.788553 L388.333333,576 L397.076503,576 Z" id="形状结合" fill="#DCDFE7" fill-rule="nonzero"></path>
    </g>
</svg>