<?xml version="1.0" encoding="UTF-8"?>
<svg width="68px" height="68px" viewBox="0 0 68 68" version="1.1" xmlns="http://www.w3.org/2000/svg" xmlns:xlink="http://www.w3.org/1999/xlink">
    <!-- Generator: Sketch 61.2 (89653) - https://sketch.com -->
    <title>img_coupon_default68</title>
    <desc>Created with Sketch.</desc>
    <defs>
        <linearGradient x1="1.43583203%" y1="34.1796875%" x2="100%" y2="65.8203125%" id="linearGradient-1">
            <stop stop-color="#90DAFF" offset="0%"></stop>
            <stop stop-color="#0065FF" offset="100%"></stop>
        </linearGradient>
        <path d="M45.5959316,17.2087734 C45.5959316,18.0608385 46.2919601,18.7515738 47.1505548,18.7515738 C48.0091494,18.7515738 48.7051779,18.0608385 48.7051779,17.2087734 L54.5466981,17.2087734 C56.257435,17.2087734 57.6442612,18.5955996 57.6442612,20.3063365 L57.6442612,27.622676 C55.9270719,27.622676 54.5350149,29.0041466 54.5350149,30.7082768 C54.5350149,32.4124071 55.9270719,33.7938776 57.6442612,33.7938776 L57.6442612,41.1102172 C57.6442612,42.8209541 56.257435,44.2077803 54.5466981,44.2077803 L48.7051779,44.2077803 C48.7051779,43.3557152 48.0091494,42.6649799 47.1505548,42.6649799 C46.2919601,42.6649799 45.5959316,43.3557152 45.5959316,44.2077803 L12.7428337,44.2077803 C11.0320968,44.2077803 9.64527051,42.8209541 9.64527051,41.1102172 L9.64527051,20.3063365 C9.64527051,18.5955996 11.0320968,17.2087734 12.7428337,17.2087734 L45.5959316,17.2087734 Z M47.1505548,39.193679 C46.7212574,39.193679 46.3732432,39.5390467 46.3732432,39.9650792 C46.3732432,40.3911118 46.7212574,40.7364794 47.1505548,40.7364794 C47.5798521,40.7364794 47.9278663,40.3911118 47.9278663,39.9650792 C47.9278663,39.5390467 47.5798521,39.193679 47.1505548,39.193679 Z M47.1505548,36.1080782 C46.7212574,36.1080782 46.3732432,36.4534459 46.3732432,36.8794784 C46.3732432,37.305511 46.7212574,37.6508786 47.1505548,37.6508786 C47.5798521,37.6508786 47.9278663,37.305511 47.9278663,36.8794784 C47.9278663,36.4534459 47.5798521,36.1080782 47.1505548,36.1080782 Z M47.1505548,33.0224774 C46.7212574,33.0224774 46.3732432,33.3678451 46.3732432,33.7938776 C46.3732432,34.2199102 46.7212574,34.5652778 47.1505548,34.5652778 C47.5798521,34.5652778 47.9278663,34.2199102 47.9278663,33.7938776 C47.9278663,33.3678451 47.5798521,33.0224774 47.1505548,33.0224774 Z M47.1505548,29.9368766 C46.7212574,29.9368766 46.3732432,30.2822443 46.3732432,30.7082768 C46.3732432,31.1343094 46.7212574,31.479677 47.1505548,31.479677 C47.5798521,31.479677 47.9278663,31.1343094 47.9278663,30.7082768 C47.9278663,30.2822443 47.5798521,29.9368766 47.1505548,29.9368766 Z M47.1505548,26.8512758 C46.7212574,26.8512758 46.3732432,27.1966435 46.3732432,27.622676 C46.3732432,28.0487086 46.7212574,28.3940762 47.1505548,28.3940762 C47.5798521,28.3940762 47.9278663,28.0487086 47.9278663,27.622676 C47.9278663,27.1966435 47.5798521,26.8512758 47.1505548,26.8512758 Z M47.1505548,23.765675 C46.7212574,23.765675 46.3732432,24.1110427 46.3732432,24.5370752 C46.3732432,24.9631078 46.7212574,25.3084754 47.1505548,25.3084754 C47.5798521,25.3084754 47.9278663,24.9631078 47.9278663,24.5370752 C47.9278663,24.1110427 47.5798521,23.765675 47.1505548,23.765675 Z M47.1505548,20.6800742 C46.7212574,20.6800742 46.3732432,21.0254419 46.3732432,21.4514744 C46.3732432,21.877507 46.7212574,22.2228746 47.1505548,22.2228746 C47.5798521,22.2228746 47.9278663,21.877507 47.9278663,21.4514744 C47.9278663,21.0254419 47.5798521,20.6800742 47.1505548,20.6800742 Z" id="path-2"></path>
        <path d="M45.5959316,23.2087734 C45.5959316,24.0608385 46.2919601,24.7515738 47.1505548,24.7515738 C48.0091494,24.7515738 48.7051779,24.0608385 48.7051779,23.2087734 L54.5466981,23.2087734 C56.257435,23.2087734 57.6442612,24.5955996 57.6442612,26.3063365 L57.6442612,33.622676 C55.9270719,33.622676 54.5350149,35.0041466 54.5350149,36.7082768 C54.5350149,38.4124071 55.9270719,39.7938776 57.6442612,39.7938776 L57.6442612,47.1102172 C57.6442612,48.8209541 56.257435,50.2077803 54.5466981,50.2077803 L48.7051779,50.2077803 C48.7051779,49.3557152 48.0091494,48.6649799 47.1505548,48.6649799 C46.2919601,48.6649799 45.5959316,49.3557152 45.5959316,50.2077803 L12.7428337,50.2077803 C11.0320968,50.2077803 9.64527051,48.8209541 9.64527051,47.1102172 L9.64527051,26.3063365 C9.64527051,24.5955996 11.0320968,23.2087734 12.7428337,23.2087734 L45.5959316,23.2087734 Z M47.1505548,45.193679 C46.7212574,45.193679 46.3732432,45.5390467 46.3732432,45.9650792 C46.3732432,46.3911118 46.7212574,46.7364794 47.1505548,46.7364794 C47.5798521,46.7364794 47.9278663,46.3911118 47.9278663,45.9650792 C47.9278663,45.5390467 47.5798521,45.193679 47.1505548,45.193679 Z M47.1505548,42.1080782 C46.7212574,42.1080782 46.3732432,42.4534459 46.3732432,42.8794784 C46.3732432,43.305511 46.7212574,43.6508786 47.1505548,43.6508786 C47.5798521,43.6508786 47.9278663,43.305511 47.9278663,42.8794784 C47.9278663,42.4534459 47.5798521,42.1080782 47.1505548,42.1080782 Z M47.1505548,39.0224774 C46.7212574,39.0224774 46.3732432,39.3678451 46.3732432,39.7938776 C46.3732432,40.2199102 46.7212574,40.5652778 47.1505548,40.5652778 C47.5798521,40.5652778 47.9278663,40.2199102 47.9278663,39.7938776 C47.9278663,39.3678451 47.5798521,39.0224774 47.1505548,39.0224774 Z M47.1505548,35.9368766 C46.7212574,35.9368766 46.3732432,36.2822443 46.3732432,36.7082768 C46.3732432,37.1343094 46.7212574,37.479677 47.1505548,37.479677 C47.5798521,37.479677 47.9278663,37.1343094 47.9278663,36.7082768 C47.9278663,36.2822443 47.5798521,35.9368766 47.1505548,35.9368766 Z M47.1505548,32.8512758 C46.7212574,32.8512758 46.3732432,33.1966435 46.3732432,33.622676 C46.3732432,34.0487086 46.7212574,34.3940762 47.1505548,34.3940762 C47.5798521,34.3940762 47.9278663,34.0487086 47.9278663,33.622676 C47.9278663,33.1966435 47.5798521,32.8512758 47.1505548,32.8512758 Z M47.1505548,29.765675 C46.7212574,29.765675 46.3732432,30.1110427 46.3732432,30.5370752 C46.3732432,30.9631078 46.7212574,31.3084754 47.1505548,31.3084754 C47.5798521,31.3084754 47.9278663,30.9631078 47.9278663,30.5370752 C47.9278663,30.1110427 47.5798521,29.765675 47.1505548,29.765675 Z M47.1505548,26.6800742 C46.7212574,26.6800742 46.3732432,27.0254419 46.3732432,27.4514744 C46.3732432,27.877507 46.7212574,28.2228746 47.1505548,28.2228746 C47.5798521,28.2228746 47.9278663,27.877507 47.9278663,27.4514744 C47.9278663,27.0254419 47.5798521,26.6800742 47.1505548,26.6800742 Z" id="path-4"></path>
        <linearGradient x1="1.43583203%" y1="33.9367962%" x2="100%" y2="66.0632038%" id="linearGradient-6">
            <stop stop-color="#90DAFF" offset="0%"></stop>
            <stop stop-color="#0065FF" offset="100%"></stop>
        </linearGradient>
        <path d="M35.8155739,-6.66133815e-16 C35.8155739,0.855368445 36.508987,1.54878157 37.3643555,1.54878157 C38.2197239,1.54878157 38.9131371,0.855368445 38.9131371,-6.66133815e-16 L44.721068,0 C46.4318049,2.2805327e-15 47.8186311,1.38682626 47.8186311,3.09756315 L47.8186311,10.4542756 C46.1078942,10.4542756 44.721068,11.8411019 44.721068,13.5518388 C44.721068,15.2625757 46.1078942,16.6494019 47.8186311,16.6494019 L47.8186311,24.0061144 C47.8186311,25.7168513 46.4318049,27.1036776 44.721068,27.1036776 L38.9131371,27.1036776 C38.9131371,26.2483091 38.2197239,25.554896 37.3643555,25.554896 C36.508987,25.554896 35.8155739,26.2483091 35.8155739,27.1036776 L3.09756315,27.1036776 C1.38682626,27.1036776 1.1563966e-15,25.7168513 0,24.0061144 L0,3.09756315 C-2.09504846e-16,1.38682626 1.38682626,-1.46209957e-15 3.09756315,0 L35.8155739,-6.66133815e-16 Z M37.3643555,22.0701374 C36.9366713,22.0701374 36.5899647,22.416844 36.5899647,22.8445282 C36.5899647,23.2722125 36.9366713,23.618919 37.3643555,23.618919 C37.7920397,23.618919 38.1387463,23.2722125 38.1387463,22.8445282 C38.1387463,22.416844 37.7920397,22.0701374 37.3643555,22.0701374 Z M37.3643555,18.9725743 C36.9366713,18.9725743 36.5899647,19.3192809 36.5899647,19.7469651 C36.5899647,20.1746493 36.9366713,20.5213559 37.3643555,20.5213559 C37.7920397,20.5213559 38.1387463,20.1746493 38.1387463,19.7469651 C38.1387463,19.3192809 37.7920397,18.9725743 37.3643555,18.9725743 Z M37.3643555,15.8750111 C36.9366713,15.8750111 36.5899647,16.2217177 36.5899647,16.6494019 C36.5899647,17.0770862 36.9366713,17.4237927 37.3643555,17.4237927 C37.7920397,17.4237927 38.1387463,17.0770862 38.1387463,16.6494019 C38.1387463,16.2217177 37.7920397,15.8750111 37.3643555,15.8750111 Z M37.3643555,12.777448 C36.9366713,12.777448 36.5899647,13.1241546 36.5899647,13.5518388 C36.5899647,13.979523 36.9366713,14.3262296 37.3643555,14.3262296 C37.7920397,14.3262296 38.1387463,13.979523 38.1387463,13.5518388 C38.1387463,13.1241546 37.7920397,12.777448 37.3643555,12.777448 Z M37.3643555,9.67988484 C36.9366713,9.67988484 36.5899647,10.0265914 36.5899647,10.4542756 C36.5899647,10.8819599 36.9366713,11.2286664 37.3643555,11.2286664 C37.7920397,11.2286664 38.1387463,10.8819599 38.1387463,10.4542756 C38.1387463,10.0265914 37.7920397,9.67988484 37.3643555,9.67988484 Z M37.3643555,6.58232169 C36.9366713,6.58232169 36.5899647,6.92902826 36.5899647,7.35671248 C36.5899647,7.7843967 36.9366713,8.13110327 37.3643555,8.13110327 C37.7920397,8.13110327 38.1387463,7.7843967 38.1387463,7.35671248 C38.1387463,6.92902826 37.7920397,6.58232169 37.3643555,6.58232169 Z M37.3643555,3.48475854 C36.9366713,3.48475854 36.5899647,3.83146511 36.5899647,4.25914933 C36.5899647,4.68683355 36.9366713,5.03354012 37.3643555,5.03354012 C37.7920397,5.03354012 38.1387463,4.68683355 38.1387463,4.25914933 C38.1387463,3.83146511 37.7920397,3.48475854 37.3643555,3.48475854 Z" id="path-7"></path>
        <filter x="-10.5%" y="-14.8%" width="120.9%" height="136.9%" filterUnits="objectBoundingBox" id="filter-9">
            <feMorphology radius="0.5" operator="erode" in="SourceAlpha" result="shadowSpreadOuter1"></feMorphology>
            <feOffset dx="0" dy="1" in="shadowSpreadOuter1" result="shadowOffsetOuter1"></feOffset>
            <feGaussianBlur stdDeviation="2" in="shadowOffsetOuter1" result="shadowBlurOuter1"></feGaussianBlur>
            <feColorMatrix values="0 0 0 0 0   0 0 0 0 0.396078431   0 0 0 0 1  0 0 0 0.436762456 0" type="matrix" in="shadowBlurOuter1"></feColorMatrix>
        </filter>
        <path d="M19.1575888,8.8981952 C19.5772095,8.8981952 19.9205354,9.12696389 20.1112721,9.47011692 C23.5063844,9.66075749 26.1766975,12.4059817 26.3292868,15.7993839 L26.3292868,15.7993839 L26.3292868,18.6208644 C26.3292868,19.8028359 25.4137509,20.7941669 24.269331,20.9085513 L24.269331,20.9085513 L12.9014268,20.9085513 C11.7570069,20.7560388 10.8796184,19.8028359 10.8796184,18.6208644 L10.8796184,18.6208644 L10.8796184,16.7907149 C10.841471,16.5619462 10.841471,16.3331775 10.841471,16.1044088 C10.841471,15.8756401 10.841471,15.6468715 10.8796184,15.4181028 C11.184797,12.2153412 13.7788154,9.69888561 16.9831911,9.47011692 C17.1357804,9.12696389 17.5172537,8.8981952 17.9368743,8.8981952 L17.9368743,8.8981952 Z M16.8687491,6.22922719 C18.0513163,6.19109907 18.5472316,8.82193897 18.4709369,8.59317029 C18.0894636,7.67809554 17.4791063,7.37307062 16.9450437,7.22055816 C16.6398651,7.10617382 16.4491285,6.99178948 16.4491285,6.72489268 C16.4491285,6.45799588 16.6017178,6.22922719 16.8687491,6.22922719 Z M19.6153568,4.66597449 C19.8823881,4.58971827 20.0731247,4.74223072 20.1494194,5.00912753 C20.2257141,5.27602433 20.0731247,5.42853678 19.8060934,5.61917736 C19.3483255,5.92420227 18.8142629,6.34361153 18.6998209,7.33494251 C18.6616736,7.60183931 18.4709369,4.9328713 19.6153568,4.66597449 Z" id="path-10"></path>
        <filter x="-3.2%" y="-3.1%" width="106.5%" height="106.1%" filterUnits="objectBoundingBox" id="filter-11">
            <feGaussianBlur stdDeviation="0.5" in="SourceAlpha" result="shadowBlurInner1"></feGaussianBlur>
            <feOffset dx="0" dy="0" in="shadowBlurInner1" result="shadowOffsetInner1"></feOffset>
            <feComposite in="shadowOffsetInner1" in2="SourceAlpha" operator="arithmetic" k2="-1" k3="1" result="shadowInnerInner1"></feComposite>
            <feColorMatrix values="0 0 0 0 0   0 0 0 0 0   0 0 0 0 0  0 0 0 0.322907561 0" type="matrix" in="shadowInnerInner1"></feColorMatrix>
        </filter>
    </defs>
    <g id="img_coupon_default68" stroke="none" stroke-width="1" fill="none" fill-rule="evenodd">
        <rect id="矩形" fill="#FFFFFF" x="0" y="0" width="68" height="68" rx="8"></rect>
        <mask id="mask-3" fill="white">
            <use xlink:href="#path-2"></use>
        </mask>
        <use id="蒙版" fill="url(#linearGradient-1)" opacity="0.202543713" transform="translate(33.645271, 30.708773) rotate(8.000000) translate(-33.645271, -30.708773) " xlink:href="#path-2"></use>
        <mask id="mask-5" fill="white">
            <use xlink:href="#path-4"></use>
        </mask>
        <use id="蒙版" fill="url(#linearGradient-1)" opacity="0.202543713" transform="translate(33.645271, 36.708773) scale(1, -1) rotate(8.000000) translate(-33.645271, -36.708773) " xlink:href="#path-4"></use>
        <g id="形状结合" transform="translate(9.645271, 20.208773)">
            <mask id="mask-8" fill="white">
                <use xlink:href="#path-7"></use>
            </mask>
            <g id="蒙版">
                <use fill="black" fill-opacity="1" filter="url(#filter-9)" xlink:href="#path-7"></use>
                <use fill="url(#linearGradient-6)" fill-rule="evenodd" xlink:href="#path-7"></use>
            </g>
            <path d="M6.28665487,-5.2001448 L6.28665487,34.6809808 L-1.457253,34.6809808 L-1.457253,-5.2001448 L6.28665487,-5.2001448 Z M43.7388969,-14.6678188 L43.7388969,27.9236745 L37.5437706,27.9236745 L37.5437706,-14.6678188 L43.7388969,-14.6678188 Z M36.0436379,-13.1171751 L36.0436379,26.7639505 L32.9460748,26.7639505 L32.9460748,-13.1171751 L36.0436379,-13.1171751 Z" fill="#FFFFFF" opacity="0.0802641369" mask="url(#mask-8)" transform="translate(21.140822, 10.006581) rotate(30.000000) translate(-21.140822, -10.006581) "></path>
            <g opacity="0.201985677" fill-rule="nonzero" mask="url(#mask-8)">
                <use fill="#0A6DFF" xlink:href="#path-10"></use>
                <use fill="black" fill-opacity="1" filter="url(#filter-11)" xlink:href="#path-10"></use>
            </g>
        </g>
    </g>
</svg>