<?xml version="1.0" encoding="UTF-8"?>
<svg width="96px" height="96px" viewBox="0 0 96 96" version="1.1" xmlns="http://www.w3.org/2000/svg" xmlns:xlink="http://www.w3.org/1999/xlink">
    <!-- Generator: Sketch 61.2 (89653) - https://sketch.com -->
    <title>img_goods_load_failed96</title>
    <desc>Created with Sketch.</desc>
    <defs>
        <linearGradient x1="50%" y1="100%" x2="50%" y2="0%" id="linearGradient-1">
            <stop stop-color="#F8F8F9" offset="0%"></stop>
            <stop stop-color="#DBDEE6" offset="100%"></stop>
        </linearGradient>
    </defs>
    <g id="ðŸ”ªåˆ‡å›¾" stroke="none" stroke-width="1" fill="none" fill-rule="evenodd">
        <g id="img" transform="translate(-1825.000000, -1302.000000)">
            <g id="img_goods_load_failed96" transform="translate(1825.000000, 1302.000000)">
                <g>
                    <rect id="çŸ©å½¢" fill="#FFFFFF" fill-rule="evenodd" x="0" y="0" width="96" height="96" rx="8"></rect>
                    <g id="img_goods_load_failed343" stroke-width="1" fill-rule="evenodd" transform="translate(22.000000, 10.000000)">
                        <path d="M23.8917611,14.117 L22.8819233,21.8170389 C22.829608,22.2158888 22.9490075,22.8290769 23.1391003,23.1695987 L25.6102111,27.59621 C25.8045613,27.9443582 25.905858,28.5558036 25.8394982,28.9441517 L25.0431188,33.6046954 C24.90651,34.4041526 25.100524,34.4666982 25.4660564,33.764386 L27.894377,29.0987556 C28.0796867,28.7427127 28.1374473,28.1410379 28.0217938,27.7494764 L26.6237887,23.0163323 C26.5088493,22.6271889 26.5367407,22.0121495 26.6882973,21.6371311 L29.5238556,14.6216982 C30.0745175,14.9547413 30.5274758,15.4361598 30.849389,16.0159148 C41.9890501,16.6420746 50.7761525,25.5685546 51.4537845,36.6676911 L51.4729994,37.0303816 L51.4729994,46.3982765 C51.4729994,50.2391673 48.5642368,53.4737403 44.8818671,53.9656934 L44.6406377,53.9938669 L6.93612288,53.9938669 C3.2228828,53.4985023 0.357230135,50.4590098 0.234391381,46.6531185 L0.230286356,46.3982765 L0.230286356,40.3218042 C0.103761139,39.5622451 0.103761139,38.8026861 0.103761139,38.043127 C0.103761139,37.283568 0.103761139,36.5240089 0.230286356,35.7644499 C1.2424881,25.1306233 9.84620288,16.7754738 20.4743211,16.0159148 C20.955117,14.9335431 22.1210469,14.1939225 23.429713,14.1226664 L23.6374516,14.1170172 L23.8917611,14.117 Z M20.0947455,5.255495 C24.0170272,5.12890182 25.6618551,13.8638308 25.4088046,13.1042718 C24.1435525,10.0660356 22.119149,9.05329021 20.3477959,8.54691752 C19.3355942,8.167138 18.7029681,7.78735848 18.7029681,6.90120626 C18.7029681,6.01505404 19.209069,5.255495 20.0947455,5.255495 Z M30.9759142,1.20451344 C31.2289646,2.09066565 30.7228638,2.59703835 29.8371872,3.23000422 C28.3188846,4.24274961 26.5475316,5.63527452 26.1679559,8.92669704 C26.0414307,9.81284926 25.4088046,0.951327088 29.2045612,0.065174871 C30.0902377,-0.188011477 30.7228638,0.318361219 30.9759142,1.20451344 Z" id="å½¢çŠ¶ç»“åˆ" fill="url(#linearGradient-1)" fill-rule="nonzero"></path>
                        <path d="M10.8275993,48.2197352 C11.1984137,43.5765026 13.9444181,39.9704598 17.2768837,39.9704598 C20.3248521,39.9704598 22.882219,42.9870787 23.5803772,47.0548141 L23.5761682,46.7635988 L23.5761682,46.7635988 C23.5761682,40.2369361 27.4372736,34.9460305 32.2001886,34.9460305 C36.9631035,34.9460305 40.824209,40.2369361 40.824209,46.7635988 C40.824209,47.2565991 40.8021785,47.7425484 40.759393,48.2196991 L10.8275993,48.2197352 Z M17.4643624,25.4971038 C20.3014031,25.4971038 22.6012789,27.7969797 22.6012789,30.6340203 C22.6012789,33.471061 20.3014031,35.7709368 17.4643624,35.7709368 C14.6273218,35.7709368 12.3274459,33.471061 12.3274459,30.6340203 C12.3274459,27.7969797 14.6273218,25.4971038 17.4643624,25.4971038 Z" id="å½¢çŠ¶ç»“åˆ" fill="#DCDFE7"></path>
                    </g>
                    <path d="M51.0983607,71.8569157 L51.0983607,73.8155803 L52.9672131,73.8155803 L52.9672131,84.0413355 L66,84.0413355 L66,86 L51.1229508,86 L51.1229508,85.9745628 L51.0737705,85.9745628 L51.0737705,73.8410175 L49.1311475,73.8410175 L49.1311475,71.8569157 L51.0983607,71.8569157 Z M42.9098361,73.0524642 C44.9754098,73.0524642 46.647541,74.782194 46.647541,76.9189189 C46.647541,78.6740859 45.4918033,80.1494436 43.942623,80.6073132 L43.942623,80.6073132 L43.9918033,85.9491256 L42.0737705,85.9745628 L42.0245902,80.6581876 C40.4016393,80.2511924 39.1721311,78.7249603 39.1721311,76.9189189 C39.1721311,74.782194 40.8442623,73.0524642 42.9098361,73.0524642 Z M40.9180328,81.3958665 L40.9180328,85.9491256 L39.0245902,85.9491256 L39.0245902,85.9236884 L30,85.9236884 L30,83.9650238 L39.0245902,83.9650238 L39.0245902,81.3958665 L40.9180328,81.3958665 Z M46.795082,81.3958665 L46.795082,85.9491256 L44.8770492,85.9491256 L44.8770492,81.3958665 L46.795082,81.3958665 Z M32.9262295,70 L32.9262295,70.8903021 L35.704918,70.8903021 L35.704918,74.2480127 C37.5,74.8076312 38.8032787,76.5627981 38.8032787,78.5977742 C38.8032787,81.1160572 36.8360656,83.1510334 34.4016393,83.1510334 C31.9672131,83.1510334 30,81.1160572 30,78.5977742 C30,76.2829889 31.647541,74.3751987 33.8114754,74.0953895 L33.8114754,74.0953895 L33.8114754,72.8489666 L31.0081967,72.8489666 L31.0081967,70 L32.9262295,70 Z M56.3114754,70 L56.3114754,72.0604134 L58.6721311,72.0604134 L58.6721311,70 L60.5655738,70 L60.5655738,72.0604134 L65.0901639,72.0604134 L65.0901639,74.0445151 L60.5655738,74.0445151 L60.5655738,76.5627981 L65.4590164,76.5627981 L65.4590164,78.5468998 L62.6311475,78.5468998 L62.6311475,81.1414944 L66,81.1414944 L66,83.100159 L60.7131148,83.100159 L60.7131148,78.5468998 L58.8688525,78.5468998 L56.3114754,83.1255962 L54.0983607,83.1255962 L56.6557377,78.5468998 L54.0491803,78.5468998 L54.0491803,76.5627981 L58.6721311,76.5627981 L58.6721311,74.0445151 L54.3934426,74.0445151 L54.3934426,70 L56.3114754,70 Z M34.4262295,76.0031797 C33.2459016,76.0031797 32.2622951,76.8426073 31.9918033,77.9618442 L31.9918033,77.9618442 L35.0901639,77.9618442 L35.0901639,81.09062 C36.147541,80.7853736 36.9098361,79.7678855 36.9098361,78.5977742 C36.9098361,77.1478537 35.7786885,76.0031797 34.4262295,76.0031797 Z M33.7131148,79.3608903 L32.0163934,79.3608903 C32.2622951,80.200318 32.9016393,80.836248 33.7131148,81.0651828 L33.7131148,81.0651828 L33.7131148,79.3608903 Z M42.9098361,75.036566 C41.9016393,75.036566 41.0901639,75.8759936 41.0901639,76.9189189 C41.0901639,77.9618442 41.9016393,78.8012719 42.9098361,78.8012719 C43.9180328,78.8012719 44.7295082,77.9618442 44.7295082,76.9189189 C44.7295082,75.8759936 43.9180328,75.036566 42.9098361,75.036566 Z M43.7704918,70 L43.7704918,70.4833068 L46.795082,70.4833068 L46.795082,72.4419714 L39.0245902,72.4419714 L39.0245902,70.4833068 L41.852459,70.4833068 L41.852459,70 L43.7704918,70 Z M52.9672131,70 L52.9672131,71.8060413 L51,71.8060413 L51,70 L52.9672131,70 Z" id="å½¢çŠ¶ç»“åˆ" fill="#DCDFE7" fill-rule="nonzero"></path>
                </g>
            </g>
        </g>
    </g>
</svg>