<?xml version="1.0" encoding="UTF-8"?>
<svg width="226px" height="226px" viewBox="0 0 226 226" version="1.1" xmlns="http://www.w3.org/2000/svg" xmlns:xlink="http://www.w3.org/1999/xlink">
    <!-- Generator: Sketch 61.2 (89653) - https://sketch.com -->
    <title>img_coupon_default226</title>
    <desc>Created with Sketch.</desc>
    <defs>
        <linearGradient x1="1.43583203%" y1="33.6734694%" x2="100%" y2="66.3265306%" id="linearGradient-1">
            <stop stop-color="#90DAFF" offset="0%"></stop>
            <stop stop-color="#0065FF" offset="100%"></stop>
        </linearGradient>
        <path d="M149.101215,61 C149.101215,63.6509668 151.232847,65.8 153.862348,65.8 C156.49185,65.8 158.623482,63.6509668 158.623482,61 L176.44918,61 C181.723952,61 186,65.2760476 186,70.5508197 L186,93.4 C180.740997,93.4 176.477733,97.6980664 176.477733,103 C176.477733,108.301934 180.740997,112.6 186,112.6 L186,135.44918 C186,140.723952 181.723952,145 176.44918,145 L158.623482,145.001004 L158.623482,145 C158.623482,142.349033 156.49185,140.2 153.862348,140.2 C151.232847,140.2 149.101215,142.349033 149.101215,145 L149.101,145 L48.5508197,145 C43.2760476,145 39,140.723952 39,135.44918 L39,70.5508197 C39,65.2760476 43.2760476,61 48.5508197,61 L149.101215,61 Z M153.862348,129.4 C152.547597,129.4 151.481781,130.474517 151.481781,131.8 C151.481781,133.125483 152.547597,134.2 153.862348,134.2 C155.177099,134.2 156.242915,133.125483 156.242915,131.8 C156.242915,130.474517 155.177099,129.4 153.862348,129.4 Z M153.862348,119.8 C152.547597,119.8 151.481781,120.874517 151.481781,122.2 C151.481781,123.525483 152.547597,124.6 153.862348,124.6 C155.177099,124.6 156.242915,123.525483 156.242915,122.2 C156.242915,120.874517 155.177099,119.8 153.862348,119.8 Z M153.862348,110.2 C152.547597,110.2 151.481781,111.274517 151.481781,112.6 C151.481781,113.925483 152.547597,115 153.862348,115 C155.177099,115 156.242915,113.925483 156.242915,112.6 C156.242915,111.274517 155.177099,110.2 153.862348,110.2 Z M153.862348,100.6 C152.547597,100.6 151.481781,101.674517 151.481781,103 C151.481781,104.325483 152.547597,105.4 153.862348,105.4 C155.177099,105.4 156.242915,104.325483 156.242915,103 C156.242915,101.674517 155.177099,100.6 153.862348,100.6 Z M153.862348,91 C152.547597,91 151.481781,92.0745166 151.481781,93.4 C151.481781,94.7254834 152.547597,95.8 153.862348,95.8 C155.177099,95.8 156.242915,94.7254834 156.242915,93.4 C156.242915,92.0745166 155.177099,91 153.862348,91 Z M153.862348,81.4 C152.547597,81.4 151.481781,82.4745166 151.481781,83.8 C151.481781,85.1254834 152.547597,86.2 153.862348,86.2 C155.177099,86.2 156.242915,85.1254834 156.242915,83.8 C156.242915,82.4745166 155.177099,81.4 153.862348,81.4 Z M153.862348,71.8 C152.547597,71.8 151.481781,72.8745166 151.481781,74.2 C151.481781,75.5254834 152.547597,76.6 153.862348,76.6 C155.177099,76.6 156.242915,75.5254834 156.242915,74.2 C156.242915,72.8745166 155.177099,71.8 153.862348,71.8 Z" id="path-2"></path>
        <path d="M149.101215,81 C149.101215,83.6509668 151.232847,85.8 153.862348,85.8 C156.49185,85.8 158.623482,83.6509668 158.623482,81 L176.44918,81 C181.723952,81 186,85.2760476 186,90.5508197 L186,113.4 C180.740997,113.4 176.477733,117.698066 176.477733,123 C176.477733,128.301934 180.740997,132.6 186,132.6 L186,155.44918 C186,160.723952 181.723952,165 176.44918,165 L158.623482,165.001004 L158.623482,165 C158.623482,162.349033 156.49185,160.2 153.862348,160.2 C151.232847,160.2 149.101215,162.349033 149.101215,165 L149.101,165 L48.5508197,165 C43.2760476,165 39,160.723952 39,155.44918 L39,90.5508197 C39,85.2760476 43.2760476,81 48.5508197,81 L149.101215,81 Z M153.862348,149.4 C152.547597,149.4 151.481781,150.474517 151.481781,151.8 C151.481781,153.125483 152.547597,154.2 153.862348,154.2 C155.177099,154.2 156.242915,153.125483 156.242915,151.8 C156.242915,150.474517 155.177099,149.4 153.862348,149.4 Z M153.862348,139.8 C152.547597,139.8 151.481781,140.874517 151.481781,142.2 C151.481781,143.525483 152.547597,144.6 153.862348,144.6 C155.177099,144.6 156.242915,143.525483 156.242915,142.2 C156.242915,140.874517 155.177099,139.8 153.862348,139.8 Z M153.862348,130.2 C152.547597,130.2 151.481781,131.274517 151.481781,132.6 C151.481781,133.925483 152.547597,135 153.862348,135 C155.177099,135 156.242915,133.925483 156.242915,132.6 C156.242915,131.274517 155.177099,130.2 153.862348,130.2 Z M153.862348,120.6 C152.547597,120.6 151.481781,121.674517 151.481781,123 C151.481781,124.325483 152.547597,125.4 153.862348,125.4 C155.177099,125.4 156.242915,124.325483 156.242915,123 C156.242915,121.674517 155.177099,120.6 153.862348,120.6 Z M153.862348,111 C152.547597,111 151.481781,112.074517 151.481781,113.4 C151.481781,114.725483 152.547597,115.8 153.862348,115.8 C155.177099,115.8 156.242915,114.725483 156.242915,113.4 C156.242915,112.074517 155.177099,111 153.862348,111 Z M153.862348,101.4 C152.547597,101.4 151.481781,102.474517 151.481781,103.8 C151.481781,105.125483 152.547597,106.2 153.862348,106.2 C155.177099,106.2 156.242915,105.125483 156.242915,103.8 C156.242915,102.474517 155.177099,101.4 153.862348,101.4 Z M153.862348,91.8 C152.547597,91.8 151.481781,92.8745166 151.481781,94.2 C151.481781,95.5254834 152.547597,96.6 153.862348,96.6 C155.177099,96.6 156.242915,95.5254834 156.242915,94.2 C156.242915,92.8745166 155.177099,91.8 153.862348,91.8 Z" id="path-4"></path>
        <linearGradient x1="1.43583203%" y1="33.9367962%" x2="100%" y2="66.0632038%" id="linearGradient-6">
            <stop stop-color="#90DAFF" offset="0%"></stop>
            <stop stop-color="#0065FF" offset="100%"></stop>
        </linearGradient>
        <path d="M110.431353,0 C110.431353,2.63738604 112.569377,4.77540986 115.206763,4.77540986 C117.844149,4.77540986 119.982173,2.63738604 119.982173,0 L137.88996,0 C143.164732,-9.68959911e-16 147.440779,4.27604764 147.440779,9.55081971 L147.440779,32.2340165 C142.166007,32.2340165 137.88996,36.5100642 137.88996,41.7848362 C137.88996,47.0596083 142.166007,51.3356559 147.440779,51.3356559 L147.440779,74.0188528 C147.440779,79.2936248 143.164732,83.5696725 137.88996,83.5696725 L119.982173,83.5696725 C119.982173,80.9322864 117.844149,78.7942626 115.206763,78.7942626 C112.569377,78.7942626 110.431353,80.9322864 110.431353,83.5696725 L9.55081971,83.5696725 C4.27604764,83.5696725 -2.90674041e-15,79.2936248 0,74.0188528 L0,9.55081971 C-6.45973274e-16,4.27604764 4.27604764,2.74531675e-15 9.55081971,0 L110.431353,0 Z M115.206763,68.0495904 C113.88807,68.0495904 112.819058,69.1186024 112.819058,70.4372954 C112.819058,71.7559884 113.88807,72.8250003 115.206763,72.8250003 C116.525456,72.8250003 117.594468,71.7559884 117.594468,70.4372954 C117.594468,69.1186024 116.525456,68.0495904 115.206763,68.0495904 Z M115.206763,58.4987707 C113.88807,58.4987707 112.819058,59.5677826 112.819058,60.8864757 C112.819058,62.2051687 113.88807,63.2741806 115.206763,63.2741806 C116.525456,63.2741806 117.594468,62.2051687 117.594468,60.8864757 C117.594468,59.5677826 116.525456,58.4987707 115.206763,58.4987707 Z M115.206763,48.947951 C113.88807,48.947951 112.819058,50.0169629 112.819058,51.3356559 C112.819058,52.654349 113.88807,53.7233609 115.206763,53.7233609 C116.525456,53.7233609 117.594468,52.654349 117.594468,51.3356559 C117.594468,50.0169629 116.525456,48.947951 115.206763,48.947951 Z M115.206763,39.3971313 C113.88807,39.3971313 112.819058,40.4661432 112.819058,41.7848362 C112.819058,43.1035293 113.88807,44.1725412 115.206763,44.1725412 C116.525456,44.1725412 117.594468,43.1035293 117.594468,41.7848362 C117.594468,40.4661432 116.525456,39.3971313 115.206763,39.3971313 Z M115.206763,29.8463116 C113.88807,29.8463116 112.819058,30.9153235 112.819058,32.2340165 C112.819058,33.5527095 113.88807,34.6217215 115.206763,34.6217215 C116.525456,34.6217215 117.594468,33.5527095 117.594468,32.2340165 C117.594468,30.9153235 116.525456,29.8463116 115.206763,29.8463116 Z M115.206763,20.2954919 C113.88807,20.2954919 112.819058,21.3645038 112.819058,22.6831968 C112.819058,24.0018898 113.88807,25.0709017 115.206763,25.0709017 C116.525456,25.0709017 117.594468,24.0018898 117.594468,22.6831968 C117.594468,21.3645038 116.525456,20.2954919 115.206763,20.2954919 Z M115.206763,10.7446722 C113.88807,10.7446722 112.819058,11.8136841 112.819058,13.1323771 C112.819058,14.4510701 113.88807,15.520082 115.206763,15.520082 C116.525456,15.520082 117.594468,14.4510701 117.594468,13.1323771 C117.594468,11.8136841 116.525456,10.7446722 115.206763,10.7446722 Z" id="path-7"></path>
        <filter x="-10.9%" y="-16.8%" width="121.7%" height="138.3%" filterUnits="objectBoundingBox" id="filter-9">
            <feMorphology radius="1" operator="erode" in="SourceAlpha" result="shadowSpreadOuter1"></feMorphology>
            <feOffset dx="0" dy="2" in="shadowSpreadOuter1" result="shadowOffsetOuter1"></feOffset>
            <feGaussianBlur stdDeviation="6" in="shadowOffsetOuter1" result="shadowBlurOuter1"></feGaussianBlur>
            <feColorMatrix values="0 0 0 0 0   0 0 0 0 0.396078431   0 0 0 0 1  0 0 0 0.436762456 0" type="matrix" in="shadowBlurOuter1"></feColorMatrix>
        </filter>
        <path d="M59.0692323,27.4361019 C60.3630625,27.4361019 61.4216509,28.141472 62.0097556,29.1995272 C72.4780185,29.7873356 80.7114838,38.251777 81.1819675,48.7147671 L81.1819675,48.7147671 L81.1819675,57.4143319 C81.1819675,61.0587442 78.3590652,64.115348 74.8304372,64.4680331 L74.8304372,64.4680331 L39.7793993,64.4680331 C36.2507714,63.9977863 33.5454899,61.0587442 33.5454899,57.4143319 L33.5454899,57.4143319 L33.5454899,51.7713709 C33.427869,51.0660008 33.427869,50.3606307 33.427869,49.6552606 L33.42881,49.2320385 C33.4325738,48.6677424 33.4513932,48.1034463 33.5454899,47.5391502 C34.4864574,37.6639686 42.4846808,29.9048973 52.3648391,29.1995272 C52.8353228,28.141472 54.0115322,27.4361019 55.3053624,27.4361019 L55.3053624,27.4361019 Z M52.0119763,19.2067838 C55.6582252,19.0892221 57.1872973,27.2009785 56.9520555,26.4956084 C55.7758461,23.6741279 53.8939112,22.7336344 52.2472182,22.2633877 C51.3062507,21.9107026 50.7181461,21.5580176 50.7181461,20.7350858 C50.7181461,19.9121539 51.1886298,19.2067838 52.0119763,19.2067838 Z M60.4806834,14.3867547 C61.30403,14.1516313 61.8921346,14.6218781 62.1273765,15.4448099 C62.3626184,16.2677417 61.8921346,16.7379884 61.0687881,17.3257969 C59.6573369,18.2662903 58.0106439,19.5594689 57.6577811,22.6160727 C57.5401601,23.4390045 56.9520555,15.2096865 60.4806834,14.3867547 Z" id="path-10"></path>
        <filter x="-4.2%" y="-4.0%" width="108.4%" height="108.0%" filterUnits="objectBoundingBox" id="filter-11">
            <feGaussianBlur stdDeviation="1.5" in="SourceAlpha" result="shadowBlurInner1"></feGaussianBlur>
            <feOffset dx="0" dy="1" in="shadowBlurInner1" result="shadowOffsetInner1"></feOffset>
            <feComposite in="shadowOffsetInner1" in2="SourceAlpha" operator="arithmetic" k2="-1" k3="1" result="shadowInnerInner1"></feComposite>
            <feColorMatrix values="0 0 0 0 0   0 0 0 0 0   0 0 0 0 0  0 0 0 0.322907561 0" type="matrix" in="shadowInnerInner1"></feColorMatrix>
        </filter>
    </defs>
    <g id="img_coupon_default226" stroke="none" stroke-width="1" fill="none" fill-rule="evenodd">
        <rect id="矩形" fill="#FFFFFF" x="0" y="0" width="226" height="226" rx="8"></rect>
        <mask id="mask-3" fill="white">
            <use xlink:href="#path-2"></use>
        </mask>
        <use id="蒙版" fill="url(#linearGradient-1)" opacity="0.202543713" transform="translate(112.500000, 103.000000) rotate(8.000000) translate(-112.500000, -103.000000) " xlink:href="#path-2"></use>
        <mask id="mask-5" fill="white">
            <use xlink:href="#path-4"></use>
        </mask>
        <use id="蒙版" fill="url(#linearGradient-1)" opacity="0.202543713" transform="translate(112.500000, 123.000000) scale(1, -1) rotate(8.000000) translate(-112.500000, -123.000000) " xlink:href="#path-4"></use>
        <g id="形状结合" transform="translate(39.000000, 72.000000)">
            <mask id="mask-8" fill="white">
                <use xlink:href="#path-7"></use>
            </mask>
            <g id="蒙版">
                <use fill="black" fill-opacity="1" filter="url(#filter-9)" xlink:href="#path-7"></use>
                <use fill="url(#linearGradient-6)" fill-rule="evenodd" xlink:href="#path-7"></use>
            </g>
            <path d="M19.3838525,-16.0337798 L19.3838525,106.933024 L-4.49319676,106.933024 L-4.49319676,-16.0337798 L19.3838525,-16.0337798 Z M134.861599,-45.2257748 L134.861599,86.0979963 L115.759959,86.0979963 L115.759959,-45.2257748 L134.861599,-45.2257748 Z M111.13455,-40.4446231 L111.13455,82.5221807 L101.583731,82.5221807 L101.583731,-40.4446231 L111.13455,-40.4446231 Z" fill="#FFFFFF" opacity="0.0802641369" mask="url(#mask-8)" transform="translate(65.184201, 30.853625) rotate(30.000000) translate(-65.184201, -30.853625) "></path>
            <g opacity="0.201985677" fill-rule="nonzero" mask="url(#mask-8)">
                <use fill="#0A6DFF" xlink:href="#path-10"></use>
                <use fill="black" fill-opacity="1" filter="url(#filter-11)" xlink:href="#path-10"></use>
            </g>
        </g>
    </g>
</svg>