<?xml version="1.0" encoding="UTF-8"?>
<svg width="260px" height="200px" viewBox="0 0 260 200" version="1.1" xmlns="http://www.w3.org/2000/svg" xmlns:xlink="http://www.w3.org/1999/xlink">
    <!-- Generator: Sketch 61.2 (89653) - https://sketch.com -->
    <title>img_songda</title>
    <desc>Created with Sketch.</desc>
    <g id="🔪切图" stroke="none" stroke-width="1" fill="none" fill-rule="evenodd">
        <g id="img" transform="translate(-210.000000, -83.000000)">
            <g id="img_songda" transform="translate(210.000000, 83.000000)">
                <g id="empty/songda">
                    <g id="编组-4" transform="translate(149.100000, 13.000000)">
                        <g id="XMLID_1700_" transform="translate(48.900000, 168.800000)" fill="#F6F6F8" fill-rule="nonzero">
                            <g id="XMLID_1701_">
                                <g id="XMLID_1702_">
                                    <g id="XMLID_1703_">
                                        <g id="XMLID_1704_">
                                            <ellipse id="XMLID_1705_" cx="18.7" cy="2.6" rx="18.3" ry="2.1"></ellipse>
                                        </g>
                                    </g>
                                </g>
                            </g>
                        </g>
                        <g id="XMLID_1694_" transform="translate(0.900000, 28.800000)" fill="#72D0EB" fill-rule="nonzero">
                            <g id="XMLID_1695_">
                                <g id="XMLID_1696_">
                                    <g id="XMLID_1697_">
                                        <g id="XMLID_1698_">
                                            <path d="M103.4,46.5 C102.5,23.8 84.5,5.5 61.9,4.1 C60.7,1.8 58.3,0.2 55.5,0.2 L47.4,0.2 C44.6,0.2 42.2,1.8 41,4.1 C19.6,5.7 2.4,22.5 0.3,43.8 C0.2,45.3 0.1,46.8 0.1,48.3 C0.1,49.8 0.2,51.3 0.3,52.8 L0.3,65.1 C0.3,72.9 6.2,79.4 13.8,80.3 C14.4,80.4 15,80.4 15.6,80.4 L20.9,80.4 L24.9,80.4 L88.2,80.4 C88.7,80.4 89.3,80.4 89.8,80.3 C97.5,79.5 103.5,73 103.5,65.1 L103.5,50.1 C103.5,49.5 103.5,48.9 103.5,48.3 C103.4,47.7 103.4,47.1 103.4,46.5 Z" id="XMLID_1699_"></path>
                                        </g>
                                    </g>
                                </g>
                            </g>
                        </g>
                        <g id="XMLID_1688_" transform="translate(23.900000, 32.800000)" fill="#72D0EB" fill-rule="nonzero">
                            <g id="XMLID_1689_">
                                <g id="XMLID_1690_">
                                    <g id="XMLID_1691_">
                                        <g id="XMLID_1692_">
                                            <path d="M18,0 C11.6,0.4 5.6,2.3 0.3,5.3 C5.6,2.4 11.6,0.6 17.9,0.2 C17.9,0.1 18,0.1 18,0 Z" id="XMLID_1693_"></path>
                                        </g>
                                    </g>
                                </g>
                            </g>
                        </g>
                        <g id="XMLID_1682_" transform="translate(61.900000, 31.800000)" fill="#C8C8C8" fill-rule="nonzero">
                            <g id="XMLID_1683_">
                                <g id="XMLID_1684_">
                                    <g id="XMLID_1685_">
                                        <g id="XMLID_1686_">
                                            <path d="M1.5,1.2 C1.3,1.2 1,1.1 0.8,1.1 C0.8,1.1 0.8,1.1 0.8,1.1 C1.1,1.2 1.3,1.2 1.5,1.2 Z" id="XMLID_1687_"></path>
                                        </g>
                                    </g>
                                </g>
                            </g>
                        </g>
                        <g id="XMLID_1676_" transform="translate(37.900000, 10.800000)" fill="#72D0EB" fill-rule="nonzero">
                            <g id="XMLID_1677_">
                                <g id="XMLID_1678_">
                                    <g id="XMLID_1679_">
                                        <g id="XMLID_1680_">
                                            <path d="M13.9,16.3 C11.4,10.2 7.2,8.3 3.8,7.2 C1.7,6.5 0.5,5.8 0.5,3.9 C0.5,2.1 1.5,0.7 3.4,0.6 C11.3,0.4 14.6,18.1 13.9,16.3 Z" id="XMLID_1681_"></path>
                                        </g>
                                    </g>
                                </g>
                            </g>
                        </g>
                        <g id="XMLID_1670_" transform="translate(52.900000, 0.800000)" fill="#72D0EB" fill-rule="nonzero">
                            <g id="XMLID_1671_">
                                <g id="XMLID_1672_">
                                    <g id="XMLID_1673_">
                                        <g id="XMLID_1674_">
                                            <path d="M0.6,18 C1.5,11.4 5,8.5 8,6.6 C9.8,5.4 10.9,4.4 10.4,2.6 C9.9,0.8 8.6,-0.2 6.8,0.2 C-1,1.9 0.4,19.8 0.6,18 Z" id="XMLID_1675_"></path>
                                        </g>
                                    </g>
                                </g>
                            </g>
                        </g>
                        <g id="XMLID_1655_" opacity="0.8" transform="translate(65.900000, 36.800000)" fill="#FFFFFF" fill-rule="nonzero">
                            <g id="XMLID_1663_" transform="translate(11.000000, 5.000000)">
                                <g id="XMLID_1664_">
                                    <g id="XMLID_1665_">
                                        <g id="XMLID_1666_">
                                            <g id="XMLID_1667_">
                                                <g id="XMLID_1668_">
                                                    <path d="M12.8,14.7 C12.1,14.7 11.4,14.4 11,13.7 C8.5,10 5.2,6.8 1.3,4.5 C0.3,3.9 -0.1,2.5 0.6,1.5 C1.2,0.5 2.6,0.1 3.6,0.8 C8,3.5 11.8,7.1 14.7,11.4 C15.4,12.4 15.1,13.8 14.1,14.5 C13.7,14.6 13.2,14.7 12.8,14.7 Z" id="XMLID_1669_"></path>
                                                </g>
                                            </g>
                                        </g>
                                    </g>
                                </g>
                            </g>
                            <g id="XMLID_1656_">
                                <g id="XMLID_1657_">
                                    <g id="XMLID_1658_">
                                        <g id="XMLID_1659_">
                                            <g id="XMLID_1660_">
                                                <g id="XMLID_1661_">
                                                    <path d="M6.2,6 C6,6 5.7,6 5.5,5.9 C4.5,5.6 3.6,5.3 2.6,5.1 C1.4,4.8 0.7,3.6 0.9,2.5 C1.2,1.3 2.4,0.6 3.5,0.8 C4.6,1.1 5.8,1.4 6.9,1.7 C8.1,2.1 8.7,3.3 8.3,4.5 C8,5.4 7.1,6 6.2,6 Z" id="XMLID_1662_"></path>
                                                </g>
                                            </g>
                                        </g>
                                    </g>
                                </g>
                            </g>
                        </g>
                        <g id="XMLID_1648_" transform="translate(12.900000, 93.800000)" fill="#FFAFBB" fill-rule="nonzero">
                            <g id="XMLID_1649_">
                                <g id="XMLID_1650_">
                                    <g id="XMLID_1651_">
                                        <g id="XMLID_1652_">
                                            <g id="XMLID_1653_">
                                                <circle id="XMLID_1654_" cx="3.5" cy="3.4" r="3.4"></circle>
                                            </g>
                                        </g>
                                    </g>
                                </g>
                            </g>
                        </g>
                        <g id="XMLID_1641_" transform="translate(84.900000, 93.800000)" fill="#FFAFBB" fill-rule="nonzero">
                            <g id="XMLID_1642_">
                                <g id="XMLID_1643_">
                                    <g id="XMLID_1644_">
                                        <g id="XMLID_1645_">
                                            <g id="XMLID_1646_">
                                                <circle id="XMLID_1647_" cx="4.3" cy="3.4" r="3.4"></circle>
                                            </g>
                                        </g>
                                    </g>
                                </g>
                            </g>
                        </g>
                        <g id="XMLID_1629_" transform="translate(6.900000, 72.800000)" fill="#231815" fill-rule="nonzero">
                            <g id="XMLID_1630_">
                                <g id="XMLID_1631_">
                                    <g id="XMLID_1632_">
                                        <g id="XMLID_1633_">
                                            <path d="M9.5,0.5 C3.7,0.5 0.3,5.2 0.3,13.5 C0.3,14 0.3,14.5 0.4,15 C0.5,15.6 1,16.1 1.6,16.1 C1.6,16.1 1.7,16.1 1.7,16.1 C2.4,16 2.9,15.5 2.8,14.8 C2.8,14.4 2.7,13.9 2.7,13.5 C2.7,9.6 3.6,2.9 9.4,2.9 C15.3,2.9 16.1,9.5 16.1,13.5 C16.1,13.9 16.1,14.2 16.1,14.5 C16.1,15.2 16.6,15.7 17.2,15.8 C17.9,15.8 18.4,15.3 18.5,14.7 C18.5,14.3 18.5,13.9 18.5,13.5 C18.7,5.2 15.3,0.5 9.5,0.5 Z" id="XMLID_1634_"></path>
                                        </g>
                                    </g>
                                </g>
                            </g>
                        </g>
                        <g id="XMLID_1623_" transform="translate(79.900000, 72.800000)" fill="#231815" fill-rule="nonzero">
                            <g id="XMLID_1624_">
                                <g id="XMLID_1625_">
                                    <g id="XMLID_1626_">
                                        <g id="XMLID_1627_">
                                            <path d="M9.3,0.5 C3.5,0.5 0.1,5.2 0.1,13.5 C0.1,14 0.1,14.5 0.2,15 C0.3,15.6 0.8,16.1 1.4,16.1 C1.4,16.1 1.5,16.1 1.5,16.1 C2.2,16 2.7,15.5 2.6,14.8 C2.6,14.4 2.5,13.9 2.5,13.5 C2.5,9.6 3.4,2.9 9.2,2.9 C15.1,2.9 15.9,9.5 15.9,13.5 C15.9,13.9 15.9,14.2 15.9,14.5 C15.9,15.2 16.4,15.7 17,15.8 C17.7,15.8 18.2,15.3 18.3,14.7 C18.3,14.3 18.3,13.9 18.3,13.5 C18.5,5.2 15.1,0.5 9.3,0.5 Z" id="XMLID_1628_"></path>
                                        </g>
                                    </g>
                                </g>
                            </g>
                        </g>
                        <g id="XMLID_149_" opacity="0.4" transform="translate(78.900000, 107.800000)" fill="#B7B7B7" fill-rule="nonzero">
                            <g id="XMLID_150_">
                                <g id="XMLID_380_">
                                    <g id="XMLID_1588_">
                                        <g id="XMLID_1620_">
                                            <path d="M0.5,1.5 L1.4,1.5 C1.4,1.4 1.4,1.4 1.4,1.3 C1.2,1.3 0.9,1.4 0.5,1.5 Z" id="XMLID_1621_"></path>
                                        </g>
                                    </g>
                                </g>
                            </g>
                        </g>
                        <g id="XMLID_93_" transform="translate(17.900000, 105.800000)" fill="#72D0EB" fill-rule="nonzero">
                            <g id="XMLID_101_">
                                <g id="XMLID_103_">
                                    <g id="XMLID_107_">
                                        <g id="XMLID_118_">
                                            <path d="M11.7,2.5 L8.1,3 L0.3,11.6 C0.3,11.6 41.8,17.5 48,44.9 C48,44.9 40.4,57.1 48.4,64.6 C48.9,65.1 49.7,64.8 49.9,64.1 C50.8,59.3 55.1,44.6 72.3,42.1 C73,42 73.3,41.2 72.9,40.7 C71.7,39 68.4,36.3 59.9,36.7 C59.9,36.7 51.5,31.2 52.1,20.1 C52.7,9 67.2,4.6 75.3,15 C75.3,15 79.2,8.3 72.6,0.4 L11.7,2.5 Z" id="XMLID_147_"></path>
                                        </g>
                                    </g>
                                </g>
                            </g>
                        </g>
                        <path d="M29,111.4 C29,111.4 19.5,99.5 4.1,112.6 L2.1,121.3 C2.1,121.3 14.3,116 20.3,117.7 L29,111.4 Z" id="XMLID_92_" fill="#72D0EB" fill-rule="nonzero"></path>
                        <g id="XMLID_71_" transform="translate(1.900000, 105.800000)">
                            <g id="XMLID_72_">
                                <g id="XMLID_74_">
                                    <g id="XMLID_80_">
                                        <g id="XMLID_83_">
                                            <g id="XMLID_85_"></g>
                                        </g>
                                    </g>
                                </g>
                            </g>
                        </g>
                        <path d="M29,111.4 C28.6,111 28.2,110.6 27.7,110.2 C27.3,109.8 26.8,109.5 26.3,109.2 C25.8,108.9 25.3,108.6 24.8,108.4 C24.3,108.2 23.8,107.9 23.2,107.7 C22.7,107.5 22.1,107.3 21.6,107.2 C21,107.1 20.5,106.9 19.9,106.9 C19.3,106.9 18.8,106.7 18.2,106.8 C17.6,106.8 17.1,106.8 16.5,106.9 L14.8,107.2 C14.2,107.3 13.7,107.5 13.2,107.7 L12.4,108 C12.1,108.1 11.9,108.2 11.6,108.3 L10,109 C9.5,109.2 9,109.6 8.5,109.9 L7,110.8 C6.1,111.5 5.2,112.2 4.2,112.9 L4.3,112.7 L3.2,117 C2.8,118.4 2.4,119.9 2,121.3 C2.2,119.8 2.5,118.4 2.8,116.9 L3.7,112.5 L3.7,112.4 L3.8,112.3 C4.7,111.6 5.6,110.8 6.6,110.1 C7.1,109.8 7.6,109.5 8.1,109.2 C8.6,108.9 9.1,108.6 9.6,108.3 L11.2,107.6 C11.5,107.5 11.7,107.3 12,107.2 L12.9,106.9 C13.5,106.7 14,106.5 14.6,106.4 L16.4,106.1 C17,106 17.6,106.1 18.2,106 C18.8,106 19.4,106.1 20,106.1 C20.6,106.2 21.2,106.3 21.7,106.5 C22.3,106.6 22.8,106.9 23.4,107.1 C24,107.3 24.5,107.6 25,107.9 C25.5,108.2 26,108.5 26.5,108.9 C27,109.3 27.4,109.6 27.8,110 C28.3,110.5 28.6,111 29,111.4 Z" id="XMLID_86_" fill="#569BAF" fill-rule="nonzero"></path>
                        <g id="XMLID_55_" transform="translate(40.900000, 107.800000)" fill-rule="nonzero">
                            <g id="XMLID_62_" fill="#FFFFFF">
                                <g id="XMLID_66_">
                                    <g id="XMLID_67_">
                                        <g id="XMLID_68_">
                                            <g id="XMLID_69_">
                                                <path d="M27.3,0.8 L0.1,0.8 C9.2,6.8 16.9,14.6 22.1,23.1 C22.1,23.2 22.2,23.3 22.2,23.4 C22.3,23.6 22.4,23.8 22.6,24 C23.2,24.8 24.2,25.3 25.1,25.3 C26.1,25.3 26.5,24.6 26.1,23.6 C26.1,23.5 26,23.4 26,23.4 C26,23.4 26,23.4 26,23.4 C22.5,14.8 24,6.1 27.3,0.8 Z" id="XMLID_70_"></path>
                                            </g>
                                        </g>
                                    </g>
                                </g>
                            </g>
                            <g id="XMLID_56_" transform="translate(7.000000, 0.000000)" fill="#000000">
                                <g id="XMLID_57_">
                                    <g id="XMLID_58_">
                                        <g id="XMLID_59_">
                                            <g id="XMLID_60_">
                                                <polygon id="XMLID_61_" points="10.7 0.8 0.4 0.8 4.6 3.7 10.1 16 14.1 17.4 16.8 16 9.5 3.5"></polygon>
                                            </g>
                                        </g>
                                    </g>
                                </g>
                            </g>
                        </g>
                        <path d="M50.1,102.5 C49.4,102.5 48.8,102.3 48.3,101.9 C47.2,101.1 46.6,99.6 46.9,98.2 C47,97.6 47.3,97.1 47.7,96.7 L47.9,96.5 L47.7,96.3 C47.3,95.9 47.1,95.5 46.9,95.1 C46.5,94.1 46.7,93.1 47.3,92.2 C47.8,91.4 48.8,91 49.9,91 C51.1,91 52.1,91.4 52.5,92.1 C52.7,92.5 52.7,92.9 52.3,93.2 C52.2,93.3 52,93.3 51.8,93.3 C51.5,93.3 51.3,93.2 51.1,93 C50.9,92.7 50.3,92.6 49.9,92.6 C49.3,92.6 48.8,92.8 48.6,93.1 C48.3,93.6 48.2,94.1 48.4,94.6 C48.6,95.2 49.1,95.6 49.8,95.9 C50.2,96 50.4,96.4 50.4,96.7 C50.4,97.1 50.1,97.4 49.7,97.4 C49,97.5 48.6,97.9 48.4,98.5 C48.2,99.3 48.5,100.2 49.1,100.6 C49.3,100.8 49.6,100.9 50,100.9 C50.6,100.9 51.2,100.6 51.7,100.3 C51.8,100.2 52,100.2 52.1,100.2 C52.4,100.2 52.6,100.3 52.8,100.6 C53,101 52.9,101.5 52.6,101.7 C51.8,102.2 50.9,102.5 50.1,102.5 Z" id="路径" fill="#231815" fill-rule="nonzero"></path>
                    </g>
                    <g id="编组" transform="translate(5.000000, 66.800000)">
                        <g transform="translate(32.000000, 0.000000)" fill-rule="nonzero">
                            <g transform="translate(16.000000, 8.000000)">
                                <rect id="矩形" fill="#C6C6C6" x="2.3" y="2.3" width="14.8" height="20.2"></rect>
                                <path d="M0.3,2.3 L0.3,22.5 C0.3,23.6 1.2,24.5 2.3,24.5 L17.1,24.5 C18.2,24.5 19.1,23.6 19.1,22.5 L19.1,2.3 C19.1,1.2 18.2,0.3 17.1,0.3 L2.3,0.3 C1.2,0.3 0.3,1.2 0.3,2.3 Z M2.3,2.3 L17.1,2.3 L17.1,22.5 L2.3,22.5 L2.3,2.3 Z" id="形状" fill="#000000"></path>
                            </g>
                            <rect id="矩形" fill="#B2B2B2" x="18.3" y="10.3" width="2.1" height="20.2"></rect>
                            <rect id="矩形" fill="#DADADA" x="31" y="10.3" width="2.1" height="20.2"></rect>
                            <g transform="translate(48.000000, 7.000000)">
                                <circle id="椭圆形" fill="#95C11F" cx="9.3" cy="8.8" r="6.7"></circle>
                                <path d="M0.6,8.8 C0.6,13.6 4.5,17.5 9.3,17.5 C14.1,17.5 18,13.6 18,8.8 C18,4 14.1,0.1 9.3,0.1 C4.5,0.1 0.6,4 0.6,8.8 Z M2.6,8.8 C2.6,5.1 5.6,2.1 9.3,2.1 C13,2.1 16,5.1 16,8.8 C16,12.5 13,15.5 9.3,15.5 C5.6,15.5 2.6,12.5 2.6,8.8 Z" id="形状" fill="#000000"></path>
                            </g>
                            <g transform="translate(4.000000, 14.000000)">
                                <circle id="椭圆形" fill="#95C11F" cx="8.8" cy="9.2" r="6.7"></circle>
                                <path d="M0.1,9.2 C0.1,14 4,17.9 8.8,17.9 C13.6,17.9 17.5,14 17.5,9.2 C17.5,4.4 13.6,0.5 8.8,0.5 C4,0.5 0.1,4.4 0.1,9.2 Z M2.2,9.2 C2.2,5.5 5.2,2.5 8.9,2.5 C12.6,2.5 15.6,5.5 15.6,9.2 C15.6,12.9 12.6,15.9 8.9,15.9 C5.2,15.9 2.2,12.9 2.2,9.2 Z" id="形状" fill="#000000"></path>
                            </g>
                            <path d="M56.2,9.3 C54,10.4 52.4,12.6 52.4,15.3 C52.4,19 55.4,22 59.1,22 C59.5,22 59.8,21.9 60.2,21.9 C59.3,22.3 58.4,22.6 57.3,22.6 C53.6,22.6 50.6,19.6 50.6,15.9 C50.6,12.5 53,9.8 56.2,9.3 Z" id="路径" fill="#63A629"></path>
                            <path d="M58.4,9.3 C60.6,10.4 62.2,12.6 62.2,15.3 C62.2,19 59.2,22 55.5,22 C55.1,22 54.8,21.9 54.4,21.9 C55.3,22.3 56.2,22.6 57.3,22.6 C61,22.6 64,19.6 64,15.9 C63.9,12.5 61.5,9.8 58.4,9.3 Z" id="路径" fill="#B3DA39"></path>
                            <path d="M13.9,16.7 C16.1,17.8 17.7,20 17.7,22.7 C17.7,26.4 14.7,29.4 11,29.4 C10.6,29.4 10.3,29.3 9.9,29.3 C10.8,29.7 11.7,30 12.8,30 C16.5,30 19.5,27 19.5,23.3 C19.5,19.9 17.1,17.2 13.9,16.7 Z" id="路径" fill="#B3DA39"></path>
                            <path d="M11.6,16.7 C9.4,17.8 7.8,20 7.8,22.7 C7.8,26.4 10.8,29.4 14.5,29.4 C14.9,29.4 15.2,29.3 15.6,29.3 C14.7,29.7 13.8,30 12.7,30 C9,30 6,27 6,23.3 C6.1,19.9 8.5,17.2 11.6,16.7 Z" id="路径" fill="#63A629"></path>
                            <g transform="translate(38.000000, 0.000000)">
                                <ellipse id="椭圆形" fill="#CA9E67" cx="5.8" cy="18.4" rx="3.3" ry="16"></ellipse>
                                <path d="M0.5,18.4 C0.5,25.1 1.2,36.4 5.8,36.4 C10.4,36.4 11.1,25.1 11.1,18.4 C11.1,11.7 10.4,0.4 5.8,0.4 C1.2,0.4 0.5,11.6 0.5,18.4 Z M2.6,18.4 C2.6,9.6 4.1,2.4 5.9,2.4 C7.7,2.4 9.2,9.5 9.2,18.4 C9.2,27.2 7.7,34.4 5.9,34.4 C4.1,34.4 2.6,27.2 2.6,18.4 Z" id="形状" fill="#000000"></path>
                            </g>
                            <path d="M43.8,2.4 C43.9,2.4 43.9,2.4 44,2.5 C43.2,5.4 42.7,10 42.7,15.1 C42.7,23.6 44,30.5 45.7,31 C45.1,33.1 44.5,34.4 43.7,34.4 C41.9,34.4 40.4,27.3 40.4,18.4 C40.6,9.5 42,2.4 43.8,2.4 Z" id="路径" fill="#B17F4A"></path>
                            <g transform="translate(34.000000, 14.000000)">
                                <path d="M3.9,6.4 L7.7,2.3 L11.5,6.4 L15.3,2.3 L19.1,6.4 L22.9,2.3 L26.7,6.4 L30.5,2.3 L34.3,6.4 C34.3,6.4 36.1,7.9 36.1,9.6 L32.8,39.7 C32.8,41.5 31.6,42.9 30.2,42.9 L7.8,42.9 C6.4,42.9 5.2,41.4 5.2,39.7 L1.9,9.6 C2.1,7.9 3.9,6.4 3.9,6.4 Z" id="路径" fill="#FFD700"></path>
                                <path d="M0.1,9.7 C0.1,9.8 0.1,9.8 0.1,9.9 L3.3,39.9 C3.4,42.8 5.4,45.1 7.9,45.1 L30.3,45.1 C32.8,45.1 34.9,42.8 34.9,39.9 L38.1,9.9 C38.1,9.8 38.1,9.8 38.1,9.7 C38.1,7.3 36.2,5.5 35.7,5 L32,1 C31.6,0.6 31.1,0.3 30.5,0.3 L30.5,0.3 C29.9,0.3 29.4,0.5 29,1 L26.7,3.5 L24.4,1 C24,0.6 23.5,0.3 22.9,0.3 L22.9,0.3 C22.3,0.3 21.8,0.5 21.4,0.9 L19.1,3.4 L16.8,0.9 C16.4,0.5 15.9,0.3 15.3,0.3 L15.3,0.3 C14.7,0.3 14.2,0.5 13.8,0.9 L11.5,3.4 L9.2,0.9 C8.8,0.5 8.3,0.3 7.7,0.3 C7.1,0.3 6.6,0.5 6.2,0.9 L2.5,4.9 C1.9,5.4 0.1,7.2 0.1,9.7 Z M2.1,9.7 C2.1,7.9 3.9,6.5 3.9,6.5 L7.7,2.4 L11.5,6.5 L15.3,2.4 L19.1,6.5 L22.9,2.4 L26.7,6.5 L30.5,2.4 L34.3,6.5 C34.3,6.5 36.1,8 36.1,9.7 L32.8,39.8 C32.8,41.6 31.6,43 30.2,43 L7.8,43 C6.4,43 5.2,41.5 5.2,39.8 L2.1,9.7 Z" id="形状" fill="#000000"></path>
                            </g>
                            <g transform="translate(40.000000, 16.000000)" fill="#FFED8E" id="路径">
                                <polygon points="3 5.4 0 2.2 1.7 0.3 4.7 3.6"></polygon>
                                <polygon points="10.6 5.4 7.6 2.2 9.3 0.3 12.4 3.6"></polygon>
                                <polygon points="18.2 5.4 15.2 2.2 17 0.3 20 3.6"></polygon>
                                <path d="M24.4,38.7 L27.7,8.6 C27.7,6.8 25.9,5.4 25.9,5.4 L22.9,2.2 L24.6,0.4 L28.4,4.5 C28.4,4.5 30.2,6 30.2,7.7 L26.9,37.8 C26.9,39.6 25.7,41 24.3,41 L23.6,41 C24.1,40.4 24.4,39.6 24.4,38.7 Z"></path>
                            </g>
                            <g transform="translate(31.000000, 15.000000)">
                                <circle id="椭圆形" fill="#00ABFF" cx="6.2" cy="6.9" r="4.1"></circle>
                                <path d="M0.1,6.9 C0.1,10.3 2.8,13 6.2,13 C9.6,13 12.3,10.3 12.3,6.9 C12.3,3.5 9.6,0.8 6.2,0.8 C2.8,0.8 0.1,3.5 0.1,6.9 Z M2.1,6.9 C2.1,4.7 3.9,2.8 6.2,2.8 C8.4,2.8 10.3,4.6 10.3,6.9 C10.3,9.1 8.5,11 6.2,11 C3.9,11 2.1,9.1 2.1,6.9 Z" id="形状" fill="#000000"></path>
                            </g>
                            <path d="M37.2,17.8 C37.4,17.8 37.7,17.8 37.9,17.9 C36,18.2 34.5,19.9 34.5,21.9 C34.5,23.9 36,25.6 37.9,25.9 C37.7,25.9 37.4,26 37.2,26 C35,26 33.1,24.2 33.1,21.9 C33.1,19.6 34.9,17.8 37.2,17.8 Z" id="路径" fill="#008EDA"></path>
                            <g transform="translate(0.000000, 19.000000)">
                                <path d="M5,7 L9.8,2.9 L14.6,7 L19.4,2.9 L24.2,7 L29,2.9 L33.8,7 L38.6,2.9 L43.4,7 C43.4,7 45.6,8.5 45.6,10.2 L41.5,40.3 C41.5,42.1 40,43.5 38.3,43.5 L10.3,43.5 C8.5,43.5 7.1,42 7.1,40.3 L3,10.2 C2.8,8.4 5,7 5,7 Z" id="路径" fill="#FFD700"></path>
                                <path d="M0.8,10.2 C0.8,10.3 0.8,10.4 0.8,10.5 L4.9,40.4 C5,43.2 7.3,45.5 10.2,45.5 L38.2,45.5 C41.1,45.5 43.4,43.2 43.5,40.4 L47.6,10.5 C47.6,10.4 47.6,10.3 47.6,10.2 C47.6,7.6 45.3,5.8 44.6,5.3 L39.9,1.3 C39.5,1 39,0.8 38.6,0.8 C38.1,0.8 37.7,1 37.3,1.3 L33.9,4.2 L30.5,1.3 C30.1,1 29.6,0.8 29.2,0.8 C28.7,0.8 28.3,1 27.9,1.3 L24.5,4.3 L21,1.3 C20.6,1 20.1,0.8 19.7,0.8 C19.2,0.8 18.8,1 18.4,1.3 L14.9,4.3 L11.4,1.3 C11,1 10.5,0.8 10.1,0.8 C9.7,0.8 9.2,1 8.8,1.3 L4.1,5.3 C3.1,5.8 0.8,7.6 0.8,10.2 Z M2.8,10.2 C2.8,8.4 5,7 5,7 L9.8,2.9 L14.6,7 L19.4,2.9 L24.2,7 L29,2.9 L33.8,7 L38.6,2.9 L43.4,7 C43.4,7 45.6,8.5 45.6,10.2 L41.5,40.3 C41.5,42.1 40,43.5 38.3,43.5 L10.3,43.5 C8.5,43.5 7.1,42 7.1,40.3 L2.8,10.2 Z" id="形状" fill="#000000"></path>
                            </g>
                            <path d="M5,26 L9.8,21.9 L12,23.8 L8.4,26.9 C8.4,26.9 6.2,28.4 6.2,30.1 L10.3,60.2 C10.3,61.1 10.7,61.9 11.3,62.5 L10.2,62.5 C8.4,62.5 7,61 7,59.3 L2.9,29.2 C2.8,27.4 5,26 5,26 Z" id="路径" fill="#FFC300"></path>
                            <g transform="translate(7.000000, 21.000000)" fill="#FFED8E" id="路径">
                                <polygon points="14.4 5.9 10.5 2.5 12.4 0.9 16.3 4.2"></polygon>
                                <polygon points="4.8 5.9 0.9 2.5 2.8 0.9 6.8 4.2"></polygon>
                                <path d="M31.6,39.2 L35.7,9.1 C35.7,7.3 33.5,5.9 33.5,5.9 L29.6,2.6 L31.5,0.9 L36.3,5 C36.3,5 38.5,6.5 38.5,8.2 L34.4,38.3 C34.4,40.1 32.9,41.5 31.2,41.5 L30.6,41.5 C31.2,40.9 31.6,40.1 31.6,39.2 Z"></path>
                                <polygon points="23.9 5.9 20 2.5 22 0.9 25.9 4.2"></polygon>
                            </g>
                        </g>
                        <g transform="translate(0.000000, 36.000000)" fill-rule="nonzero">
                            <g transform="translate(28.000000, 0.000000)">
                                <path d="M13.3,42.2 L82.5,42.2 L82.5,9.3 C82.5,5.7 85.4,2.8 89,2.8 L102.9,2.8 C106.5,2.8 109.4,5.7 109.4,9.3 L121,28.9 C124.6,28.9 124.8,31.8 124.8,35.4 L124.8,56.6 C124.8,60.2 121.9,63.1 118.3,63.1 L104.4,63.1 C104.1,63.1 103.9,63.1 103.7,63 C103.5,63 103.2,63.1 103,63.1 L97.3,63.1 L89.1,63.1 L13.5,63.1 C7.8,63.1 3.1,58.4 3.1,52.7 L3.1,52.7 C2.8,46.9 7.5,42.2 13.3,42.2 Z" id="路径" fill="#00ABFF"></path>
                                <path d="M0.4,52.6 C0.4,59.7 6.2,65.5 13.3,65.5 L88.9,65.5 L97.1,65.5 L102.8,65.5 C103,65.5 103.3,65.5 103.5,65.4 C103.7,65.4 104,65.5 104.2,65.5 L118.1,65.5 C123,65.5 127,61.5 127,56.6 L127,35.4 C127,32.8 127,27.5 122.3,26.6 L111.7,8.6 C111.3,4 107.5,0.4 102.8,0.4 L88.9,0.4 C84,0.4 80,4.4 80,9.3 L80,39.8 L13.3,39.8 C6.2,39.8 0.4,45.6 0.4,52.6 Z M2.8,52.6 L2.8,52.6 C2.8,46.9 7.5,42.2 13.2,42.2 L82.4,42.2 L82.4,9.3 C82.4,5.7 85.3,2.8 88.9,2.8 L102.8,2.8 C106.4,2.8 109.3,5.7 109.3,9.3 L120.9,28.9 C124.5,28.9 124.7,31.8 124.7,35.4 L124.7,56.6 C124.7,60.2 121.8,63.1 118.2,63.1 L104.3,63.1 C104,63.1 103.8,63.1 103.6,63 C103.4,63 103.1,63.1 102.9,63.1 L97.2,63.1 L89,63.1 L13.4,63.1 C7.5,63.1 2.8,58.4 2.8,52.6 Z" id="形状" fill="#000000"></path>
                            </g>
                            <g opacity="0.4" transform="translate(32.000000, 2.000000)" fill="#FFFFFF" id="路径">
                                <g transform="translate(0.000000, 40.000000)">
                                    <path d="M78.4,3.4 L6,3.4 C3.9,3.4 2,4 0.4,5.1 C2.3,2.2 5.5,0.3 9.2,0.3 L78.4,0.3 L78.4,3.4 Z"></path>
                                </g>
                                <g transform="translate(79.000000, 0.000000)">
                                    <path d="M38.5,57.8 L38.5,36.6 C38.5,33 38.3,30.1 34.7,30.1 L23.1,10.5 C23.1,6.9 20.2,4 16.6,4 L2.7,4 C1.7,4 0.8,4.2 0,4.6 C1,2.4 3.3,0.8 5.9,0.8 L19.8,0.8 C23.4,0.8 26.3,3.7 26.3,7.3 L37.9,26.9 C41.5,26.9 41.7,29.8 41.7,33.4 L41.7,54.6 C41.7,57.2 40.1,59.5 37.9,60.5 C38.2,59.7 38.5,58.8 38.5,57.8 Z"></path>
                                </g>
                            </g>
                            <path d="M35.8,43.8 C34.8,45.4 34.2,47.3 34.2,49.4 L34.2,49.4 C34.2,55.1 35.8,59.8 41.5,59.8 L120.2,59.8 L128.4,59.8 L134.1,59.8 C134.4,59.8 134.6,59.8 134.8,59.7 C135,59.7 135.3,59.8 135.5,59.8 L149.4,59.8 C150.3,59.8 151.2,59.6 152.1,59.2 C151.1,61.5 148.8,63 146.2,63 L132.3,63 C132,63 131.8,63 131.6,62.9 C131.4,62.9 131.1,63 130.9,63 L125.2,63 L117,63 L41.4,63 C35.7,63 31,58.3 31,52.6 L31,52.6 C30.9,48.9 32.9,45.7 35.8,43.8 Z" id="路径" fill="#008EDA"></path>
                            <g transform="translate(114.000000, 6.000000)">
                                <path d="M6.4,25.7 L23.5,25.7 C25.4,25.7 26.9,24.4 26.9,22.9 L16.9,5.4 C16.9,3.8 15.4,2.6 13.5,2.6 L6.3,2.6 C4.4,2.6 2.9,3.9 2.9,5.4 L2.9,22.9 C3,24.5 4.6,25.7 6.4,25.7 Z" id="路径" fill="#46D0FF"></path>
                                <path d="M0.6,5.4 L0.6,22.9 C0.6,25.8 3.2,28.1 6.4,28.1 L23.5,28.1 C26.7,28.1 29.3,25.8 29.3,22.9 C29.3,22.5 29.2,22.1 29,21.7 L19.3,4.6 C18.9,2.1 16.5,0.1 13.6,0.1 L6.4,0.1 C3.2,0.2 0.6,2.5 0.6,5.4 Z M3,5.4 C3,3.9 4.5,2.6 6.4,2.6 L13.6,2.6 C15.5,2.6 17,3.9 17,5.4 L27,22.9 C27,24.5 25.5,25.7 23.6,25.7 L6.5,25.7 C4.6,25.7 3.1,24.4 3.1,22.9 L3.1,5.4 L3,5.4 Z" id="形状" fill="#000000"></path>
                            </g>
                            <path d="M119.5,8.7 C119.5,8.8 119.5,8.9 119.5,9 L119.5,26.5 C119.5,28.1 121,29.3 122.9,29.3 L140,29.3 C140.3,29.3 140.7,29.2 141,29.2 C140.8,30.6 139.4,31.7 137.7,31.7 L120.6,31.7 C118.7,31.7 117.2,30.4 117.2,28.9 L117.2,11.4 C117.1,10.1 118.1,9.1 119.5,8.7 Z" id="路径" fill="#24B3EE"></path>
                            <g opacity="0.4" transform="translate(117.000000, 8.000000)" fill="#FFFFFF" id="路径">
                                <path d="M21.3,23.6 L11.3,6.1 C11.3,4.5 9.8,3.3 7.9,3.3 L0.7,3.3 C0.5,3.3 0.2,3.3 -2.27373675e-13,3.4 C0.1,1.9 1.5,0.7 3.4,0.7 L10.6,0.7 C12.5,0.7 14,2 14,3.5 L24,21 C24,22.3 22.9,23.5 21.3,23.8 C21.3,23.6 21.3,23.6 21.3,23.6 Z"></path>
                            </g>
                            <g transform="translate(114.000000, 47.000000)">
                                <g>
                                    <circle id="椭圆形" fill="#706F6F" cx="14.7" cy="15.2" r="12.3"></circle>
                                    <path d="M0,15.2 C0,23.3 6.6,29.9 14.7,29.9 C22.8,29.9 29.4,23.3 29.4,15.2 C29.4,7.1 22.8,0.5 14.7,0.5 C6.6,0.5 0,7.1 0,15.2 Z M2.4,15.2 C2.4,8.4 7.9,2.9 14.7,2.9 C21.5,2.9 27,8.4 27,15.2 C27,22 21.5,27.5 14.7,27.5 C7.9,27.5 2.4,22 2.4,15.2 Z" id="形状" fill="#000000"></path>
                                </g>
                                <path d="M6.9,5.7 C5.2,7.8 4.1,10.5 4.1,13.4 C4.1,20.2 9.6,25.7 16.4,25.7 C19.3,25.7 22,24.7 24.1,22.9 C21.9,25.7 18.4,27.4 14.6,27.4 C7.8,27.4 2.3,21.9 2.3,15.1 C2.4,11.4 4.2,7.9 6.9,5.7 Z" id="路径" fill="#575756"></path>
                                <g opacity="0.3" transform="translate(5.000000, 3.000000)" fill="#FFFFFF" id="路径">
                                    <path d="M17.4,21.7 C19.1,19.6 20.2,16.9 20.2,14 C20.2,7.2 14.7,1.7 7.9,1.7 C5,1.7 2.3,2.7 0.2,4.5 C2.4,1.7 5.9,0 9.7,0 C16.5,0 22,5.5 22,12.3 C21.9,16 20.2,19.5 17.4,21.7 Z"></path>
                                </g>
                                <g transform="translate(7.000000, 8.000000)">
                                    <circle id="椭圆形" fill="#3C3C3B" cx="7.7" cy="7.2" r="4.7"></circle>
                                    <path d="M0.6,7.2 C0.6,11.1 3.8,14.3 7.7,14.3 C11.6,14.3 14.8,11.1 14.8,7.2 C14.8,3.3 11.6,0.1 7.7,0.1 C3.8,0.1 0.6,3.3 0.6,7.2 Z M3,7.2 C3,4.6 5.1,2.5 7.7,2.5 C10.3,2.5 12.4,4.6 12.4,7.2 C12.4,9.8 10.3,11.9 7.7,11.9 C5.1,11.9 3,9.8 3,7.2 Z" id="形状" fill="#000000"></path>
                                </g>
                                <path d="M12.1,11.3 C11.6,12 11.3,12.9 11.3,13.8 C11.3,16.4 13.4,18.5 16,18.5 C16.9,18.5 17.8,18.2 18.5,17.7 C17.7,19 16.2,19.8 14.6,19.8 C12,19.8 9.9,17.7 9.9,15.1 C10,13.6 10.9,12.1 12.1,11.3 Z" id="路径" fill="#242424"></path>
                            </g>
                            <g transform="translate(45.000000, 47.000000)">
                                <g>
                                    <circle id="椭圆形" fill="#706F6F" cx="15.4" cy="15.2" r="12.3"></circle>
                                    <path d="M0.7,15.2 C0.7,23.3 7.3,29.9 15.4,29.9 C23.5,29.9 30.1,23.3 30.1,15.2 C30.1,7.1 23.5,0.5 15.4,0.5 C7.3,0.5 0.7,7.1 0.7,15.2 Z M3.1,15.2 C3.1,8.4 8.6,2.9 15.4,2.9 C22.2,2.9 27.7,8.4 27.7,15.2 C27.7,22 22.2,27.5 15.4,27.5 C8.6,27.5 3.1,22 3.1,15.2 Z" id="形状" fill="#000000"></path>
                                </g>
                                <path d="M7.7,5.7 C6,7.8 4.9,10.5 4.9,13.4 C4.9,20.2 10.4,25.7 17.2,25.7 C20.1,25.7 22.8,24.7 24.9,22.9 C22.7,25.7 19.2,27.4 15.4,27.4 C8.6,27.4 3.1,21.9 3.1,15.1 C3.1,11.4 4.9,7.9 7.7,5.7 Z" id="路径" fill="#575756"></path>
                                <g opacity="0.3" transform="translate(5.000000, 3.000000)" fill="#FFFFFF" id="路径">
                                    <path d="M18.1,21.7 C19.8,19.6 20.9,16.9 20.9,14 C20.9,7.2 15.4,1.7 8.6,1.7 C5.7,1.7 3,2.7 0.9,4.5 C3.1,1.7 6.6,0 10.4,0 C17.2,0 22.7,5.5 22.7,12.3 C22.7,16 20.9,19.5 18.1,21.7 Z"></path>
                                </g>
                                <g transform="translate(8.000000, 8.000000)">
                                    <circle id="椭圆形" fill="#3C3C3B" cx="7.4" cy="7.2" r="4.7"></circle>
                                    <path d="M0.3,7.2 C0.3,11.1 3.5,14.3 7.4,14.3 C11.3,14.3 14.5,11.1 14.5,7.2 C14.5,3.3 11.3,0.1 7.4,0.1 C3.5,0.1 0.3,3.3 0.3,7.2 Z M2.7,7.2 C2.7,4.6 4.8,2.5 7.4,2.5 C10,2.5 12.1,4.6 12.1,7.2 C12.1,9.8 10,11.9 7.4,11.9 C4.8,11.9 2.7,9.8 2.7,7.2 Z" id="形状" fill="#000000"></path>
                                </g>
                                <path d="M12.9,11.3 C12.4,12 12.1,12.9 12.1,13.8 C12.1,16.4 14.2,18.5 16.8,18.5 C17.7,18.5 18.6,18.2 19.3,17.7 C18.5,19 17,19.8 15.4,19.8 C12.8,19.8 10.7,17.7 10.7,15.1 C10.7,13.6 11.6,12.1 12.9,11.3 Z" id="路径" fill="#242424"></path>
                            </g>
                            <path d="M11,14.2 L25.2,14.2 C25.9,14.2 26.4,13.7 26.4,13 C26.4,12.3 25.9,11.8 25.2,11.8 L11,11.8 C10.3,11.8 9.8,12.3 9.8,13 C9.8,13.7 10.3,14.2 11,14.2 Z" id="路径" fill="#000000"></path>
                            <path d="M1.5,27.5 L25.2,27.5 C25.9,27.5 26.4,27 26.4,26.3 C26.4,25.6 25.9,25.1 25.2,25.1 L1.5,25.1 C0.8,25.1 0.3,25.6 0.3,26.3 C0.3,26.9 0.8,27.5 1.5,27.5 Z" id="路径" fill="#000000"></path>
                            <path d="M11,40.7 L25.2,40.7 C25.9,40.7 26.4,40.2 26.4,39.5 C26.4,38.8 25.9,38.3 25.2,38.3 L11,38.3 C10.3,38.3 9.8,38.8 9.8,39.5 C9.8,40.2 10.3,40.7 11,40.7 Z" id="路径" fill="#000000"></path>
                            <g transform="translate(31.000000, 3.000000)">
                                <g>
                                    <path d="M4.5,6.4 L8.4,3.1 L12.3,6.4 L16.2,3.1 L20.1,6.4 L24,3.1 L27.9,6.4 L31.8,3.1 L35.7,6.4 C35.7,6.4 37.5,7.6 37.5,9 L34.2,33.6 C34.2,35.1 33,36.2 31.6,36.2 L8.6,36.2 C7.1,36.2 6,35 6,33.6 L2.7,9 C2.7,7.6 4.5,6.4 4.5,6.4 Z" id="路径" fill="#FFDB00"></path>
                                    <path d="M0.3,9.1 C0.3,9.2 0.3,9.3 0.3,9.4 L3.6,33.9 C3.7,36.6 5.9,38.8 8.7,38.8 L31.7,38.8 C34.4,38.8 36.7,36.6 36.8,33.9 L40.1,9.4 C40.1,9.3 40.1,9.2 40.1,9.1 C40.1,6.7 38,5 37.3,4.5 L33.5,1.2 C33,0.8 32.5,0.6 31.9,0.6 C31.3,0.6 30.8,0.8 30.3,1.2 L28,3.2 L25.7,1.2 C25.2,0.8 24.7,0.6 24.1,0.6 C23.5,0.6 23,0.8 22.5,1.2 L20.2,3.2 L17.9,1.2 C17.4,0.8 16.9,0.6 16.3,0.6 C15.7,0.6 15.2,0.8 14.7,1.2 L12.4,3.2 L10,1.2 C9.5,0.8 9,0.6 8.4,0.6 C7.8,0.6 7.3,0.8 6.8,1.2 L3,4.5 C2.3,5 0.3,6.6 0.3,9.1 Z M2.7,9.1 C2.7,7.6 4.5,6.5 4.5,6.5 L8.4,3.2 L12.3,6.5 L16.2,3.2 L20.1,6.5 L24,3.2 L27.9,6.5 L31.8,3.2 L35.7,6.5 C35.7,6.5 37.5,7.7 37.5,9.1 L34.2,33.7 C34.2,35.2 33,36.3 31.6,36.3 L8.6,36.3 C7.1,36.3 6,35.1 6,33.7 L2.7,9.1 Z" id="形状" fill="#000000"></path>
                                </g>
                                <g transform="translate(7.000000, 3.000000)" fill="#FFED8E" id="路径">
                                    <polygon points="3.6 4.3 0 1.3 1.4 0.1 5 3.1"></polygon>
                                    <polygon points="11.4 4.3 7.9 1.3 9.3 0.1 12.8 3.1"></polygon>
                                    <path d="M25.5,31.6 L28.8,7 C28.8,5.5 27,4.4 27,4.4 L23.4,1.4 L24.8,0.2 L28.7,3.5 C28.7,3.5 30.5,4.7 30.5,6.1 L27.2,30.7 C27.2,32.1 26.1,33.2 24.8,33.3 C25.3,32.8 25.5,32.2 25.5,31.6 Z"></path>
                                    <polygon points="19.2 4.3 15.7 1.3 17.1 0.1 20.6 3.1"></polygon>
                                </g>
                                <path d="M4.2,6.7 C4.1,7 4,7.2 4,7.5 L7.3,32.1 C7.3,33.6 8.5,34.7 9.9,34.7 L32.9,34.7 C33.3,34.7 33.7,34.6 34.1,34.4 C33.8,35.5 32.8,36.3 31.6,36.3 L8.6,36.3 C7.1,36.3 6,35.1 6,33.7 L2.7,9.1 C2.7,8 3.6,7.1 4.2,6.7 Z" id="路径" fill="#FFC300"></path>
                            </g>
                            <g transform="translate(66.000000, 3.000000)">
                                <g>
                                    <path d="M4.2,6.4 L8.1,3.1 L12,6.4 L15.9,3.1 L19.8,6.4 L23.7,3.1 L27.6,6.4 L31.5,3.1 L35.4,6.4 C35.4,6.4 37.2,7.6 37.2,9 L33.9,33.6 C33.9,35.1 32.7,36.2 31.3,36.2 L8.3,36.2 C6.8,36.2 5.7,35 5.7,33.6 L2.4,9 C2.4,7.6 4.2,6.4 4.2,6.4 Z" id="路径" fill="#FFDB00"></path>
                                    <path d="M0,9.1 C0,9.2 0,9.3 0,9.4 L3.3,33.9 C3.4,36.6 5.6,38.8 8.4,38.8 L31.4,38.8 C34.1,38.8 36.4,36.6 36.5,33.9 L39.8,9.4 C39.8,9.3 39.8,9.2 39.8,9.1 C39.8,6.7 37.7,5 37,4.5 L33.2,1.2 C32.7,0.8 32.2,0.6 31.6,0.6 C31,0.6 30.5,0.8 30,1.2 L27.7,3.2 L25.4,1.2 C24.9,0.8 24.4,0.6 23.8,0.6 C23.2,0.6 22.7,0.8 22.2,1.2 L19.9,3.2 L17.6,1.2 C17.1,0.8 16.6,0.6 16,0.6 C15.4,0.6 14.9,0.8 14.4,1.2 L12.1,3.2 L9.7,1.2 C9.2,0.8 8.7,0.6 8.1,0.6 C7.5,0.6 7,0.8 6.5,1.2 L2.7,4.5 C2,5 0,6.6 0,9.1 Z M2.4,9.1 C2.4,7.6 4.2,6.5 4.2,6.5 L8.1,3.2 L12,6.5 L15.9,3.2 L19.8,6.5 L23.7,3.2 L27.6,6.5 L31.5,3.2 L35.4,6.5 C35.4,6.5 37.2,7.7 37.2,9.1 L33.9,33.7 C33.9,35.2 32.7,36.3 31.3,36.3 L8.3,36.3 C6.8,36.3 5.7,35.1 5.7,33.7 L2.4,9.1 Z" id="形状" fill="#000000"></path>
                                </g>
                                <g transform="translate(6.000000, 3.000000)" fill="#FFED8E" id="路径">
                                    <polygon points="4.3 4.3 0.7 1.3 2.1 0.1 5.7 3.1"></polygon>
                                    <polygon points="12.1 4.3 8.5 1.3 9.9 0.1 13.5 3.1"></polygon>
                                    <path d="M26.2,31.6 L29.5,7 C29.5,5.5 27.7,4.4 27.7,4.4 L24.1,1.4 L25.5,0.2 L29.4,3.5 C29.4,3.5 31.2,4.7 31.2,6.1 L27.9,30.7 C27.9,32.1 26.8,33.2 25.5,33.3 C26,32.8 26.2,32.2 26.2,31.6 Z"></path>
                                    <polygon points="19.9 4.3 16.4 1.3 17.8 0.1 21.3 3.1"></polygon>
                                </g>
                                <path d="M3.8,6.7 C3.7,7 3.6,7.2 3.6,7.5 L6.9,32.1 C6.9,33.6 8.1,34.7 9.5,34.7 L32.5,34.7 C32.9,34.7 33.3,34.6 33.7,34.4 C33.4,35.5 32.4,36.3 31.2,36.3 L8.2,36.3 C6.7,36.3 5.6,35.1 5.6,33.7 L2.3,9.1 C2.4,8 3.3,7.1 3.8,6.7 Z" id="路径" fill="#FFC300"></path>
                            </g>
                        </g>
                        <g transform="translate(74.000000, 49.000000)" fill="#000000" fill-rule="nonzero">
                            <g id="XMLID_49_" transform="translate(3.000000, 0.000000)">
                                <g id="XMLID_50_">
                                    <g id="XMLID_51_">
                                        <g id="XMLID_52_">
                                            <g id="XMLID_53_">
                                                <rect id="XMLID_54_" x="0.1" y="0.4" width="2.7" height="2.4"></rect>
                                            </g>
                                        </g>
                                    </g>
                                </g>
                            </g>
                            <g id="XMLID_43_" transform="translate(0.000000, 2.000000)">
                                <g id="XMLID_44_">
                                    <g id="XMLID_45_">
                                        <g id="XMLID_46_">
                                            <g id="XMLID_47_">
                                                <polygon id="XMLID_48_" points="5.9 16.9 5.9 3.4 3.3 3.4 3.3 0.8 0.6 0.8 0.6 3.4 3.3 3.4 3.3 19.4 3.3 19.4 3.3 19.5 23.6 19.5 23.6 16.9"></polygon>
                                            </g>
                                        </g>
                                    </g>
                                </g>
                            </g>
                            <g id="XMLID_37_" transform="translate(7.000000, 0.000000)">
                                <g id="XMLID_38_">
                                    <g id="XMLID_39_">
                                        <g id="XMLID_40_">
                                            <g id="XMLID_41_">
                                                <polygon id="XMLID_42_" points="0.4 17.7 3.4 17.7 6.9 11.6 9.4 11.6 9.4 17.6 9.5 17.6 16.6 17.6 16.6 15 12 15 12 11.6 15.9 11.6 15.9 9 9.2 9 9.2 5.7 15.4 5.7 15.4 3.1 9.2 3.1 9.2 0.4 6.6 0.4 6.6 3.1 3.4 3.1 3.4 0.4 0.8 0.4 0.8 3.1 0.8 3.1 0.8 5.7 6.6 5.7 6.6 9 0.3 9 0.3 11.6 3.9 11.6"></polygon>
                                            </g>
                                        </g>
                                    </g>
                                </g>
                            </g>
                        </g>
                        <g transform="translate(39.000000, 49.000000)" fill="#000000" fill-rule="nonzero">
                            <g id="XMLID_31_" transform="translate(13.000000, 0.000000)">
                                <g id="XMLID_32_">
                                    <g id="XMLID_33_">
                                        <g id="XMLID_34_">
                                            <g id="XMLID_35_">
                                                <polygon id="XMLID_36_" points="10.6 1 6.4 1 6.4 0.4 3.8 0.4 3.8 1 0 1 0 3.6 10.6 3.6"></polygon>
                                            </g>
                                        </g>
                                    </g>
                                </g>
                            </g>
                            <g id="XMLID_25_" transform="translate(0.000000, 15.000000)">
                                <g id="XMLID_26_">
                                    <g id="XMLID_27_">
                                        <g id="XMLID_28_">
                                            <g id="XMLID_29_">
                                                <polygon id="XMLID_30_" points="13 3.8 0.7 3.8 0.7 6.4 13 6.4 13 6.4 15.6 6.4 15.6 0.4 13 0.4"></polygon>
                                            </g>
                                        </g>
                                    </g>
                                </g>
                            </g>
                            <g id="XMLID_18_" transform="translate(21.000000, 15.000000)">
                                <g id="XMLID_19_">
                                    <g id="XMLID_20_">
                                        <g id="XMLID_22_">
                                            <g id="XMLID_23_">
                                                <rect id="XMLID_24_" x="0" y="0.4" width="2.6" height="6"></rect>
                                            </g>
                                        </g>
                                    </g>
                                </g>
                            </g>
                            <g id="XMLID_9_">
                                <g id="XMLID_10_">
                                    <g id="XMLID_11_">
                                        <g id="XMLID_12_">
                                            <g id="XMLID_13_">
                                                <path d="M0.7,11.7 C0.7,15 3.4,17.7 6.7,17.7 C10,17.7 12.7,15 12.7,11.7 C12.7,9 10.9,6.7 8.5,6 L8.5,1.6 L8.3,1.6 L8.3,1.6 L4.7,1.6 L4.7,0.5 L2.1,0.5 L2.1,1.6 L2.1,1.6 L2.1,4.2 L5.9,4.2 L5.9,5.8 C2.9,6.1 0.7,8.7 0.7,11.7 Z M3.4,12.7 L5.7,12.7 L5.7,15 C4.6,14.7 3.8,13.8 3.4,12.7 Z M10.1,11.7 C10.1,13.3 9,14.6 7.6,15 L7.6,10.9 L3.4,10.9 C3.8,9.4 5.1,8.3 6.7,8.3 C8.5,8.3 10.1,9.8 10.1,11.7 Z" id="XMLID_14_"></path>
                                            </g>
                                        </g>
                                    </g>
                                </g>
                            </g>
                            <g id="XMLID_1_" transform="translate(13.000000, 4.000000)">
                                <g id="XMLID_2_">
                                    <g id="XMLID_3_">
                                        <g id="XMLID_4_">
                                            <g id="XMLID_5_">
                                                <path d="M10.4,5.5 C10.4,2.7 8.1,0.4 5.3,0.4 C2.5,0.4 0.2,2.7 0.2,5.5 C0.2,7.9 1.9,9.9 4.1,10.4 L4.2,17.4 L6.8,17.4 L6.7,10.4 C8.8,9.8 10.4,7.8 10.4,5.5 Z M2.8,5.5 C2.8,4.1 3.9,3 5.3,3 C6.7,3 7.8,4.1 7.8,5.5 C7.8,6.9 6.7,8 5.3,8 C3.9,8 2.8,6.8 2.8,5.5 Z" id="XMLID_6_"></path>
                                            </g>
                                        </g>
                                    </g>
                                </g>
                            </g>
                        </g>
                    </g>
                </g>
            </g>
        </g>
    </g>
</svg>