<?xml version="1.0" encoding="UTF-8"?>
<svg width="200px" height="200px" viewBox="0 0 200 200" version="1.1" xmlns="http://www.w3.org/2000/svg" xmlns:xlink="http://www.w3.org/1999/xlink">
    <!-- Generator: Sketch 61.2 (89653) - https://sketch.com -->
    <title>img_coupon_default200</title>
    <desc>Created with Sketch.</desc>
    <defs>
        <linearGradient x1="1.43583203%" y1="33.480067%" x2="100%" y2="66.519933%" id="linearGradient-1">
            <stop stop-color="#90DAFF" offset="0%"></stop>
            <stop stop-color="#0065FF" offset="100%"></stop>
        </linearGradient>
        <path d="M131.121457,55 C131.121457,57.3038164 132.963072,59.1714286 135.234818,59.1714286 C137.506564,59.1714286 139.348178,57.3038164 139.348178,55 L154.739832,55 C159.301797,55 163,58.6982034 163,63.2601684 L163.001002,83.1571429 L163,83.1571429 C158.456508,83.1571429 154.773279,86.8923672 154.773279,91.5 C154.773279,96.1076328 158.456508,99.8428571 163,99.8428571 L163,99.842 L163,119.739832 C163,124.301797 159.301797,128 154.739832,128 L139.348178,128 C139.348178,125.696184 137.506564,123.828571 135.234818,123.828571 C132.963072,123.828571 131.121457,125.696184 131.121457,128 L44.2601684,128 C39.6982034,128 36,124.301797 36,119.739832 L36,63.2601684 C36,58.6982034 39.6982034,55 44.2601684,55 L131.121457,55 Z M135.234818,114.442857 C134.098945,114.442857 133.178138,115.376663 133.178138,116.528571 C133.178138,117.68048 134.098945,118.614286 135.234818,118.614286 C136.370691,118.614286 137.291498,117.68048 137.291498,116.528571 C137.291498,115.376663 136.370691,114.442857 135.234818,114.442857 Z M135.234818,106.1 C134.098945,106.1 133.178138,107.033806 133.178138,108.185714 C133.178138,109.337622 134.098945,110.271429 135.234818,110.271429 C136.370691,110.271429 137.291498,109.337622 137.291498,108.185714 C137.291498,107.033806 136.370691,106.1 135.234818,106.1 Z M135.234818,97.7571429 C134.098945,97.7571429 133.178138,98.690949 133.178138,99.8428571 C133.178138,100.994765 134.098945,101.928571 135.234818,101.928571 C136.370691,101.928571 137.291498,100.994765 137.291498,99.8428571 C137.291498,98.690949 136.370691,97.7571429 135.234818,97.7571429 Z M135.234818,89.4142857 C134.098945,89.4142857 133.178138,90.3480918 133.178138,91.5 C133.178138,92.6519082 134.098945,93.5857143 135.234818,93.5857143 C136.370691,93.5857143 137.291498,92.6519082 137.291498,91.5 C137.291498,90.3480918 136.370691,89.4142857 135.234818,89.4142857 Z M135.234818,81.0714286 C134.098945,81.0714286 133.178138,82.0052347 133.178138,83.1571429 C133.178138,84.309051 134.098945,85.2428571 135.234818,85.2428571 C136.370691,85.2428571 137.291498,84.309051 137.291498,83.1571429 C137.291498,82.0052347 136.370691,81.0714286 135.234818,81.0714286 Z M135.234818,72.7285714 C134.098945,72.7285714 133.178138,73.6623775 133.178138,74.8142857 C133.178138,75.9661939 134.098945,76.9 135.234818,76.9 C136.370691,76.9 137.291498,75.9661939 137.291498,74.8142857 C137.291498,73.6623775 136.370691,72.7285714 135.234818,72.7285714 Z M135.234818,64.3857143 C134.098945,64.3857143 133.178138,65.3195204 133.178138,66.4714286 C133.178138,67.6233368 134.098945,68.5571429 135.234818,68.5571429 C136.370691,68.5571429 137.291498,67.6233368 137.291498,66.4714286 C137.291498,65.3195204 136.370691,64.3857143 135.234818,64.3857143 Z" id="path-2"></path>
        <path d="M131.121457,72 C131.121457,74.3038164 132.963072,76.1714286 135.234818,76.1714286 C137.506564,76.1714286 139.348178,74.3038164 139.348178,72 L154.739832,72 C159.301797,72 163,75.6982034 163,80.2601684 L163.001002,100.157143 L163,100.157143 C158.456508,100.157143 154.773279,103.892367 154.773279,108.5 C154.773279,113.107633 158.456508,116.842857 163,116.842857 L163,116.842 L163,136.739832 C163,141.301797 159.301797,145 154.739832,145 L139.348178,145 C139.348178,142.696184 137.506564,140.828571 135.234818,140.828571 C132.963072,140.828571 131.121457,142.696184 131.121457,145 L44.2601684,145 C39.6982034,145 36,141.301797 36,136.739832 L36,80.2601684 C36,75.6982034 39.6982034,72 44.2601684,72 L131.121457,72 Z M135.234818,131.442857 C134.098945,131.442857 133.178138,132.376663 133.178138,133.528571 C133.178138,134.68048 134.098945,135.614286 135.234818,135.614286 C136.370691,135.614286 137.291498,134.68048 137.291498,133.528571 C137.291498,132.376663 136.370691,131.442857 135.234818,131.442857 Z M135.234818,123.1 C134.098945,123.1 133.178138,124.033806 133.178138,125.185714 C133.178138,126.337622 134.098945,127.271429 135.234818,127.271429 C136.370691,127.271429 137.291498,126.337622 137.291498,125.185714 C137.291498,124.033806 136.370691,123.1 135.234818,123.1 Z M135.234818,114.757143 C134.098945,114.757143 133.178138,115.690949 133.178138,116.842857 C133.178138,117.994765 134.098945,118.928571 135.234818,118.928571 C136.370691,118.928571 137.291498,117.994765 137.291498,116.842857 C137.291498,115.690949 136.370691,114.757143 135.234818,114.757143 Z M135.234818,106.414286 C134.098945,106.414286 133.178138,107.348092 133.178138,108.5 C133.178138,109.651908 134.098945,110.585714 135.234818,110.585714 C136.370691,110.585714 137.291498,109.651908 137.291498,108.5 C137.291498,107.348092 136.370691,106.414286 135.234818,106.414286 Z M135.234818,98.0714286 C134.098945,98.0714286 133.178138,99.0052347 133.178138,100.157143 C133.178138,101.309051 134.098945,102.242857 135.234818,102.242857 C136.370691,102.242857 137.291498,101.309051 137.291498,100.157143 C137.291498,99.0052347 136.370691,98.0714286 135.234818,98.0714286 Z M135.234818,89.7285714 C134.098945,89.7285714 133.178138,90.6623775 133.178138,91.8142857 C133.178138,92.9661939 134.098945,93.9 135.234818,93.9 C136.370691,93.9 137.291498,92.9661939 137.291498,91.8142857 C137.291498,90.6623775 136.370691,89.7285714 135.234818,89.7285714 Z M135.234818,81.3857143 C134.098945,81.3857143 133.178138,82.3195204 133.178138,83.4714286 C133.178138,84.6233368 134.098945,85.5571429 135.234818,85.5571429 C136.370691,85.5571429 137.291498,84.6233368 137.291498,83.4714286 C137.291498,82.3195204 136.370691,81.3857143 135.234818,81.3857143 Z" id="path-4"></path>
        <linearGradient x1="1.43583203%" y1="33.9367962%" x2="100%" y2="66.0632038%" id="linearGradient-6">
            <stop stop-color="#90DAFF" offset="0%"></stop>
            <stop stop-color="#0065FF" offset="100%"></stop>
        </linearGradient>
        <path d="M95.5081971,0 C95.5081971,2.28098252 97.3572988,4.1300842 99.6382813,4.1300842 C101.919264,4.1300842 103.768366,2.28098252 103.768366,0 L119.256181,0 C123.818146,-8.38019382e-16 127.51635,3.69820336 127.51635,8.2601684 L127.51635,27.8780683 C122.954385,27.8780683 119.256181,31.5762717 119.256181,36.1382367 C119.256181,40.7002018 122.954385,44.3984051 127.51635,44.3984051 L127.51635,64.0163051 C127.51635,68.5782701 123.818146,72.2764735 119.256181,72.2764735 L103.768366,72.2764735 C103.768366,69.995491 101.919264,68.1463893 99.6382813,68.1463893 C97.3572988,68.1463893 95.5081971,69.995491 95.5081971,72.2764735 L8.2601684,72.2764735 C3.69820336,72.2764735 -4.77039093e-15,68.5782701 0,64.0163051 L0,8.2601684 C-5.58679588e-16,3.69820336 3.69820336,8.38019382e-16 8.2601684,0 L95.5081971,0 Z M99.6382813,58.8536998 C98.4977901,58.8536998 97.5732392,59.7782507 97.5732392,60.9187419 C97.5732392,62.0592332 98.4977901,62.983784 99.6382813,62.983784 C100.778773,62.983784 101.703323,62.0592332 101.703323,60.9187419 C101.703323,59.7782507 100.778773,58.8536998 99.6382813,58.8536998 Z M99.6382813,50.5935314 C98.4977901,50.5935314 97.5732392,51.5180823 97.5732392,52.6585735 C97.5732392,53.7990648 98.4977901,54.7236156 99.6382813,54.7236156 C100.778773,54.7236156 101.703323,53.7990648 101.703323,52.6585735 C101.703323,51.5180823 100.778773,50.5935314 99.6382813,50.5935314 Z M99.6382813,42.333363 C98.4977901,42.333363 97.5732392,43.2579139 97.5732392,44.3984051 C97.5732392,45.5388964 98.4977901,46.4634472 99.6382813,46.4634472 C100.778773,46.4634472 101.703323,45.5388964 101.703323,44.3984051 C101.703323,43.2579139 100.778773,42.333363 99.6382813,42.333363 Z M99.6382813,34.0731946 C98.4977901,34.0731946 97.5732392,34.9977455 97.5732392,36.1382367 C97.5732392,37.278728 98.4977901,38.2032788 99.6382813,38.2032788 C100.778773,38.2032788 101.703323,37.278728 101.703323,36.1382367 C101.703323,34.9977455 100.778773,34.0731946 99.6382813,34.0731946 Z M99.6382813,25.8130262 C98.4977901,25.8130262 97.5732392,26.7375771 97.5732392,27.8780683 C97.5732392,29.0185596 98.4977901,29.9431104 99.6382813,29.9431104 C100.778773,29.9431104 101.703323,29.0185596 101.703323,27.8780683 C101.703323,26.7375771 100.778773,25.8130262 99.6382813,25.8130262 Z M99.6382813,17.5528578 C98.4977901,17.5528578 97.5732392,18.4774087 97.5732392,19.6178999 C97.5732392,20.7583912 98.4977901,21.682942 99.6382813,21.682942 C100.778773,21.682942 101.703323,20.7583912 101.703323,19.6178999 C101.703323,18.4774087 100.778773,17.5528578 99.6382813,17.5528578 Z M99.6382813,9.29268945 C98.4977901,9.29268945 97.5732392,10.2172403 97.5732392,11.3577315 C97.5732392,12.4982228 98.4977901,13.4227736 99.6382813,13.4227736 C100.778773,13.4227736 101.703323,12.4982228 101.703323,11.3577315 C101.703323,10.2172403 100.778773,9.29268945 99.6382813,9.29268945 Z" id="path-7"></path>
        <filter x="-10.2%" y="-15.2%" width="120.4%" height="136.0%" filterUnits="objectBoundingBox" id="filter-9">
            <feMorphology radius="1" operator="erode" in="SourceAlpha" result="shadowSpreadOuter1"></feMorphology>
            <feOffset dx="0" dy="2" in="shadowSpreadOuter1" result="shadowOffsetOuter1"></feOffset>
            <feGaussianBlur stdDeviation="5" in="shadowOffsetOuter1" result="shadowBlurOuter1"></feGaussianBlur>
            <feColorMatrix values="0 0 0 0 0   0 0 0 0 0.396078431   0 0 0 0 1  0 0 0 0.436762456 0" type="matrix" in="shadowBlurOuter1"></feColorMatrix>
        </filter>
        <path d="M51.0869036,23.7285205 C52.2058919,23.7285205 53.1214278,24.3385704 53.6300589,25.2536451 C62.6836917,25.76202 69.8045265,33.082618 70.2114314,42.1316905 L70.2114314,42.1316905 L70.2114314,49.6556384 C70.2114314,52.8075625 67.7700023,55.4511118 64.718216,55.7561367 L64.718216,55.7561367 L34.4038048,55.7561367 C31.3520185,55.3494368 29.0123156,52.8075625 29.0123156,49.6556384 L29.0123156,49.6556384 L29.0123156,44.7752397 C28.9105894,44.1651899 28.9105894,43.5551401 28.9105894,42.9450902 L28.9114032,42.5790603 C28.9146584,42.0910205 28.9309346,41.6029806 29.0123156,41.1149407 C29.8261253,32.5742431 36.7435077,25.8636949 45.2885095,25.2536451 C45.6954143,24.3385704 46.7126765,23.7285205 47.8316648,23.7285205 L47.8316648,23.7285205 Z M44.9833309,16.6112725 C48.1368434,16.5095975 49.4592842,23.5251706 49.2558318,22.9151208 C48.2385696,20.4749214 46.6109503,19.6615217 45.1867833,19.2548218 C44.3729736,18.9497969 43.8643425,18.6447719 43.8643425,17.9330471 C43.8643425,17.2213223 44.2712474,16.6112725 44.9833309,16.6112725 Z M52.3076181,12.4425987 C53.0197016,12.2392487 53.5283327,12.6459486 53.7317851,13.3576734 C53.9352375,14.0693982 53.5283327,14.4760981 52.8162492,14.984473 C51.5955346,15.7978727 50.1713677,16.9162974 49.866189,19.5598467 C49.7644628,20.2715715 49.2558318,13.1543235 52.3076181,12.4425987 Z" id="path-10"></path>
        <filter x="-4.8%" y="-4.6%" width="109.7%" height="109.2%" filterUnits="objectBoundingBox" id="filter-11">
            <feGaussianBlur stdDeviation="1.5" in="SourceAlpha" result="shadowBlurInner1"></feGaussianBlur>
            <feOffset dx="0" dy="1" in="shadowBlurInner1" result="shadowOffsetInner1"></feOffset>
            <feComposite in="shadowOffsetInner1" in2="SourceAlpha" operator="arithmetic" k2="-1" k3="1" result="shadowInnerInner1"></feComposite>
            <feColorMatrix values="0 0 0 0 0   0 0 0 0 0   0 0 0 0 0  0 0 0 0.322907561 0" type="matrix" in="shadowInnerInner1"></feColorMatrix>
        </filter>
    </defs>
    <g id="img_coupon_default200" stroke="none" stroke-width="1" fill="none" fill-rule="evenodd">
        <rect id="矩形" fill="#FFFFFF" x="0" y="0" width="200" height="200" rx="8"></rect>
        <mask id="mask-3" fill="white">
            <use xlink:href="#path-2"></use>
        </mask>
        <use id="蒙版" fill="url(#linearGradient-1)" opacity="0.202543713" transform="translate(99.500000, 91.500000) rotate(8.000000) translate(-99.500000, -91.500000) " xlink:href="#path-2"></use>
        <mask id="mask-5" fill="white">
            <use xlink:href="#path-4"></use>
        </mask>
        <use id="蒙版" fill="url(#linearGradient-1)" opacity="0.202543713" transform="translate(99.500000, 108.500000) scale(1, -1) rotate(8.000000) translate(-99.500000, -108.500000) " xlink:href="#path-4"></use>
        <g id="形状结合" transform="translate(36.000000, 64.000000)">
            <mask id="mask-8" fill="white">
                <use xlink:href="#path-7"></use>
            </mask>
            <g id="蒙版">
                <use fill="black" fill-opacity="1" filter="url(#filter-9)" xlink:href="#path-7"></use>
                <use fill="url(#linearGradient-6)" fill-rule="evenodd" xlink:href="#path-7"></use>
            </g>
            <path d="M16.764413,-13.8670528 L16.764413,92.4826154 L-3.88600801,92.4826154 L-3.88600801,-13.8670528 L16.764413,-13.8670528 Z M116.637058,-39.1141836 L116.637058,74.4631319 L100.116722,74.4631319 L100.116722,-39.1141836 L116.637058,-39.1141836 Z M96.1163678,-34.9791335 L96.1163678,71.3705346 L87.8561994,71.3705346 L87.8561994,-34.9791335 L96.1163678,-34.9791335 Z" fill="#FFFFFF" opacity="0.0802641369" mask="url(#mask-8)" transform="translate(56.375525, 26.684216) rotate(30.000000) translate(-56.375525, -26.684216) "></path>
            <g opacity="0.201985677" fill-rule="nonzero" mask="url(#mask-8)">
                <use fill="#0A6DFF" xlink:href="#path-10"></use>
                <use fill="black" fill-opacity="1" filter="url(#filter-11)" xlink:href="#path-10"></use>
            </g>
        </g>
    </g>
</svg>