<?xml version="1.0" encoding="UTF-8"?>
<svg width="343px" height="343px" viewBox="0 0 343 343" version="1.1" xmlns="http://www.w3.org/2000/svg" xmlns:xlink="http://www.w3.org/1999/xlink" style="background: #FFFFFF;">
    <!-- Generator: Sketch 61.2 (89653) - https://sketch.com -->
    <title>img_goods_load_failed343</title>
    <desc>Created with Sketch.</desc>
    <defs>
        <linearGradient x1="50%" y1="100%" x2="50%" y2="0%" id="linearGradient-1">
            <stop stop-color="#F8F8F9" offset="0%"></stop>
            <stop stop-color="#DBDEE6" offset="100%"></stop>
        </linearGradient>
    </defs>
    <g id="img_goods_load_failed343" stroke="none" stroke-width="1" fill="none" fill-rule="evenodd">
        <rect fill="#FFFFFF" x="0" y="0" width="343" height="343"></rect>
        <path d="M8,0 L335,0 C339.418278,-8.11624501e-16 343,3.581722 343,8 L343,343 L343,343 L0,343 L0,8 C-5.41083001e-16,3.581722 3.581722,8.11624501e-16 8,0 Z" id="矩形" fill="#FFFFFF"></path>
        <path d="M179.606557,264.990461 L179.606557,270.254372 L184.797814,270.254372 L184.797814,297.736089 L221,297.736089 L221,303 L179.674863,303 L179.674863,302.931638 L179.538251,302.931638 L179.538251,270.322734 L174.142077,270.322734 L174.142077,264.990461 L179.606557,264.990461 Z M156.860656,268.203498 C162.598361,268.203498 167.243169,272.852146 167.243169,278.594595 C167.243169,283.311606 164.032787,287.27663 159.729508,288.507154 L159.729508,288.507154 L159.86612,302.863275 L154.538251,302.931638 L154.401639,288.643879 C149.893443,287.550079 146.478142,283.448331 146.478142,278.594595 C146.478142,272.852146 151.122951,268.203498 156.860656,268.203498 Z M151.327869,290.626391 L151.327869,302.863275 L146.068306,302.863275 L146.068306,302.794913 L121,302.794913 L121,297.531002 L146.068306,297.531002 L146.068306,290.626391 L151.327869,290.626391 Z M167.653005,290.626391 L167.653005,302.863275 L162.325137,302.863275 L162.325137,290.626391 L167.653005,290.626391 Z M129.128415,260 L129.128415,262.392687 L136.846995,262.392687 L136.846995,271.416534 C141.833333,272.920509 145.453552,277.63752 145.453552,283.106518 C145.453552,289.874404 139.989071,295.343402 133.226776,295.343402 C126.464481,295.343402 121,289.874404 121,283.106518 C121,276.885533 125.576503,271.758347 131.587432,271.006359 L131.587432,271.006359 L131.587432,267.656598 L123.800546,267.656598 L123.800546,260 L129.128415,260 Z M194.087432,260 L194.087432,265.537361 L200.644809,265.537361 L200.644809,260 L205.904372,260 L205.904372,265.537361 L218.472678,265.537361 L218.472678,270.869634 L205.904372,270.869634 L205.904372,277.63752 L219.497268,277.63752 L219.497268,282.969793 L211.642077,282.969793 L211.642077,289.942766 L221,289.942766 L221,295.206677 L206.314208,295.206677 L206.314208,282.969793 L201.191257,282.969793 L194.087432,295.27504 L187.939891,295.27504 L195.043716,282.969793 L187.803279,282.969793 L187.803279,277.63752 L200.644809,277.63752 L200.644809,270.869634 L188.759563,270.869634 L188.759563,260 L194.087432,260 Z M133.295082,276.133545 C130.016393,276.133545 127.284153,278.389507 126.532787,281.397456 L126.532787,281.397456 L135.139344,281.397456 L135.139344,289.806041 C138.076503,288.985692 140.193989,286.251192 140.193989,283.106518 C140.193989,279.209857 137.051913,276.133545 133.295082,276.133545 Z M131.314208,285.157393 L126.601093,285.157393 C127.284153,287.413355 129.060109,289.122417 131.314208,289.737679 L131.314208,289.737679 L131.314208,285.157393 Z M156.860656,273.535771 C154.060109,273.535771 151.806011,275.791733 151.806011,278.594595 C151.806011,281.397456 154.060109,283.653418 156.860656,283.653418 C159.661202,283.653418 161.915301,281.397456 161.915301,278.594595 C161.915301,275.791733 159.661202,273.535771 156.860656,273.535771 Z M159.251366,260 L159.251366,261.298887 L167.653005,261.298887 L167.653005,266.562798 L146.068306,266.562798 L146.068306,261.298887 L153.923497,261.298887 L153.923497,260 L159.251366,260 Z M184.797814,260 L184.797814,264.853736 L179.333333,264.853736 L179.333333,260 L184.797814,260 Z" id="形状结合" fill="#DCDFE7" fill-rule="nonzero"></path>
        <g transform="translate(72.000000, 38.000000)" id="形状结合">
            <path d="M92.7802258,54.821 L88.8586594,84.7233338 C88.6555005,86.2722101 89.1106703,88.6382102 89.8692497,89.9970874 L99.4416922,107.144632 C100.202985,108.508369 100.60775,110.856805 100.343976,112.400452 L97.2458168,130.531392 C96.7183728,133.618081 97.462588,133.868924 98.9096477,131.08863 L108.317703,113.012553 C109.040695,111.623439 109.267731,109.281675 108.825467,107.784325 L103.382796,89.3573941 C102.940234,87.8590375 103.059421,85.4617069 103.640166,84.0246879 L114.650283,56.7804369 C116.789316,58.0737919 118.548797,59.9436279 119.799167,62.1955024 C163.091354,64.628954 197.23381,99.344575 199.819326,142.492106 L199.887993,143.802163 L199.887993,180.181036 C199.887993,195.268436 188.330438,207.946719 173.796813,209.629792 L173.355498,209.677419 L26.935436,209.677419 C12.342564,207.730658 1.12064544,195.665605 0.897666357,180.637338 L0.894283956,180.181036 L0.894283956,156.583929 C0.443886672,153.880094 0.406353565,151.176259 0.403225806,148.472424 L0.403225806,146.997605 C0.406353565,144.293769 0.443886672,141.589934 0.894283956,138.886099 C4.82502388,97.5911624 38.2363133,65.1451407 79.5090825,62.1955024 C81.4335073,57.8632211 86.1844309,54.9449482 91.4555088,54.8252339 L91.7926448,54.8214065 L92.7802258,54.821 Z M98.6714397,50.8885554 C93.7580148,39.090002 85.8965349,35.1571509 79.01774,33.1907254 C75.0870001,31.7159062 72.6302876,30.241087 72.6302876,26.7998423 C72.6302876,23.3585976 74.5956576,20.4089592 78.0350551,20.4089592 C93.2666723,19.9173528 99.6541247,53.8381937 98.6714397,50.8885554 Z M120.290509,4.67755475 C121.273194,8.11879948 119.307824,10.085225 115.868427,12.543257 C109.972317,16.4761081 103.093522,21.8837784 101.619495,34.6655445 C101.128152,38.1067893 98.6714397,3.69434197 113.411714,0.253097241 C116.851112,-0.730115539 119.307824,1.23631002 120.290509,4.67755475 Z" fill="url(#linearGradient-1)" fill-rule="nonzero"></path>
            <path d="M42.0474844,187.253668 C43.4877221,169.222699 54.1513204,155.219534 67.0922939,155.219534 C78.9212931,155.219534 88.8474767,166.9196 91.5659469,182.701191 C91.5578278,182.335549 91.5546595,181.968138 91.5546595,181.599713 C91.5546595,156.254356 106.548707,135.707885 125.044803,135.707885 C143.540898,135.707885 158.534946,156.254356 158.534946,181.599713 C158.534946,183.514045 158.449409,185.401 158.283285,187.253794 L42.0474844,187.253668 Z M67.8203405,99.0143369 C78.83758,99.0143369 87.7688172,107.945574 87.7688172,118.962814 C87.7688172,129.980053 78.83758,138.91129 67.8203405,138.91129 C56.803101,138.91129 47.8718638,129.980053 47.8718638,118.962814 C47.8718638,107.945574 56.803101,99.0143369 67.8203405,99.0143369 Z" fill="#DCDFE7"></path>
        </g>
    </g>
</svg>