<?xml version="1.0" encoding="UTF-8"?>
<svg width="750px" height="750px" viewBox="0 0 750 750" version="1.1" xmlns="http://www.w3.org/2000/svg" xmlns:xlink="http://www.w3.org/1999/xlink" style="background: #FFFFFF;">
    <!-- Generator: Sketch 61.2 (89653) - https://sketch.com -->
    <title>img_video_load_failed750</title>
    <desc>Created with Sketch.</desc>
    <defs>
        <linearGradient x1="50%" y1="100%" x2="50%" y2="0%" id="linearGradient-1">
            <stop stop-color="#F8F8F9" offset="0%"></stop>
            <stop stop-color="#DBDEE6" offset="100%"></stop>
        </linearGradient>
    </defs>
    <g id="img_video_load_failed750" stroke="none" stroke-width="1" fill="none" fill-rule="evenodd">
        <rect fill="#FFFFFF" x="0" y="0" width="750" height="750"></rect>
        <rect id="矩形" fill="#FFFFFF" x="0" y="0" width="750" height="750"></rect>
        <path d="M299.247821,244 L290.371842,311.670138 C289.923747,315.086403 290.924191,320.298686 292.599614,323.299947 L313.645891,361.001083 C315.324351,364.007784 316.214441,369.199057 315.635118,372.589351 L308.821513,412.463686 C307.661137,419.254402 309.29841,419.806257 312.473201,413.706402 L333.179663,373.922241 C334.770246,370.86619 335.269725,365.714308 334.292975,362.407382 L322.326636,321.893647 C321.350919,318.590217 321.602843,313.331661 322.895198,310.133801 L349.621928,244 L455,244 C477.09139,244 495,261.90861 495,284 L495,466 C495,488.09139 477.09139,506 455,506 L185,506 C162.90861,506 145,488.09139 145,466 L145,284 C145,261.90861 162.90861,244 185,244 L299.247821,244 Z M602.127269,302.086782 C604.006744,305.203738 605,308.774495 605,312.414253 L605,437.585747 C605,448.631442 596.045695,457.585747 585,457.585747 C581.360241,457.585747 577.789485,456.59249 574.672528,454.713015 L515.672528,419.13695 C509.669732,415.517359 506,409.019318 506,402.009681 L506,347.990319 C506,340.980682 509.669732,334.482641 515.672528,330.86305 L574.672528,295.286985 C584.131658,289.58328 596.423564,292.627653 602.127269,302.086782 Z" fill="url(#linearGradient-1)" fill-rule="nonzero"></path>
    </g>
</svg>