<?xml version="1.0" encoding="UTF-8"?>
<svg width="144px" height="144px" viewBox="0 0 144 144" version="1.1" xmlns="http://www.w3.org/2000/svg" xmlns:xlink="http://www.w3.org/1999/xlink">
    <!-- Generator: Sketch 61.2 (89653) - https://sketch.com -->
    <title>img_goods_load_failed144</title>
    <desc>Created with Sketch.</desc>
    <defs>
        <linearGradient x1="50%" y1="100%" x2="50%" y2="0%" id="linearGradient-1">
            <stop stop-color="#F8F8F9" offset="0%"></stop>
            <stop stop-color="#DBDEE6" offset="100%"></stop>
        </linearGradient>
    </defs>
    <g id="ðŸ”ªåˆ‡å›¾" stroke="none" stroke-width="1" fill="none" fill-rule="evenodd">
        <g id="img" transform="translate(-2079.000000, -1042.000000)">
            <g id="img_goods_load_failed144" transform="translate(2079.000000, 1042.000000)">
                <g>
                    <rect id="çŸ©å½¢" fill="#FFFFFF" fill-rule="evenodd" x="0" y="0" width="144" height="144" rx="8"></rect>
                    <g id="img_goods_load_failed343" stroke-width="1" fill-rule="evenodd" transform="translate(34.000000, 16.000000)">
                        <path d="M35.198412,20.798 L33.7113265,32.1424606 C33.6342517,32.7300756 33.8101598,33.6334693 34.0992486,34.151327 L37.7218098,40.640583 C38.013128,41.1624343 38.1687134,42.0570148 38.0686426,42.6426456 L36.8932583,49.5211878 C36.6931559,50.6922205 36.9799315,50.7788659 37.5244849,49.7325936 L41.0960406,42.8704194 C41.3690524,42.3458709 41.4541496,41.4594395 41.2837603,40.8825624 L39.2241168,33.9093476 C39.0547797,33.336033 39.0958713,32.4299119 39.3191556,31.8774074 L43.4964137,21.5415795 C44.3078221,22.0322495 44.9752573,22.7415787 45.4495808,23.5958195 C61.8738331,24.5190258 74.8268474,37.6894882 75.8077444,54.0588608 L75.8337952,54.5558722 L75.8337952,68.3573415 C75.8337952,74.0410432 71.5104132,78.8235566 66.0512274,79.5155913 L65.7678592,79.547722 L10.2188046,79.547722 C4.72303489,78.8145591 0.487502041,74.2986551 0.343082885,68.6553825 L0.339274738,68.3573415 L0.339274738,59.4050371 C0.179497975,58.4458616 0.156672723,57.4866861 0.153411973,56.5275107 L0.153411973,55.5683352 C0.156672723,54.6091597 0.179497975,53.6499842 0.339274738,52.6908088 C1.83052453,37.0242761 14.5061477,24.7148575 30.1642705,23.5958195 C30.8812175,21.9818223 32.6322227,20.8851319 34.5887138,20.8031586 L34.8244261,20.7982243 L35.198412,20.798 Z M29.6050518,7.74278041 C35.3836447,7.55627407 37.8069256,20.4252116 37.4341132,19.3061736 C35.570051,14.8300214 32.5875514,13.3379707 29.9778643,12.5919453 C28.4866145,12.0324263 27.5545834,11.4729072 27.5545834,10.1673629 C27.5545834,8.86181846 28.3002082,7.74278041 29.6050518,7.74278041 Z M45.635987,1.77457747 C46.0087995,3.08012186 45.2631746,3.82614723 43.958331,4.75867894 C41.7214563,6.25072967 39.1117692,8.30229943 38.5525505,13.1514643 C38.3661443,14.4570087 37.4341132,1.40156479 43.0262999,0.0960203966 C44.3311435,-0.276992287 45.2631746,0.46903308 45.635987,1.77457747 Z" id="å½¢çŠ¶ç»“åˆ" fill="url(#linearGradient-1)" fill-rule="nonzero"></path>
                        <path d="M15.9520216,71.0407387 C16.498367,64.2000407 20.5439649,58.8874109 25.4535713,58.8874109 C29.942533,58.8874109 33.7091967,63.3286894 34.7392884,69.3184807 L34.7341389,68.8955611 L34.7341389,68.8955611 C34.7341389,59.2800032 40.4226024,51.4850534 47.4396778,51.4850534 C54.4567532,51.4850534 60.1452167,59.2800032 60.1452167,68.8955611 C60.1452167,69.6219087 60.1127577,70.3378678 60.049719,71.0408631 L15.9520216,71.0407387 Z M25.7297787,37.564202 C29.9095149,37.564202 33.2978605,40.9525477 33.2978605,45.1322839 C33.2978605,49.3120201 29.9095149,52.7003658 25.7297787,52.7003658 C21.5500425,52.7003658 18.1616968,49.3120201 18.1616968,45.1322839 C18.1616968,40.9525477 21.5500425,37.564202 25.7297787,37.564202 Z" id="å½¢çŠ¶ç»“åˆ" fill="#DCDFE7"></path>
                    </g>
                    <path d="M76.4754098,106.669316 L76.4754098,109.484897 L79.1748634,109.484897 L79.1748634,124.18442 L98,124.18442 L98,127 L76.510929,127 L76.510929,126.963434 L76.4398907,126.963434 L76.4398907,109.521463 L73.6338798,109.521463 L73.6338798,106.669316 L76.4754098,106.669316 Z M64.647541,108.387917 C67.6311475,108.387917 70.0464481,110.874404 70.0464481,113.945946 C70.0464481,116.468998 68.3770492,118.589825 66.1393443,119.248013 L66.1393443,119.248013 L66.2103825,126.926868 L63.4398907,126.963434 L63.3688525,119.321145 C61.0245902,118.736089 59.2486339,116.54213 59.2486339,113.945946 C59.2486339,110.874404 61.6639344,108.387917 64.647541,108.387917 Z M61.7704918,120.381558 L61.7704918,126.926868 L59.0355191,126.926868 L59.0355191,126.890302 L46,126.890302 L46,124.074722 L59.0355191,124.074722 L59.0355191,120.381558 L61.7704918,120.381558 Z M70.2595628,120.381558 L70.2595628,126.926868 L67.489071,126.926868 L67.489071,120.381558 L70.2595628,120.381558 Z M50.226776,104 L50.226776,105.279809 L54.2404372,105.279809 L54.2404372,110.106518 C56.8333333,110.91097 58.715847,113.434022 58.715847,116.3593 C58.715847,119.979332 55.8743169,122.90461 52.3579235,122.90461 C48.8415301,122.90461 46,119.979332 46,116.3593 C46,113.031797 48.3797814,110.289348 51.5054645,109.887122 L51.5054645,109.887122 L51.5054645,108.09539 L47.4562842,108.09539 L47.4562842,104 L50.226776,104 Z M84.0054645,104 L84.0054645,106.961844 L87.4153005,106.961844 L87.4153005,104 L90.1502732,104 L90.1502732,106.961844 L96.6857923,106.961844 L96.6857923,109.81399 L90.1502732,109.81399 L90.1502732,113.434022 L97.2185792,113.434022 L97.2185792,116.286169 L93.1338798,116.286169 L93.1338798,120.015898 L98,120.015898 L98,122.831479 L90.363388,122.831479 L90.363388,116.286169 L87.6994536,116.286169 L84.0054645,122.868045 L80.8087432,122.868045 L84.5027322,116.286169 L80.7377049,116.286169 L80.7377049,113.434022 L87.4153005,113.434022 L87.4153005,109.81399 L81.2349727,109.81399 L81.2349727,104 L84.0054645,104 Z M52.3934426,112.629571 C50.6885246,112.629571 49.2677596,113.836248 48.8770492,115.445151 L48.8770492,115.445151 L53.352459,115.445151 L53.352459,119.942766 C54.8797814,119.503975 55.9808743,118.041335 55.9808743,116.3593 C55.9808743,114.27504 54.3469945,112.629571 52.3934426,112.629571 Z M51.363388,117.45628 L48.9125683,117.45628 C49.2677596,118.662957 50.1912568,119.577107 51.363388,119.9062 L51.363388,119.9062 L51.363388,117.45628 Z M64.647541,111.240064 C63.1912568,111.240064 62.0191257,112.446741 62.0191257,113.945946 C62.0191257,115.445151 63.1912568,116.651828 64.647541,116.651828 C66.1038251,116.651828 67.2759563,115.445151 67.2759563,113.945946 C67.2759563,112.446741 66.1038251,111.240064 64.647541,111.240064 Z M65.8907104,104 L65.8907104,104.694754 L70.2595628,104.694754 L70.2595628,107.510334 L59.0355191,107.510334 L59.0355191,104.694754 L63.1202186,104.694754 L63.1202186,104 L65.8907104,104 Z M79.1748634,104 L79.1748634,106.596184 L76.3333333,106.596184 L76.3333333,104 L79.1748634,104 Z" id="å½¢çŠ¶ç»“åˆ" fill="#DCDFE7" fill-rule="nonzero"></path>
                </g>
            </g>
        </g>
    </g>
</svg>