<?xml version="1.0" encoding="UTF-8"?>
<svg width="343px" height="343px" viewBox="0 0 343 343" version="1.1" xmlns="http://www.w3.org/2000/svg" xmlns:xlink="http://www.w3.org/1999/xlink">
    <!-- Generator: Sketch 61.2 (89653) - https://sketch.com -->
    <title>img_coupon_default343</title>
    <desc>Created with Sketch.</desc>
    <defs>
        <linearGradient x1="1.43583203%" y1="33.8229105%" x2="100%" y2="66.1770895%" id="linearGradient-1">
            <stop stop-color="#90DAFF" offset="0%"></stop>
            <stop stop-color="#0065FF" offset="100%"></stop>
        </linearGradient>
        <path d="M225.279352,95 C225.279352,98.9133319 228.440548,102.085714 232.340081,102.085714 C236.239614,102.085714 239.40081,98.9133319 239.40081,95 L265.867368,95 C273.672605,95 280,101.327395 280,109.132632 L280,142.828571 C272.200934,142.828571 265.878543,149.173336 265.878543,157 C265.878543,164.826664 272.200934,171.171429 280,171.171429 L280,204.867368 C280,212.672605 273.672605,219 265.867368,219 L239.40081,219.001002 L239.40081,219 C239.40081,215.086668 236.239614,211.914286 232.340081,211.914286 C228.440548,211.914286 225.279352,215.086668 225.279352,219 L225.279,219 L76.1326319,219 C68.3273948,219 62,212.672605 62,204.867368 L62,109.132632 C62,101.327395 68.3273948,95 76.1326319,95 L225.279352,95 Z M232.340081,195.971429 C230.390315,195.971429 228.809717,197.55762 228.809717,199.514286 C228.809717,201.470952 230.390315,203.057143 232.340081,203.057143 C234.289847,203.057143 235.870445,201.470952 235.870445,199.514286 C235.870445,197.55762 234.289847,195.971429 232.340081,195.971429 Z M232.340081,181.8 C230.390315,181.8 228.809717,183.386191 228.809717,185.342857 C228.809717,187.299523 230.390315,188.885714 232.340081,188.885714 C234.289847,188.885714 235.870445,187.299523 235.870445,185.342857 C235.870445,183.386191 234.289847,181.8 232.340081,181.8 Z M232.340081,167.628571 C230.390315,167.628571 228.809717,169.214763 228.809717,171.171429 C228.809717,173.128095 230.390315,174.714286 232.340081,174.714286 C234.289847,174.714286 235.870445,173.128095 235.870445,171.171429 C235.870445,169.214763 234.289847,167.628571 232.340081,167.628571 Z M232.340081,153.457143 C230.390315,153.457143 228.809717,155.043334 228.809717,157 C228.809717,158.956666 230.390315,160.542857 232.340081,160.542857 C234.289847,160.542857 235.870445,158.956666 235.870445,157 C235.870445,155.043334 234.289847,153.457143 232.340081,153.457143 Z M232.340081,139.285714 C230.390315,139.285714 228.809717,140.871905 228.809717,142.828571 C228.809717,144.785237 230.390315,146.371429 232.340081,146.371429 C234.289847,146.371429 235.870445,144.785237 235.870445,142.828571 C235.870445,140.871905 234.289847,139.285714 232.340081,139.285714 Z M232.340081,125.114286 C230.390315,125.114286 228.809717,126.700477 228.809717,128.657143 C228.809717,130.613809 230.390315,132.2 232.340081,132.2 C234.289847,132.2 235.870445,130.613809 235.870445,128.657143 C235.870445,126.700477 234.289847,125.114286 232.340081,125.114286 Z M232.340081,110.942857 C230.390315,110.942857 228.809717,112.529048 228.809717,114.485714 C228.809717,116.44238 230.390315,118.028571 232.340081,118.028571 C234.289847,118.028571 235.870445,116.44238 235.870445,114.485714 C235.870445,112.529048 234.289847,110.942857 232.340081,110.942857 Z" id="path-2"></path>
        <path d="M225.279352,124 C225.279352,127.913332 228.440548,131.085714 232.340081,131.085714 C236.239614,131.085714 239.40081,127.913332 239.40081,124 L265.867368,124 C273.672605,124 280,130.327395 280,138.132632 L280,171.828571 C272.200934,171.828571 265.878543,178.173336 265.878543,186 C265.878543,193.826664 272.200934,200.171429 280,200.171429 L280,233.867368 C280,241.672605 273.672605,248 265.867368,248 L239.40081,248.001002 L239.40081,248 C239.40081,244.086668 236.239614,240.914286 232.340081,240.914286 C228.440548,240.914286 225.279352,244.086668 225.279352,248 L225.279,248 L76.1326319,248 C68.3273948,248 62,241.672605 62,233.867368 L62,138.132632 C62,130.327395 68.3273948,124 76.1326319,124 L225.279352,124 Z M232.340081,224.971429 C230.390315,224.971429 228.809717,226.55762 228.809717,228.514286 C228.809717,230.470952 230.390315,232.057143 232.340081,232.057143 C234.289847,232.057143 235.870445,230.470952 235.870445,228.514286 C235.870445,226.55762 234.289847,224.971429 232.340081,224.971429 Z M232.340081,210.8 C230.390315,210.8 228.809717,212.386191 228.809717,214.342857 C228.809717,216.299523 230.390315,217.885714 232.340081,217.885714 C234.289847,217.885714 235.870445,216.299523 235.870445,214.342857 C235.870445,212.386191 234.289847,210.8 232.340081,210.8 Z M232.340081,196.628571 C230.390315,196.628571 228.809717,198.214763 228.809717,200.171429 C228.809717,202.128095 230.390315,203.714286 232.340081,203.714286 C234.289847,203.714286 235.870445,202.128095 235.870445,200.171429 C235.870445,198.214763 234.289847,196.628571 232.340081,196.628571 Z M232.340081,182.457143 C230.390315,182.457143 228.809717,184.043334 228.809717,186 C228.809717,187.956666 230.390315,189.542857 232.340081,189.542857 C234.289847,189.542857 235.870445,187.956666 235.870445,186 C235.870445,184.043334 234.289847,182.457143 232.340081,182.457143 Z M232.340081,168.285714 C230.390315,168.285714 228.809717,169.871905 228.809717,171.828571 C228.809717,173.785237 230.390315,175.371429 232.340081,175.371429 C234.289847,175.371429 235.870445,173.785237 235.870445,171.828571 C235.870445,169.871905 234.289847,168.285714 232.340081,168.285714 Z M232.340081,154.114286 C230.390315,154.114286 228.809717,155.700477 228.809717,157.657143 C228.809717,159.613809 230.390315,161.2 232.340081,161.2 C234.289847,161.2 235.870445,159.613809 235.870445,157.657143 C235.870445,155.700477 234.289847,154.114286 232.340081,154.114286 Z M232.340081,139.942857 C230.390315,139.942857 228.809717,141.529048 228.809717,143.485714 C228.809717,145.44238 230.390315,147.028571 232.340081,147.028571 C234.289847,147.028571 235.870445,145.44238 235.870445,143.485714 C235.870445,141.529048 234.289847,139.942857 232.340081,139.942857 Z" id="path-4"></path>
        <linearGradient x1="1.43583203%" y1="33.9367962%" x2="100%" y2="66.0632038%" id="linearGradient-6">
            <stop stop-color="#90DAFF" offset="0%"></stop>
            <stop stop-color="#0065FF" offset="100%"></stop>
        </linearGradient>
        <path d="M163.408556,-2.66453526e-15 C163.408556,3.90261853 166.572253,7.06631594 170.474872,7.06631594 C174.37749,7.06631594 177.541188,3.90261853 177.541188,-2.66453526e-15 L204.039873,0 C211.84511,3.42558053e-16 218.172504,6.32739481 218.172504,14.1326319 L218.172504,47.6976326 C210.367267,47.6976326 204.039873,54.0250274 204.039873,61.8302644 C204.039873,69.6355015 210.367267,75.9628963 218.172504,75.9628963 L218.172504,109.527897 C218.172504,117.333134 211.84511,123.660529 204.039873,123.660529 L177.541188,123.660529 C177.541188,119.75791 174.37749,116.594213 170.474872,116.594213 C166.572253,116.594213 163.408556,119.75791 163.408556,123.660529 L14.1326319,123.660529 C6.32739481,123.660529 4.50857954e-15,117.333134 0,109.527897 L0,14.1326319 C8.20490982e-16,6.32739481 6.32739481,-2.11891489e-15 14.1326319,0 L163.408556,-2.66453526e-15 Z M170.474872,100.695002 C168.523563,100.695002 166.941714,102.276851 166.941714,104.22816 C166.941714,106.179469 168.523563,107.761318 170.474872,107.761318 C172.426181,107.761318 174.00803,106.179469 174.00803,104.22816 C174.00803,102.276851 172.426181,100.695002 170.474872,100.695002 Z M170.474872,86.5623702 C168.523563,86.5623702 166.941714,88.1442189 166.941714,90.0955282 C166.941714,92.0468374 168.523563,93.6286861 170.474872,93.6286861 C172.426181,93.6286861 174.00803,92.0468374 174.00803,90.0955282 C174.00803,88.1442189 172.426181,86.5623702 170.474872,86.5623702 Z M170.474872,72.4297383 C168.523563,72.4297383 166.941714,74.011587 166.941714,75.9628963 C166.941714,77.9142056 168.523563,79.4960543 170.474872,79.4960543 C172.426181,79.4960543 174.00803,77.9142056 174.00803,75.9628963 C174.00803,74.011587 172.426181,72.4297383 170.474872,72.4297383 Z M170.474872,58.2971065 C168.523563,58.2971065 166.941714,59.8789552 166.941714,61.8302644 C166.941714,63.7815737 168.523563,65.3634224 170.474872,65.3634224 C172.426181,65.3634224 174.00803,63.7815737 174.00803,61.8302644 C174.00803,59.8789552 172.426181,58.2971065 170.474872,58.2971065 Z M170.474872,44.1644746 C168.523563,44.1644746 166.941714,45.7463233 166.941714,47.6976326 C166.941714,49.6489418 168.523563,51.2307905 170.474872,51.2307905 C172.426181,51.2307905 174.00803,49.6489418 174.00803,47.6976326 C174.00803,45.7463233 172.426181,44.1644746 170.474872,44.1644746 Z M170.474872,30.0318427 C168.523563,30.0318427 166.941714,31.6136914 166.941714,33.5650007 C166.941714,35.51631 168.523563,37.0981587 170.474872,37.0981587 C172.426181,37.0981587 174.00803,35.51631 174.00803,33.5650007 C174.00803,31.6136914 172.426181,30.0318427 170.474872,30.0318427 Z M170.474872,15.8992109 C168.523563,15.8992109 166.941714,17.4810596 166.941714,19.4323688 C166.941714,21.3836781 168.523563,22.9655268 170.474872,22.9655268 C172.426181,22.9655268 174.00803,21.3836781 174.00803,19.4323688 C174.00803,17.4810596 172.426181,15.8992109 170.474872,15.8992109 Z" id="path-7"></path>
        <filter x="-11.7%" y="-18.2%" width="123.4%" height="141.2%" filterUnits="objectBoundingBox" id="filter-9">
            <feMorphology radius="1" operator="erode" in="SourceAlpha" result="shadowSpreadOuter1"></feMorphology>
            <feOffset dx="0" dy="3" in="shadowSpreadOuter1" result="shadowOffsetOuter1"></feOffset>
            <feGaussianBlur stdDeviation="9" in="shadowOffsetOuter1" result="shadowBlurOuter1"></feGaussianBlur>
            <feColorMatrix values="0 0 0 0 0   0 0 0 0 0.396078431   0 0 0 0 1  0 0 0 0.436762456 0" type="matrix" in="shadowBlurOuter1"></feColorMatrix>
        </filter>
        <path d="M87.4064991,40.5980156 C89.3210182,40.5980156 90.8874429,41.6417727 91.7576788,43.2074084 C107.247879,44.0772061 119.431182,56.6022917 120.127371,72.0846891 L120.127371,72.0846891 L120.127371,84.9576938 C120.127371,90.350439 115.950238,94.8733866 110.728823,95.3952651 L110.728823,95.3952651 L58.8627598,95.3952651 C53.6413441,94.699427 49.6382587,90.350439 49.6382587,84.9576938 L49.6382587,84.9576938 L49.6382587,76.6076367 C49.4642115,75.5638796 49.4642115,74.5201225 49.4642115,73.4763653 L49.464719,73.0290408 C49.4677635,72.1343919 49.4890754,71.2397429 49.6382587,70.3450939 C51.0306363,55.732494 62.8658452,44.2511656 77.4858092,43.2074084 C78.181998,41.6417727 79.9224699,40.5980156 81.836989,40.5980156 L81.836989,40.5980156 Z M76.9636676,28.420849 C82.3591306,28.2468895 84.621744,40.2500966 84.2736497,39.2063394 C82.5331777,35.0313109 79.7484227,33.6396347 77.311762,32.9437966 C75.9193845,32.4219181 75.0491486,31.9000395 75.0491486,30.6823228 C75.0491486,29.4646062 75.7453373,28.420849 76.9636676,28.420849 Z M89.4950654,21.2885086 C90.7133957,20.9405896 91.5836317,21.6364277 91.931726,22.8541443 C92.2798204,24.071861 91.5836317,24.7676991 90.3653013,25.6374967 C88.276735,27.0291729 85.8400744,28.9427276 85.3179328,33.4656752 C85.1438856,34.6833918 84.2736497,22.5062253 89.4950654,21.2885086 Z" id="path-10"></path>
        <filter x="-3.5%" y="-3.4%" width="107.1%" height="106.7%" filterUnits="objectBoundingBox" id="filter-11">
            <feGaussianBlur stdDeviation="2" in="SourceAlpha" result="shadowBlurInner1"></feGaussianBlur>
            <feOffset dx="0" dy="1" in="shadowBlurInner1" result="shadowOffsetInner1"></feOffset>
            <feComposite in="shadowOffsetInner1" in2="SourceAlpha" operator="arithmetic" k2="-1" k3="1" result="shadowInnerInner1"></feComposite>
            <feColorMatrix values="0 0 0 0 0   0 0 0 0 0   0 0 0 0 0  0 0 0 0.322907561 0" type="matrix" in="shadowInnerInner1"></feColorMatrix>
        </filter>
    </defs>
    <g id="ðŸ”ªåˆ‡å›¾" stroke="none" stroke-width="1" fill="none" fill-rule="evenodd">
        <g id="img" transform="translate(-993.000000, -83.000000)">
            <g id="img_coupon_default343" transform="translate(993.000000, 83.000000)">
                <g>
                    <path d="M8,0 L335,0 C339.418278,-8.11624501e-16 343,3.581722 343,8 L343,343 L343,343 L0,343 L0,8 C-5.41083001e-16,3.581722 3.581722,8.11624501e-16 8,0 Z" id="çŸ©å½¢" fill="#FFFFFF" fill-rule="evenodd"></path>
                    <mask id="mask-3" fill="white">
                        <use xlink:href="#path-2"></use>
                    </mask>
                    <use id="è’™ç‰ˆ" fill="url(#linearGradient-1)" fill-rule="evenodd" opacity="0.202543713" transform="translate(171.000000, 157.000000) rotate(8.000000) translate(-171.000000, -157.000000) " xlink:href="#path-2"></use>
                    <mask id="mask-5" fill="white">
                        <use xlink:href="#path-4"></use>
                    </mask>
                    <use id="è’™ç‰ˆ" fill="url(#linearGradient-1)" fill-rule="evenodd" opacity="0.202543713" transform="translate(171.000000, 186.000000) scale(1, -1) rotate(8.000000) translate(-171.000000, -186.000000) " xlink:href="#path-4"></use>
                    <g id="å½¢çŠ¶ç»“åˆ" stroke-width="1" fill-rule="evenodd" transform="translate(62.000000, 110.000000)">
                        <mask id="mask-8" fill="white">
                            <use xlink:href="#path-7"></use>
                        </mask>
                        <g id="è’™ç‰ˆ">
                            <use fill="black" fill-opacity="1" filter="url(#filter-9)" xlink:href="#path-7"></use>
                            <use fill="url(#linearGradient-6)" fill-rule="evenodd" xlink:href="#path-7"></use>
                        </g>
                        <path d="M28.6828628,-23.7256606 L28.6828628,158.231975 L-6.64871683,158.231975 L-6.64871683,-23.7256606 L28.6828628,-23.7256606 Z M199.558717,-66.9219235 L199.558717,127.401765 L171.293453,127.401765 L171.293453,-66.9219235 L199.558717,-66.9219235 Z M164.449098,-59.8471112 L164.449098,122.110524 L150.316466,122.110524 L150.316466,-59.8471112 L164.449098,-59.8471112 Z" fill="#FFFFFF" opacity="0.0802641369" mask="url(#mask-8)" transform="translate(96.455000, 45.655026) rotate(30.000000) translate(-96.455000, -45.655026) "></path>
                        <g opacity="0.201985677" fill-rule="nonzero" mask="url(#mask-8)">
                            <use fill="#0A6DFF" xlink:href="#path-10"></use>
                            <use fill="black" fill-opacity="1" filter="url(#filter-11)" xlink:href="#path-10"></use>
                        </g>
                    </g>
                </g>
            </g>
        </g>
    </g>
</svg>