<?xml version="1.0" encoding="UTF-8"?>
<svg width="216px" height="216px" viewBox="0 0 216 216" version="1.1" xmlns="http://www.w3.org/2000/svg" xmlns:xlink="http://www.w3.org/1999/xlink" style="background: #FFFFFF;">
    <!-- Generator: Sketch 61.2 (89653) - https://sketch.com -->
    <title>img_goods_load_failed216</title>
    <desc>Created with Sketch.</desc>
    <defs>
        <linearGradient x1="50%" y1="100%" x2="50%" y2="0%" id="linearGradient-1">
            <stop stop-color="#F8F8F9" offset="0%"></stop>
            <stop stop-color="#DBDEE6" offset="100%"></stop>
        </linearGradient>
    </defs>
    <g id="img_goods_load_failed216" stroke="none" stroke-width="1" fill="none" fill-rule="evenodd">
        <rect fill="#FFFFFF" x="0" y="0" width="216" height="216"></rect>
        <rect id="矩形" fill="#FFFFFF" x="0" y="0" width="216" height="216" rx="8"></rect>
        <g id="img_goods_load_failed343" transform="translate(48.000000, 22.000000)">
            <path d="M55.6681693,32.892 L53.3151956,50.8340003 C53.1933003,51.763326 53.4613325,53.1738446 53.9215498,53.9982525 L59.6650153,64.2867791 C60.1217908,65.1050215 60.3646499,66.5140832 60.2063858,67.4402711 L58.3474901,78.3188351 C58.0310237,80.1708487 58.4775528,80.3213544 59.3457886,78.6531779 L64.9942816,67.8005003 C65.4260557,66.9709154 65.5606388,65.5690049 65.29528,64.6705951 L62.0296778,53.6144365 C61.7641405,52.7154225 61.8309704,51.2886107 62.1840994,50.4148128 L68.7901697,34.0682621 C70.0735897,34.8442752 71.1292782,35.9661768 71.8795001,37.3173014 C97.8548122,38.7773724 118.340286,59.606745 119.891596,85.4952635 L119.932796,86.2812979 L119.932796,108.108622 C119.932796,117.139613 113.031085,124.731976 104.340042,125.770586 L104.013299,125.806452 L16.1612616,125.806452 C7.43048348,124.641723 0.710769215,117.440562 0.539903889,108.459427 L0.536570373,108.108622 L0.536570373,93.9503575 C0.274521045,92.3772171 0.245404453,90.8040766 0.242169276,89.2309362 L0.242169276,88.0510809 C0.245404453,86.4779404 0.274521045,84.9048 0.536570373,83.3316595 C2.89501433,58.5546975 22.941788,39.0870844 47.7054495,37.3173014 C48.8489375,34.7430716 51.6556807,33.0009161 54.7816345,32.8976947 L55.0755869,32.8928439 L55.6681693,32.892 Z M59.2028638,30.5331332 C56.2548089,23.4540012 51.5379209,21.0942906 47.410644,19.9144352 C45.0522001,19.0295437 43.5781726,18.1446522 43.5781726,16.0799054 C43.5781726,14.0151585 44.7573946,12.2453755 46.821033,12.2453755 C55.9600034,11.9504117 59.7924748,32.3029162 59.2028638,30.5331332 Z M72.1743056,2.80653285 C72.7639166,4.87127969 71.5846946,6.05113502 69.5210561,7.52595419 C65.9833902,9.88566487 61.8561133,13.130267 60.9716968,20.7993267 C60.6768913,22.8640736 59.2028638,2.21660518 68.0470286,0.151858345 C70.1106671,-0.438069323 71.5846946,0.741786013 72.1743056,2.80653285 Z" id="形状结合" fill="url(#linearGradient-1)" fill-rule="nonzero"></path>
            <path d="M25.2284935,112.352165 C26.0926473,101.533601 32.4908007,93.1317204 40.2553763,93.1317204 C47.3514852,93.1317204 53.3063199,100.149207 54.9386779,109.615549 L54.9327957,108.959828 L54.9327957,108.959828 C54.9327957,93.7526138 63.9292244,81.4247312 75.0268817,81.4247312 C86.124539,81.4247312 95.1209677,93.7526138 95.1209677,108.959828 C95.1209677,110.108472 95.0696412,111.24069 94.9699594,112.352408 L25.2284935,112.352165 Z M40.6922043,59.4086022 C47.302548,59.4086022 52.6612903,64.7673445 52.6612903,71.3776882 C52.6612903,77.9880319 47.302548,83.3467742 40.6922043,83.3467742 C34.0818606,83.3467742 28.7231183,77.9880319 28.7231183,71.3776882 C28.7231183,64.7673445 34.0818606,59.4086022 40.6922043,59.4086022 Z" id="形状结合" fill="#DCDFE7"></path>
        </g>
        <path d="M114.196721,163.597774 L114.196721,167.392687 L117.934426,167.392687 L117.934426,187.205087 L144,187.205087 L144,191 L114.245902,191 L114.245902,190.950715 L114.147541,190.950715 L114.147541,167.441971 L110.262295,167.441971 L110.262295,163.597774 L114.196721,163.597774 Z M97.8196721,165.914149 C101.95082,165.914149 105.295082,169.265501 105.295082,173.405405 C105.295082,176.806041 102.983607,179.664547 99.8852459,180.551669 L99.8852459,180.551669 L99.9836066,190.901431 L96.147541,190.950715 L96.0491803,180.650238 C92.8032787,179.861685 90.3442623,176.90461 90.3442623,173.405405 C90.3442623,169.265501 93.6885246,165.914149 97.8196721,165.914149 Z M93.8360656,182.079491 L93.8360656,190.901431 L90.0491803,190.901431 L90.0491803,190.852146 L72,190.852146 L72,187.057234 L90.0491803,187.057234 L90.0491803,182.079491 L93.8360656,182.079491 Z M105.590164,182.079491 L105.590164,190.901431 L101.754098,190.901431 L101.754098,182.079491 L105.590164,182.079491 Z M77.852459,160 L77.852459,161.72496 L83.4098361,161.72496 L83.4098361,168.230525 C87,169.314785 89.6065574,172.715421 89.6065574,176.658188 C89.6065574,181.537361 85.6721311,185.480127 80.8032787,185.480127 C75.9344262,185.480127 72,181.537361 72,176.658188 C72,172.173291 75.295082,168.476948 79.6229508,167.934817 L79.6229508,167.934817 L79.6229508,165.519873 L74.0163934,165.519873 L74.0163934,160 L77.852459,160 Z M124.622951,160 L124.622951,163.992051 L129.344262,163.992051 L129.344262,160 L133.131148,160 L133.131148,163.992051 L142.180328,163.992051 L142.180328,167.836248 L133.131148,167.836248 L133.131148,172.715421 L142.918033,172.715421 L142.918033,176.559618 L137.262295,176.559618 L137.262295,181.586645 L144,181.586645 L144,185.381558 L133.42623,185.381558 L133.42623,176.559618 L129.737705,176.559618 L124.622951,185.430843 L120.196721,185.430843 L125.311475,176.559618 L120.098361,176.559618 L120.098361,172.715421 L129.344262,172.715421 L129.344262,167.836248 L120.786885,167.836248 L120.786885,160 L124.622951,160 Z M80.852459,171.631161 C78.4918033,171.631161 76.5245902,173.257552 75.9836066,175.426073 L75.9836066,175.426073 L82.1803279,175.426073 L82.1803279,181.488076 C84.295082,180.896661 85.8196721,178.925278 85.8196721,176.658188 C85.8196721,173.848967 83.557377,171.631161 80.852459,171.631161 Z M79.4262295,178.136725 L76.0327869,178.136725 C76.5245902,179.763116 77.8032787,180.995231 79.4262295,181.438792 L79.4262295,181.438792 L79.4262295,178.136725 Z M97.8196721,169.758347 C95.8032787,169.758347 94.1803279,171.384738 94.1803279,173.405405 C94.1803279,175.426073 95.8032787,177.052464 97.8196721,177.052464 C99.8360656,177.052464 101.459016,175.426073 101.459016,173.405405 C101.459016,171.384738 99.8360656,169.758347 97.8196721,169.758347 Z M99.5409836,160 L99.5409836,160.936407 L105.590164,160.936407 L105.590164,164.73132 L90.0491803,164.73132 L90.0491803,160.936407 L95.704918,160.936407 L95.704918,160 L99.5409836,160 Z M117.934426,160 L117.934426,163.499205 L114,163.499205 L114,160 L117.934426,160 Z" id="形状结合" fill="#DCDFE7" fill-rule="nonzero"></path>
    </g>
</svg>