<?xml version="1.0" encoding="UTF-8"?>
<svg width="164px" height="199px" viewBox="0 0 164 199" version="1.1" xmlns="http://www.w3.org/2000/svg" xmlns:xlink="http://www.w3.org/1999/xlink">
    <!-- Generator: Sketch 61.2 (89653) - https://sketch.com -->
    <title>img_jingyutou</title>
    <desc>Created with Sketch.</desc>
    <g id="🔪切图" stroke="none" stroke-width="1" fill="none" fill-rule="evenodd">
        <g id="img" transform="translate(-210.000000, -334.000000)" fill-rule="nonzero">
            <g id="img_jingyutou" transform="translate(210.000000, 334.000000)">
                <g>
                    <g id="XMLID_224_" transform="translate(19.340364, 168.717162)" fill="#72D0EB">
                        <g id="XMLID_755_">
                            <g id="XMLID_756_">
                                <g id="XMLID_757_">
                                    <g id="XMLID_758_">
                                        <path d="M10.6922339,0.314477469 C10.6922339,0.314477469 0.943432407,4.08820709 0.157238734,13.9942474 C-0.628954938,22.1706616 6.13231064,27.5167785 11.6356663,29.2464046 C13.2080537,29.7181208 14.780441,28.6174497 14.780441,26.8878236 C14.780441,22.0134228 16.6673058,12.8935762 30.8187919,13.9942474 C42.1399808,14.9376798 47.8005753,10.7446469 47.8005753,1.41514861 L10.6922339,0.314477469 Z" id="XMLID_759_"></path>
                                    </g>
                                </g>
                            </g>
                        </g>
                    </g>
                    <g id="XMLID_223_" transform="translate(94.972196, 168.717162)" fill="#72D0EB">
                        <g id="XMLID_749_">
                            <g id="XMLID_750_">
                                <g id="XMLID_751_">
                                    <g id="XMLID_752_">
                                        <path d="M38.0517737,0.314477469 C38.0517737,0.314477469 47.8005753,4.08820709 48.5867689,13.9942474 C49.3729626,22.1706616 42.611697,27.5167785 37.1083413,29.2464046 C35.535954,29.7181208 33.9635666,28.6174497 33.9635666,26.8878236 C33.9635666,22.0134228 32.0767018,12.8935762 17.9252157,13.9942474 C6.60402685,14.9376798 0.943432407,10.7446469 0.943432407,1.41514861 L38.0517737,0.314477469 Z" id="XMLID_753_"></path>
                                    </g>
                                </g>
                            </g>
                        </g>
                    </g>
                    <g id="XMLID_153_">
                        <g id="XMLID_175_" transform="translate(0.000000, 44.498562)" fill="#72D0EB">
                            <g id="XMLID_707_">
                                <g id="XMLID_708_">
                                    <g id="XMLID_709_">
                                        <g id="XMLID_710_">
                                            <path d="M162.899329,72.801534 C161.48418,37.1083413 133.023969,8.33365292 97.4880153,6.13231064 C95.6011505,2.51581975 91.8274209,0 87.4247363,0 L74.6883988,0 C70.2857143,0 66.5119847,2.51581975 64.6251198,6.13231064 C30.9760307,8.64813039 3.93096836,35.0642378 0.471716203,68.5560882 C0.314477469,70.9146692 0.157238734,73.2732502 0.157238734,75.6318313 C0.157238734,77.9904123 0.314477469,80.3489933 0.471716203,82.7075743 L0.471716203,102.205177 C0.471716203,114.469799 9.74880153,124.690316 21.6989453,126.105465 C22.6423778,126.262704 23.5858102,126.262704 24.5292426,126.262704 L32.8628955,126.262704 L39.1524449,126.262704 L138.684564,126.262704 C139.470757,126.262704 140.41419,126.262704 141.200384,126.105465 C153.307766,124.847555 162.74209,114.627037 162.74209,102.205177 L162.74209,78.6193672 C162.74209,77.6759348 162.74209,76.7325024 162.74209,75.78907 C163.056568,74.6883988 163.056568,73.7449664 162.899329,72.801534 Z" id="XMLID_711_"></path>
                                        </g>
                                    </g>
                                </g>
                            </g>
                        </g>
                        <g id="XMLID_171_" transform="translate(8.333653, 110.538830)">
                            <g id="XMLID_172_">
                                <g id="XMLID_174_" fill="#FFFFFF">
                                    <g id="XMLID_701_">
                                        <g id="XMLID_702_">
                                            <g id="XMLID_703_">
                                                <g id="XMLID_704_">
                                                    <circle id="XMLID_705_" cx="16.3528284" cy="15.8811122" r="15.409396"></circle>
                                                </g>
                                            </g>
                                        </g>
                                    </g>
                                </g>
                                <g id="XMLID_173_" transform="translate(0.000000, 4.717162)" fill="#000000">
                                    <g id="XMLID_695_">
                                        <g id="XMLID_696_">
                                            <g id="XMLID_697_">
                                                <g id="XMLID_698_">
                                                    <path d="M16.3528284,11.3211889 L5.34611697,0.314477469 C2.67305849,3.14477469 0.943432407,6.91850431 0.943432407,11.0067114 C0.943432407,19.4976031 7.86193672,26.4161074 16.3528284,26.4161074 C24.84372,26.4161074 31.7622244,19.4976031 31.7622244,11.0067114 C31.7622244,6.76126558 30.0325983,2.98753595 27.3595398,0.314477469 L16.3528284,11.3211889 Z" id="XMLID_699_"></path>
                                                </g>
                                            </g>
                                        </g>
                                    </g>
                                </g>
                            </g>
                        </g>
                        <g id="XMLID_167_" transform="translate(123.117929, 110.538830)">
                            <g id="XMLID_168_">
                                <g id="XMLID_170_" fill="#FFFFFF">
                                    <g id="XMLID_687_">
                                        <g id="XMLID_688_">
                                            <g id="XMLID_689_">
                                                <g id="XMLID_690_">
                                                    <circle id="XMLID_691_" cx="16.1955896" cy="15.8811122" r="15.409396"></circle>
                                                </g>
                                            </g>
                                        </g>
                                    </g>
                                </g>
                                <g id="XMLID_169_" transform="translate(0.000000, 4.717162)" fill="#000000">
                                    <g id="XMLID_681_">
                                        <g id="XMLID_682_">
                                            <g id="XMLID_683_">
                                                <g id="XMLID_684_">
                                                    <path d="M16.1955896,11.3211889 L5.18887824,0.314477469 C2.51581975,3.14477469 0.786193672,6.91850431 0.786193672,11.0067114 C0.786193672,19.4976031 7.70469799,26.4161074 16.1955896,26.4161074 C24.6864813,26.4161074 31.6049856,19.4976031 31.6049856,11.0067114 C31.6049856,6.76126558 29.8753595,2.98753595 27.2023011,0.314477469 L16.1955896,11.3211889 Z" id="XMLID_685_"></path>
                                                </g>
                                            </g>
                                        </g>
                                    </g>
                                </g>
                            </g>
                        </g>
                        <g id="XMLID_166_" transform="translate(58.650048, 16.195590)" fill="#72D0EB">
                            <g id="XMLID_673_">
                                <g id="XMLID_674_">
                                    <g id="XMLID_675_">
                                        <g id="XMLID_676_">
                                            <path d="M21.6989453,25.3154362 C17.767977,15.5666347 11.1639501,12.7363375 5.81783317,11.0067114 C2.51581975,9.90604027 0.628954938,8.80536913 0.628954938,5.81783317 C0.628954938,2.83029722 2.20134228,0.786193672 5.18887824,0.628954938 C17.6107383,0.157238734 22.7996165,27.9884947 21.6989453,25.3154362 Z" id="XMLID_677_"></path>
                                        </g>
                                    </g>
                                </g>
                            </g>
                        </g>
                        <g id="XMLID_165_" transform="translate(82.235858, 0.000000)" fill="#72D0EB">
                            <g id="XMLID_667_">
                                <g id="XMLID_668_">
                                    <g id="XMLID_669_">
                                        <g id="XMLID_670_">
                                            <path d="M0.786193672,28.3029722 C2.20134228,17.9252157 7.70469799,13.3652924 12.42186,10.3777565 C15.2521572,8.49089166 16.9817833,6.91850431 16.1955896,4.08820709 C15.409396,1.25790988 13.3652924,-0.314477469 10.5349952,0.314477469 C-1.72962608,2.98753595 0.471716203,31.1332694 0.786193672,28.3029722 Z" id="XMLID_671_"></path>
                                        </g>
                                    </g>
                                </g>
                            </g>
                        </g>
                        <g id="XMLID_160_" opacity="0.8" transform="translate(103.777565, 57.077661)" fill="#FFFFFF">
                            <g id="XMLID_163_" transform="translate(16.195590, 7.861937)">
                                <g id="XMLID_164_">
                                    <g id="XMLID_661_">
                                        <g id="XMLID_662_">
                                            <g id="XMLID_663_">
                                                <g id="XMLID_664_">
                                                    <path d="M20.126558,22.6423778 C19.0258869,22.6423778 17.9252157,22.1706616 17.2962608,21.0699904 C13.3652924,15.2521572 8.17641419,10.2205177 2.04410355,6.60402685 C0.471716203,5.66059444 -0.157238734,3.45925216 0.943432407,1.88686481 C2.04410355,0.314477469 4.08820709,-0.314477469 5.66059444,0.786193672 C12.5790988,5.0316395 18.5541707,10.6922339 23.114094,17.4534995 C24.2147651,19.0258869 23.7430489,21.2272291 22.1706616,22.3279003 C21.3844679,22.485139 20.7555129,22.6423778 20.126558,22.6423778 Z" id="XMLID_665_"></path>
                                                </g>
                                            </g>
                                        </g>
                                    </g>
                                </g>
                            </g>
                            <g id="XMLID_161_">
                                <g id="XMLID_162_">
                                    <g id="XMLID_654_">
                                        <g id="XMLID_655_">
                                            <g id="XMLID_656_">
                                                <g id="XMLID_657_">
                                                    <path d="M8.64813039,8.96260786 C8.33365292,8.96260786 7.86193672,8.96260786 7.54745925,8.80536913 C5.97507191,8.33365292 4.40268456,7.86193672 2.98753595,7.54745925 C1.10067114,7.07574305 -2.84328117e-13,5.18887824 0.314477469,3.30201342 C0.786193672,1.41514861 2.67305849,0.314477469 4.5599233,0.628954938 C6.28954938,1.10067114 8.17641419,1.57238734 9.90604027,2.04410355 C11.7929051,2.67305849 12.7363375,4.5599233 12.1073826,6.44678811 C11.3211889,8.17641419 10.063279,8.96260786 8.64813039,8.96260786 Z" id="XMLID_658_"></path>
                                                </g>
                                            </g>
                                        </g>
                                    </g>
                                </g>
                            </g>
                        </g>
                        <g id="XMLID_154_" transform="translate(19.340364, 146.232023)">
                            <g id="XMLID_159_" transform="translate(7.390221, 5.188878)" fill="#FFFFFF">
                                <g id="XMLID_646_">
                                    <g id="XMLID_647_">
                                        <g id="XMLID_648_">
                                            <g id="XMLID_649_">
                                                <path d="M7.10542736e-14,0.943432407 L109.752637,0.943432407 L77.2042186,7.70469799 C62.5810163,10.6922339 47.3288591,10.6922339 32.7056568,7.70469799 L7.10542736e-14,0.943432407 Z" id="XMLID_650_"></path>
                                            </g>
                                        </g>
                                    </g>
                                </g>
                            </g>
                            <g id="XMLID_157_" fill="#FFAFBB">
                                <g id="XMLID_158_">
                                    <g id="XMLID_640_">
                                        <g id="XMLID_641_">
                                            <g id="XMLID_642_">
                                                <g id="XMLID_643_">
                                                    <circle id="XMLID_644_" cx="5.34611697" cy="5.34611697" r="5.34611697"></circle>
                                                </g>
                                            </g>
                                        </g>
                                    </g>
                                </g>
                            </g>
                            <g id="XMLID_155_" transform="translate(114.312560, 0.000000)" fill="#FFAFBB">
                                <g id="XMLID_156_">
                                    <g id="XMLID_633_">
                                        <g id="XMLID_634_">
                                            <g id="XMLID_635_">
                                                <g id="XMLID_636_">
                                                    <circle id="XMLID_637_" cx="5.66059444" cy="5.34611697" r="5.34611697"></circle>
                                                </g>
                                            </g>
                                        </g>
                                    </g>
                                </g>
                            </g>
                        </g>
                    </g>
                </g>
            </g>
        </g>
    </g>
</svg>