<?xml version="1.0" encoding="UTF-8"?>
<svg width="320px" height="114px" viewBox="0 0 320 114" version="1.1" xmlns="http://www.w3.org/2000/svg" xmlns:xlink="http://www.w3.org/1999/xlink">
    <!-- Generator: Sketch 61.2 (89653) - https://sketch.com -->
    <title>logo_text</title>
    <desc>Created with Sketch.</desc>
    <g id="🔪切图" stroke="none" stroke-width="1" fill="none" fill-rule="evenodd">
        <g id="img" transform="translate(-426.000000, -331.000000)">
            <g id="logo_text" transform="translate(426.000000, 331.000000)">
                <g>
                    <rect id="矩形" x="0" y="0" width="320" height="114"></rect>
                    <g id="编组" transform="translate(-0.000000, 0.000000)" fill-rule="nonzero">
                        <path d="M106.03983,76.6075663 C104.996122,53.3850601 86.7312295,34.5983135 63.5087233,33.2936783 C62.2040881,30.945335 59.8557448,29.3797727 56.9855474,29.3797727 L48.6358822,29.3797727 C45.7656848,29.3797727 43.1564145,30.945335 42.1127063,33.2936783 C20.1948353,34.8592405 2.45179682,52.0804249 0.364380529,73.9982959 C0.103453493,75.5638582 0.103453493,77.1294204 0.103453493,78.6949826 C0.103453493,80.2605448 0.103453493,81.826107 0.364380529,83.3916693 L0.364380529,95.916167 C0.364380529,104.004905 6.36570236,110.528081 14.1935135,111.571789 C14.7153675,111.571789 15.4981486,111.571789 16.0200027,111.571789 L21.4994705,111.571789 L25.6743031,111.571789 L90.3842081,111.571789 C90.9060621,111.571789 91.4279162,111.571789 91.9497703,111.571789 C99.7775814,110.789008 106.03983,104.004905 106.03983,95.916167 L106.03983,80.2605448 C106.03983,79.7386907 106.03983,78.9559096 106.03983,78.4340556 C106.03983,77.9122015 106.03983,77.1294204 106.03983,76.6075663 Z" id="路径" fill="#6FCFEB"></path>
                        <path d="M80.4689807,111.310862 L81.5126888,111.310862 C81.5126888,111.310862 81.5126888,111.049935 81.5126888,111.049935 C81.2517618,111.310862 80.7299077,111.310862 80.4689807,111.310862 Z" id="路径" fill="#86B34D"></path>
                        <path d="M42.1127063,33.0327512 C35.5895304,33.5546053 29.3272816,35.3810946 23.8478138,38.512219 C29.3272816,35.6420216 35.3286034,33.5546053 42.1127063,33.0327512 C41.8517793,33.0327512 42.1127063,33.0327512 42.1127063,33.0327512 Z" id="路径" fill="#6FCFEB"></path>
                        <path d="M64.0305774,33.2936783 C63.7696504,33.2936783 63.5087233,33.2936783 63.2477963,33.2936783 C63.2477963,33.2936783 63.2477963,33.2936783 63.2477963,33.2936783 C63.5087233,33.2936783 63.7696504,33.2936783 64.0305774,33.2936783 Z" id="路径" fill="#6FCFEB"></path>
                        <g transform="translate(5.845377, 72.432734)">
                            <circle id="椭圆形" fill="#FFFFFF" cx="10.1746255" cy="10.1761544" r="9.91522738"></circle>
                            <path d="M10.1746255,10.1761544 L3.12959557,3.13112444 C1.30310631,4.95761369 0.259398167,7.30595702 0.259398167,10.1761544 C0.259398167,15.6556222 4.69515778,20.0913818 10.1746255,20.0913818 C15.6540933,20.0913818 20.0898529,15.6556222 20.0898529,10.1761544 C20.0898529,7.56688405 19.0461448,4.95761369 17.2196555,3.13112444 L10.1746255,10.1761544 Z" id="路径" fill="#090103"></path>
                        </g>
                        <g transform="translate(80.573963, 72.432734)">
                            <circle id="椭圆形" fill="#FFFFFF" cx="10.0711721" cy="10.1761544" r="9.91522738"></circle>
                            <path d="M10.0711721,10.1761544 L3.02614207,3.13112444 C1.19965282,4.95761369 0.155944674,7.30595702 0.155944674,10.1761544 C0.155944674,15.6556222 4.59170429,20.0913818 10.0711721,20.0913818 C15.5506398,20.0913818 19.9863994,15.6556222 19.9863994,10.1761544 C19.9863994,7.56688405 18.9426913,4.95761369 17.116202,3.13112444 L10.0711721,10.1761544 Z" id="路径" fill="#090103"></path>
                        </g>
                        <path d="M52.2888608,27.2923564 C49.6795904,21.0301076 45.5047578,18.9426913 41.8517793,17.8989831 C39.764363,17.116202 38.4597278,16.3334209 38.4597278,14.5069317 C38.4597278,12.6804424 39.503436,11.1148802 41.3299252,11.1148802 C49.4186634,10.8539532 52.8107148,28.8579187 52.2888608,27.2923564 Z" id="路径" fill="#6FCFEB"></path>
                        <path d="M53.854423,18.6817643 C54.6372041,11.8976613 58.2901826,9.02746391 61.421307,6.94004762 C63.2477963,5.63541244 64.2915044,4.59170429 63.7696504,2.76521504 C63.2477963,0.938725783 61.9431611,-0.104982362 60.1166718,0.41687171 C52.2888608,2.24336096 53.5934959,20.5082535 53.854423,18.6817643 Z" id="路径" fill="#6FCFEB"></path>
                        <g opacity="0.8" transform="translate(66.900775, 37.783458)" fill="#FFFFFF" id="路径">
                            <g transform="translate(11.063918, 4.591704)">
                                <path d="M12.9413695,14.9238034 C12.1585883,14.9238034 11.3758072,14.6628763 11.1148802,13.8800952 C8.50560984,10.2271167 5.11355836,6.83506526 1.19965282,4.48672193 C0.155944674,3.96486786 -0.104982362,2.39930564 0.41687171,1.35559749 C0.938725783,0.311889348 2.504288,0.0509623118 3.54799615,0.572816384 C7.98375576,3.44301378 11.8976613,7.09599229 14.7678587,11.2708249 C15.5506398,12.314533 15.2897128,13.6191682 14.2460046,14.4019493 C13.9850776,14.6628763 13.4632235,14.9238034 12.9413695,14.9238034 Z"></path>
                            </g>
                            <g>
                                <path d="M6.00132183,5.42544771 C5.7403948,5.42544771 5.47946776,5.42544771 5.21854073,5.42544771 C4.17483258,5.16452068 3.13112444,4.90359364 2.08741629,4.6426666 C0.782781109,4.38173957 1.04194431e-13,3.07710439 0.260927036,2.03339624 C0.521854073,0.728761058 1.82648925,-0.0540200505 2.8701974,0.206906986 C3.91390554,0.467834022 5.21854073,0.728761058 6.26224887,1.25061513 C7.56688405,1.7724692 8.08873813,2.81617735 7.82781109,4.12081253 C7.82781109,4.90359364 7.04502998,5.42544771 6.00132183,5.42544771 Z"></path>
                            </g>
                        </g>
                        <path d="M35.0676764,104.004905 C33.5021141,104.004905 31.9365519,104.004905 30.6319167,103.743978 C28.0226464,103.483051 25.9352301,102.178416 24.1087408,101.395635 C21.4994705,100.091 19.4120542,98.7863644 16.2809297,99.8300725 L15.7590757,98.0035833 C19.6729812,96.9598751 22.2822516,98.5254374 24.8915219,99.8300725 C26.7180112,100.873781 28.5445004,101.917489 30.8928438,102.178416 C34.8067493,102.70027 39.764363,102.178416 44.7219767,101.917489 C47.5921741,101.656562 50.4623715,101.656562 52.8107148,101.395635 L52.8107148,101.395635 L53.3325689,101.395635 C55.9418393,101.395635 59.0729637,101.656562 62.2040881,101.656562 C67.1617018,101.917489 72.3802425,102.178416 76.2941481,101.917489 C78.9034185,101.656562 80.4689807,100.612854 82.0345429,99.5691455 C84.1219592,98.2645103 86.4703025,96.6989481 90.3842081,97.7426563 L89.862354,99.5691455 C86.7312295,98.7863644 85.1656673,99.8300725 82.817324,101.134708 C80.9908347,102.178416 79.1643455,103.483051 76.2941481,103.743978 C72.3802425,104.004905 67.1617018,103.743978 61.9431611,103.483051 C58.5511096,103.222124 55.4199852,103.222124 52.8107148,103.222124 C50.4623715,103.222124 47.5921741,103.483051 44.7219767,103.743978 C41.5908523,104.004905 38.1988008,104.004905 35.0676764,104.004905 Z" id="路径" fill="#090103"></path>
                        <circle id="椭圆形" fill="#FEAEBB" cx="90.6451351" cy="99.0472914" r="3.39205147"></circle>
                        <circle id="椭圆形" fill="#FEAEBB" cx="15.7590757" cy="99.0472914" r="3.39205147"></circle>
                    </g>
                    <g id="编组" transform="translate(122.635707, 26.719540)" fill="#6FCFEB" fill-rule="nonzero">
                        <polygon id="路径" points="91.9497703 2.92115971 75.511367 2.92115971 75.511367 0.311889348 65.0742855 0.311889348 65.0742855 2.92115971 49.6795904 2.92115971 49.6795904 13.3582412 91.9497703 13.3582412"></polygon>
                        <polygon id="路径" points="49.4186634 74.1542406 0.103453493 74.1542406 0.103453493 84.5913221 49.4186634 84.5913221 49.4186634 84.5913221 59.8557448 84.5913221 59.8557448 60.5860347 49.4186634 60.5860347"></polygon>
                        <rect id="矩形" x="81.5126888" y="60.5860347" width="10.4370815" height="24.2662144"></rect>
                        <rect id="矩形" x="114.911349" y="0.311889348" width="10.6980085" height="9.39337331"></rect>
                        <polygon id="路径" points="125.870285 74.4151677 125.870285 20.4032711 115.433204 20.4032711 115.433204 10.2271167 104.735195 10.2271167 104.735195 20.6641982 115.433204 20.6641982 115.433204 84.8522491 115.694131 84.8522491 115.694131 84.8522491 197.103366 84.8522491 197.103366 74.4151677"></polygon>
                        <polygon id="路径" points="132.132534 69.718481 144.135178 69.718481 157.96431 45.4522666 168.140465 45.4522666 168.140465 69.718481 168.662319 69.718481 197.103366 69.718481 197.103366 59.2813996 178.577546 59.2813996 178.577546 45.4522666 194.233169 45.4522666 194.233169 35.0151852 167.357684 35.0151852 167.357684 21.7079063 192.145752 21.7079063 192.145752 11.2708249 167.357684 11.2708249 167.357684 0.311889348 156.920602 0.311889348 156.920602 11.2708249 144.135178 11.2708249 144.135178 0.311889348 133.698096 0.311889348 133.698096 11.2708249 133.698096 11.2708249 133.698096 21.7079063 156.920602 21.7079063 156.920602 35.0151852 131.61068 35.0151852 131.61068 45.4522666 145.961667 45.4522666"></polygon>
                        <path d="M0.103453493,45.7131937 C0.103453493,59.0204725 10.801462,69.718481 24.1087408,69.718481 C37.4160197,69.718481 48.1140282,59.0204725 48.1140282,45.7131937 C48.1140282,35.0151852 41.0689982,25.6218119 31.1537708,22.7516145 L31.1537708,5.008576 L30.3709897,5.008576 L30.3709897,5.008576 L16.0200027,5.008576 L16.0200027,0.572816384 L5.58292126,0.572816384 L5.58292126,5.008576 L5.58292126,5.008576 L5.58292126,15.4456575 L20.9776164,15.4456575 L20.9776164,21.9688334 C9.23589976,23.5343956 0.103453493,33.449623 0.103453493,45.7131937 Z M11.062389,49.8880262 L20.4557623,49.8880262 L20.4557623,59.0204725 C16.0200027,57.7158373 12.6279512,54.3237859 11.062389,49.8880262 Z M37.9378738,45.7131937 C37.9378738,51.9754425 33.7630412,57.1939833 28.0226464,58.7595455 L28.0226464,42.3211422 L11.062389,42.3211422 C12.6279512,36.3198204 17.846492,31.8840607 24.3696679,31.8840607 C31.6756249,32.1449878 37.9378738,38.1463096 37.9378738,45.7131937 Z" id="形状"></path>
                        <path d="M91.1669892,36.8416744 C91.1669892,25.6218119 82.0345429,16.4893656 70.8146803,16.4893656 C59.5948178,16.4893656 50.4623715,25.6218119 50.4623715,36.8416744 C50.4623715,46.4959748 57.2464744,54.5847129 66.1179937,56.6721292 L66.3789207,84.8522491 L76.8160022,84.8522491 L76.5550751,56.6721292 C84.9047403,54.0628588 91.1669892,46.2350477 91.1669892,36.8416744 Z M60.899453,36.8416744 C60.899453,31.3622067 65.3352126,26.9264471 70.8146803,26.9264471 C76.2941481,26.9264471 80.7299077,31.3622067 80.7299077,36.8416744 C80.7299077,42.3211422 76.2941481,46.7569018 70.8146803,46.7569018 C65.3352126,46.7569018 60.899453,42.3211422 60.899453,36.8416744 Z" id="形状"></path>
                    </g>
                </g>
            </g>
        </g>
    </g>
</svg>