<?xml version="1.0" encoding="UTF-8"?>
<svg width="44px" height="44px" viewBox="0 0 44 44" version="1.1" xmlns="http://www.w3.org/2000/svg" xmlns:xlink="http://www.w3.org/1999/xlink">
    <!-- Generator: Sketch 61.2 (89653) - https://sketch.com -->
    <title>cutting/ic_add</title>
    <desc>Created with Sketch.</desc>
    <g id="🔪切图" stroke="none" stroke-width="1" fill="none" fill-rule="evenodd">
        <g id="icon" transform="translate(-462.000000, -426.000000)">
            <g id="ic_add" transform="translate(462.000000, 426.000000)">
                <g id="cutting/ic_add">
                    <g>
                        <rect id="矩形" x="0" y="0" width="44" height="44"></rect>
                        <path d="M19.6250471,19.625047 L19.6250471,5.37504704 L19.6250471,5.37504739 C19.6250469,4.06337253 20.6883722,3.00004739 22.000047,3.00004739 C23.311722,3.00004739 24.3750471,4.06337253 24.3750471,5.37504739 C24.3750471,5.37504739 24.3750471,5.37504739 24.3750471,5.37504739 L24.3750471,19.6250474 L38.6250471,19.6250474 L38.625047,19.6250474 C39.9367218,19.6250473 41.000047,20.6883725 41.000047,22.0000474 C41.000047,23.3117223 39.9367218,24.3750474 38.625047,24.3750474 L24.375047,24.3750474 L24.375047,38.6250474 L24.375047,38.6250474 C24.375047,39.9367222 23.3117219,41.0000474 22.000047,41.0000474 C20.6883721,41.0000474 19.625047,39.9367222 19.625047,38.6250474 L19.625047,24.3750474 L5.37504703,24.3750474 L5.37504695,24.3750474 C4.0633721,24.3750473 3.00004696,23.3117222 3.00004696,22.0000474 C3.00004696,20.6883725 4.0633721,19.6250474 5.37504695,19.6250474 L19.6250469,19.6250474 L19.6250471,19.625047 Z" id="路径" fill="#A8A8B6" fill-rule="nonzero"></path>
                    </g>
                </g>
            </g>
        </g>
    </g>
</svg>