<?xml version="1.0" encoding="UTF-8"?>
<svg width="16px" height="16px" viewBox="0 0 16 16" version="1.1" xmlns="http://www.w3.org/2000/svg" xmlns:xlink="http://www.w3.org/1999/xlink">
    <!-- Generator: Sketch 61.2 (89653) - https://sketch.com -->
    <title>ic_add_line_disable</title>
    <desc>Created with Sketch.</desc>
    <g id="ðŸ”ªåˆ‡å›¾" stroke="none" stroke-width="1" fill="none" fill-rule="evenodd">
        <g id="icon" transform="translate(-298.000000, -53.000000)" fill="#E5E5E5">
            <g id="ic_add_line_disable" transform="translate(298.000000, 53.000000)">
                <g id="cutting/ic_add_line_disable">
                    <g id="cutting/ic_add_disable">
                        <path d="M8,0 C8.82842712,0 9.5,0.671572875 9.5,1.5 L9.5,6.5 L14.5,6.5 C15.3284271,6.5 16,7.17157288 16,8 C16,8.82842712 15.3284271,9.5 14.5,9.5 L9.5,9.5 L9.5,14.5 C9.5,15.3284271 8.82842712,16 8,16 C7.17157288,16 6.5,15.3284271 6.5,14.5 L6.499,9.5 L1.5,9.5 C0.671572875,9.5 1.01453063e-16,8.82842712 0,8 C-1.01453063e-16,7.17157288 0.671572875,6.5 1.5,6.5 L6.5,6.5 L6.5,1.5 C6.5,0.671572875 7.17157288,0 8,0 Z" id="å½¢çŠ¶ç»“åˆ"></path>
                    </g>
                </g>
            </g>
        </g>
    </g>
</svg>