<?xml version="1.0" encoding="UTF-8"?>
<svg width="24px" height="24px" viewBox="0 0 24 24" version="1.1" xmlns="http://www.w3.org/2000/svg" xmlns:xlink="http://www.w3.org/1999/xlink">
    <!-- Generator: Sketch 61.2 (89653) - https://sketch.com -->
    <title>ic_bangzhu</title>
    <desc>Created with Sketch.</desc>
    <g id="🔪切图" stroke="none" stroke-width="1" fill="none" fill-rule="evenodd">
        <g id="icon" transform="translate(-259.000000, -113.000000)">
            <g id="ic_bangzhu" transform="translate(259.000000, 113.000000)">
                <g id="cutting/ic_bangzhu">
                    <g>
                        <rect id="矩形" x="0" y="0" width="24" height="24"></rect>
                        <path d="M11.9993126,23 L11.9993123,23 C5.9241902,22.9996202 0.999613305,18.0744348 1,11.9993125 C1.00037975,5.92419028 5.92556511,0.999613305 12.0006873,1 L12.0006877,1 C18.0758098,1.00037995 23.0003867,5.9255652 23,12.0006875 C22.9996201,18.0758097 18.0744349,23.0003867 11.9993127,23 L11.9993126,23 Z M11.9993126,21.5343416 L11.9993124,21.5343416 C17.2646101,21.5343416 21.5329663,17.2659853 21.5329663,12.0006875 C21.5329663,6.73538959 17.2646101,2.46703331 11.9993124,2.46703331 C11.9993123,2.46703331 11.9993122,2.46703331 11.9993121,2.46703331 L11.9993117,2.46703331 C6.73401388,2.46703331 2.46565768,6.73538959 2.46565768,12.0006875 C2.46565768,17.2659853 6.73401388,21.5343416 11.9993117,21.5343416 L11.9993126,21.5343416 Z M14.7243923,7.45384663 C15.3513531,8.00106243 15.6620837,8.75314043 15.6620837,9.69083182 C15.6620837,10.456659 15.4585964,11.0973689 15.0681208,11.5978376 C14.9278796,11.7697019 14.489282,12.1780514 13.7550779,12.8187613 C13.4837986,13.0426855 13.2599046,13.3184632 13.0964939,13.6299608 C12.9258783,13.9474759 12.8397114,14.3035035 12.8462594,14.6638964 L12.8462594,14.9292548 L12.1027805,14.9292548 L11.1716141,14.9292548 L11.1716141,14.6638964 C11.1716141,14.0864325 11.2651083,13.5845888 11.4837196,13.1789892 C11.6872069,12.7417665 12.2811697,12.0983067 13.251859,11.2403604 L13.5172175,10.942004 C13.7990748,10.5817765 13.9530652,10.2077999 13.9530652,9.80082532 C13.9530652,9.25360952 13.796325,8.83151091 13.4993436,8.51940541 C13.1872381,8.20729992 12.7335164,8.05055972 12.1684268,8.05055972 C11.4644708,8.05055972 10.948878,8.26917105 10.6367725,8.72426761 C10.3549152,9.09824424 10.2146739,9.27513046 10.2146739,10.3191679 C10.2146739,11.3632054 8.57165164,11.4603466 8.57165164,10.3191679 C8.57165164,9.17798925 8.90163101,8.28567002 9.55609009,7.6284611 C10.2187987,6.95337829 11.1276168,6.62477345 12.2839196,6.62477345 C13.2862322,6.62477345 14.0988064,6.88875695 14.7243923,7.45384663 Z M12.0048123,15.7748266 C12.3334168,15.7748266 12.6125243,15.8683207 12.8338855,16.0855572 C13.0538717,16.2904193 13.1638648,16.5544028 13.1638648,16.8830073 C13.1638648,17.2129867 13.0373727,17.4783451 12.8201363,17.6969564 L12.8201364,17.6969564 C12.5990738,17.9018289 12.3075512,18.013612 12.0061873,18.0090619 L12.0061873,18.0090619 C11.3858819,18.0189378 10.8750197,17.5240867 10.8651418,16.9037814 C10.8650243,16.896399 10.8649995,16.8890156 10.8649995,16.8816324 C10.8649995,16.551653 10.9750007,16.2876695 11.1949869,16.0841822 L11.194987,16.0841821 C11.4111965,15.8745503 11.7039028,15.7627358 12.0048114,15.7748265 L12.0048123,15.7748266 Z" id="形状" fill="#000000" fill-rule="nonzero"></path>
                    </g>
                </g>
            </g>
        </g>
    </g>
</svg>