<?xml version="1.0" encoding="UTF-8"?>
<svg width="44px" height="44px" viewBox="0 0 44 44" version="1.1" xmlns="http://www.w3.org/2000/svg" xmlns:xlink="http://www.w3.org/1999/xlink">
    <!-- Generator: Sketch 61.2 (89653) - https://sketch.com -->
    <title>ic_bound</title>
    <desc>Created with Sketch.</desc>
    <g id="🔪切图" stroke="none" stroke-width="1" fill="none" fill-rule="evenodd">
        <g id="icon" transform="translate(-526.000000, -424.000000)">
            <g id="ic_bound" transform="translate(526.000000, 424.000000)">
                <g id="cutting/ic_bound">
                    <g stroke-width="1" fill-rule="evenodd" fill="#FFFFFF" id="形状">
                        <path d="M41.86875,14.8401786 L0.613839286,14.8401786 C-0.171875,14.8401786 -0.0294642857,14.0446429 0.176785714,13.8825893 L16.8044643,0.181696429 C17.0107143,0.0196428571 17.3200893,-0.0294642857 17.5852679,0.0589285714 C17.8553571,0.147321429 18.0272321,0.348660714 18.0272321,0.579464286 L13.1950893,11.4910714 L41.8638393,11.4910714 C42.0504464,11.4910714 42.2027941,11.6433036 42.2027941,11.8299107 L42.2027941,14.5013393 C42.2075893,14.6879464 42.0553571,14.8401786 41.86875,14.8401786 L41.86875,14.8401786 Z M43.2633929,29.0419643 L2.00848214,29.0419643 C1.821875,29.0419643 1.66964286,29.1941964 1.66964286,29.3808036 L1.66964286,32.0522321 C1.66964286,32.2388393 1.821875,32.3910714 2.00848214,32.3910714 L30.6772321,32.3910714 L25.8450893,43.2977679 C25.8450893,43.5285714 26.021875,43.7299107 26.2870536,43.8183036 C26.5571429,43.9066964 26.8665179,43.8575893 27.0678571,43.6955357 L43.6955357,30.0044643 C43.9066964,29.8424107 44.0491071,29.0419643 43.2633929,29.0419643 Z" fill-rule="nonzero"></path>
                    </g>
                    <rect x="0" y="0" width="44" height="44"></rect>
                </g>
            </g>
        </g>
    </g>
</svg>