<?xml version="1.0" encoding="UTF-8"?>
<svg width="96px" height="96px" viewBox="0 0 96 96" version="1.1" xmlns="http://www.w3.org/2000/svg" xmlns:xlink="http://www.w3.org/1999/xlink">
    <!-- Generator: Sketch 61.2 (89653) - https://sketch.com -->
    <title>ic_bianjieshouhou</title>
    <desc>Created with Sketch.</desc>
    <defs>
        <linearGradient x1="96.7853078%" y1="99.8523987%" x2="3.39754703%" y2="0.342443453%" id="linearGradient-1">
            <stop stop-color="#EED19C" offset="0%"></stop>
            <stop stop-color="#FFF2D8" stop-opacity="0" offset="99.9313767%"></stop>
        </linearGradient>
    </defs>
    <g id="ðŸ”ªåˆ‡å›¾" stroke="none" stroke-width="1" fill="none" fill-rule="evenodd">
        <g id="icon" transform="translate(-503.000000, -1265.000000)">
            <g id="ic_bianjieshouhou" transform="translate(503.000000, 1265.000000)">
                <g id="cutting/ic_bianjieshouhou">
                    <rect id="çŸ©å½¢" stroke="#EDD9C6" stroke-width="1" fill="#FFFFFF" x="0.5" y="0.5" width="95" height="95" rx="20"></rect>
                    <path d="M60.6648775,69.5202312 C61.0735044,69.5202312 61.4047619,69.8514887 61.4047619,70.2601156 C61.4047619,70.6687425 61.0735044,71 60.6648775,71 L50.3351225,71 C49.9264956,71 49.5952381,70.6687425 49.5952381,70.2601156 C49.5952381,69.8514887 49.9264956,69.5202312 50.3351225,69.5202312 L60.6648775,69.5202312 Z M55.5,46.583815 C61.2069424,46.583815 65.8333333,51.2214204 65.8333333,56.9421965 C65.8333333,62.6629727 61.2069424,67.300578 55.5,67.300578 C49.7930576,67.300578 45.1666667,62.6629727 45.1666667,56.9421965 C45.1666667,51.2214204 49.7930576,46.583815 55.5,46.583815 Z M55.5,39 C62.8681347,39 68.8822999,45.2806813 69.4757324,53.2421862 L69.5202312,53.2427746 C70.3374849,53.2427746 71,53.9052896 71,54.7225434 L71,59.1618497 C71,59.9791034 70.3374849,60.6416185 69.5202312,60.6416185 L68.0511974,60.6416185 C67.2339436,60.6416185 66.5714286,59.9791034 66.5714286,59.1618497 L66.5714286,54.7225434 C66.5714286,53.9241157 67.2037721,53.2733798 67.9949716,53.243823 C67.4125105,46.074041 62.0245437,40.4797688 55.5,40.4797688 C48.9754563,40.4797688 43.5874895,46.074041 43.0046177,53.2457335 L42.9488026,53.2427746 C43.7660564,53.2427746 44.4285714,53.9052896 44.4285714,54.7225434 L44.4285714,59.1618497 C44.4285714,59.9791034 43.7660564,60.6416185 42.9488026,60.6416185 L41.4797688,60.6416185 C40.6625151,60.6416185 40,59.9791034 40,59.1618497 L40,54.7225434 C40,53.9052896 40.6625151,53.2427746 41.4797688,53.2427746 L41.5242676,53.2421862 C42.1177001,45.2806813 48.1318653,39 55.5,39 Z" id="å½¢çŠ¶ç»“åˆ" fill="url(#linearGradient-1)"></path>
                    <g stroke-width="1" transform="translate(27.000000, 27.000000)">
                        <circle id="æ¤­åœ†å½¢å¤‡ä»½-21" stroke="#535050" stroke-width="2" cx="21" cy="23" r="13"></circle>
                        <rect id="çŸ©å½¢å¤‡ä»½-5" fill="#535050" x="13" y="40" width="16" height="2" rx="1"></rect>
                        <path d="M39,20 C39,8.954305 30.9411255,0 21,0 C11.0588745,0 3,8.954305 3,20" id="è·¯å¾„å¤‡ä»½" stroke="#535050" stroke-width="2"></path>
                        <rect id="çŸ©å½¢å¤‡ä»½-8" stroke="#535050" stroke-width="2" x="1" y="19.25" width="4" height="8" rx="2"></rect>
                        <rect id="çŸ©å½¢å¤‡ä»½-9" stroke="#535050" stroke-width="2" x="37" y="19.25" width="4" height="8" rx="2"></rect>
                        <path d="M17,29 C19.6666667,30.3379379 22.3333333,30.3379379 25,29" id="è·¯å¾„-2" stroke="#535050" stroke-width="2" stroke-linecap="round" stroke-linejoin="round"></path>
                    </g>
                </g>
            </g>
        </g>
    </g>
</svg>