<?xml version="1.0" encoding="UTF-8"?>
<svg width="64px" height="64px" viewBox="0 0 64 64" version="1.1" xmlns="http://www.w3.org/2000/svg" xmlns:xlink="http://www.w3.org/1999/xlink">
    <!-- Generator: Sketch 61.2 (89653) - https://sketch.com -->
    <title>ic_close_white64</title>
    <desc>Created with Sketch.</desc>
    <g id="🔪切图" stroke="none" stroke-width="1" fill="none" fill-rule="evenodd">
        <g id="icon" transform="translate(-1948.000000, -719.000000)" fill="#FFFFFF">
            <g id="ic_close_white64" transform="translate(1948.000000, 719.000000)">
                <g id="cutting/ic_close_white">
                    <g>
                        <path d="M32,27.1434126 L52.6404965,6.50291609 C53.3110513,5.8323613 54.3982354,5.8323613 55.0687902,6.50291609 L57.4970839,8.9312098 C58.1676387,9.60176459 58.1676387,10.6889487 57.4970839,11.3595035 L36.8565874,32 L57.4970839,52.6404965 C58.1676387,53.3110513 58.1676387,54.3982354 57.4970839,55.0687902 L55.0687902,57.4970839 C54.3982354,58.1676387 53.3110513,58.1676387 52.6404965,57.4970839 L32,36.8565874 L11.3595035,57.4970839 C10.6889487,58.1676387 9.60176459,58.1676387 8.9312098,57.4970839 L6.50291609,55.0687902 C5.8323613,54.3982354 5.8323613,53.3110513 6.50291609,52.6404965 L27.1434126,32 L6.50291609,11.3595035 C5.8323613,10.6889487 5.8323613,9.60176459 6.50291609,8.9312098 L8.9312098,6.50291609 C9.60176459,5.8323613 10.6889487,5.8323613 11.3595035,6.50291609 L32,27.1434126 Z" id="Combined-Shape"></path>
                    </g>
                </g>
            </g>
        </g>
    </g>
</svg>