<?xml version="1.0" encoding="UTF-8"?>
<svg width="32px" height="32px" viewBox="0 0 32 32" version="1.1" xmlns="http://www.w3.org/2000/svg" xmlns:xlink="http://www.w3.org/1999/xlink">
    <!-- Generator: Sketch 61.2 (89653) - https://sketch.com -->
    <title>ic_close_line32</title>
    <desc>Created with Sketch.</desc>
    <g id="🔪切图" stroke="none" stroke-width="1" fill="none" fill-rule="evenodd">
        <g id="icon" transform="translate(-323.000000, -261.000000)">
            <g id="ic_close_line32" transform="translate(323.000000, 261.000000)">
                <g id="cutting/ic_close32">
                    <g>
                        <rect id="矩形" x="0" y="0" width="32" height="32"></rect>
                        <g id="关-闭" transform="translate(2.000000, 2.000000)" fill="#A8A8B6" fill-rule="nonzero">
                            <path d="M26.6372357,27.7804368 L26.6372357,27.7804368 C26.356636,27.7804368 26.0875788,27.6687185 25.8892348,27.4702357 L0.408805177,1.98980604 L0.408805173,1.98980603 C-0.00430374539,1.57669712 -0.00430374539,0.906913212 0.408805182,0.493804294 C0.8219141,0.0806953756 1.491698,0.0806953756 1.90480692,0.493804303 L27.3874366,25.976434 L27.3874366,25.976434 C27.7981255,26.3939429 27.7925946,27.0653287 27.3750867,27.4760176 C27.178171,27.6697161 26.9134471,27.7789349 26.6372367,27.7804368" id="路径"></path>
                            <path d="M1.156806,27.7804473 L1.15680605,27.7804473 C0.573599121,27.783097 0.0986598183,27.3124714 0.0959881827,26.7292645 C0.0947058775,26.4458052 0.207427257,26.1737261 0.408806554,25.9742339 L25.8914362,0.493804298 L25.8914361,0.49380436 C26.3237573,0.10054359 26.9930255,0.132206439 27.3862863,0.564526536 C27.7539067,0.968660131 27.753453,1.5862146 27.3852372,1.98980507 L1.90480756,27.4702347 L1.90480756,27.4702347 C1.70660004,27.6689228 1.43745482,27.7804473 1.15680669,27.7804473" id="路径"></path>
                        </g>
                    </g>
                </g>
            </g>
        </g>
    </g>
</svg>