<?xml version="1.0" encoding="UTF-8"?>
<svg width="64px" height="64px" viewBox="0 0 64 64" version="1.1" xmlns="http://www.w3.org/2000/svg" xmlns:xlink="http://www.w3.org/1999/xlink">
    <!-- Generator: Sketch 61.2 (89653) - https://sketch.com -->
    <title>ic_close_64</title>
    <desc>Created with Sketch.</desc>
    <g id="ðŸ”ªåˆ‡å›¾" stroke="none" stroke-width="1" fill="none" fill-rule="evenodd">
        <g id="icon" transform="translate(-259.000000, -719.000000)">
            <g id="ic_close_64" transform="translate(259.000000, 719.000000)">
                <g id="cutting/ic_close_64">
                    <g id="cutting/ic_detail_back">
                        <circle id="æ¤­åœ†å½¢" fill-opacity="0.5" fill="#000000" cx="32" cy="32" r="32"></circle>
                        <path d="M20.2426407,17.4142136 L31.5564271,28.7274271 L42.8700577,17.4142136 C43.6099984,16.6742728 44.7854826,16.6353285 45.57127,17.2973808 L45.6984848,17.4142136 C46.4795334,18.1952621 46.4795334,19.4615921 45.6984848,20.2426407 L45.6984848,20.2426407 L34.3854271,31.5564271 L45.6984848,42.8700577 C46.4795334,43.6511063 46.4795334,44.9174362 45.6984848,45.6984848 C44.9174362,46.4795334 43.6511063,46.4795334 42.8700577,45.6984848 L31.5564271,34.3854271 L20.2426407,45.6984848 C19.5026999,46.4384256 18.3272158,46.4773698 17.5414283,45.8153176 L17.4142136,45.6984848 C16.633165,44.9174362 16.633165,43.6511063 17.4142136,42.8700577 L17.4142136,42.8700577 L28.7274271,31.5564271 L17.4142136,20.2426407 C16.633165,19.4615921 16.633165,18.1952621 17.4142136,17.4142136 C18.1952621,16.633165 19.4615921,16.633165 20.2426407,17.4142136 Z" id="å½¢çŠ¶ç»“åˆ" fill="#FFFFFF"></path>
                    </g>
                </g>
            </g>
        </g>
    </g>
</svg>