<?xml version="1.0" encoding="UTF-8"?>
<svg width="48px" height="48px" viewBox="0 0 48 48" version="1.1" xmlns="http://www.w3.org/2000/svg" xmlns:xlink="http://www.w3.org/1999/xlink">
    <!-- Generator: Sketch 61.2 (89653) - https://sketch.com -->
    <title>ic_close_black</title>
    <desc>Created with Sketch.</desc>
    <g id="🔪切图" stroke="none" stroke-width="1" fill="none" fill-rule="evenodd">
        <g id="icon" transform="translate(-410.000000, -525.000000)" fill="#A8A8B6">
            <g id="ic_close_black" transform="translate(410.000000, 525.000000)">
                <g id="cutting/ic_close_black">
                    <g id="Combined-Shape">
                        <path d="M24,21.1981226 L35.9079787,9.2901439 C36.2948373,8.90328537 36.9220589,8.90328537 37.3089174,9.2901439 L38.7098561,10.6910826 C39.0967146,11.0779411 39.0967146,11.7051627 38.7098561,12.0920213 L26.8018774,24 L38.7098561,35.9079787 C39.0967146,36.2948373 39.0967146,36.9220589 38.7098561,37.3089174 L37.3089174,38.7098561 C36.9220589,39.0967146 36.2948373,39.0967146 35.9079787,38.7098561 L24,26.8018774 L12.0920213,38.7098561 C11.7051627,39.0967146 11.0779411,39.0967146 10.6910826,38.7098561 L9.2901439,37.3089174 C8.90328537,36.9220589 8.90328537,36.2948373 9.2901439,35.9079787 L21.1981226,24 L9.2901439,12.0920213 C8.90328537,11.7051627 8.90328537,11.0779411 9.2901439,10.6910826 L10.6910826,9.2901439 C11.0779411,8.90328537 11.7051627,8.90328537 12.0920213,9.2901439 L24,21.1981226 Z"></path>
                    </g>
                </g>
            </g>
        </g>
    </g>
</svg>