<?xml version="1.0" encoding="UTF-8"?>
<svg width="36px" height="36px" viewBox="0 0 36 36" version="1.1" xmlns="http://www.w3.org/2000/svg" xmlns:xlink="http://www.w3.org/1999/xlink">
    <!-- Generator: Sketch 61.2 (89653) - https://sketch.com -->
    <title>ic_checkbox_selected</title>
    <desc>Created with Sketch.</desc>
    <defs>
        <path d="M7.93769914,19.1489169 L14.4180803,25.5018285 C14.7030382,25.7803249 15.161739,25.7857008 15.4533771,25.513962 L28.0735001,13.4926718 C28.2097719,13.3644113 28.2864866,13.1868159 28.2857143,13.001407 C28.2849302,12.8159982 28.2067274,12.6390304 28.0693836,12.5118785 L27.2728432,11.7727446 C26.9714988,11.5074367 26.5162837,11.5039696 26.2107893,11.7646556 L15.4729304,21.2945286 C15.1663128,21.5553007 14.7113194,21.5553007 14.4047018,21.2945286 L9.82716713,17.1741856 C9.53266929,16.9128565 9.08042804,16.927608 8.80421986,17.2075528 L7.91402934,18.131723 C7.63876063,18.4209654 7.64927669,18.8733353 7.93769914,19.149928 L7.93769914,19.1489169 Z" id="path-1"></path>
        <filter x="-43.8%" y="-42.4%" width="187.5%" height="227.3%" filterUnits="objectBoundingBox" id="filter-2">
            <feOffset dx="0" dy="3" in="SourceAlpha" result="shadowOffsetOuter1"></feOffset>
            <feGaussianBlur stdDeviation="2.5" in="shadowOffsetOuter1" result="shadowBlurOuter1"></feGaussianBlur>
            <feColorMatrix values="0 0 0 0 0   0 0 0 0 0   0 0 0 0 0  0 0 0 0.297230114 0" type="matrix" in="shadowBlurOuter1"></feColorMatrix>
        </filter>
    </defs>
    <g id="🔪切图" stroke="none" stroke-width="1" fill="none" fill-rule="evenodd">
        <g id="icon" transform="translate(-614.000000, -335.000000)">
            <g id="ic_checkbox_selected" transform="translate(614.000000, 335.000000)">
                <g id="cutting/ic_checkbox_selected">
                    <g stroke-width="1" fill-rule="evenodd">
                        <circle id="椭圆形" fill="#0065FF" cx="18" cy="18" r="18"></circle>
                        <g id="路径">
                            <use fill="black" fill-opacity="1" filter="url(#filter-2)" xlink:href="#path-1"></use>
                            <use fill="#FFFFFF" fill-rule="evenodd" xlink:href="#path-1"></use>
                        </g>
                    </g>
                    <rect x="0" y="0" width="36" height="36"></rect>
                </g>
            </g>
        </g>
    </g>
</svg>