<?xml version="1.0" encoding="UTF-8"?>
<svg width="48px" height="48px" viewBox="0 0 48 48" version="1.1" xmlns="http://www.w3.org/2000/svg" xmlns:xlink="http://www.w3.org/1999/xlink">
    <!-- Generator: Sketch 61.2 (89653) - https://sketch.com -->
    <title>cutting/ic_del</title>
    <desc>Created with Sketch.</desc>
    <g id="🔪切图" stroke="none" stroke-width="1" fill="none" fill-rule="evenodd">
        <g id="icon" transform="translate(-488.000000, -525.000000)">
            <rect fill="#F6F6F6" x="0" y="0" width="2400" height="2282"></rect>
            <g id="ic_delete" transform="translate(488.000000, 525.000000)">
                <g id="cutting/ic_del">
                    <rect id="cutting/ic_delete_grey" x="0" y="0" width="48" height="48"></rect>
                    <g id="cutting/ic_empty_grey" stroke-width="1" fill-rule="evenodd">
                        <path d="M18.2857143,12.5714286 L29.7142857,12.5714286 L29.7142857,11.1428571 C29.7142857,7.98694429 27.1559129,5.42857143 24,5.42857143 C20.8440871,5.42857143 18.2857143,7.98694429 18.2857143,11.1428571 L18.2857143,12.5714286 Z" id="矩形" stroke="#A8A8B6" stroke-width="2.85714286"></path>
                        <rect id="矩形" fill="#A8A8B6" x="4" y="11.1428571" width="40" height="2.85714286" rx="1.42857143"></rect>
                        <path d="M8.3293875,18.3012951 L8.3293875,37.7871148 C8.3293875,40.9430277 10.8877604,43.5014006 14.0436732,43.5014006 L33.9943978,43.5014006 C37.1503106,43.5014006 39.7086835,40.9430277 39.7086835,37.7871148 L39.7086835,18.3012951 L39.7086835,18.3012951" id="路径-2" stroke="#A8A8B6" stroke-width="2.85714286" stroke-linecap="round" stroke-linejoin="round"></path>
                        <rect id="矩形" fill="#A8A8B6" opacity="0.503417969" x="16.8571429" y="18.2857143" width="2.85714286" height="20" rx="1.42857143"></rect>
                        <rect id="矩形备份" fill="#A8A8B6" opacity="0.503417969" x="28.2857143" y="18.2857143" width="2.85714286" height="20" rx="1.42857143"></rect>
                    </g>
                </g>
                <g>
                    <rect id="cutting/ic_delete_grey" x="0" y="0" width="48" height="48"></rect>
                    <g id="cutting/ic_empty_grey">
                        <path d="M18.2857143,12.5714286 L29.7142857,12.5714286 L29.7142857,11.1428571 C29.7142857,7.98694429 27.1559129,5.42857143 24,5.42857143 C20.8440871,5.42857143 18.2857143,7.98694429 18.2857143,11.1428571 L18.2857143,12.5714286 Z" id="矩形" stroke="#A8A8B6" stroke-width="2.85714286"></path>
                        <rect id="矩形" fill="#A8A8B6" x="4" y="11.1428571" width="40" height="2.85714286" rx="1.42857143"></rect>
                        <path d="M8.3293875,18.3012951 L8.3293875,37.7871148 C8.3293875,40.9430277 10.8877604,43.5014006 14.0436732,43.5014006 L33.9943978,43.5014006 C37.1503106,43.5014006 39.7086835,40.9430277 39.7086835,37.7871148 L39.7086835,18.3012951 L39.7086835,18.3012951" id="路径-2" stroke="#A8A8B6" stroke-width="2.85714286" stroke-linecap="round" stroke-linejoin="round"></path>
                        <rect id="矩形" fill="#A8A8B6" opacity="0.503417969" x="16.8571429" y="18.2857143" width="2.85714286" height="20" rx="1.42857143"></rect>
                        <rect id="矩形备份" fill="#A8A8B6" opacity="0.503417969" x="28.2857143" y="18.2857143" width="2.85714286" height="20" rx="1.42857143"></rect>
                    </g>
                </g>
            </g>
        </g>
    </g>
</svg>