<?xml version="1.0" encoding="UTF-8"?>
<svg width="44px" height="44px" viewBox="0 0 44 44" version="1.1" xmlns="http://www.w3.org/2000/svg" xmlns:xlink="http://www.w3.org/1999/xlink">
    <!-- Generator: Sketch 61.2 (89653) - https://sketch.com -->
    <title>ic_duihuanquan</title>
    <desc>Created with Sketch.</desc>
    <g id="🔪切图" stroke="none" stroke-width="1" fill="none" fill-rule="evenodd">
        <g id="icon" transform="translate(-789.000000, -425.000000)">
            <g id="ic_duihuanquan" transform="translate(789.000000, 425.000000)">
                <g id="cutting/ic_duihuanquan">
                    <rect id="44x" x="0" y="0" width="44" height="44"></rect>
                    <g id="cutting/ic_input_duihuanquan" stroke-width="1" fill-rule="evenodd" fill="#535050">
                        <path d="M25.3585098,18.0661058 L22.8257207,15.5230998 C22.3185098,15.0137981 22.3185098,14.1880877 22.8257207,13.6788233 C23.3329688,13.1695589 24.1553496,13.1695589 24.6625605,13.6788233 L29.1855625,18.220137 C30.2251816,18.7800373 30.0070898,20.6742788 28.53125,20.6742788 L15.46875,20.6742788 C13.7369668,20.6742788 13.7369668,18.0661058 15.46875,18.0661058 L25.3585098,18.0661058 L25.3585098,18.0661058 Z M18.6043809,26.8966346 L21.1742793,29.4769002 C21.6814902,29.9862019 21.6814902,30.8119123 21.1742793,31.3211767 C20.6670313,31.8304411 19.8446504,31.8304411 19.3374395,31.3211767 L14.7224805,26.6874591 C13.7893281,26.0684279 14.0381465,24.2884615 15.46875,24.2884615 L28.53125,24.2884615 C30.2630332,24.2884615 30.2630332,26.8966346 28.53125,26.8966346 L18.6043809,26.8966346 Z M41,34.6466346 C41,36.4986611 39.5047148,38 37.6601562,38 L6.33984375,38 C4.49528516,38 3,36.4986611 3,34.6466346 L3,27.0835288 L4.06244141,26.6669291 C5.757375,26.0023293 6.89648438,24.3580998 6.89648438,22.5 C6.89648438,20.6419002 5.757375,18.9976707 4.06244141,18.3330709 L3,17.9165084 L3,10.3533654 C3,8.50133894 4.49528516,7 6.33984375,7 L37.6601562,7 C39.5047148,7 41,8.50133894 41,10.3533654 L41,17.9164712 L39.9375586,18.3330709 C38.242625,18.9976707 37.1035156,20.6419002 37.1035156,22.5 C37.1035156,24.3580998 38.242625,26.0023293 39.9375586,26.6669291 L41,27.0834916 L41,34.6466346 Z M33.7636719,22.5 C33.7636719,19.6546695 35.2905,17.0958654 37.6601563,15.7220288 L37.6601563,10.3533654 L6.33984375,10.3533654 L6.33984375,15.7220288 C8.7095,17.0959026 10.2363281,19.6546695 10.2363281,22.5 C10.2363281,25.3453305 8.7095,27.9041346 6.33984375,29.2779712 L6.33984375,34.6466346 L37.6601563,34.6466346 L37.6601563,29.2779712 C35.2905,27.9040974 33.7636719,25.3453305 33.7636719,22.5 Z" id="形状" fill-rule="nonzero"></path>
                    </g>
                </g>
            </g>
        </g>
    </g>
</svg>