<?xml version="1.0" encoding="UTF-8"?>
<svg width="64px" height="64px" viewBox="0 0 64 64" version="1.1" xmlns="http://www.w3.org/2000/svg" xmlns:xlink="http://www.w3.org/1999/xlink">
    <!-- Generator: Sketch 55.2 (78181) - https://sketchapp.com -->
    <title>cutting/ic_dingwei2</title>
    <desc>Created with Sketch.</desc>
    <defs>
        <circle id="path-1" cx="24" cy="24" r="24"></circle>
        <filter x="-52.1%" y="-47.9%" width="204.2%" height="204.2%" filterUnits="objectBoundingBox" id="filter-2">
            <feOffset dx="0" dy="2" in="SourceAlpha" result="shadowOffsetOuter1"></feOffset>
            <feGaussianBlur stdDeviation="8" in="shadowOffsetOuter1" result="shadowBlurOuter1"></feGaussianBlur>
            <feColorMatrix values="0 0 0 0 0   0 0 0 0 0   0 0 0 0 0  0 0 0 0.147481425 0" type="matrix" in="shadowBlurOuter1"></feColorMatrix>
        </filter>
        <linearGradient x1="50%" y1="0%" x2="50%" y2="98.9548142%" id="linearGradient-3">
            <stop stop-color="#55C6FF" offset="0%"></stop>
            <stop stop-color="#0065FF" offset="100%"></stop>
        </linearGradient>
    </defs>
    <g id="ðŸ é¦–é¡µ" stroke="none" stroke-width="1" fill="none" fill-rule="evenodd">
        <g id="å·²é€‰æ‹©åŸŽå¸‚" transform="translate(-16.000000, -754.000000)">
            <g id="cutting/ic_dingwei2" transform="translate(16.000000, 754.000000)">
                <g id="ç¼–ç»„" transform="translate(8.000000, 8.000000)">
                    <g id="æ¤­åœ†å½¢">
                        <use fill="black" fill-opacity="1" filter="url(#filter-2)" xlink:href="#path-1"></use>
                        <use fill="#FFFFFF" fill-rule="evenodd" xlink:href="#path-1"></use>
                    </g>
                    <path d="M22.4350197,34.4317112 C17.4745885,33.7666303 13.5551744,29.8217785 12.9249663,24.8531151 C12.9231171,24.8531217 12.9212671,24.853125 12.9194164,24.853125 L12.0312914,24.853125 C11.1869164,24.853125 10.5000206,24.16625 10.5000206,23.321875 C10.4956664,22.473125 11.1825414,21.790625 12.0312914,21.790625 L12.9194164,21.790625 C12.9325999,21.790625 12.945745,21.7907924 12.9588497,21.7911253 C13.6851169,16.9382538 17.5592318,13.1115792 22.4351526,12.4571431 C22.4350647,12.4503974 22.4350206,12.4436412 22.4350206,12.436875 L22.4350206,11.54875 C22.4306664,10.7 23.1175414,10.0175 23.9662914,10.0175 C24.8106664,10.0175 25.4975414,10.704375 25.4975414,11.54875 L25.4975414,12.436875 C25.4975414,12.4476343 25.4974298,12.4583681 25.4972079,12.4690752 C30.3872572,13.1642792 34.2477176,17.0497711 34.908663,21.948125 L35.7394164,21.948125 C36.5837914,21.948125 37.2706664,22.635 37.2706664,23.479375 C37.2706664,24.32375 36.5837914,25.010625 35.7394164,25.010625 L34.8989904,25.010625 C34.2108831,29.8759321 30.3639848,33.7277412 25.4972922,34.4196628 C25.4974581,34.4289223 25.4975414,34.4382016 25.4975414,34.4475 L25.4975414,35.335625 C25.4975414,36.18 24.8106664,36.866875 23.9662914,36.866875 C23.1219164,36.866875 22.4350206,36.18 22.4350206,35.335625 L22.4350206,34.4475 C22.4349934,34.4422309 22.4349932,34.4369679 22.4350197,34.4317112 Z M23.8831664,15.420625 C19.4731664,15.420625 15.8987914,18.995 15.8987914,23.405 C15.8987914,27.815 19.4731664,31.389375 23.8831664,31.389375 C28.2931664,31.389375 31.8675414,27.815 31.8675414,23.405 C31.8675414,18.995 28.2931664,15.420625 23.8831664,15.420625 Z M23.9225414,17.030625 C27.3744164,17.030625 30.1700414,19.830625 30.1700414,23.278125 C30.1700414,26.73 27.3700414,29.525625 23.9225414,29.525625 C20.4706664,29.525625 17.6750414,26.725625 17.6750414,23.278125 C17.6750414,19.830625 20.4706664,17.030625 23.9225414,17.030625 Z" id="å½¢çŠ¶ç»“åˆ" fill="url(#linearGradient-3)" fill-rule="nonzero"></path>
                </g>
                <rect x="16" y="16" width="32" height="32"></rect>
            </g>
        </g>
    </g>
</svg>