<?xml version="1.0" encoding="UTF-8"?>
<svg width="64px" height="64px" viewBox="0 0 64 64" version="1.1" xmlns="http://www.w3.org/2000/svg" xmlns:xlink="http://www.w3.org/1999/xlink">
    <!-- Generator: Sketch 61.2 (89653) - https://sketch.com -->
    <title>cutting/ic_daizhifu</title>
    <desc>Created with Sketch.</desc>
    <defs>
        <linearGradient x1="50%" y1="0%" x2="50%" y2="98.9548142%" id="linearGradient-1">
            <stop stop-color="#55C6FF" offset="0%"></stop>
            <stop stop-color="#0065FF" offset="100%"></stop>
        </linearGradient>
    </defs>
    <g id="🔪切图" stroke="none" stroke-width="1" fill="none" fill-rule="evenodd">
        <g id="icon" transform="translate(-545.000000, -719.000000)">
            <g id="ic_daizhifu" transform="translate(545.000000, 719.000000)">
                <g id="cutting/ic_daizhifu">
                    <g>
                        <rect id="矩形" x="0" y="0" width="64" height="64"></rect>
                        <path d="M54,23.3293574 L10.0000966,23.3293574 L10.0000966,17.7764846 L10.0000966,17.7764362 C10.0000966,16.2430542 11.2313122,15 12.7500906,15 C12.7501067,15 12.7501228,15 12.7501389,15 L51.2499577,15 L51.2499577,15 C52.7687361,15 54,16.2430054 54,17.7763874 C54,17.7764199 54,17.7764525 54,17.776485 L54,23.3293574 L54,23.3293574 Z M53.999855,26.1057444 L53.999855,46.9289916 L53.999855,46.9289916 C53.999855,48.4623736 52.7686394,49.7054278 51.249861,49.7054278 C51.249861,49.7054278 51.249861,49.7054278 51.249861,49.7054278 L12.7500422,49.7054278 L12.7500423,49.7054278 C11.2312639,49.7054278 10,48.4624224 10,46.9290404 C10,46.9290241 10,46.9290078 10,46.9289916 L10,26.1057444 L53.999855,26.1057444 L53.999855,26.1057444 Z M18.2500302,31.6586168 L18.2500301,31.6586168 C17.4906288,31.6586168 16.875009,32.2801561 16.875009,33.0468593 C16.875009,33.8135626 17.4906288,34.4351018 18.2500301,34.4351018 L26.4999636,34.4351018 L26.4999636,34.4351018 C27.2593649,34.4351018 27.8749847,33.8135626 27.8749847,33.0468593 C27.8749847,32.2801561 27.2593649,31.6586168 26.4999636,31.6586168 C26.4999636,31.6586168 26.4999636,31.6586168 26.4999636,31.6586168 L18.25003,31.6586168 L18.2500302,31.6586168 Z M18.2500302,37.2114893 L18.2500301,37.2114893 C17.4906385,37.2114893 16.8750331,37.8330139 16.8750331,38.5997074 C16.8750331,39.3664008 17.4906385,39.9879255 18.2500301,39.9879255 L23.7499697,39.9879255 L23.7499696,39.9879255 C24.5093612,39.9879255 25.1249666,39.3664008 25.1249666,38.5997074 C25.1249666,37.8330139 24.5093612,37.2114893 23.7499696,37.2114893 L18.25003,37.2114893 L18.2500302,37.2114893 Z" id="形状" fill="url(#linearGradient-1)" fill-rule="nonzero"></path>
                    </g>
                </g>
            </g>
        </g>
    </g>
</svg>