<?xml version="1.0" encoding="UTF-8"?>
<svg width="64px" height="64px" viewBox="0 0 64 64" version="1.1" xmlns="http://www.w3.org/2000/svg" xmlns:xlink="http://www.w3.org/1999/xlink">
    <!-- Generator: Sketch 61.2 (89653) - https://sketch.com -->
    <title>cutting/ic_daishouhuo</title>
    <desc>Created with Sketch.</desc>
    <defs>
        <linearGradient x1="50%" y1="0%" x2="50%" y2="98.9548142%" id="linearGradient-1">
            <stop stop-color="#55C6FF" offset="0%"></stop>
            <stop stop-color="#0065FF" offset="100%"></stop>
        </linearGradient>
    </defs>
    <g id="🔪切图" stroke="none" stroke-width="1" fill="none" fill-rule="evenodd">
        <g id="icon" transform="translate(-634.000000, -720.000000)">
            <g id="ic_daishouhuo" transform="translate(634.000000, 720.000000)">
                <g id="cutting/ic_daishouhuo">
                    <g transform="translate(32.000000, 32.000000) rotate(-360.000000) translate(-32.000000, -32.000000) ">
                        <rect id="矩形" x="-5.68434189e-14" y="0" width="64" height="64"></rect>
                        <path d="M48.9093324,52.7548964 C44.280055,52.7609749 40.3114197,49.4233955 39.4884704,44.8318411 L24.5171041,44.8318411 C23.6925824,49.4225084 19.7248874,52.7592785 15.0962415,52.7548964 C10.0356203,52.7594948 5.84767938,48.7891543 5.54289503,43.6977811 L5.50943396,43.6977811 L5.50943396,40.3040751 C5.50943396,38.82855 5.96813916,37.3923717 6.81722983,36.1936674 L11.1435403,30.111702 L9.58756796,30.111702 C8.46241756,30.111702 7.83221783,28.7851357 8.56140532,27.9209006 C9.20380303,27.1554919 10.1488715,26.7152247 11.1435366,26.7179957 L25.7970045,26.7179957 C27.6600402,26.7156604 29.1732811,28.2339464 29.1794313,30.1117017 L28.3359141,31.5267992 L27.6792255,32.6299296 L27.1605667,33.5011915 C26.5638317,34.5017369 27.7182637,35.5149306 28.8824522,35.5149306 L33.5559309,35.5149306 C35.3991178,35.5149306 39.7477618,34.86851 41.3497362,27.6777888 L42.176521,24.6382798 C42.9935453,22.6118923 41.503104,20.3958139 39.3294812,20.3958139 L37.6396621,20.3958139 C36.7098643,20.4425395 35.9185349,19.7207123 35.8721774,18.7835645 C35.8258182,17.8464167 36.5419841,17.0488319 37.4717818,17.0021079 C37.5277075,16.9992974 37.5837375,16.9992974 37.6396632,17.0021079 L45.5310737,17.0021079 C47.7060594,16.9982226 49.4727817,18.771366 49.4781656,20.9635409 C49.4781656,21.1434145 49.4502808,21.60434 49.4502808,21.60434 C49.4182579,21.679755 49.3944174,21.7584385 49.3791747,21.8390183 C49.3010972,22.1931443 49.1700387,22.5219749 49.0027297,22.8353475 C48.9155889,22.9945563 48.8526135,23.1660289 48.8159015,23.3440524 L46.8179563,29.9473029 C46.5757941,31.357866 47.3710119,32.7406676 48.7057589,33.2299958 L49.433552,33.537748 C54.477899,33.8075585 58.490566,37.996635 58.490566,43.1286728 C58.490566,48.4433577 54.2018994,52.7548964 48.9093324,52.7548964 Z M15.0907903,38.0401817 L15.0907905,38.0401817 C12.2956344,38.034007 10.0247183,40.3128093 10.0185457,43.1300533 C10.0185457,43.1324002 10.0185457,43.134747 10.0185457,43.1370938 L10.0185457,43.1370549 C10.0215976,45.9543109 12.2899989,48.2356501 15.0851709,48.2325876 C15.087035,48.2325876 15.0888991,48.2325876 15.0907632,48.2325876 L15.0907633,48.2325876 C17.8859234,48.2380097 20.1562035,45.9585775 20.1616216,43.1413056 C20.1616216,43.1398961 20.1616216,43.1384866 20.1616216,43.1370772 L20.1616216,43.1373452 C20.1594636,40.3200852 17.8917879,38.0379936 15.0966159,38.0401817 C15.0947532,38.0401817 15.0928905,38.0401817 15.0910278,38.0401817 L15.0907903,38.0401817 Z M48.9094904,38.0402072 L48.9094906,38.0402072 C46.1143305,38.0347831 43.8440504,40.3142147 43.8386312,43.1314866 C43.8386312,43.133364 43.8386312,43.1352414 43.8386312,43.1371189 L43.8386312,43.137099 C43.8440056,45.9550398 46.1136197,48.2356942 48.9094434,48.2326015 L48.9094434,48.2326015 C51.7045996,48.2387994 53.9755156,45.9600005 53.9816871,43.1427524 C53.9816871,43.1408736 53.9816871,43.1389947 53.9816871,43.1371158 L53.9816871,43.137381 C53.9795291,40.320121 51.7118534,38.0380293 48.9166814,38.0402072 C48.914353,38.0402072 48.9120246,38.0402072 48.9096962,38.0402072 L48.9094904,38.0402072 Z M48.9094904,44.8332346 L48.9094904,44.8332346 C47.9797164,44.8324658 47.2255291,44.0742042 47.22246,43.1370842 L47.22246,43.137084 C47.22246,42.197221 47.9783931,41.4353122 48.9108847,41.4353122 C49.8433763,41.4353122 50.5993095,42.197221 50.5993095,43.137084 C50.5993095,44.0701789 49.8422387,44.8332346 48.9094904,44.8332346 L48.9094904,44.8332346 Z M15.0907903,44.8332352 L15.0907902,44.8332352 C14.15993,44.8340144 13.4040442,44.075299 13.4009711,43.1370842 L13.4009711,43.1370845 C13.4009711,42.1972215 14.1569043,41.4353126 15.0893959,41.4353126 C16.0218875,41.4353126 16.7778206,42.1972215 16.7778206,43.1370845 C16.7778206,43.1370845 16.7778206,43.1370845 16.7778206,43.1370845 L16.7778206,43.1370878 C16.77628,44.0748487 16.0211962,44.8340145 15.0907863,44.8332352 L15.0907903,44.8332352 Z M8.62707876,24.5384648 L8.62707876,18.2653594 C8.62707876,16.1644945 10.9401219,13.7038754 13.0328638,13.7038754 L23.3683558,13.7038754 C25.7636583,13.7038754 27.3196504,15.862357 27.3196504,18.2653594 L27.3196504,24.5370316 L8.62707876,24.5370316 L8.62707876,24.5384648 Z" id="形状" fill="url(#linearGradient-1)" fill-rule="nonzero"></path>
                    </g>
                </g>
            </g>
        </g>
    </g>
</svg>