<?xml version="1.0" encoding="UTF-8"?>
<svg width="64px" height="64px" viewBox="0 0 64 64" version="1.1" xmlns="http://www.w3.org/2000/svg" xmlns:xlink="http://www.w3.org/1999/xlink">
    <!-- Generator: Sketch 61.2 (89653) - https://sketch.com -->
    <title>ic_duanxin</title>
    <desc>Created with Sketch.</desc>
    <g id="🔪切图" stroke="none" stroke-width="1" fill="none" fill-rule="evenodd">
        <g id="icon" transform="translate(-915.000000, -719.000000)" fill="#00AAFF" fill-rule="nonzero">
            <g id="ic_duanxin" transform="translate(915.000000, 719.000000)">
                <g id="cutting/ic_duanxin">
                    <path d="M29.0220588,30.1992157 C29.0220588,31.4987092 30.0755065,32.5521569 31.375,32.5521569 C32.6744935,32.5521569 33.7279412,31.4987092 33.7279412,30.1992157 C33.7279412,28.8997222 32.6744935,27.8462745 31.375,27.8462745 C30.0755065,27.8462745 29.0220588,28.8997222 29.0220588,30.1992157 L29.0220588,30.1992157 Z" id="路径"></path>
                    <path d="M21.9632353,30.1992157 C21.9630983,31.0399319 22.4115364,31.8168444 23.1395952,32.2372421 C23.867654,32.6576398 24.764699,32.6576398 25.4927578,32.2372421 C26.2208166,31.8168444 26.6692546,31.0399319 26.6691177,30.1992157 C26.6692546,29.3584994 26.2208166,28.581587 25.4927578,28.1611893 C24.764699,27.7407916 23.867654,27.7407916 23.1395952,28.1611893 C22.4115364,28.581587 21.9630983,29.3584994 21.9632353,30.1992157 L21.9632353,30.1992157 Z" id="路径"></path>
                    <path d="M36.0808823,30.1992157 C36.0807454,31.0399319 36.5291834,31.8168444 37.2572422,32.2372421 C37.985301,32.6576398 38.882346,32.6576398 39.6104048,32.2372421 C40.3384636,31.8168444 40.7869017,31.0399319 40.7867647,30.1992157 C40.7869017,29.3584994 40.3384636,28.581587 39.6104048,28.1611893 C38.882346,27.7407916 37.985301,27.7407916 37.2572422,28.1611893 C36.5291834,28.581587 36.0807454,29.3584994 36.0808823,30.1992157 L36.0808823,30.1992157 Z" id="路径"></path>
                    <path d="M32.002451,0 C40.4893787,0 48.6287039,3.37141889 54.629868,9.372583 C60.6310321,15.3737471 64.002451,23.5130723 64.002451,32 C64.002451,49.673112 49.675563,64 32.002451,64 C14.329339,64 0.002451,49.673112 0.002451,32 C0.002451,14.326888 14.329339,0 32.002451,0 Z M32.9037792,15 C21.5830961,15 13.002451,21.8869936 13.002451,30.36887 C13.002451,35.8059701 15.8145952,40.0831557 20.2130772,43.2729211 L20.2130772,43.2729211 L20.2130772,49 L26.4142157,45.3027719 C27.9284472,45.5927506 31.3174415,45.7377399 32.9037792,45.7377399 C43.9360374,45.7377399 51.002451,38.8507464 51.002451,30.36887 C51.002451,21.8869936 41.9170619,15 32.9037792,15 Z" id="形状"></path>
                </g>
            </g>
        </g>
    </g>
</svg>