<?xml version="1.0" encoding="UTF-8"?>
<svg width="44px" height="44px" viewBox="0 0 44 44" version="1.1" xmlns="http://www.w3.org/2000/svg" xmlns:xlink="http://www.w3.org/1999/xlink">
    <!-- Generator: Sketch 61.2 (89653) - https://sketch.com -->
    <title>ic_eye_hide</title>
    <desc>Created with Sketch.</desc>
    <g id="ðŸ”ªåˆ‡å›¾" stroke="none" stroke-width="1" fill="none" fill-rule="evenodd">
        <g id="icon" transform="translate(-657.000000, -424.000000)">
            <g id="ic_eye_hide" transform="translate(657.000000, 424.000000)">
                <g id="cutting/ic_eye_hide">
                    <path d="M32.8998766,12.9889621 C37.7980882,14.9785642 41,18.2728002 41,22 C41,28.0751322 32.4934102,33 22,33 C21.7821844,33 21.5652248,32.997878 21.3491796,32.9936678 L23.088471,29.9817792 C31.4173919,29.7020098 38,26.2353675 38,22 C38,19.3445229 35.4123776,16.9912317 31.4291078,15.5361137 Z M22,11 C22.5496402,11 23.0938293,11.013512 23.6316303,11.0399934 L21.922,14 L21.6112549,14.0023151 C12.9543037,14.1055257 6,17.6466967 6,22 C6,24.8367305 8.95292175,27.328615 13.4056713,28.7491066 L11.9190391,31.3257287 C6.56184298,29.3805894 3,25.9311116 3,22 C3,15.9248678 11.5065898,11 22,11 Z" id="Combined-Shape" fill="#A8A8B6" fill-rule="evenodd"></path>
                    <path d="M32,5.54551733 C32.7174389,5.95973089 32.9632517,6.8771165 32.5490381,7.59455543 L25.9802399,18.9733899 C26.6200966,19.813562 27,20.8624154 27,22 C27,24.7614237 24.7614237,27 22,27 C21.7861062,27 21.5753493,26.9865692 21.3685268,26.9605049 L15.0490381,37.9054446 C14.6348245,38.6228835 13.7174389,38.8686962 13,38.4544827 C12.2825611,38.0402691 12.0367483,37.1228835 12.4509619,36.4054446 L18.6338442,25.6972063 C17.6299993,24.7827177 17,23.464931 17,22 C17,19.2385763 19.2385763,17 22,17 C22.5298167,17 23.0403865,17.0824057 23.5195915,17.2350991 L29.9509619,6.09455543 C30.3651755,5.3771165 31.2825611,5.13130377 32,5.54551733 Z" id="å½¢çŠ¶ç»“åˆ" fill="#A8A8B6" fill-rule="evenodd" opacity="0.500511533"></path>
                    <rect x="0" y="0" width="44" height="44"></rect>
                </g>
            </g>
        </g>
    </g>
</svg>