<?xml version="1.0" encoding="UTF-8"?>
<svg width="44px" height="44px" viewBox="0 0 44 44" version="1.1" xmlns="http://www.w3.org/2000/svg" xmlns:xlink="http://www.w3.org/1999/xlink">
    <!-- Generator: Sketch 61.2 (89653) - https://sketch.com -->
    <title>ic_guizeshuoming</title>
    <desc>Created with Sketch.</desc>
    <g id="ðŸ”ªåˆ‡å›¾" stroke="none" stroke-width="1" fill="none" fill-rule="evenodd">
        <g id="icon" transform="translate(-854.000000, -424.000000)" fill="#535050">
            <g id="ic_guizeshuoming" transform="translate(854.000000, 424.000000)">
                <g id="cutting/ic_guizeshuoming">
                    <g id="ic_guizeshuoming">
                        <path d="M22,4 C31.9411255,4 40,12.0588745 40,22 C40,31.9411255 31.9411255,40 22,40 C12.0588745,40 4,31.9411255 4,22 C4,12.0588745 12.0588745,4 22,4 Z M22,7 C13.7157288,7 7,13.7157288 7,22 C7,30.2842712 13.7157288,37 22,37 C30.2842712,37 37,30.2842712 37,22 C37,13.7157288 30.2842712,7 22,7 Z M22,17 C22.8284271,17 23.5,17.6715729 23.5,18.5 L23.5,32.5 C23.5,33.3284271 22.8284271,34 22,34 C21.1715729,34 20.5,33.3284271 20.5,32.5 L20.5,18.5 C20.5,17.6715729 21.1715729,17 22,17 Z M22,15 C22.8284271,15 23.5,14.3284271 23.5,13.5 C23.5,12.6715729 22.8284271,12 22,12 C21.1715729,12 20.5,12.6715729 20.5,13.5 C20.5,14.3284271 21.1715729,15 22,15 Z" id="å½¢çŠ¶ç»“åˆ"></path>
                    </g>
                </g>
            </g>
        </g>
    </g>
</svg>