<?xml version="1.0" encoding="UTF-8"?>
<svg width="116px" height="116px" viewBox="0 0 116 116" version="1.1" xmlns="http://www.w3.org/2000/svg" xmlns:xlink="http://www.w3.org/1999/xlink">
    <!-- Generator: Sketch 61.2 (89653) - https://sketch.com -->
    <title>ic_huiyuanmma</title>
    <desc>Created with Sketch.</desc>
    <defs>
        <linearGradient x1="49.9656883%" y1="100%" x2="49.9656883%" y2="0.308409646%" id="linearGradient-1">
            <stop stop-color="#EED19C" offset="0%"></stop>
            <stop stop-color="#FFF2D8" offset="99.9313767%"></stop>
        </linearGradient>
    </defs>
    <g id="ðŸ”ªåˆ‡å›¾" stroke="none" stroke-width="1" fill="none" fill-rule="evenodd">
        <g id="icon" transform="translate(-255.000000, -1767.000000)">
            <g id="ic_huiyuanmma" transform="translate(255.000000, 1767.000000)">
                <g id="ç¼–ç»„-2">
                    <g>
                        <circle id="æ¤­åœ†å½¢" fill="url(#linearGradient-1)" cx="58" cy="58" r="58"></circle>
                        <rect id="çŸ©å½¢" x="26" y="26" width="64" height="64"></rect>
                        <g id="äºŒç»´ç " transform="translate(28.000000, 28.000000)" fill-rule="nonzero">
                            <path d="M47.4713644,0.439576612 C47.2972566,0.462286294 47.1155787,0.447146528 46.9414716,0.447146528 C44.0649062,0.447146528 41.1883474,0.439576612 38.311762,0.454716444 C37.4790699,0.454716444 36.6539558,0.560695136 35.859114,0.840781631 C34.4511101,1.33282551 33.6032819,2.3169146 33.255065,3.74762594 C33.1263768,4.27751874 33.0733871,4.81498424 33.0733871,5.36001713 C33.0733871,10.446993 33.0658172,15.5264241 33.080957,20.6133534 C33.080957,21.6579976 33.1490861,22.7026484 33.5502908,23.7018709 C34.0726142,24.9963241 35.0415598,25.760887 36.3738632,26.1015326 C36.850767,26.2226507 37.3428135,26.2680704 37.8348534,26.2680704 L54.3372678,26.2680704 C54.9655699,26.2680704 55.5938706,26.2150811 56.214604,26.0939625 C58.0616614,25.753317 59.2728427,24.526993 59.6134882,22.687507 C59.6437678,22.5209692 59.5832086,22.2938724 59.8330157,22.2181732 L59.8330157,4.65603184 C59.8027361,4.62575224 59.7951661,4.58790273 59.7951661,4.5424831 C59.6816174,4.17912806 59.666478,3.80063425 59.5453592,3.42970983 C59.0078963,1.84003277 57.9026891,0.901361319 56.3054407,0.49258665 C55.8209669,0.371468525 55.3364904,0.310908797 54.8293077,0.333618944 C54.7308991,0.341188861 54.6022109,0.409318105 54.5340818,0.265489833 L47.7968844,0.265489833 C47.7666048,0.462307118 47.5924971,0.424457538 47.471379,0.439597636 L47.4713644,0.439576612 Z M54.9428791,3.52052939 C55.2456751,3.52052939 55.5560412,3.5886585 55.8437004,3.6794971 C56.3660238,3.84603485 56.6536783,4.25480952 56.6536783,4.82254923 C56.6536783,10.4848369 56.6612482,16.1471511 56.6461084,21.8093855 C56.6461084,22.6572137 55.9950968,23.1719678 55.04886,23.1795391 C52.1571584,23.2022488 49.2730282,23.1871091 46.3812934,23.1871091 L37.8272976,23.1871091 C37.486652,23.1871091 37.176286,23.0887004 36.8659186,22.9827217 C36.2224771,22.7480549 36.1392059,22.1878799 36.1316412,21.6277109 C36.1165013,18.7889957 36.1240713,15.9502871 36.1240713,13.1115719 L36.1240713,5.12529651 C36.1240713,4.63325263 36.23762,4.17906033 36.6463947,3.83841477 C36.9946103,3.55075822 37.4260938,3.51290931 37.8272971,3.51290931 C43.5349997,3.50533939 49.2427156,3.51290931 54.9428734,3.52047923 L54.9428791,3.52052939 Z" id="å½¢çŠ¶" fill="#535050"></path>
                            <path d="M47.41082,0.326025875 C44.4207105,0.333595791 41.4306009,0.333595791 38.4480495,0.333595791 C37.7364795,0.333595791 37.0400456,0.409294952 36.3511898,0.568262657 C35.4730827,0.772649992 34.6782408,1.15114513 34.0802216,1.83243691 C33.277815,2.74839423 32.959877,3.86873888 32.959877,5.05721264 C32.9447371,10.3258617 32.9447371,15.6020556 32.959877,20.8707512 C32.959877,21.5596137 33.0128662,22.2560409 33.1718343,22.9297673 C33.3837917,23.8154458 33.7471468,24.6329951 34.4360086,25.2385857 C35.321687,26.0182848 36.3966101,26.3740731 37.5775191,26.3740731 C43.1868137,26.381643 48.8036531,26.381643 54.4129943,26.3740731 C55.1169929,26.3740731 55.8285629,26.3362236 56.509854,26.1469763 C57.9481368,25.7382016 59.0533386,24.9433598 59.5378138,23.4369546 C59.666502,23.03575 59.674072,22.6118339 59.8254704,22.218202 C59.5832334,22.2939011 59.6362231,22.520998 59.6059429,22.6875357 C59.2652974,24.5345931 58.0541161,25.7533457 56.2070587,26.0939913 C55.5863267,26.20754 54.9580272,26.2680991 54.3297225,26.2680991 L37.8273081,26.2680991 C37.3352642,26.2680991 36.8432217,26.2226797 36.3663179,26.1015613 C35.0415859,25.7609158 34.0650709,24.9963528 33.5427455,23.7018997 C33.1415408,22.7102419 33.0734117,21.6580263 33.0734117,20.6133822 C33.0582719,15.5264063 33.0658418,10.4469752 33.0658418,5.36004587 C33.0658418,4.81501298 33.1188311,4.27755147 33.2475197,3.74765468 C33.5957353,2.31694334 34.4435648,1.33285691 35.8515687,0.840810373 C36.6464105,0.560723878 37.4715246,0.462315235 38.3042167,0.454745186 C41.1807821,0.439605354 44.0573409,0.44717527 46.9339263,0.44717527 C47.1080341,0.44717527 47.289712,0.462315102 47.4638191,0.439605354 C47.5925073,0.424465522 47.759045,0.454745186 47.7817552,0.257927502 C47.6909166,0.416895207 47.5395183,0.326056613 47.4108301,0.326056613 L47.41082,0.326025875 Z M0.371460807,22.3014567 C0.522859128,23.2476929 0.787805525,24.1485141 1.45395521,24.8752202 C2.3244909,25.8365991 3.45997831,26.2378024 4.70900981,26.2453738 C10.3940049,26.2680835 16.0789867,26.2680835 21.7715599,26.2453738 C22.4831299,26.2453738 23.2022712,26.1696746 23.8987051,25.9501478 C25.7533339,25.3672654 26.8585358,23.883567 26.8585358,21.9305303 C26.8585358,16.3288004 26.8585358,10.7346685 26.8661057,5.13291193 C26.8661057,4.6484381 26.8055465,4.17910437 26.6844278,3.70977197 C26.2453736,2.01411556 24.8297991,0.749941308 23.0887277,0.507703728 C22.7783617,0.462284298 22.4679956,0.424434518 22.1500629,0.424434518 C21.9986646,0.424434518 21.8094173,0.469853948 21.7564283,0.242756665 L15.019231,0.242756665 C14.9208223,0.40172437 14.769424,0.310885777 14.6483059,0.310885777 C11.5370742,0.318455693 8.42584924,0.295745945 5.3146176,0.326025609 C4.19427294,0.333595525 3.10420716,0.522842894 2.12012073,1.13600357 C1.17388455,1.72645609 0.621280279,2.58185767 0.326056347,3.63407321 C0.265497151,3.83846054 0.310916515,4.06555736 0.182228075,4.25480526 L0.182228075,21.8926605 C0.401755508,21.9607896 0.348765829,22.1576069 0.371475311,22.3014351 L0.371460807,22.3014567 Z M3.36157033,4.81496255 C3.36157033,4.20180055 3.83090407,3.70975401 4.4592075,3.58106716 C4.79228301,3.51293805 5.12535585,3.505368 5.45843669,3.505368 L22.0364983,3.505368 C22.3620038,3.505368 22.6723698,3.5659272 22.9751631,3.65676632 C23.5429055,3.83844418 23.7927125,4.17908973 23.7927125,4.76197487 L23.7927125,21.8321097 C23.7927125,22.4528417 23.5050559,22.8389036 22.9146054,23.0357262 C22.6118094,23.1341348 22.3014434,23.1946939 21.9759406,23.1871245 C19.1599395,23.1795546 16.3515032,23.1795546 13.5355154,23.1795546 C10.6816641,23.1795546 7.83537756,23.1871245 4.9815196,23.1719847 C4.50461582,23.1719847 4.02771204,23.1038555 3.67192372,22.710221 C3.46753639,22.4831242 3.36155769,22.2333172 3.36155769,21.945658 C3.35398778,16.2455201 3.35398778,10.5302395 3.36155769,4.81497878 L3.36157033,4.81496255 Z" id="å½¢çŠ¶" fill="#535050"></path>
                            <path d="M0.250325384,22.089478 C0.2578953,22.7631977 0.447142669,23.3990739 0.734799214,23.9895218 C1.52206969,25.6094777 2.92250216,26.3361904 4.64086606,26.3513332 C10.2804396,26.3967526 15.9200264,26.366473 21.5520551,26.366473 C22.2560537,26.366473 22.9600589,26.3059138 23.6489148,26.1393762 C25.7003595,25.6321929 26.949391,24.1409245 26.9645338,22.0213506 C27.0023833,16.4347635 26.9796736,10.8481763 26.9796736,5.26158919 C26.9796736,4.89066411 26.9796736,4.51974035 26.9115445,4.14881592 C26.6844477,2.92249192 26.1015665,1.92326273 25.0796299,1.19655664 C24.2469378,0.60610412 23.3007016,0.363864544 22.2863363,0.333585678 C22.1122285,0.326015762 21.9154112,0.424424272 21.7640129,0.265456567 C21.8170022,0.492553383 22.0138198,0.447134419 22.1576474,0.447134419 C22.4755835,0.447134419 22.7859495,0.492553849 23.0963122,0.530403629 C24.8373903,0.772640544 26.2529589,2.03681546 26.6920124,3.73247187 C26.8131305,4.2018056 26.8736903,4.67113667 26.8736903,5.15561183 C26.8661203,10.7573417 26.8736903,16.3514737 26.8661203,21.9532302 C26.8661203,23.8986955 25.7609118,25.3823932 23.9062897,25.9728478 C23.2098558,26.1923752 22.4907211,26.2680737 21.7791445,26.2680737 C16.0941493,26.2832135 10.4091675,26.2907834 4.71659436,26.2680737 C3.46756287,26.2605038 2.33964684,25.859299 1.46153976,24.8979201 C0.795391409,24.1636426 0.53043969,23.2703928 0.37904536,22.3241566 C0.356335679,22.1803283 0.409324958,21.975941 0.182228075,21.930522 C0.280636717,21.9380919 0.250357186,22.0289307 0.250357186,22.0894897 L0.250325384,22.089478 Z M5.76121204,58.0616489 C5.92017974,58.0389392 6.0867175,58.054079 6.25325592,58.054079 L21.8472378,58.054079 C22.4831093,58.054079 23.1038406,57.9783798 23.7170027,57.8194121 C25.6473253,57.3197989 26.8509418,55.7831102 26.8585132,53.7922232 C26.8660831,51.8770367 26.8585132,49.9542854 26.8585132,48.0390989 L26.8585132,36.8356524 C26.8585132,34.3905758 25.2385572,32.5813686 22.8010453,32.3164236 C21.9380744,32.225585 21.0675387,32.1877354 20.1969963,32.1650253 C17.5853826,32.112036 14.9737622,32.2028748 12.3697332,32.2634339 C9.87166356,32.3239931 7.37360057,32.2785737 4.88311561,32.3164232 C4.01257992,32.331563 3.17231645,32.5208105 2.40776011,32.9295852 C1.37825206,33.4746181 0.749953949,34.3300177 0.462294743,35.4579337 C0.409305464,35.6698911 0.454724827,35.9499776 0.182208248,36.0635256 L0.182208248,53.7770946 C0.333606569,54.1934394 0.348746002,54.6400656 0.477434176,55.0715478 C0.924058426,56.6385173 1.94599576,57.5923249 3.49025784,58.0162423 C3.98230172,58.1525005 4.48948703,58.1903501 4.99666968,58.17521 C5.10264837,58.17521 5.24647664,58.0919408 5.32974519,58.2433391 L5.48114351,58.2433391 C5.49628334,58.0692313 5.64011121,58.0768014 5.76123,58.0616613 L5.76121204,58.0616489 Z M4.89824107,54.9882675 C3.97471238,54.9882675 3.33127151,54.4886542 3.33877677,53.4364407 C3.36912249,47.8877038 3.35398272,42.3389802 3.34641281,36.7826653 C3.34641281,35.8894154 3.8763056,35.4125117 4.73170252,35.3822328 C10.3788474,35.2005549 16.0184475,35.3443833 21.6655791,35.3216736 C22.1500529,35.3216736 22.6799444,35.291394 23.1492768,35.5487704 C23.5580514,35.7758672 23.7927183,36.0938033 23.7927183,36.5858499 C23.7851484,39.424565 23.7927183,42.2632736 23.7927183,45.1019888 C23.7927183,47.9179899 23.7775785,50.7264262 23.8003593,53.5424139 C23.8078581,54.4583713 23.2098357,54.8747173 22.3847196,55.0034041 C21.7337081,55.1018128 21.0978379,55.0034041 20.454397,54.9958342 C15.2690132,54.9806944 10.0836027,54.9882643 4.89827208,54.9882643 L4.89824107,54.9882675 Z" id="å½¢çŠ¶" fill="#535050"></path>
                            <path d="M5.88991884,58.1752196 C11.0223097,58.1676497 16.1622453,58.1676497 21.2946827,58.1752196 C22.0062527,58.1752196 22.7102513,58.1600798 23.4142566,58.0162519 C24.3604928,57.8270047 25.2158923,57.4257994 25.874476,56.7217988 C26.6087534,55.9345283 26.9721131,54.9504419 26.9721131,53.8755189 C26.987253,48.2510815 26.979683,42.6190461 26.979683,36.9946686 C26.979683,36.5177648 26.9494034,36.0560038 26.8282847,35.5942361 C26.4270801,34.0878243 25.5186888,33.0431801 24.0501339,32.4678683 C23.04334,32.0742338 21.9835531,32.0893732 20.9464736,32.0666637 C19.1978242,32.0288142 17.4491815,31.9985346 15.7005321,32.1045132 C14.2622493,32.1953518 12.8088305,32.1272229 11.3629764,32.1802124 C9.27368144,32.2483415 7.17682174,32.2029221 5.07995539,32.1953522 C4.59548156,32.1953522 4.11857645,32.2407717 3.64167266,32.3467505 C2.24881157,32.6646866 1.18145327,33.3913947 0.568291266,34.7161267 C0.37147398,35.1476108 0.356333882,35.6245126 0.174656695,36.0560014 C0.45474319,35.9424527 0.401753512,35.6623669 0.45474319,35.4504095 C0.742399735,34.3224934 1.37827189,33.4670939 2.40020856,32.922061 C3.17233627,32.5132863 4.00502837,32.3240391 4.87556406,32.308899 C7.3736337,32.2710495 9.86413196,32.3164689 12.3621816,32.2559097 C14.9737954,32.1953505 17.5778444,32.1045114 20.1894448,32.157501 C21.0599805,32.1726409 21.9305228,32.2104903 22.7934938,32.3088994 C25.230999,32.5738458 26.8433902,34.3830516 26.8509616,36.8281282 L26.8509616,48.0315747 C26.8509616,49.9467612 26.8585315,51.8695125 26.8509616,53.784699 C26.8358218,55.7831507 25.6397804,57.31227 23.7094511,57.8118879 C23.0962891,57.9708556 22.4755557,58.0465548 21.8396862,58.0465548 L6.24570436,58.0465548 C6.07916661,58.0465548 5.9201989,58.0389849 5.75366049,58.0541247 C5.63254236,58.0692645 5.48871409,58.0541247 5.47357399,58.2358025 C5.58712273,58.0919743 5.75366049,58.1752434 5.88991871,58.1752434 L5.88991884,58.1752196 Z" id="è·¯å¾„" fill="#FFFFFF"></path>
                            <path d="M2.11252553,1.15114659 C3.09661196,0.545554639 4.18667775,0.348740014 5.3070224,0.341168635 C8.41825404,0.310889037 11.529479,0.333598719 14.6407107,0.326028803 C14.7618288,0.326028803 14.9132271,0.416867396 15.0116358,0.257899691 C14.8829476,0.333598852 14.7391193,0.295749205 14.6028611,0.295749205 C11.2115483,0.318458886 7.82022216,0.235190009 4.42893595,0.341168635 C2.99822461,0.386588065 1.78704336,0.954330638 0.908929638,2.12766829 C0.432025857,2.76353978 0.220067143,3.49025052 0.174652171,4.26994962 C0.310910394,4.08827177 0.265490764,3.86117495 0.318480443,3.64921756 C0.62127642,2.59700203 1.16630865,1.74160244 2.11254483,1.15114792 L2.11252553,1.15114659 Z M54.8292885,0.326025875 C55.3289018,0.303316193 55.8209463,0.363875389 56.3054215,0.48499358 C57.8950985,0.893768249 59.0078784,1.83243305 59.5453399,3.42211676 C59.6664581,3.7854718 59.6815982,4.17153698 59.7951469,4.53489003 L59.7951469,4.50461043 C59.8254265,2.37746521 57.9480895,0.477421469 55.8058082,0.318455759 C55.3818934,0.288176162 54.95798,0.356305273 54.5340626,0.250326648 C54.5946218,0.409294353 54.7308798,0.333595858 54.8292885,0.326025809 L54.8292885,0.326025875 Z M4.98905106,58.1752263 C4.48186775,58.1903661 3.97468577,58.1525166 3.48263923,58.0162585 C1.93837715,57.5923438 0.916440473,56.6385336 0.469815559,55.071564 C0.348697434,54.6400798 0.333557335,54.1934569 0.17458963,53.7771109 C0.25785884,54.1783155 0.235148826,54.5946602 0.333557335,54.9958635 C0.749902054,56.7217988 2.26387994,58.0692449 4.01252936,58.1752243 C4.45158356,58.2055039 4.89063643,58.1298048 5.32212524,58.2357835 C5.23885603,58.0919552 5.09502842,58.1676543 4.98904973,58.1752243 L4.98905106,58.1752263 Z" id="å½¢çŠ¶" fill="#FFFFFF"></path>
                            <path d="M37.2974393,41.748519 C36.3663392,41.7636589 35.7531772,42.3768211 35.7531772,43.2625022 L35.7531772,56.2675779 C35.7531772,57.1986779 36.3966187,57.7891258 37.3277181,57.7739897 C38.3042332,57.7588499 38.9173952,57.2516663 38.9249666,56.2827206 C38.9401064,51.9376002 38.9325365,47.5848819 38.9249666,43.2397881 C38.9249666,42.3314022 38.2890951,41.7333763 37.2974393,41.748519 L37.2974393,41.748519 Z M56.4493043,41.7636589 C55.6998841,41.6274006 54.6855188,42.134584 54.6855188,43.1413839 C54.6703789,45.3517943 54.6855188,47.5546333 54.6855188,49.7650504 L54.6855188,56.3508668 C54.6855188,56.4719849 54.6779489,56.6082431 54.7157984,56.7217919 C54.9656053,57.4333618 55.8058641,57.9481159 56.4947266,57.7815788 C57.3576976,57.5771914 57.8497375,57.2365459 57.8573089,56.1616229 C57.8724487,51.9603254 57.8648788,47.7590546 57.8648788,43.5577372 C57.8573089,42.4676714 57.5166632,41.9604888 56.4493102,41.7636728 L56.4493043,41.7636589 Z M49.4320058,46.2980305 C49.2351885,45.5864605 48.4479194,45.0262848 47.7590569,45.1549783 C46.8203921,45.3366562 46.2904953,45.6545916 46.2829239,46.7370907 C46.2602142,49.8483223 46.275354,52.9671187 46.275354,56.0783636 C46.275354,57.1230078 46.7068381,57.5923468 47.600086,57.7588839 C48.4403428,57.9178516 49.4471434,57.4182384 49.4547147,56.3130298 L49.4547147,51.5061418 L49.4547147,46.6235532 C49.4547147,46.5251446 49.4547147,46.4040258 49.4320051,46.2980478 L49.4320058,46.2980305 Z M47.3351461,32.4829902 C46.6765645,32.6268185 46.2753592,33.2551179 46.2753592,33.9818307 L46.2753592,40.673653 C46.2753592,41.6653108 46.5781552,42.26333 47.6455128,42.4677173 C48.4252119,42.6115456 49.4622913,42.0740828 49.4547199,41.0672849 C49.44715,39.8712397 49.4547199,38.6751946 49.4547199,37.4715847 C49.4547199,36.3133898 49.4395801,35.1551949 49.4547199,33.9894287 C49.4774296,32.5511459 48.3495114,32.2634934 47.3351461,32.4830168 L47.3351461,32.4829902 Z M38.326934,32.6798075 C37.9560089,32.4224311 37.562371,32.4299772 37.1611677,32.4299772 C36.3663259,32.4299772 35.7607353,33.0280224 35.7607353,33.8152902 L35.7607353,35.7834631 C35.7607353,36.4647542 35.7531653,37.1460453 35.7607353,37.8273364 C35.7683052,38.1755521 35.8591439,38.4859181 36.1316603,38.7584365 C36.5252949,39.1520711 36.9794885,39.2656198 37.5093853,39.2504804 C38.2588056,39.2277707 38.9325253,38.5767607 38.9325253,37.8349118 C38.9400952,36.4950371 38.9476651,35.1627337 38.9249554,33.8228656 C38.9249554,33.3611019 38.7432775,32.967466 38.3269335,32.6798135 L38.326934,32.6798075 Z M57.7285614,33.323249 C57.5620237,32.8539153 56.9867126,32.4299992 56.3735506,32.4148631 C55.2910562,32.3770136 54.5870509,33.012885 54.6703228,34.1407984 C54.7081723,34.6706912 54.6778927,35.2005853 54.6778927,35.7304754 L54.6778927,37.6229478 C54.6778927,37.7364965 54.6778927,37.8500446 54.7081723,37.9560233 C54.9504092,38.7357224 55.6846873,39.1293609 56.5173794,39.0158102 C57.3500715,38.8946921 57.83454,38.3799387 57.8496828,37.5245411 C57.8723925,36.328496 57.8572527,35.1248795 57.8572527,33.928841 C57.8572527,33.7093135 57.7966935,33.5124963 57.7285645,33.323249 L57.7285614,33.323249 Z M17.8882005,10.7573437 C17.7443723,10.2047408 17.2901786,9.79596479 16.7224343,9.7202643 C16.6240256,9.70512447 16.5180469,9.6899847 16.4196383,9.6899847 C16.3742189,9.6899847 16.3060896,9.70512454 16.2909501,9.62942551 L14.1108185,9.62942551 C14.080539,9.68241479 14.0275493,9.65213519 13.9897004,9.65213519 C12.9829065,9.65213519 11.9761059,9.64456527 10.969312,9.65970511 C10.605957,9.65970511 10.2501707,9.72783422 9.9322326,9.9246515 C9.62186657,10.1138987 9.44775877,10.3939852 9.34935012,10.7346295 C9.33421029,10.8027586 9.34935012,10.8784577 9.3039307,10.9314467 L9.3039307,16.6467207 C9.37962986,16.6618606 9.35691997,16.7299899 9.36448989,16.7754089 C9.41747917,17.0857749 9.50074811,17.3734308 9.7127055,17.608101 C9.99279199,17.918467 10.3637171,18.0471552 10.764921,18.0547253 C12.604407,18.0622952 14.4514644,18.0622952 16.2909505,18.0547253 C16.5256173,18.0547253 16.7527141,18.0320156 16.9798129,17.9563166 C17.5778349,17.7670694 17.9411919,17.2825969 17.9411919,16.6542921 L17.9411919,11.2115346 C17.9487618,11.0601363 17.9260521,10.9087386 17.8882026,10.7573403 L17.8882005,10.7573437 Z M50.7037448,10.1744613 C50.5599165,9.62185832 50.1057229,9.21308232 49.5379785,9.13738183 C49.4395699,9.122242 49.3335912,9.10710223 49.2351825,9.10710223 C49.1897631,9.10710223 49.1216338,9.12224206 49.1064944,9.04654304 L46.9263628,9.04654304 C46.8960832,9.09953232 46.8430936,9.06925272 46.8052447,9.06925272 C45.7984507,9.06925272 44.7916502,9.0616828 43.7848563,9.07682263 C43.4215012,9.07682263 43.0657149,9.14495175 42.7477768,9.34176903 C42.4374108,9.53101627 42.263303,9.81110276 42.1648944,10.151747 C42.1497545,10.2198761 42.1648944,10.2955753 42.1194749,10.3485643 L42.1194749,16.0638383 C42.1951741,16.0789781 42.1724642,16.1471075 42.1800341,16.1925264 C42.2330234,16.5028925 42.3162923,16.7905483 42.5282497,17.0252185 C42.8083362,17.3355846 43.1792613,17.4642727 43.5804653,17.4718428 C45.4199513,17.4794127 47.2670087,17.4794127 49.1064947,17.4718428 C49.3411615,17.4718428 49.5682584,17.4491331 49.7953572,17.3734341 C50.3933791,17.1841869 50.7567361,16.6997144 50.7567361,16.0714096 L50.7567361,10.6286521 C50.771876,10.4772538 50.7415963,10.3182861 50.7037468,10.1744578 L50.7037448,10.1744613 Z M17.8428255,42.4600754 C17.6989972,41.9074725 17.2448036,41.4986965 16.6770592,41.422996 C16.5786506,41.4078562 16.4726719,41.3927164 16.3742632,41.3927164 C16.3288438,41.3927164 16.2607145,41.4078562 16.2455751,41.3321572 L14.0654435,41.3321572 C14.0351639,41.3851465 13.9821743,41.3548669 13.9443254,41.3548669 C12.9375315,41.3548669 11.9307309,41.347297 10.923937,41.3624368 C10.5605819,41.3624368 10.2047956,41.4305659 9.88685754,41.6273832 C9.57649152,41.8166304 9.40238371,42.0967169 9.30397507,42.4373612 C9.28883524,42.5054903 9.30397507,42.5811894 9.25855564,42.6341785 L9.25855564,48.3494524 C9.3342548,48.3645923 9.31154492,48.4327217 9.31911484,48.4781406 C9.37210412,48.7885066 9.45537306,49.0761625 9.66733044,49.3108327 C9.94741694,49.6211987 10.318342,49.7498869 10.719546,49.757457 C12.559032,49.7650269 14.4060894,49.7650269 16.2455754,49.757457 C16.4802423,49.757457 16.7073391,49.7347473 16.9344379,49.6590483 C17.5324598,49.4698011 17.8958168,48.9853286 17.8958168,48.3570238 L17.8958168,42.9142663 C17.9033868,42.762868 17.880677,42.6114703 17.8428276,42.460072 L17.8428255,42.4600754 Z" id="å½¢çŠ¶" fill="#535050"></path>
                        </g>
                    </g>
                </g>
            </g>
        </g>
    </g>
</svg>