<?xml version="1.0" encoding="UTF-8"?>
<svg width="28px" height="28px" viewBox="0 0 28 28" version="1.1" xmlns="http://www.w3.org/2000/svg" xmlns:xlink="http://www.w3.org/1999/xlink">
    <!-- Generator: Sketch 61.2 (89653) - https://sketch.com -->
    <title>ic_help_line</title>
    <desc>Created with Sketch.</desc>
    <g id="🔪切图" stroke="none" stroke-width="1" fill="none" fill-rule="evenodd">
        <g id="icon" transform="translate(-263.000000, -179.000000)">
            <g id="ic_help_line" transform="translate(263.000000, 179.000000)">
                <g id="cutting/ic_help_line">
                    <g id="cutting/ic_help" stroke-width="1" fill-rule="evenodd" fill="#A8A8B6">
                        <path d="M14,28 C6.26875,28 0,21.73125 0,14 C0,6.26875 6.26875,0 14,0 C21.73125,0 28,6.26875 28,14 C28,21.73125 21.73125,28 14,28 Z M14,26.134375 C20.7,26.134375 26.134375,20.703125 26.134375,14 C26.134375,7.296875 20.7,1.865625 14,1.865625 C7.3,1.865625 1.865625,7.3 1.865625,14 C1.865625,20.7 7.3,26.134375 14,26.134375 Z" id="形状" fill-rule="nonzero"></path>
                        <path d="M14.3625,7.15625 C15.6375,7.15625 16.671875,7.49375 17.46875,8.2125 C18.265625,8.909375 18.6625,9.865625 18.6625,11.059375 C18.6625,12.034375 18.403125,12.85 17.90625,13.4875 C17.728125,13.70625 17.16875,14.225 16.234375,15.040625 C15.85625,15.359375 15.578125,15.71875 15.396875,16.075 C15.178125,16.471875 15.078125,16.9125 15.078125,17.390625 L15.078125,17.728125 L12.946875,17.728125 L12.946875,17.390625 C12.946875,16.653125 13.065625,16.015625 13.34375,15.5 C13.603125,14.94375 14.359375,14.125 15.59375,13.03125 L15.93125,12.653125 C16.290625,12.19375 16.4875,11.71875 16.4875,11.2 C16.4875,10.503125 16.2875,9.965625 15.909375,9.56875 C15.5125,9.171875 14.934375,8.971875 14.215625,8.971875 C13.31875,8.971875 12.6625,9.25 12.265625,9.828125 C11.90625,10.30625 11.728125,10.984375 11.728125,11.859375 L9.6375,11.859375 C9.6375,10.40625 10.05625,9.271875 10.890625,8.434375 C11.734375,7.575 12.890625,7.15625 14.3625,7.15625 L14.3625,7.15625 Z M14.00625,18.803125 C14.425,18.803125 14.78125,18.921875 15.0625,19.2 C15.340625,19.459375 15.48125,19.796875 15.48125,20.215625 C15.48125,20.634375 15.321875,20.971875 15.04375,21.25 C14.765625,21.509375 14.40625,21.646875 14.009375,21.646875 C13.6125,21.646875 13.253125,21.50625 12.975,21.228125 C12.696875,20.95 12.55625,20.609375 12.55625,20.2125 C12.55625,19.79375 12.696875,19.45625 12.975,19.196875 C13.246875,18.921875 13.60625,18.803125 14.00625,18.803125 L14.00625,18.803125 Z" id="形状" fill-rule="nonzero"></path>
                    </g>
                    <rect id="cutting/ic_help" x="0" y="0" width="28" height="28"></rect>
                </g>
            </g>
        </g>
    </g>
</svg>