<?xml version="1.0" encoding="UTF-8"?>
<svg width="44px" height="44px" viewBox="0 0 44 44" version="1.1" xmlns="http://www.w3.org/2000/svg" xmlns:xlink="http://www.w3.org/1999/xlink">
    <!-- Generator: Sketch 61.2 (89653) - https://sketch.com -->
    <title>ic_input_clear</title>
    <desc>Created with Sketch.</desc>
    <g id="🔪切图" stroke="none" stroke-width="1" fill="none" fill-rule="evenodd">
        <g id="icon" transform="translate(-592.000000, -425.000000)">
            <g id="ic_input_clear" transform="translate(592.000000, 425.000000)">
                <g id="cutting/ic_input_clear">
                    <g stroke-width="1" fill-rule="evenodd" id="ic_global_clear">
                        <g>
                            <rect id="bounds" x="0" y="0" width="44" height="44"></rect>
                            <path d="M22,6 C30.836556,6 38,13.163444 38,22 C38,30.836556 30.836556,38 22,38 C13.163444,38 6,30.836556 6,22 C6,13.163444 13.163444,6 22,6 Z M17.1574865,15.5458739 C16.7765001,15.151351 16.1453551,15.1422926 15.7480747,15.5259418 C15.3480245,15.9122658 15.3376906,16.5405332 15.7188069,16.9351907 L15.7188069,16.9351907 L20.5860018,21.9753186 L15.5458739,26.8425135 C15.151351,27.2234999 15.1422926,27.8546449 15.5259418,28.2519253 C15.9122658,28.6519755 16.5405332,28.6623094 16.9351907,28.2811931 L16.9351907,28.2811931 L21.9753186,23.4139982 L26.8425135,28.4541261 C27.2234999,28.848649 27.8546449,28.8577074 28.2519253,28.4740582 L28.2519253,28.4740582 L28.3316847,28.3877446 C28.6514546,27.9991736 28.6350868,27.431277 28.2811931,27.0648093 L28.2811931,27.0648093 L23.4139982,22.0246814 L28.4541261,17.1574865 C28.848649,16.7765001 28.8577074,16.1453551 28.4740582,15.7480747 L28.4740582,15.7480747 L28.3877446,15.6683153 C27.9991736,15.3485454 27.431277,15.3649132 27.0648093,15.7188069 L27.0648093,15.7188069 L22.0246814,20.5860018 Z" id="Combined-Shape" fill="#A8A8B6"></path>
                        </g>
                    </g>
                    <rect id="44x" x="0" y="0" width="44" height="44"></rect>
                </g>
            </g>
        </g>
    </g>
</svg>