<?xml version="1.0" encoding="UTF-8"?>
<svg width="64px" height="64px" viewBox="0 0 64 64" version="1.1" xmlns="http://www.w3.org/2000/svg" xmlns:xlink="http://www.w3.org/1999/xlink">
    <!-- Generator: Sketch 61.2 (89653) - https://sketch.com -->
    <title>ic_image</title>
    <desc>Created with Sketch.</desc>
    <g id="ðŸ”ªåˆ‡å›¾" stroke="none" stroke-width="1" fill="none" fill-rule="evenodd">
        <g id="icon" transform="translate(-1009.000000, -719.000000)">
            <g id="ic_image" transform="translate(1009.000000, 719.000000)">
                <g id="cutting/ic_image">
                    <g id="ç¼–ç»„">
                        <path d="M31.9474548,0.0622757482 C14.3415218,0.0622757482 0.0622757482,14.334879 0.0622757482,31.9474548 C0.0622757482,49.5600307 14.334879,63.8326339 31.9474548,63.8326339 C49.5600307,63.8326339 63.8326339,49.5600307 63.8326339,31.9474548 C63.8326339,14.334879 49.5533879,0.0622757482 31.9474548,0.0622757482 Z" id="å½¢çŠ¶" fill="#FFA700" fill-rule="nonzero"></path>
                        <path d="M43.7179487,14 C47.1585375,14 49.993733,16.8418428 49.993733,20.2877184 L49.993733,42.7122816 L50,42.7122816 C49.9461037,46.159413 47.1648045,49 43.7242157,49 L21.3359476,49 C17.8427159,49 15,46.159413 15,42.7122816 L15,20.2877184 C15,16.8418428 17.8364489,14 21.3359476,14 L43.7179487,14 Z M43.7192021,16.7338372 L21.3359476,16.7338372 C20.3945784,16.7318392 19.4911887,17.1056198 18.8255387,17.7725357 C18.1598887,18.4394515 17.7868175,19.3445591 17.7888117,20.2877184 L17.7888117,42.2074558 L23.7963759,35.933551 C24.8905959,34.8359944 26.5237788,34.8359944 27.5114597,35.8255535 L27.6731486,35.9875498 L29.6948861,38.3974023 C30.6763,39.5477019 32.3696462,39.6556995 33.4049563,38.6736752 C33.5653917,38.510423 33.7872439,38.2894047 33.8411403,38.1274084 L40.3387767,28.2782821 C41.1585017,27.0199849 42.8518479,26.6897134 44.0475935,27.4569983 C44.2080289,27.5649959 44.4298811,27.7332712 44.59157,27.8952675 L47.2663301,30.8162248 L47.2663301,20.2877184 C47.2663301,18.316135 45.6870434,16.7338372 43.7192021,16.7338372 Z" id="å½¢çŠ¶ç»“åˆ" fill="#FFFFFF" fill-rule="nonzero"></path>
                        <path d="M24.9965025,29 C22.7905148,28.9948672 21.0038462,27.2071561 21,25.0011658 C21.0051165,22.7953245 22.7906686,21.0076889 24.9965025,21 C27.2040848,21.0051197 28.9929509,22.792423 29,25 C28.9918391,27.1964442 27.1952783,28.9988342 24.9965025,28.9988342 L24.9965025,29 Z" id="è·¯å¾„" fill="#FFFFFF" fill-rule="nonzero"></path>
                    </g>
                </g>
            </g>
        </g>
    </g>
</svg>