<?xml version="1.0" encoding="UTF-8"?>
<svg width="44px" height="44px" viewBox="0 0 44 44" version="1.1" xmlns="http://www.w3.org/2000/svg" xmlns:xlink="http://www.w3.org/1999/xlink">
    <!-- Generator: Sketch 61.2 (89653) - https://sketch.com -->
    <title>cutting/ic_input_shixiaoquan</title>
    <desc>Created with Sketch.</desc>
    <g id="🔪切图" stroke="none" stroke-width="1" fill="none" fill-rule="evenodd">
        <g id="icon" transform="translate(-920.000000, -427.000000)" fill="#535050" fill-rule="nonzero">
            <g id="ic_shixiaoquan" transform="translate(920.000000, 427.000000)">
                <g id="cutting/ic_input_shixiaoquan">
                    <g>
                        <path d="M41,34.6466346 C41,36.4986611 39.5047148,38 37.6601562,38 L6.33984375,38 C4.49528516,38 3,36.4986611 3,34.6466346 L3,27.0835288 L4.06244141,26.6669291 C5.757375,26.0023293 6.89648438,24.3580998 6.89648438,22.5 C6.89648438,20.6419002 5.757375,18.9976707 4.06244141,18.3330709 L3,17.9165084 L3,10.3533654 C3,8.50133894 4.49528516,7 6.33984375,7 L37.6601562,7 C39.5047148,7 41,8.50133894 41,10.3533654 L41,17.9164712 L39.9375586,18.3330709 C38.242625,18.9976707 37.1035156,20.6419002 37.1035156,22.5 C37.1035156,24.3580998 38.242625,26.0023293 39.9375586,26.6669291 L41,27.0834916 L41,34.6466346 Z M33.7636719,22.5 C33.7636719,19.6546695 35.2905,17.0958654 37.6601563,15.7220288 L37.6601563,10.3533654 L6.33984375,10.3533654 L6.33984375,15.7220288 C8.7095,17.0959026 10.2363281,19.6546695 10.2363281,22.5 C10.2363281,25.3453305 8.7095,27.9041346 6.33984375,29.2779712 L6.33984375,34.6466346 L37.6601563,34.6466346 L37.6601563,29.2779712 C35.2905,27.9040974 33.7636719,25.3453305 33.7636719,22.5 Z" id="形状"></path>
                        <path d="M18.4644685,25.5355471 L18.4644685,25.5355471 C20.417087,27.4881656 23.5829224,27.4881656 25.5355408,25.5355471 C27.4881593,23.5829286 27.4881593,20.4170932 25.5355408,18.4644748 C23.5829224,16.5118563 20.417087,16.5118563 18.4644685,18.4644748 C16.5118501,20.4170932 16.5118501,23.5829286 18.4644685,25.5355471 L18.4644685,25.5355471 Z M16.343148,27.6568706 L16.343148,27.6568706 C13.2189569,24.5326794 13.2189569,19.4673454 16.343148,16.3431543 C19.4673392,13.2189632 24.5326732,13.2189632 27.6568643,16.3431543 C30.7810555,19.4673454 30.7810555,24.5326794 27.6568643,27.6568706 C24.5326732,30.7810617 19.4673392,30.7810617 16.343148,27.6568706 L16.343148,27.6568706 Z M25.8750003,16 L28,18.1249997 L18.1249997,28 L16,25.8750003 L25.8750003,16 Z" id="形状"></path>
                    </g>
                </g>
            </g>
        </g>
    </g>
</svg>