<?xml version="1.0" encoding="UTF-8"?>
<svg width="28px" height="28px" viewBox="0 0 28 28" version="1.1" xmlns="http://www.w3.org/2000/svg" xmlns:xlink="http://www.w3.org/1999/xlink">
    <!-- Generator: Sketch 61.2 (89653) - https://sketch.com -->
    <title>ic_jifenshangcheng</title>
    <desc>Created with Sketch.</desc>
    <g id="🔪切图" stroke="none" stroke-width="1" fill="none" fill-rule="evenodd">
        <g id="icon" transform="translate(-312.000000, -179.000000)">
            <g id="ic_jifenshangcheng" transform="translate(312.000000, 179.000000)">
                <g id="cutting/ic_jifenshangcheng">
                    <g id="积分商城">
                        <path d="M25.761394,10.719996 C25.761394,10.719996 25.761394,10.719996 25.761394,10.719996 C25.761394,10.6266284 25.7136795,10.5799941 25.7136795,10.5333597 L23.6619917,5.63335644 C23.3279567,4.60667525 22.2782387,4 21.1331593,4 L6.9144877,4 C5.72166005,4 4.76737094,4.60667525 4.43336975,5.58668911 L2.28625299,10.6266944 C2.28625299,10.6733617 2.28625299,10.720062 2.23853853,10.7666964 C2.09539517,11.2334026 2,11.7467102 2,12.2133505 C2,13.9400086 2.95422162,15.4800304 4.5288324,16.2733089 C4.5288324,16.2733089 4.5288324,16.2733089 4.5288324,16.2733089 C4.5288324,16.2733089 4.5288324,16.2733089 4.5288324,16.2733089 L4.5288324,16.2733089 C4.5288324,16.2733089 4.5288324,16.2733089 4.5288324,16.2733089 C5.14912033,16.6000132 5.91258536,16.7866165 6.77141182,16.7866165 C8.20284549,16.7866165 9.4910683,16.1799413 10.397643,15.1532601 C11.3042176,16.1799413 12.5924742,16.7866165 14.0238741,16.7866165 C15.4076271,16.7866165 16.7435306,16.1799413 17.6023908,15.1532601 C18.5089654,16.1799413 19.797222,16.7866165 21.2286219,16.7866165 C22.0874821,16.7866165 22.8509134,16.5999802 23.5188821,16.2733089 C25.0457446,15.4799974 26,13.8933083 26,12.2133505 C26,11.7000429 25.9045373,11.1866693 25.7614615,10.719996 L25.7614615,10.719996 L25.7614615,10.719996 L25.7614615,10.719996 L25.761394,10.719996 Z M22.7077363,14.7333531 C22.3260207,14.9199894 21.8488761,15.0600574 21.2763026,15.0600574 C20.2265846,15.0600574 19.2723292,14.5467498 18.6997895,13.6600376 C18.6520751,13.56667 18.6043269,13.426734 18.461251,13.286699 C18.3181076,13.146697 18.0795353,12.9599947 17.650139,12.9599947 C17.3161041,12.9599947 16.9821703,13.0999967 16.839027,13.286699 C16.7435643,13.426701 16.6482029,13.5200026 16.6004884,13.6134033 C16.0279487,14.5000825 15.0736259,15.0134231 14.071656,15.0134231 C13.021938,15.0134231 12.0676827,14.5001155 11.4951429,13.6134033 C11.4474285,13.5200356 11.3996803,13.426767 11.3043188,13.286699 C10.8749225,12.8199927 9.96834784,12.8199927 9.6343129,13.2400317 C9.49116954,13.3800337 9.44348882,13.5200356 9.39577437,13.6133703 C8.82323465,14.5000495 7.86891179,15.0133901 6.81926125,15.0133901 C6.24672153,15.0133901 5.76954323,14.9200224 5.38782758,14.7333861 L5.38782758,14.7333861 L5.38782758,14.7333861 C4.38582401,14.2200785 3.76553609,13.2400317 3.76553609,12.1200158 C3.76553609,11.7933116 3.81325055,11.4667063 3.90867946,11.140002 C3.90867946,11.140002 3.90867946,11.0933347 3.90867946,11.0466343 L6.05579622,6.0999637 C6.10351067,5.95996172 6.2466203,5.58665611 6.91465642,5.58665611 L21.133328,5.58665611 C21.4196147,5.58665611 21.8967593,5.63332343 22.0399026,6.14663102 L24.0915905,11.0933016 C24.0915905,11.139969 24.0915905,11.139969 24.139305,11.1866693 C24.2347676,11.5133736 24.330129,11.8399789 24.330129,12.1666832 C24.2824146,13.2400317 23.6621604,14.2200125 22.7078375,14.7333861 L22.7078375,14.7333861 L22.7078375,14.7333861 L22.7078375,14.7333861 L22.7077363,14.7333531 Z M23.328058,17.4399921 C22.8508797,17.4399921 22.4691978,17.8133307 22.4691978,18.280004 L22.4691978,22.853336 C22.4691978,23.1333399 22.2306592,23.3200422 21.9920195,23.3200422 L5.72162631,23.3200422 C5.43533957,23.3200422 5.24444801,23.0867386 5.24444801,22.853336 L5.24444801,18.3267043 C5.24444801,17.859998 4.86273236,17.4866924 4.3855878,17.4866924 L4.3855878,17.4866924 C3.9084095,17.4866924 3.5267276,17.860031 3.5267276,18.3267043 L3.5267276,22.853336 C3.5267276,24.0199861 4.52873117,25 5.72155882,25 L21.991952,25 C23.2324941,25 24.1867832,24.0199861 24.1867832,22.853336 L24.1867832,18.280004 C24.1867832,17.8132977 23.8050676,17.4399921 23.327923,17.4399921 L23.327923,17.4399921 L23.327923,17.4399921 L23.327923,17.4399921 L23.328058,17.4399921 Z M20.7514099,11.5599749 L6.91442021,11.5599749 C6.43724191,11.5599749 6.05556001,11.1866363 6.05556001,10.719963 C6.05556001,10.2532898 6.43727565,9.87995115 6.91442021,9.87995115 L20.7514099,9.87995115 C21.2285882,9.87995115 21.6102701,10.2532898 21.6102701,10.719963 C21.6579845,11.1866693 21.2285544,11.5599749 20.7514099,11.5599749 L20.7514099,11.5599749 L20.7514099,11.5599749 L20.7514099,11.5599749 Z" id="形状" fill="#0065FF" fill-rule="nonzero"></path>
                        <rect id="ic_jifenshangcheng" x="0" y="0" width="28" height="28"></rect>
                    </g>
                </g>
            </g>
        </g>
    </g>
</svg>