<?xml version="1.0" encoding="UTF-8"?>
<svg width="44px" height="44px" viewBox="0 0 44 44" version="1.1" xmlns="http://www.w3.org/2000/svg" xmlns:xlink="http://www.w3.org/1999/xlink">
    <!-- Generator: Sketch 61.2 (89653) - https://sketch.com -->
    <title>ic_jifen_white</title>
    <desc>Created with Sketch.</desc>
    <g id="🔪切图" stroke="none" stroke-width="1" fill="none" fill-rule="evenodd" opacity="0.05">
        <g id="icon" transform="translate(-1709.000000, -425.000000)" fill="#FFFFFF">
            <g id="ic_jifen_white" transform="translate(1709.000000, 425.000000)">
                <g id="cutting/ic_jifen_white">
                    <g id="cutting/ic_balance">
                        <g id="积分" transform="translate(4.000000, 4.000000)" fill-rule="nonzero">
                            <path d="M0.0325878103,5.50338724 C0.0325878103,7.46954774 2.63965655,9.28638404 6.87181176,10.2694643 C11.103923,11.2525445 16.3181045,11.2525445 20.5502597,10.2694643 C24.7823709,9.28638404 27.3894836,7.46954774 27.3894836,5.50338724 C27.3894836,2.46393711 21.2654787,0 13.7110796,0 C6.15668061,0 0.0325878103,2.46393711 0.0325878103,5.50338724 Z M18.7446666,17.48134 C20.7071379,15.9692568 22.8373793,14.7512983 26.5654336,14.6223086 C27.206254,14.0879915 27.4141221,13.5550358 27.461291,12.7268136 L27.461291,7.73323671 C27.2696729,10.69842 21.2329348,13.0942829 13.7828431,13.0942829 C6.33275141,13.0942829 0.0325438914,10.6272275 0.0325438914,7.59089561 L0.0325438914,12.3351889 C0.0325438914,15.3952809 6.16506911,17.8622923 13.7109918,17.8622923 C15.6964327,17.8688363 17.1021443,17.7994005 18.7446666,17.48134 L18.7446666,17.48134 Z M0.0325878103,14.2329677 L0.0325878103,18.977261 C0.0325878103,22.0135929 6.16511303,24.4806482 13.7110357,24.4806482 L14.7078187,24.4806482 C14.8307915,22.813751 15.7337637,21.0573032 16.8998979,19.6259868 C15.730382,19.7519901 14.887403,19.8307805 13.7109918,19.8312197 C6.16511303,19.8311758 0.0325878103,17.3641205 0.0325878103,14.2329677 L0.0325878103,14.2329677 Z M13.6952249,26.6001735 C6.11605564,26.6001735 0,24.2308816 0,21.1034619 L0,25.8420018 C0,28.8746884 6.14003535,31.3387134 13.695181,31.3387134 L15.5826389,31.3387134 C14.7985111,29.9592652 14.5584945,28.4267598 14.5584945,26.6001735 L13.6952249,26.6001735 Z M33.2496239,19.8913886 C29.5648297,16.2065505 23.5899294,16.2065505 19.9045643,19.8920035 C16.2191552,23.5774125 16.2197262,29.5510831 19.9051791,33.2358334 C23.5905443,36.9211985 29.5648297,36.9211985 33.2496678,33.2369753 C36.934506,29.5527521 36.9349891,23.5767976 33.2496239,19.8913886 L33.2496239,19.8913886 Z M28.7208406,28.9246681 C27.7636725,29.8819241 27.0052373,30.8820888 26.5145756,31.7767603 C26.0239138,30.8820888 25.2654786,29.8818802 24.3083105,28.9246681 C23.3510985,27.9675439 22.3509338,27.2090648 21.4562623,26.718447 C22.3509338,26.2277413 23.3511424,25.4693062 24.3083105,24.512182 C25.2654786,23.5550139 26.0239138,22.5547613 26.5145756,21.6600898 C27.0052373,22.5547613 27.7636725,23.5550139 28.7208406,24.512182 C29.6780087,25.4693062 30.6782612,26.2277853 31.5728889,26.718447 C30.6788322,27.2090648 29.6780087,27.9681149 28.7208406,28.9246681 L28.7208406,28.9246681 Z" id="形状"></path>
                        </g>
                    </g>
                </g>
            </g>
        </g>
    </g>
</svg>