<?xml version="1.0" encoding="UTF-8"?>
<svg width="32px" height="32px" viewBox="0 0 32 32" version="1.1" xmlns="http://www.w3.org/2000/svg" xmlns:xlink="http://www.w3.org/1999/xlink">
    <!-- Generator: Sketch 61.2 (89653) - https://sketch.com -->
    <title>ic_jifen_line</title>
    <desc>Created with Sketch.</desc>
    <defs>
        <linearGradient x1="50%" y1="0%" x2="50%" y2="100%" id="linearGradient-1">
            <stop stop-color="#FE6248" offset="0%"></stop>
            <stop stop-color="#FE4954" offset="100%"></stop>
        </linearGradient>
    </defs>
    <g id="🔪切图" stroke="none" stroke-width="1" fill="none" fill-rule="evenodd">
        <g id="icon" transform="translate(-797.000000, -261.000000)">
            <g id="ic_jifen_line" transform="translate(797.000000, 261.000000)">
                <g id="cutting/ic_jifen_line">
                    <g id="cutting/ic_jifen">
                        <rect x="0" y="0" width="32" height="32"></rect>
                        <path d="M16,1 C9.12727273,1 2,3.28813559 2,7.61016949 L2,24.3898305 C2,28.7118644 9.12727273,31 16,31 C22.8727273,31 30,28.7118644 30,24.3898305 L30,7.61016949 C30,3.28813559 22.8727273,1 16,1 Z M27.4545455,24.3898305 C27.4545455,26.1694915 22.8727273,28.4576271 16,28.4576271 C9.12727273,28.4576271 4.54545455,26.1694915 4.54545455,24.3898305 L4.54545455,19.8135593 C7.34545455,21.5932203 11.6727273,22.6101695 16,22.6101695 C20.3272727,22.6101695 24.6545455,21.5932203 27.4545455,19.8135593 L27.4545455,24.3898305 Z M27.4545455,16 C27.4545455,17.779661 22.8727273,20.0677966 16,20.0677966 C9.12727273,20.0677966 4.54545455,17.779661 4.54545455,16 L4.54545455,11.4237288 C7.34545455,13.2033898 11.6727273,14.220339 16,14.220339 C20.3272727,14.220339 24.6545455,13.2033898 27.4545455,11.4237288 L27.4545455,16 L27.4545455,16 Z M16,11.6779661 C9.12727273,11.6779661 4.54545455,9.38983051 4.54545455,7.61016949 C4.54545455,5.83050847 9.12727273,3.54237288 16,3.54237288 C22.8727273,3.54237288 27.4545455,5.83050847 27.4545455,7.61016949 C27.4545455,9.38983051 22.8727273,11.6779661 16,11.6779661 Z" id="形状" fill="url(#linearGradient-1)" fill-rule="nonzero"></path>
                    </g>
                </g>
            </g>
        </g>
    </g>
</svg>