<?xml version="1.0" encoding="UTF-8"?>
<svg width="96px" height="96px" viewBox="0 0 96 96" version="1.1" xmlns="http://www.w3.org/2000/svg" xmlns:xlink="http://www.w3.org/1999/xlink">
    <!-- Generator: Sketch 61.2 (89653) - https://sketch.com -->
    <title>ic_kaikalibao</title>
    <desc>Created with Sketch.</desc>
    <defs>
        <linearGradient x1="99.8523987%" y1="99.8523987%" x2="0.342443453%" y2="0.342443453%" id="linearGradient-1">
            <stop stop-color="#EED19C" offset="0%"></stop>
            <stop stop-color="#FFF2D8" stop-opacity="0" offset="99.9313767%"></stop>
        </linearGradient>
    </defs>
    <g id="ðŸ”ªåˆ‡å›¾" stroke="none" stroke-width="1" fill="none" fill-rule="evenodd">
        <g id="icon" transform="translate(-751.000000, -1265.000000)">
            <g id="ic_kaikalibao" transform="translate(751.000000, 1265.000000)">
                <g id="cutting/ic_kaikalibao">
                    <rect id="çŸ©å½¢" stroke="#EDD9C6" stroke-width="1" fill="#FFFFFF" x="0.5" y="0.5" width="95" height="95" rx="20"></rect>
                    <path d="M59,40 C61.6108006,40 63.7272727,42.1164721 63.7272727,44.7272727 C63.7272727,45.9981625 63.2257613,47.1519179 62.4098461,48.0014313 L67.3636364,48 C69.3719445,48 71,49.6280555 71,51.6363636 C71,53.3956906 69.7505997,54.8632045 68.0906689,55.2000356 L68.0909091,64 C68.0909091,68.418278 64.5091871,72 60.0909091,72 L49.9090909,72 C45.4908129,72 41.9090909,68.418278 41.9090909,64 L41.9093311,55.2000356 C40.2494003,54.8632045 39,53.3956906 39,51.6363636 C39,49.6280555 40.6280555,48 42.6363636,48 L47.5901539,48.0014313 C46.7742387,47.1519179 46.2727273,45.9981625 46.2727273,44.7272727 C46.2727273,42.1164721 48.3891994,40 51,40 C52.6847797,40 54.1637076,40.881356 55.0008732,42.2081573 C55.8362924,40.881356 57.3152203,40 59,40 Z M54.9989815,47.2461579 L54.9756867,47.2858713 C54.8101744,47.5425226 54.6204877,47.7821158 54.4098461,48.0014313 L55.5901539,48.0014313 C55.3686845,47.7708421 55.1703797,47.517837 54.9989815,47.2461579 Z" id="å½¢çŠ¶ç»“åˆ" fill="url(#linearGradient-1)"></path>
                    <g stroke-width="1" transform="translate(26.000000, 26.000000)" id="icon" stroke="#535050">
                        <g stroke-width="2">
                            <path d="M25,20 L25,33.8375595 L30,29.5875595 L35,33.8375595 L35,20 L25,20 Z" id="çŸ©å½¢"></path>
                            <circle id="æ¤­åœ†å½¢" cx="16.5" cy="6.5" r="5.5"></circle>
                            <circle id="æ¤­åœ†å½¢å¤‡ä»½" cx="27.5" cy="6.5" r="5.5"></circle>
                            <rect id="çŸ©å½¢" x="1" y="12" width="42" height="8" rx="4"></rect>
                            <path d="M5,20 L5,36 C5,39.8659932 8.13400675,43 12,43 L32,43 C35.8659932,43 39,39.8659932 39,36 L39,20 L5,20 Z" id="çŸ©å½¢"></path>
                        </g>
                    </g>
                </g>
            </g>
        </g>
    </g>
</svg>