<?xml version="1.0" encoding="UTF-8"?>
<svg width="44px" height="44px" viewBox="0 0 44 44" version="1.1" xmlns="http://www.w3.org/2000/svg" xmlns:xlink="http://www.w3.org/1999/xlink">
    <!-- Generator: Sketch 61.2 (89653) - https://sketch.com -->
    <title>cutting/ic_lanjinghuiyuan</title>
    <desc>Created with Sketch.</desc>
    <g id="🔪切图" stroke="none" stroke-width="1" fill="none" fill-rule="evenodd">
        <g id="icon" transform="translate(-1513.000000, -425.000000)">
            <g id="ic_lanjinghuiyuan" transform="translate(1513.000000, 425.000000)">
                <g id="cutting/ic_lanjinghuiyuan">
                    <g>
                        <rect id="矩形" x="0" y="0" width="44" height="44"></rect>
                        <path d="M41.853249,13.6663164 C41.6332432,13.4062643 41.1212284,12.7881399 40.4532127,11.9759799 C38.4211594,9.52748916 35.0210801,5.43266512 33.453031,3.6943401 C32.7505871,2.71874121 31.651851,2.10480654 30.4529511,2.0180036 C30.3389483,2.0180036 29.9929395,2 25.6248099,2 C20.6546656,2 13.6385062,2.01600322 13.6404985,2.01600322 C12.3886256,2.03560492 11.2240134,2.66126212 10.5164166,3.69434059 C9.60039366,4.80056234 8.17835565,6.4948998 6.73831626,8.20124808 C4.90626654,10.3816836 3.04421844,12.6021134 2.17019483,13.6663247 C0.647938136,15.5908878 0.606931106,18.2978338 2.07019218,20.2676619 L2.16619481,20.3996883 C3.88824005,22.4661031 7.63434574,26.9029931 12.0564404,32.1420367 L18.9346206,40.2896586 C19.6203213,41.331794 20.7736982,41.9710123 22.0206994,42 C23.2697595,41.9786485 24.4264648,41.3375884 25.1067783,40.2896585 L32.2209531,31.8619666 C36.4050609,26.9049857 39.9471667,22.7101484 41.8891896,20.3816759 C43.3776469,18.3853135 43.3694939,15.6458047 41.8691889,13.6583159 L41.853249,13.6663164 Z M34,17.8329285 L33.91149,17.8329285 L33.91149,17.8329284 C33.3967785,17.7652182 32.8896161,18.00218 32.6133473,18.4394612 C32.583844,18.4805491 32.550407,18.5275062 32.5071357,18.5803336 C31.055576,20.5975466 26.1698428,26.7254875 23.4201404,30.2981427 L23.4201404,30.2981427 C22.832105,31.0750765 21.7222508,31.2307109 20.9412169,30.6457629 C20.808965,30.5467141 20.6913337,30.4297003 20.5917622,30.2981427 C17.8381259,26.7274251 12.9563381,20.609256 11.5224775,18.6116325 C11.4536366,18.5255438 11.4201994,18.4785864 11.3906962,18.4374989 L11.3906962,18.4374989 C11.1139377,17.9998729 10.6056284,17.7634997 10.0905865,17.8329228 L10,17.8329228 L10,17.8329212 C9.98918506,16.8341209 10.7937795,16.0153597 11.797843,16.0035395 L13.8611033,16.0035395 L13.8611033,16.0035395 C13.9570286,15.9869786 14.0506996,16.0427196 14.0813941,16.134629 L20.572127,24.6886934 L20.5721269,24.6886933 C21.1550796,25.4694106 22.2638927,25.6322105 23.04873,25.0523188 C23.1878094,24.9495573 23.3109705,24.8270427 23.4142744,24.6886933 L29.9050072,16.1620297 L29.9050072,16.1620297 C29.9359592,16.0564418 30.0391104,15.9885867 30.1489007,16.001592 L32.1983921,16.001592 L32.198392,16.001592 C33.202056,16.0123386 34.0069281,16.8304116 33.996125,17.8288068 C33.9961243,17.8288774 33.9961235,17.8289479 33.9961227,17.8290185 L34,17.8329285 Z" id="形状" fill="#212224" fill-rule="nonzero"></path>
                    </g>
                </g>
            </g>
        </g>
    </g>
</svg>