<?xml version="1.0" encoding="UTF-8"?>
<svg width="48px" height="48px" viewBox="0 0 48 48" version="1.1" xmlns="http://www.w3.org/2000/svg" xmlns:xlink="http://www.w3.org/1999/xlink">
    <!-- Generator: Sketch 61.2 (89653) - https://sketch.com -->
    <title>ic_miaosha</title>
    <desc>Created with Sketch.</desc>
    <defs>
        <linearGradient x1="50%" y1="0%" x2="50%" y2="100%" id="linearGradient-1">
            <stop stop-color="#FFF8F7" offset="0%"></stop>
            <stop stop-color="#FFCEC5" offset="100%"></stop>
        </linearGradient>
    </defs>
    <g id="🔪切图" stroke="none" stroke-width="1" fill="none" fill-rule="evenodd">
        <g id="icon" transform="translate(-2118.000000, -525.000000)" fill="url(#linearGradient-1)" fill-rule="nonzero">
            <g id="ic_miaosha" transform="translate(2118.000000, 525.000000)">
                <g id="cutting/ic_miaosha">
                    <path d="M38.5641304,41.3299395 C43.1878677,37.198823 45.8281368,31.2904462 45.821189,25.0901726 C45.821189,13.0423434 36.0490877,3.27423882 24.0044106,3.27423882 C11.9597805,3.27423882 2.18284737,13.0459543 2.18284737,25.0901726 C2.17582651,31.0543732 4.61543315,36.7604375 8.93211548,40.8761893 L5.9608666,44.417514 C5.18844791,45.3421443 5.31034028,46.7175246 6.23333347,47.4919112 C7.15801133,48.2642892 8.53344534,48.1423804 9.30784776,47.2194079 L12.3775317,43.5579865 C15.8582591,45.7515345 19.8901148,46.9121401 24.0044106,46.9048871 C28.0309176,46.9048871 31.8053107,45.8160928 35.044243,43.9061306 L37.5557216,47.1449864 C37.98787,47.7031705 38.6349437,47.9901174 39.2820173,47.9901174 C40.1141739,47.9906949 40.8741611,47.5177767 41.2412067,46.7709703 C41.6082523,46.0241638 41.5184019,45.1335934 41.0095792,44.4751473 L38.5641304,41.3299395 L38.5641304,41.3299395 Z M19.6345766,38.1811678 L21.8171254,27.2725913 L15.2743564,27.2725913 L28.3646309,12.0003497 L26.1821291,22.907707 L32.7248981,22.907707 L19.6345766,38.1811678 Z M2.18286255,12.2680235 C1.39366922,12.2685775 0.665722035,11.8428302 0.27933015,11.1547229 C-0.107061734,10.4666156 -0.0916323771,9.62347307 0.319676871,8.94996245 C2.62858086,5.17462772 5.97504793,2.14333673 9.95970482,0.217849072 C10.480188,-0.0342798478 11.0795897,-0.0690254145 11.6257212,0.121274961 C12.1718527,0.311575336 12.6198544,0.711290245 12.8709266,1.23226884 C13.122686,1.75259362 13.1572384,2.3516609 12.9669708,2.89747851 C12.7767032,3.44329612 12.3772282,3.89107651 11.856562,4.14216047 C8.62512911,5.70106247 5.91166015,8.1584972 4.04121791,11.2200737 C3.64791778,11.8704625 2.94289609,12.267578 2.18281565,12.2668506 L2.18286255,12.2680235 Z M45.8163919,12.2680711 C45.0556298,12.2712091 44.3487309,11.8758732 43.9532062,11.2260293 C42.0845837,8.16472757 39.3727238,5.7072475 36.1426925,4.14816295 C35.6220262,3.89707899 35.2225512,3.44929861 35.0322836,2.903481 C34.842016,2.35766339 34.8765684,1.75859611 35.1283279,1.23827133 C35.3794045,0.717608338 35.8271947,0.318127855 36.3730348,0.127849332 C36.9188749,-0.0624291905 37.5179742,-0.0278918572 38.0383303,0.223851556 C42.0208757,2.1495834 45.3670784,5.17776136 47.6795776,8.94879009 C48.0915313,9.62236305 48.1073118,10.4659649 47.7208373,11.1544722 C47.3343628,11.8429795 46.6059742,12.2688945 45.8163919,12.2680711 L45.8163919,12.2680711 Z" id="形状"></path>
                </g>
            </g>
        </g>
    </g>
</svg>