<?xml version="1.0" encoding="UTF-8"?>
<svg width="32px" height="32px" viewBox="0 0 32 32" version="1.1" xmlns="http://www.w3.org/2000/svg" xmlns:xlink="http://www.w3.org/1999/xlink">
    <!-- Generator: Sketch 61.2 (89653) - https://sketch.com -->
    <title>ic_member32</title>
    <desc>Created with Sketch.</desc>
    <defs>
        <linearGradient x1="50%" y1="0%" x2="50%" y2="100%" id="linearGradient-1">
            <stop stop-color="#FEE310" offset="0%"></stop>
            <stop stop-color="#FFB51B" offset="100%"></stop>
        </linearGradient>
        <path d="M9.59136346,0.390377075 C10.0518051,0.943660126 9.88571782,1.58914422 9.1537678,2.07599586 C9.39152871,2.50384714 9.63294853,2.93176528 9.87436495,3.3596199 C10.5459976,4.55470997 11.2138312,5.74604608 11.8854981,6.94112611 C12.0402667,7.21776597 12.1382708,7.24354897 12.4137459,7.08132303 C13.451369,6.46161859 14.4889613,5.83825714 15.5266186,5.21863626 C15.5756891,5.18909596 15.6209296,5.15956236 15.6775231,5.12641852 C15.4625022,4.91613317 15.3265753,4.68006485 15.3115635,4.38872337 C15.2813347,3.84279447 15.6661702,3.36329028 16.2057743,3.2747563 C16.76805,3.17886816 17.288638,3.49239578 17.4547594,4.02354953 C17.4661123,4.06410434 17.4849882,4.10833958 17.5,4.14896124 L17.5,4.51782218 C17.3226966,5.07109521 16.9603993,5.39196028 16.3378371,5.39563066 C16.3153023,5.45838165 16.2925965,5.52105909 16.2737207,5.58373655 L14.4512438,11.6955329 L14.4512438,11.6955329 C14.3721155,11.9612184 14.2777737,12.03125 14.0022918,12.03125 L3.51288417,12.03125 L3.51288417,12.03125 C3.2185469,12.03125 3.12798027,11.9648286 3.04874944,11.6955329 C2.55448167,10.0431916 2.06396515,8.38697274 1.56970763,6.73459137 C1.43764483,6.28829454 1.30175214,5.84192415 1.1659381,5.39196028 C0.701871746,5.39196028 0.350934179,5.21120855 0.132066244,4.82024169 C0.0793026781,4.72436359 0.0453226574,4.61738405 0.0038435902,4.51407491 C0,4.38496611 0,4.26329832 0,4.14154361 C0.0188587923,4.08988737 0.0377346768,4.03831136 0.0566002957,3.98666513 C0.200005721,3.56615797 0.577318235,3.28217399 1.03762309,3.25263036 C1.45650016,3.22309674 1.87530543,3.46284883 2.07148469,3.8391241 C2.27149383,4.22274349 2.21489011,4.67637443 1.92431776,5.012018 C1.89042324,5.04890577 1.85645006,5.08579352 1.8187154,5.13009228 C2.62994073,5.61694393 3.4374114,6.09645145 4.24106243,6.579616 C4.54666711,6.76404481 4.85235726,6.94847694 5.15796877,7.1255449 C5.33151748,7.22511011 5.46733495,7.19564335 5.5616699,7.0296668 C6.48609924,5.38461284 7.41051833,3.73581496 8.34253905,2.0723188 C7.93875927,1.87313156 7.67840542,1.56702159 7.65578513,1.11331378 C7.64067075,0.7961258 7.75386449,0.523159671 7.98409558,0.30185313 C8.44062868,-0.133419158 9.19148195,-0.0927874583 9.59136346,0.390377075 Z M7.84068627,7.65720081 L6.5625,7.65720081 L8.08088235,10.9384508 L9.43627451,10.9384508 L10.9375,7.65720081 L9.72794118,7.65720081 L8.79289216,9.5506365 L8.77573529,9.5506365 L7.84068627,7.65720081 Z" id="path-2"></path>
        <filter x="-40.0%" y="-41.6%" width="180.0%" height="216.4%" filterUnits="objectBoundingBox" id="filter-3">
            <feOffset dx="0" dy="2" in="SourceAlpha" result="shadowOffsetOuter1"></feOffset>
            <feGaussianBlur stdDeviation="2" in="shadowOffsetOuter1" result="shadowBlurOuter1"></feGaussianBlur>
            <feColorMatrix values="0 0 0 0 0   0 0 0 0 0   0 0 0 0 0  0 0 0 0.297448645 0" type="matrix" in="shadowBlurOuter1"></feColorMatrix>
        </filter>
    </defs>
    <g id="ðŸ”ªåˆ‡å›¾" stroke="none" stroke-width="1" fill="none" fill-rule="evenodd">
        <g id="icon" transform="translate(-1980.000000, -261.000000)">
            <g id="ic_member32" transform="translate(1980.000000, 261.000000)">
                <g id="cutting/ic_member32">
                    <g id="cutting/ic_member" transform="translate(2.000000, 2.000000)">
                        <circle id="æ¤­åœ†å½¢" fill="url(#linearGradient-1)" cx="14" cy="14" r="14"></circle>
                        <g id="ic_member" transform="translate(14.250000, 13.500000) rotate(-360.000000) translate(-14.250000, -13.500000) translate(5.250000, 7.000000)" fill-rule="nonzero">
                            <g id="å½¢çŠ¶ç»“åˆ">
                                <use fill="black" fill-opacity="1" filter="url(#filter-3)" xlink:href="#path-2"></use>
                                <use fill="#FFFFFF" xlink:href="#path-2"></use>
                            </g>
                        </g>
                    </g>
                </g>
            </g>
        </g>
    </g>
</svg>