<?xml version="1.0" encoding="UTF-8"?>
<svg width="24px" height="24px" viewBox="0 0 24 24" version="1.1" xmlns="http://www.w3.org/2000/svg" xmlns:xlink="http://www.w3.org/1999/xlink">
    <!-- Generator: Sketch 61.2 (89653) - https://sketch.com -->
    <title>ic_member24_gold</title>
    <desc>Created with Sketch.</desc>
    <defs>
        <filter x="-27.1%" y="-27.1%" width="154.2%" height="154.2%" filterUnits="objectBoundingBox" id="filter-1">
            <feOffset dx="0" dy="1" in="SourceAlpha" result="shadowOffsetOuter1"></feOffset>
            <feGaussianBlur stdDeviation="1" in="shadowOffsetOuter1" result="shadowBlurOuter1"></feGaussianBlur>
            <feColorMatrix values="0 0 0 0 0   0 0 0 0 0   0 0 0 0 0  0 0 0 0.0951704545 0" type="matrix" in="shadowBlurOuter1" result="shadowMatrixOuter1"></feColorMatrix>
            <feMerge>
                <feMergeNode in="shadowMatrixOuter1"></feMergeNode>
                <feMergeNode in="SourceGraphic"></feMergeNode>
            </feMerge>
        </filter>
    </defs>
    <g id="ðŸ”ªåˆ‡å›¾" stroke="none" stroke-width="1" fill="none" fill-rule="evenodd">
        <g id="icon" transform="translate(-397.000000, -113.000000)">
            <g id="ic_member24_gold" transform="translate(397.000000, 113.000000)">
                <g id="cutting/ic_member_gold">
                    <g id="cutting/ic_member02" filter="url(#filter-1)">
                        <rect x="0" y="0" width="24" height="24"></rect>
                        <path d="M12.9615582,5.45425696 C13.4877773,6.09807724 13.2979632,6.849186 12.4614489,7.41570428 C12.7331757,7.91356759 13.009084,8.41150869 13.2849885,8.90937589 C14.0525687,10.3000261 14.8158071,11.6863082 15.5834264,13.0769467 C15.7603048,13.398855 15.8723095,13.428857 16.1871382,13.240085 C17.3729931,12.5189744 18.5588129,11.7936083 19.744707,11.0725949 C19.8007875,11.0382207 19.852491,11.0038544 19.9171693,10.965287 C19.671431,10.7205913 19.516086,10.4458936 19.4989297,10.1068781 C19.4643825,9.47161539 19.9041945,8.91364687 20.5208849,8.81062551 C21.1634857,8.69904659 21.7584434,9.06387872 21.9482965,9.68194854 C21.9612712,9.7291396 21.9828437,9.78061333 22,9.82788217 L22,10.2571022 C21.7973676,10.9009108 21.3833135,11.274281 20.6718138,11.278552 C20.6460598,11.3515714 20.6201103,11.4245051 20.5985379,11.4974389 C19.9041945,13.8666228 19.2100505,16.2401556 18.5157071,18.6093474 C18.4252749,18.9185087 18.3174556,19 18.0026192,19 L6.01472477,19 L6.01472477,19 C5.67833932,19 5.5748346,18.9227097 5.48428507,18.6093474 C4.91940763,16.686623 4.35881731,14.7593865 3.79395158,12.8366154 C3.64302266,12.3172882 3.48771673,11.7978754 3.33250068,11.274281 C2.80213914,11.274281 2.40106763,11.0639518 2.15093285,10.6090085 C2.09063163,10.4974413 2.05179732,10.372956 2.00439267,10.2527417 C2,10.102506 2,9.96092896 2,9.81925075 L2.06468605,9.63902852 L2.06468605,9.63902852 C2.22857797,9.1497111 2.65979227,8.81925701 3.18585496,8.78487896 C3.66457161,8.75051257 4.14320621,9.02949682 4.36741107,9.46734441 C4.59599295,9.91373788 4.53130299,10.4415993 4.1992203,10.8321664 C4.1604837,10.8750903 4.12165721,10.9180143 4.07853189,10.9695619 C5.00564655,11.5360802 5.92847017,12.0940526 6.84692849,12.6562804 C7.19619098,12.8708885 7.54555116,13.0855004 7.89482145,13.2915432 C8.09316284,13.4074009 8.24838279,13.3731123 8.35619417,13.1799759 C9.41268484,11.2657313 10.4691638,9.34713014 11.5343303,7.41142551 C11.0728677,7.179644 10.7753205,6.8234433 10.7494687,6.2954924 C10.7321951,5.92640093 10.8615594,5.60876762 11.1246807,5.35124728 C11.6464328,4.84474862 12.5045508,4.89202914 12.9615582,5.45425696 Z M10.9607843,13.9101973 L9.5,13.9101973 L11.2352941,17.7283791 L12.7843137,17.7283791 L14.5,13.9101973 L13.1176471,13.9101973 L12.0490196,16.1134679 L12.0294118,16.1134679 L10.9607843,13.9101973 Z" id="å½¢çŠ¶ç»“åˆ" fill="#EED19C" fill-rule="nonzero"></path>
                    </g>
                </g>
            </g>
        </g>
    </g>
</svg>