<?xml version="1.0" encoding="UTF-8"?>
<svg width="96px" height="96px" viewBox="0 0 96 96" version="1.1" xmlns="http://www.w3.org/2000/svg" xmlns:xlink="http://www.w3.org/1999/xlink">
    <!-- Generator: Sketch 61.2 (89653) - https://sketch.com -->
    <title>ic_mianyouquan</title>
    <desc>Created with Sketch.</desc>
    <defs>
        <linearGradient x1="99.8523987%" y1="90.9432298%" x2="0.342443453%" y2="9.21679194%" id="linearGradient-1">
            <stop stop-color="#EED19C" offset="0%"></stop>
            <stop stop-color="#FFF2D8" stop-opacity="0" offset="99.9313767%"></stop>
        </linearGradient>
    </defs>
    <g id="ðŸ”ªåˆ‡å›¾" stroke="none" stroke-width="1" fill="none" fill-rule="evenodd">
        <g id="icon" transform="translate(-870.000000, -1265.000000)">
            <g id="ic_mianyouquan" transform="translate(870.000000, 1265.000000)">
                <g id="cutting/ic_mianyouquan">
                    <rect id="çŸ©å½¢" stroke="#EDD9C6" stroke-width="1" fill="#FFFFFF" fill-rule="evenodd" x="0.5" y="0.5" width="95" height="95" rx="20"></rect>
                    <path d="M66.1815817,41 C69.3948159,41 71.9996568,43.604841 71.9996568,46.8180751 L72,51.2102023 C71.7633791,51.170609 71.5202998,51.15 71.2723919,51.15 C68.8624479,51.15 66.9088023,53.0975613 66.9088023,55.5 C66.9088023,57.9024387 68.8624479,59.85 71.2723919,59.85 C71.5202998,59.85 71.7633791,59.829391 72,59.7897977 L71.9996568,64.1819249 C71.9996568,67.395159 69.3948159,70 66.1815817,70 L45.8180751,70 C42.604841,70 40,67.395159 40,64.1819249 L40,59.85 L40,59.85 C42.409944,59.85 44.3635896,57.9024387 44.3635896,55.5 C44.3635896,53.0975613 42.409944,51.15 40,51.15 L40,46.8180751 C40,43.604841 42.604841,41 45.8180751,41 L66.1815817,41 Z" id="å½¢çŠ¶ç»“åˆå¤‡ä»½" fill="url(#linearGradient-1)" fill-rule="evenodd"></path>
                    <path d="M27,41.0708889 C30.3922941,41.5561185 33,44.4735281 33,48 C33,51.5264719 30.3922941,54.4438815 27,54.9291111 L27,60 C27,63.8659932 30.1340068,67 34,67 L62,67 C65.8659932,67 69,63.8659932 69,59.9998674 L69.0006632,55 C69.0004421,55 69.0002211,55 69,55 C65.1340068,55 62,51.8659932 62,48 C62,44.1340068 65.1340068,41 69,41 C69.0002211,41 69.0004421,41 69.0006632,41 L69,36 C69,32.1340068 65.8659932,29 62,29 L34,29 C30.1340068,29 27,32.1340068 27,36 L27,41.0708889 Z" id="å½¢çŠ¶ç»“åˆ" stroke="#535050" stroke-width="2"></path>
                    <path d="M42.8786797,40.4644661 L47.8275729,45.4135729 L52.7781746,40.4644661 C53.1386586,40.1039821 53.7058896,40.0762526 54.0981808,40.3812775 L54.1923882,40.4644661 C54.5829124,40.8549904 54.5829124,41.4881554 54.1923882,41.8786797 L54.1923882,41.8786797 L50.0695729,45.9995729 L53,46 C53.5522847,46 54,46.4477153 54,47 C54,47.5522847 53.5522847,48 53,48 L48.9995729,47.9995729 L48.9995729,49.9995729 L53,50 C53.5522847,50 54,50.4477153 54,51 C54,51.5522847 53.5522847,52 53,52 L48.9995729,51.9995729 L49,56 C49,56.5522847 48.5522847,57 48,57 C47.4477153,57 47,56.5522847 47,56 L46.9995729,51.9995729 L43,52 C42.4477153,52 42,51.5522847 42,51 C42,50.4477153 42.4477153,50 43,50 L46.9995729,49.9995729 L46.9995729,47.9995729 L43,48 C42.4477153,48 42,47.5522847 42,47 C42,46.4477153 42.4477153,46 43,46 L45.5855729,45.9995729 L41.4644661,41.8786797 C41.0739418,41.4881554 41.0739418,40.8549904 41.4644661,40.4644661 C41.8549904,40.0739418 42.4881554,40.0739418 42.8786797,40.4644661 Z" id="å½¢çŠ¶ç»“åˆ" fill="#535050" fill-rule="evenodd"></path>
                </g>
            </g>
        </g>
    </g>
</svg>