<?xml version="1.0" encoding="UTF-8"?>
<svg width="48px" height="48px" viewBox="0 0 48 48" version="1.1" xmlns="http://www.w3.org/2000/svg" xmlns:xlink="http://www.w3.org/1999/xlink">
    <!-- Generator: Sketch 61.2 (89653) - https://sketch.com -->
    <title>ic_more</title>
    <desc>Created with Sketch.</desc>
    <g id="🔪切图" stroke="none" stroke-width="1" fill="none" fill-rule="evenodd">
        <g id="icon" transform="translate(-876.000000, -525.000000)">
            <g id="ic_more" transform="translate(876.000000, 525.000000)">
                <g id="cutting/ic_more">
                    <g>
                        <rect id="Rectangle-23" x="0" y="0" width="48" height="48"></rect>
                        <g id="更多-nav" transform="translate(6.000000, 20.000000)" fill="#A8A8B6" fill-rule="nonzero">
                            <path d="M0.321429943,4.28573623 L0.321429943,4.28573676 C0.321429943,6.23845879 1.90442632,7.82145516 3.85714834,7.82145516 C5.80987037,7.82145516 7.39286674,6.23845879 7.39286674,4.28573676 L7.39286674,4.28573676 C7.39286674,2.33301474 5.80987037,0.750018362 3.85714834,0.750018362 C1.90442632,0.750018362 0.321429943,2.33301474 0.321429943,4.28573676 L0.321429943,4.28573623 Z" id="路径"></path>
                            <path d="M14.4643035,4.28573623 L14.4643035,4.28573676 C14.4643035,6.23845879 16.0472999,7.82145516 18.0000219,7.82145516 C19.952744,7.82145516 21.5357403,6.23845879 21.5357403,4.28573676 L21.5357403,4.28573676 C21.5357403,2.33301474 19.952744,0.750018362 18.0000219,0.750018362 C16.0472999,0.750018362 14.4643035,2.33301474 14.4643035,4.28573676 L14.4643035,4.28573623 Z" id="路径"></path>
                            <path d="M28.6071771,4.28573623 L28.6071771,4.28573676 C28.6071771,6.23845879 30.1901735,7.82145516 32.1428955,7.82145516 C34.0956176,7.82145516 35.6786139,6.23845879 35.6786139,4.28573676 L35.6786139,4.28573676 C35.6786139,2.33301474 34.0956176,0.750018362 32.1428955,0.750018362 C30.1901735,0.750018362 28.6071771,2.33301474 28.6071771,4.28573676 L28.6071771,4.28573623 Z" id="路径"></path>
                        </g>
                    </g>
                </g>
            </g>
        </g>
    </g>
</svg>