<?xml version="1.0" encoding="UTF-8"?>
<svg width="24px" height="24px" viewBox="0 0 24 24" version="1.1" xmlns="http://www.w3.org/2000/svg" xmlns:xlink="http://www.w3.org/1999/xlink">
    <!-- Generator: Sketch 61.2 (89653) - https://sketch.com -->
    <title>ic_member24_white</title>
    <desc>Created with Sketch.</desc>
    <defs>
        <filter x="-32.5%" y="-46.4%" width="165.0%" height="192.9%" filterUnits="objectBoundingBox" id="filter-1">
            <feOffset dx="0" dy="1" in="SourceAlpha" result="shadowOffsetOuter1"></feOffset>
            <feGaussianBlur stdDeviation="1" in="shadowOffsetOuter1" result="shadowBlurOuter1"></feGaussianBlur>
            <feColorMatrix values="0 0 0 0 0   0 0 0 0 0   0 0 0 0 0  0 0 0 0.0951704545 0" type="matrix" in="shadowBlurOuter1" result="shadowMatrixOuter1"></feColorMatrix>
            <feMerge>
                <feMergeNode in="shadowMatrixOuter1"></feMergeNode>
                <feMergeNode in="SourceGraphic"></feMergeNode>
            </feMerge>
        </filter>
    </defs>
    <g id="ðŸ”ªåˆ‡å›¾" stroke="none" stroke-width="1" fill="none" fill-rule="evenodd">
        <g id="icon" transform="translate(-351.000000, -113.000000)">
            <g id="ic_member24_white" transform="translate(351.000000, 113.000000)">
                <g id="cutting/ic_member_white">
                    <g id="cutting/ic_member02" filter="url(#filter-1)" stroke-width="1" fill-rule="evenodd" transform="translate(2.000000, 5.000000)" fill="#FFFFFF" opacity="0.79703776">
                        <g id="cutting/ic_member" fill-rule="nonzero">
                            <g id="ic_member" transform="translate(10.000000, 7.000000) rotate(-360.000000) translate(-10.000000, -7.000000) ">
                                <path d="M10.9615582,0.45425696 C11.4877773,1.09807724 11.2979632,1.849186 10.4614489,2.41570428 C10.7331757,2.91356759 11.009084,3.41150869 11.2849885,3.90937589 C12.0525687,5.30002614 12.8158071,6.68630817 13.5834264,8.07694675 C13.7603048,8.39885495 13.8723095,8.42885698 14.1871382,8.24008497 C15.3729931,7.51897436 16.5588129,6.79360831 17.744707,6.07259492 C17.8007875,6.03822075 17.852491,6.00385438 17.9171693,5.965287 C17.671431,5.72059133 17.516086,5.44589364 17.4989297,5.1068781 C17.4643825,4.47161539 17.9041945,3.91364687 18.5208849,3.81062551 C19.1634857,3.69904659 19.7584434,4.06387872 19.9482965,4.68194854 C19.9612712,4.7291396 19.9828437,4.78061333 20,4.82788217 L20,5.25710217 C19.7973676,5.90091079 19.3833135,6.27428105 18.6718138,6.27855204 C18.6460598,6.35157137 18.6201103,6.42450512 18.5985379,6.49743889 C17.9041945,8.86662285 17.2100505,11.2401556 16.5157071,13.6093474 C16.4252749,13.9185087 16.3174556,14 16.0026192,14 L4.01472477,14 L4.01472477,14 C3.67833932,14 3.5748346,13.9227097 3.48428507,13.6093474 C2.91940763,11.686623 2.35881731,9.75938646 1.79395158,7.83661542 C1.64302266,7.31728819 1.48771673,6.79787538 1.33250068,6.27428105 C0.802139138,6.27428105 0.401067633,6.06395177 0.150932851,5.60900852 C0.0906316321,5.49744127 0.0517973227,5.37295598 0.00439267451,5.25274171 C0,5.10250602 0,4.96092896 0,4.81925075 L0.0646860522,4.63902852 L0.0646860522,4.63902852 C0.228577966,4.1497111 0.659792269,3.81925701 1.18585496,3.78487896 C1.66457161,3.75051257 2.14320621,4.02949682 2.36741107,4.46734441 C2.59599295,4.91373788 2.53130299,5.44159933 2.1992203,5.8321664 C2.1604837,5.87509035 2.12165721,5.91801428 2.07853189,5.96956193 C3.00564655,6.53608021 3.92847017,7.0940526 4.84692849,7.65628044 C5.19619098,7.8708885 5.54555116,8.08550044 5.89482145,8.29154315 C6.09316284,8.40740086 6.24838279,8.37311226 6.35619417,8.17997591 C7.41268484,6.26573131 8.4691638,4.34713014 9.53433035,2.41142551 C9.07286773,2.179644 8.77532048,1.8234433 8.74946872,1.2954924 C8.73219514,0.926400931 8.86155942,0.608767617 9.12468066,0.351247279 C9.64643278,-0.155251384 10.5045508,-0.107970861 10.9615582,0.45425696 Z M8.96078431,8.91019731 L7.5,8.91019731 L9.23529412,12.7283791 L10.7843137,12.7283791 L12.5,8.91019731 L11.1176471,8.91019731 L10.0490196,11.1134679 L10.0294118,11.1134679 L8.96078431,8.91019731 Z" id="å½¢çŠ¶ç»“åˆ"></path>
                            </g>
                        </g>
                    </g>
                    <rect id="cutting/ic_member02" x="0" y="0" width="24" height="24"></rect>
                </g>
            </g>
        </g>
    </g>
</svg>