<?xml version="1.0" encoding="UTF-8"?>
<svg width="44px" height="44px" viewBox="0 0 44 44" version="1.1" xmlns="http://www.w3.org/2000/svg" xmlns:xlink="http://www.w3.org/1999/xlink">
    <!-- Generator: Sketch 61.2 (89653) - https://sketch.com -->
    <title>ic_password_selected</title>
    <desc>Created with Sketch.</desc>
    <g id="🔪切图" stroke="none" stroke-width="1" fill="none" fill-rule="evenodd">
        <g id="icon" transform="translate(-985.000000, -424.000000)">
            <g id="ic_password_selected" transform="translate(985.000000, 424.000000)">
                <g id="cutting/ic_password_selected">
                    <g id="cutting/ic_password" stroke-width="1" fill-rule="evenodd" transform="translate(6.000000, 4.000000)">
                        <path d="M28,11 C30.209139,11 32,12.790861 32,15 L32,33 C32,35.209139 30.209139,37 28,37 L4,37 C1.790861,37 2.705415e-16,35.209139 0,33 L0,15 C-2.705415e-16,12.790861 1.790861,11 4,11 L28,11 Z M27,14 L5,14 C3.8954305,14 3,14.8954305 3,16 L3,16 L3,32 C3,33.1045695 3.8954305,34 5,34 L5,34 L27,34 C28.1045695,34 29,33.1045695 29,32 L29,32 L29,16 C29,14.8954305 28.1045695,14 27,14 L27,14 Z" id="Combined-Shape" fill="#0065FF"></path>
                        <rect id="Rectangle-4" fill="#0065FF" opacity="0.497442336" x="15" y="20" width="3" height="8" rx="1.5"></rect>
                        <path d="M6.97660035,6.51359731 C7.10730945,5.14156654 8.13441093,3.68861646 10.0579048,2.15474707 C11.6465763,0.887878149 13.5691158,0.424581109 15.7473643,0.473555625 C17.5251075,0.513525407 20.3374278,0.73629395 22.5730557,3.42193004 C24.8086836,6.10756614 24.8073824,8.11508712 24.6496422,12.3606497" id="Path-2" stroke="#0065FF" stroke-width="3" stroke-linecap="round" transform="translate(15.842827, 6.415362) scale(-1, 1) translate(-15.842827, -6.415362) "></path>
                    </g>
                    <rect id="cutting/ic_password_default" x="0" y="0" width="44" height="44"></rect>
                </g>
            </g>
        </g>
    </g>
</svg>