<?xml version="1.0" encoding="UTF-8"?>
<svg width="64px" height="64px" viewBox="0 0 64 64" version="1.1" xmlns="http://www.w3.org/2000/svg" xmlns:xlink="http://www.w3.org/1999/xlink">
    <!-- Generator: Sketch 61.2 (89653) - https://sketch.com -->
    <title>ic_pengyouquan</title>
    <desc>Created with Sketch.</desc>
    <g id="🔪切图" stroke="none" stroke-width="1" fill="none" fill-rule="evenodd">
        <g id="icon" transform="translate(-1384.000000, -719.000000)">
            <g id="ic_pengyouquan" transform="translate(1384.000000, 719.000000)">
                <g id="cutting/ic_pengyouquan">
                    <g id="编组">
                        <path d="M31.85875,0.0258125 C30.6446875,0.0258125 29.4515625,0.0970625 28.2726875,0.2323125 C25.4430214,0.552016393 22.6697516,1.2538226 20.028625,2.3185625 C20.028625,2.3185625 41.480125,23.4715 42.0484375,24.2475 L42.0484375,1.69925 C41.4090625,1.471125 40.7488125,1.286 40.0883125,1.115125 C37.454125,0.41025 34.699125,0.0258125 31.8588125,0.0258125 L31.85875,0.0258125 Z" id="路径" fill="#FA5452" fill-rule="nonzero"></path>
                        <path d="M54.25475,9.2105 C53.3881875,8.3490625 52.4864375,7.573125 51.570375,6.8251875 C49.3356931,5.06174282 46.8761668,3.60368213 44.256625,2.4894375 C44.256625,2.4894375 44.412625,32.5495625 44.256625,33.4963125 L60.2690625,17.5409375 C59.97825,16.9356875 59.6441875,16.3305 59.2964375,15.7465625 C57.932625,13.4253125 56.2643125,11.218375 54.25475,9.2105 Z" id="路径" fill="#6467F0" fill-rule="nonzero"></path>
                        <path d="M61.2915625,20.0753125 C61.2915625,20.0753125 40.0674375,41.4491875 39.2864375,42.0185625 L61.916625,42.0185625 C62.1435625,41.3779375 62.3355625,40.723 62.50625,40.067875 C63.21625,37.4404375 63.599375,34.713625 63.599375,31.8869375 C63.599375,30.6765 63.5285625,29.487375 63.39375,28.31275 C63.059625,25.408 62.3283125,22.6600625 61.2915625,20.0753125 Z" id="路径" fill="#5283F0" fill-rule="nonzero"></path>
                        <path d="M29.81375,44.3825 L45.8259375,60.338375 C46.4402883,60.0407857 47.0419766,59.7177348 47.6294375,59.3700625 C50.0376558,57.995077 52.2513837,56.3045186 54.211875,54.34325 C55.06375,53.496125 55.85925,52.5845 56.605,51.6659375 C58.4085625,49.40225 59.864125,46.953 60.9504375,44.3823125 C60.9438125,44.3825 30.7793125,44.5393125 29.81375,44.3825 L29.81375,44.3825 Z" id="路径" fill="#00B1FE" fill-rule="nonzero"></path>
                        <path d="M21.598125,39.3773125 L21.598125,61.926 C22.2370625,62.153625 22.8975,62.339 23.5581875,62.5096875 C26.2367755,63.232951 28.9991706,63.5992025 31.7736875,63.5989376 C32.98775,63.5989376 34.1809375,63.5279375 35.359375,63.3924375 C38.1892173,63.0729602 40.9626591,62.3711688 43.603875,61.30625 C43.603625,61.3065 22.17325,40.1534375 21.598125,39.3773125 L21.598125,39.3773125 Z" id="路径" fill="#66D020" fill-rule="nonzero"></path>
                        <path d="M19.3470625,29.964625 L3.334875,45.92025 C3.6258125,46.5254375 3.9596875,47.130875 4.307375,47.714375 C5.65675,50.064 7.3393125,52.2709375 9.3489375,54.27925 C10.2011875,55.1405 11.11725,55.916625 12.0333125,56.664125 C14.3053125,58.4585 16.76225,59.910625 19.3470625,61.000125 C19.3470625,60.979 19.1910625,30.9190625 19.3470625,29.964625 L19.3470625,29.964625 Z" id="路径" fill="#9AD122" fill-rule="nonzero"></path>
                        <path d="M1.119375,23.59275 C0.393066669,26.2588957 0.0253087104,29.0099447 0.0258119831,31.77325 C0.0261622095,32.9675364 0.094899721,34.1608229 0.2316875,35.34725 C0.5583125,38.23125 1.2683125,40.97925 2.3266875,43.56375 C2.3266875,43.56375 23.529625,22.189875 24.33175,21.6348125 L1.7088125,21.6348125 C1.48326871,22.2783473 1.28661396,22.9316456 1.1194375,23.59275 L1.119375,23.59275 Z" id="路径" fill="#FFC817" fill-rule="nonzero"></path>
                        <path d="M15.84625,4.3759375 C13.4381797,5.75114967 11.2244625,7.44166281 9.26375,9.4026875 C8.3976875,10.2643125 7.6164375,11.1614375 6.8710625,12.08 C5.0673125,14.3439375 3.6115625,16.8075 2.52525,19.385 C2.52525,19.385 32.6895,19.228375 33.6625,19.385 L17.65,3.4289375 C17.0394375,3.7211875 16.4356875,4.0484375 15.84625,4.3759375 Z" id="路径" fill="#FF7612" fill-rule="nonzero"></path>
                    </g>
                </g>
            </g>
        </g>
    </g>
</svg>