<?xml version="1.0" encoding="UTF-8"?>
<svg width="72px" height="72px" viewBox="0 0 72 72" version="1.1" xmlns="http://www.w3.org/2000/svg" xmlns:xlink="http://www.w3.org/1999/xlink">
    <!-- Generator: Sketch 61.2 (89653) - https://sketch.com -->
    <title>ic_pay</title>
    <desc>Created with Sketch.</desc>
    <defs>
        <path d="M20.037966,0.00487970257 C22.7129012,-0.00043932823 25.3613792,0.534378906 27.8246382,1.57731482 C30.1991613,2.58255856 32.3569341,4.03743278 34.1791636,5.86184148 C36.0047429,7.68468161 37.4603121,9.8436017 38.465589,12.2195262 C39.5091533,14.6852823 40.0379792,17.3052734 40.0379792,20.0033834 C40.04284,22.678014 39.5080507,25.3261373 38.465589,27.7892437 C37.4619877,30.164894 36.006181,32.3228058 34.1791636,34.1429223 C32.3580269,35.9706744 30.2001096,37.4283669 27.8246382,38.4354612 C25.3549361,39.4760463 22.7370119,40.0048797 20.037966,40.0048797 C17.3634184,40.0093246 14.7153113,39.475603 12.2512938,38.4354612 C9.87494563,37.4283483 7.7160467,35.9706819 5.89376386,34.1429223 C4.06794279,32.3224425 2.61318513,30.1645732 1.61034302,27.7892437 C0.566778717,25.3214845 0.037979225,22.702495 0.037979225,20.0033834 C0.0336005235,14.6987384 2.14057202,9.61046032 5.89376386,5.86184148 C7.71680036,4.03701448 9.87563988,2.58210894 12.2512938,1.57731482 C14.7179914,0.532723588 17.3399216,0.00487970257 20.037966,0.00487970257 Z M13.9339071,9.07814196 C13.3685468,9.18998592 12.926858,9.63244555 12.816,10.198 C12.742,10.568 12.818,10.953 13.028,11.267 L17.243,17.589 L14.21,17.589 C13.7023256,17.589 13.2332151,17.859841 12.9793779,18.2995 C12.7255406,18.7391589 12.7255406,19.2808411 12.9793779,19.7205 C13.2332151,20.160159 13.7023256,20.431 14.21,20.431 L18.476,20.431 L18.476,23.275 L14.21,23.275 C13.4453914,23.3036801 12.8403385,23.9318537 12.8403385,24.697 C12.8403385,25.4621463 13.4453914,26.0903199 14.21,26.119 L18.476,26.119 L18.476,30.386 C18.4964424,31.1569383 19.1272907,31.7712806 19.8985,31.7712806 C20.6697093,31.7712806 21.3005576,31.1569383 21.321,30.386 L21.321,26.119 L25.588,26.119 C26.3526086,26.0903199 26.9576615,25.4621463 26.9576615,24.697 C26.9576615,23.9318537 26.3526086,23.3036801 25.588,23.275 L21.32,23.275 L21.32,20.43 L25.587,20.43 L25.588,20.431 C26.3727966,20.431 27.009,19.7947966 27.009,19.01 C27.009,18.2252034 26.3727966,17.589 25.588,17.589 L22.557,17.589 L26.771,11.267 C27.1864581,10.6140567 27.0039201,9.74879419 26.3601116,9.31931654 C25.7163031,8.88983889 24.8472964,9.05362729 24.404,9.688 L19.9,16.446 L15.394,9.688 C15.0761549,9.20725493 14.4992673,8.96629799 13.9339071,9.07814196 Z" id="path-1"></path>
        <filter x="-32.5%" y="-27.5%" width="165.0%" height="165.0%" filterUnits="objectBoundingBox" id="filter-2">
            <feOffset dx="0" dy="2" in="SourceAlpha" result="shadowOffsetOuter1"></feOffset>
            <feGaussianBlur stdDeviation="4" in="shadowOffsetOuter1" result="shadowBlurOuter1"></feGaussianBlur>
            <feColorMatrix values="0 0 0 0 1   0 0 0 0 0.655594406   0 0 0 0 0  0 0 0 0.364455857 0" type="matrix" in="shadowBlurOuter1"></feColorMatrix>
        </filter>
    </defs>
    <g id="ðŸ”ªåˆ‡å›¾" stroke="none" stroke-width="1" fill="none" fill-rule="evenodd">
        <g id="icon" transform="translate(-444.000000, -841.000000)">
            <g id="ic_pay" transform="translate(444.000000, 841.000000)">
                <g id="cutting/ic_pay">
                    <g id="ç¼–ç»„" stroke-width="1" fill-rule="evenodd">
                        <rect id="çŸ©å½¢" fill="#FFF7E7" x="0" y="0" width="72" height="72" rx="20"></rect>
                        <g transform="translate(16.000000, 16.000000)" fill-rule="nonzero" id="å½¢çŠ¶ç»“åˆ">
                            <g>
                                <use fill="black" fill-opacity="1" filter="url(#filter-2)" xlink:href="#path-1"></use>
                                <use fill="#FFA700" xlink:href="#path-1"></use>
                            </g>
                        </g>
                    </g>
                    <rect x="0" y="0" width="72" height="72"></rect>
                </g>
            </g>
        </g>
    </g>
</svg>