<?xml version="1.0" encoding="UTF-8"?>
<svg width="64px" height="64px" viewBox="0 0 64 64" version="1.1" xmlns="http://www.w3.org/2000/svg" xmlns:xlink="http://www.w3.org/1999/xlink">
    <!-- Generator: Sketch 61.2 (89653) - https://sketch.com -->
    <title>ic_password_login</title>
    <desc>Created with Sketch.</desc>
    <g id="🔪切图" stroke="none" stroke-width="1" fill="none" fill-rule="evenodd">
        <g id="icon" transform="translate(-1290.000000, -719.000000)">
            <g id="ic_password_login" transform="translate(1290.000000, 719.000000)">
                <g id="cutting/ic_password_login">
                    <g>
                        <path d="M5.68434189e-14,32 C5.68434189e-14,43.432499 6.09916534,53.9965638 16,59.7128133 C25.9008344,65.4290629 38.0991656,65.4290629 48,59.7128133 C57.9008347,53.9965638 64,43.432499 64,32 C64,14.326888 49.673112,-1.13686838e-13 32,-1.13686838e-13 C14.326888,-1.13686838e-13 5.68434189e-14,14.326888 5.68434189e-14,32 Z" id="路径" fill="#FFA700" fill-rule="nonzero"></path>
                        <g id="编组" transform="translate(17.000000, 12.000000)" fill="#FFFFFF" fill-rule="nonzero">
                            <path d="M29.3177407,15.6521739 L28.8208463,15.6521739 L28.8208463,13.6645963 C28.8208463,6.21118016 22.6096662,0 15.15625,0 C7.70283383,0 1.49165371,6.21118012 1.49165371,13.6645963 L1.49165371,15.6521739 L0.994759336,15.6521739 C0.497864922,15.6521739 0.000970507813,16.1490683 0.000970507813,16.6459627 L0.000970507813,24.8447205 C0.000970507813,33.0434782 6.70904504,40 15.15625,40 C23.603455,40 30.3115295,33.2919255 30.3115295,24.8447205 L30.3115295,16.6459627 C30.3115295,16.1490683 29.8146351,15.6521739 29.3177407,15.6521739 Z M16.398486,27.5776398 L16.398486,31.552795 C16.398486,32.0496895 15.9015916,32.5465839 15.15625,32.5465839 C14.4109084,32.5465839 13.914014,32.0496895 13.914014,31.3043478 L13.914014,27.5776398 C12.4233307,26.8322982 11.6779891,25.0931677 12.4233307,23.6024845 C13.1686723,22.1118012 14.9078028,21.3664596 16.398486,22.1118013 C17.8891693,22.8571429 18.6345109,24.5962733 17.8891693,26.0869565 C17.6407221,26.5838509 17.1438277,27.0807454 16.398486,27.5776398 Z M24.3487966,15.6521739 L5.9637034,15.6521739 L5.9637034,13.6645963 C5.9637034,8.44720496 10.1873059,4.47204969 15.15625,4.47204969 C20.1251941,4.47204969 24.3487966,8.69565219 24.3487966,13.6645963 L24.3487966,15.6521739 Z" id="形状"></path>
                        </g>
                    </g>
                </g>
            </g>
        </g>
    </g>
</svg>