<?xml version="1.0" encoding="UTF-8"?>
<svg width="28px" height="28px" viewBox="0 0 28 28" version="1.1" xmlns="http://www.w3.org/2000/svg" xmlns:xlink="http://www.w3.org/1999/xlink">
    <!-- Generator: Sketch 61.2 (89653) - https://sketch.com -->
    <title>ic_phone_blue</title>
    <desc>Created with Sketch.</desc>
    <g id="ðŸ”ªåˆ‡å›¾" stroke="none" stroke-width="1" fill="none" fill-rule="evenodd">
        <g id="icon" transform="translate(-456.000000, -179.000000)">
            <g id="ic_phone_blue" transform="translate(456.000000, 179.000000)">
                <g id="cutting/ic_phone_blue">
                    <g id="ç¼–ç»„" stroke-width="1" fill-rule="evenodd" transform="translate(3.000000, 3.000000)" fill="#0065FF">
                        <path d="M0,4.65419094 C0.0109921593,3.94022084 0.0881349914,3.35803694 0.374576811,2.80883182 C0.462709258,2.64406792 0.572864204,2.47930401 0.705084531,2.34749848 L0.705084702,2.3474983 C1.07772392,1.95399812 1.45600667,1.56584974 1.8398166,1.18317347 C2.26949021,0.754773792 2.75421791,0.392333817 3.32707871,0.172632861 C3.78980546,-0.00310921221 4.26354562,-0.0470659465 4.74827333,0.0517833703 C5.38724472,0.172611591 5.90504927,0.502140252 6.36775663,0.930516295 C7.06182737,1.56759321 7.60165442,2.32549705 8.07537087,3.13833258 C8.3287783,3.57771086 8.50504448,4.0390442 8.58214262,4.53333482 C8.6923189,5.24730492 8.53807629,5.90636052 8.09741492,6.47754434 C7.7669072,6.90594401 7.39233293,7.29038416 7.01775867,7.67482646 C6.87452731,7.81763315 6.85248326,7.93843968 6.91859342,8.12518334 C7.07283603,8.59749528 7.32622299,9.01489487 7.62367541,9.39935865 C8.04231622,9.93758517 8.49401018,10.4648352 8.95671754,10.9810831 C9.40841365,11.4863523 9.88215165,11.9586879 10.3558681,12.4309998 C10.7083983,12.7715277 11.0609501,13.1120126 11.4355244,13.4305618 C12.107551,14.0017456 12.7906105,14.583908 13.605861,14.9463931 C13.7490709,15.0122858 13.9143247,15.0562213 14.0685663,15.0891783 C14.1236436,15.1001783 14.2117761,15.0562213 14.2558424,15.0122856 C14.4651624,14.8145861 14.663472,14.6058861 14.8727697,14.3971874 C15.1702437,14.1115955 15.4897402,13.8369822 15.8533032,13.6612386 C16.3270197,13.4305612 16.8227608,13.3317108 17.3626094,13.3976254 C18.0236248,13.4744966 18.6075184,13.7271317 19.1473454,14.0896383 C19.6210619,14.3971874 20.072758,14.7267152 20.5134429,15.0891788 C21.0202146,15.4955998 21.4388554,15.9898904 21.7253182,16.5830314 C21.9346166,17.0114311 22.0337603,17.4617858 21.9897153,17.9450785 C21.9346164,18.5601982 21.6922413,19.1204034 21.2956445,19.5927175 C20.9100375,20.0430744 20.5024316,20.4714504 20.0837693,20.8888715 C19.8083609,21.1524847 19.554975,21.4380766 19.191412,21.6247988 C18.8609043,21.7895842 18.5193853,21.9103907 18.1558223,21.943348 C17.9134477,21.965305 17.6600618,22.0092622 17.4066738,21.9982621 C16.899902,21.965305 16.3820953,21.9103909 15.8863348,21.8225198 C15.0821106,21.6687345 14.3109396,21.4051202 13.561776,21.086571 C12.8236602,20.7680433 12.1075476,20.4275154 11.4355209,19.9991394 C10.8956939,19.6586115 10.3558647,19.3291052 9.82704886,18.9666201 C9.38638555,18.6700496 8.96774689,18.3405218 8.54910607,18.010994 C8.06435682,17.6155516 7.57960541,17.2091542 7.11690021,16.7807545 C6.63215096,16.3413977 6.15843235,15.8800429 5.69572714,15.4187074 C5.31012007,15.0342651 4.94657861,14.6168677 4.59402899,14.2104467 C3.99912415,13.5074552 3.4042193,12.7934873 2.897426,12.013609 C2.46777394,11.3545534 2.03812403,10.6845192 1.64150572,10.0034871 C1.11271146,9.08081826 0.672026603,8.10321346 0.374574181,7.0816964 C0.22033157,6.55444848 0.110177055,6.01621981 0.0110111634,5.47799329 C0.0110111634,5.1374654 0.0110111634,4.84091638 0,4.65417486 L0,4.65419094 Z M1.48725798,4.56631979 C1.49829737,4.76404077 1.48725798,4.95076209 1.53133099,5.14848221 C1.63049623,5.64277284 1.72963993,6.13706561 1.87287151,6.60937755 C2.12625738,7.47713187 2.50083165,8.3009503 2.94149496,9.09180929 C3.21692489,9.58609992 3.49235481,10.0694141 3.80084003,10.541726 C4.31862303,11.3545659 4.88047258,12.1234719 5.51946552,12.8593928 C5.97114008,13.3756621 6.41182279,13.8919336 6.8855414,14.3862027 C7.33723751,14.8585361 7.81097552,15.2869143 8.28469197,15.7372712 C8.57113314,16.0008844 8.86858557,16.2644976 9.17707079,16.5171537 C9.74993159,16.9675106 10.3228139,17.428844 10.92873,17.8572222 C11.8100976,18.4723419 12.7355102,19.021547 13.7160199,19.4719039 C14.4211019,19.8014317 15.137193,20.0870236 15.8863566,20.2737651 C16.4592174,20.4275289 17.0320997,20.5263997 17.6159933,20.5153996 C17.7041258,20.5153996 17.7812472,20.4934426 17.8694008,20.4934426 C18.221931,20.4604856 18.56345,20.3726144 18.8058246,20.0870216 C18.882946,19.9991505 18.9710784,19.9112794 19.0592105,19.834387 C19.5439382,19.3950302 20.0176783,18.9556541 20.3592188,18.3954489 C20.5464734,18.0878998 20.623616,17.7473934 20.4913961,17.3958869 C20.3922524,17.1322737 20.2380102,16.8906177 20.0397,16.6928954 C19.7642916,16.4292822 19.4778504,16.165669 19.1914092,15.9239893 C18.7507459,15.5615257 18.2770079,15.2649552 17.7592034,15.0342778 C17.2304091,14.8036004 16.7456577,14.8146005 16.304975,15.2100201 C15.9414335,15.5285693 15.5999146,15.8690757 15.2473628,16.1986035 C15.2143077,16.2315605 15.1702414,16.2754962 15.1261753,16.2974532 C14.7846348,16.517152 14.4321045,16.626981 14.0244771,16.5940452 C13.6278804,16.5610881 13.2533082,16.4512385 12.9007565,16.2864746 C12.195696,15.9459682 11.5567031,15.4846349 10.9617983,14.9683634 C10.4439937,14.5290066 9.926187,14.089652 9.44145929,13.6173164 C8.90163224,13.0900685 8.38384709,12.5518398 7.86606409,11.9916346 C7.50247952,11.6071923 7.16096055,11.2007949 6.83045283,10.7833739 C6.40077922,10.2561474 6.01519586,9.70691868 5.72877623,9.09180113 C5.51945626,8.64144424 5.38723571,8.16913231 5.45334631,7.66386308 C5.49741264,7.31237807 5.6296112,7.02676468 5.88301992,6.77413006 C6.20249484,6.44460226 6.53300256,6.11507446 6.84148778,5.76358946 C7.06181836,5.52193344 7.2270733,5.22536294 7.17197395,4.88485653 C7.11689659,4.57728594 7.00672009,4.26973682 6.87452153,3.99512352 C6.6431797,3.52281158 6.33469448,3.10541199 5.99317551,2.69896952 C5.69572309,2.33650591 5.38723787,1.98502091 4.9906411,1.73238629 C4.72624398,1.56760091 4.4398028,1.45777299 4.12030633,1.52366544 C3.67964302,1.61153659 3.33810466,1.88615054 3.01860819,2.18272104 C2.71014452,2.46831295 2.42370334,2.76488346 2.12625092,3.07245406 C1.98301956,3.21523927 1.8287985,3.35804596 1.74064385,3.53378954 C1.52031328,3.84133865 1.48725798,4.20382374 1.48725798,4.56630884 L1.48725798,4.56631979 Z" id="å½¢çŠ¶" fill-rule="nonzero"></path>
                    </g>
                    <rect id="cutting/ic_phone_default_blue" x="0" y="0" width="28" height="28"></rect>
                    <g id="ç”µè¯" stroke-width="1" fill-rule="evenodd"></g>
                </g>
            </g>
        </g>
    </g>
</svg>