<?xml version="1.0" encoding="UTF-8"?>
<svg width="44px" height="44px" viewBox="0 0 44 44" version="1.1" xmlns="http://www.w3.org/2000/svg" xmlns:xlink="http://www.w3.org/1999/xlink">
    <!-- Generator: Sketch 61.2 (89653) - https://sketch.com -->
    <title>ic_quanping</title>
    <desc>Created with Sketch.</desc>
    <g id="🔪切图" stroke="none" stroke-width="1" fill="none" fill-rule="evenodd">
        <g id="icon" transform="translate(-1381.000000, -424.000000)" fill="#FFFFFF">
            <g id="ic_quanping" transform="translate(1381.000000, 424.000000)">
                <g id="cutting/ic_quanping">
                    <g id="cutting/ic_voice_on" transform="translate(6.000000, 6.000000)">
                        <g id="编组" fill-rule="nonzero">
                            <path d="M13.068,28.854 L5.526,28.854 L13.814,20.574 C14.409534,19.9580472 14.4012788,18.9783801 13.7954494,18.3725506 C13.1896199,17.7667212 12.2099528,17.758466 11.594,18.354 L3.172,26.762 L3.172,19.292 C3.172,18.4238084 2.46819163,17.72 1.6,17.72 C0.731808373,17.72 0.028,18.4238084 0.028,19.292 L0.028,30.424 C0.028,31.29 0.732,31.9920013 1.6,31.9920013 L13.064,31.9920013 C13.931087,31.9931045 14.6348954,31.291087 14.6360012,30.424 C14.6371045,29.556913 13.935087,28.8531046 13.068,28.852 L13.068,28.854 Z M30.426,0.0279948743 L18.96,0.0279948743 C18.0929129,0.0279948743 17.39,0.730912943 17.39,1.598 C17.39,2.46508706 18.0929129,3.168 18.96,3.168 L26.5,3.168 L18.21,11.444 C17.7566988,11.891822 17.6199405,12.5696529 17.8641448,13.1582026 C18.108349,13.7467524 18.6848149,14.1286485 19.322,14.124 C19.7384894,14.1245783 20.1380076,13.9590123 20.432,13.664 L28.85,5.254 L28.85,12.726 C28.85,13.5936393 29.5533607,14.297 30.421,14.297 C31.2886393,14.297 31.9920013,13.5936393 31.9920013,12.726 L31.9920013,1.594 C31.9925331,1.17816098 31.8274407,0.779229477 31.5332103,0.485374348 C31.2389799,0.191519219 30.839838,0.0269361305 30.424,0.0279948743 L30.426,0.0279948743 Z" id="形状"></path>
                        </g>
                    </g>
                </g>
            </g>
        </g>
    </g>
</svg>