<?xml version="1.0" encoding="UTF-8"?>
<svg width="32px" height="32px" viewBox="0 0 32 32" version="1.1" xmlns="http://www.w3.org/2000/svg" xmlns:xlink="http://www.w3.org/1999/xlink">
    <!-- Generator: Sketch 61.2 (89653) - https://sketch.com -->
    <title>hdpi/cutting/ic_right_blue</title>
    <desc>Created with Sketch.</desc>
    <g id="cutting/ic_right_blue" stroke="none" stroke-width="1" fill="none" fill-rule="evenodd">
        <path d="M22,16.2886598 C22,16.4673548 21.9312722,16.6254289 21.7938144,16.7628866 L12.185567,26.371134 C12.0481093,26.5085918 11.8900353,26.5773196 11.7113402,26.5773196 C11.5326452,26.5773196 11.3745711,26.5085918 11.2371134,26.371134 L10.2061856,25.3402062 C10.0687278,25.2027485 10,25.0446744 10,24.8659794 C10,24.6872843 10.0687278,24.5292103 10.2061856,24.3917526 L18.3092784,16.2886598 L10.2061856,8.18556701 C10.0687278,8.04810928 10,7.89003526 10,7.71134021 C10,7.53264515 10.0687278,7.37457113 10.2061856,7.2371134 L11.2371134,6.20618557 C11.3745711,6.06872784 11.5326452,6 11.7113402,6 C11.8900353,6 12.0481093,6.06872784 12.185567,6.20618557 L21.7938144,15.814433 C21.9312722,15.9518907 22,16.1099647 22,16.2886598 Z" id="chevron" fill="#0065FF"></path>
        <rect x="0" y="0" width="32" height="32"></rect>
    </g>
</svg>