<?xml version="1.0" encoding="UTF-8"?>
<svg width="32px" height="32px" viewBox="0 0 32 32" version="1.1" xmlns="http://www.w3.org/2000/svg" xmlns:xlink="http://www.w3.org/1999/xlink">
    <!-- Generator: Sketch 61.2 (89653) - https://sketch.com -->
    <title>hdpi/ic_right32_black</title>
    <desc>Created with Sketch.</desc>
    <g id="ic_right32_black" stroke="none" stroke-width="1" fill="none" fill-rule="evenodd">
        <rect id="cutting/ic_right_grey" x="0" y="0" width="32" height="32"></rect>
        <g id="cutting/ic_right" fill="#535050" fill-rule="nonzero">
            <path d="M16.7284315,28.7103455 C16.5964598,28.8667098 16.4254972,28.9895679 16.2215404,29.0593721 C16.2065436,29.0621643 16.1974987,29.0649565 16.1885474,29.0649565 C16.0685731,29.1152166 15.9366014,29.1320135 15.8046288,29.1375541 C15.7865858,29.1375541 15.7656371,29.1515152 15.7476409,29.1515152 C15.7116485,29.1515152 15.681608,29.1291774 15.6456628,29.1291774 C15.5676796,29.123593 15.4896961,29.1068397 15.411713,29.0817096 C15.318733,29.0593719 15.2347508,29.0230732 15.1507689,28.9839821 C15.0997797,28.9588521 15.0517901,28.9253457 15.0038003,28.891839 C14.9618092,28.8611245 14.907821,28.8471634 14.8688292,28.8053239 L7.36442276,21.8219884 C6.87852575,21.3724418 6.87852575,20.640882 7.36442276,20.1969171 C7.84432105,19.7473705 8.63019923,19.7473705 9.11604852,20.1969171 L14.5149042,25.2201146 L14.5149042,14.0177864 C14.5149042,13.3755333 15.0757839,12.8478489 15.7656377,12.8478489 C16.4554885,12.8478489 17.0163681,13.3727869 17.0163711,14.0177864 L17.0163711,25.1838476 L22.3792821,20.1969449 C22.8561796,19.7473539 23.6450586,19.7473983 24.1279548,20.1969449 C24.6078531,20.640907 24.6078531,21.3724668 24.1279548,21.8220162 L16.7284315,28.7103455 Z M15.7566434,9.75399477 C15.0667449,9.75399477 14.505913,9.23185037 14.505913,8.58964176 C14.505913,7.95026841 15.063747,7.42807959 15.7566434,7.42807959 C16.4494951,7.42807959 17.0073888,7.95022398 17.0073888,8.58964176 C17.0103762,9.23464399 16.4494951,9.75399477 15.7566434,9.75399477 Z M15.7566434,4.32591796 C15.0667449,4.32591796 14.505913,3.8065644 14.505913,3.16156217 C14.505913,2.52218883 15.063747,2 15.7566434,2 C16.4494951,2 17.0073888,2.52214439 17.0073888,3.16156217 C17.0103762,3.8065644 16.4494951,4.32591796 15.7566434,4.32591796 Z" id="形状" transform="translate(15.743939, 15.575758) rotate(-90.000000) translate(-15.743939, -15.575758) "></path>
        </g>
    </g>
</svg>