<?xml version="1.0" encoding="UTF-8"?>
<svg width="48px" height="48px" viewBox="0 0 48 48" version="1.1" xmlns="http://www.w3.org/2000/svg" xmlns:xlink="http://www.w3.org/1999/xlink">
    <!-- Generator: Sketch 61.2 (89653) - https://sketch.com -->
    <title>ic_set_blue</title>
    <desc>Created with Sketch.</desc>
    <g id="🔪切图" stroke="none" stroke-width="1" fill="none" fill-rule="evenodd">
        <g id="icon" transform="translate(-1264.000000, -525.000000)">
            <g id="ic_set_blue" transform="translate(1264.000000, 525.000000)">
                <g id="cutting/ic_set_blue">
                    <g id="cutting/ic_set" stroke-width="1" fill-rule="evenodd" transform="translate(8.000000, 6.000000)" stroke="#0065FF">
                        <g id="shape-copy" transform="translate(0.000000, 0.000000)" stroke-width="3">
                            <path d="M18.0103813,1.38179328 L28.8236215,7.61491085 C30.3103575,8.47191579 31.2264804,10.057428 31.2264804,11.773482 L31.2264804,24.226518 C31.2264804,25.942572 30.3103575,27.5280842 28.8236215,28.3850892 L18.0103813,34.6182067 C16.5267099,35.4734451 14.6997705,35.4734451 13.216099,34.6182067 L2.40285884,28.3850892 C0.916122841,27.5280842 2.10156007e-16,25.942572 0,24.226518 L0,11.773482 C1.56620083e-15,10.057428 0.916122841,8.47191579 2.40285884,7.61491085 L13.216099,1.38179328 C14.6997705,0.526554858 16.5267099,0.526554858 18.0103813,1.38179328 Z" id="Polygon-2"></path>
                            <ellipse id="Oval-9" opacity="0.499790737" cx="15.5945946" cy="18" rx="5.7972973" ry="5.78571429"></ellipse>
                        </g>
                    </g>
                    <rect id="Rectangle-23" x="0" y="0" width="48" height="48"></rect>
                </g>
            </g>
        </g>
    </g>
</svg>