<?xml version="1.0" encoding="UTF-8"?>
<svg width="48px" height="48px" viewBox="0 0 48 48" version="1.1" xmlns="http://www.w3.org/2000/svg" xmlns:xlink="http://www.w3.org/1999/xlink">
    <!-- Generator: Sketch 61.2 (89653) - https://sketch.com -->
    <title>ic_store_blue</title>
    <desc>Created with Sketch.</desc>
    <g id="🔪切图" stroke="none" stroke-width="1" fill="none" fill-rule="evenodd">
        <g id="icon" transform="translate(-1575.000000, -525.000000)">
            <g id="ic_store_blue" transform="translate(1575.000000, 525.000000)">
                <g id="cutting/ic_store_blue">
                    <g id="门店" stroke-width="1" fill-rule="evenodd" transform="translate(6.000000, 6.000000)">
                        <path d="M35.2285714,9.25714286 L32.9142857,4.49632653 C31.6285714,1.85142857 28.8,0 25.7142857,0 L10.2857143,0 C7.2,0 4.37142857,1.85142857 3.08571429,4.49632653 L0.771428571,9.25714286 C0.257142857,10.315102 0,11.637551 0,12.96 C0,17.4563265 3.6,21.6 7.97142857,21.6 C9.77142857,21.6 11.5714286,20.8065306 13.1142857,19.7485714 C15.9428571,22.1289796 20.3142857,22.1289796 23.1428571,19.7485714 C24.4285714,21.0710204 26.2285714,21.6 28.2857143,21.6 C32.4,21.6 36,17.4563265 36,12.96 C36,11.637551 35.7428571,10.315102 35.2285714,9.25714286 Z M27.6404725,18.5142857 C26.0976153,18.5142857 24.9428571,17.7208163 23.9142857,16.6628571 L23.1428571,15.3404082 L22.1142857,16.6628571 C20.0571429,19.0432653 16.2,19.0432653 14.1428571,16.6628571 L12.8571429,15.3404082 L12.0857143,16.6628571 C11.0571429,17.7208163 9.51428571,18.5142857 7.97142857,18.5142857 C4.88571429,18.5142857 3.00351512,15.8693878 3.00351512,12.96 C3.00351512,12.1665306 3.26065797,11.1085714 3.51780083,10.315102 L5.83208655,6.25959184 C6.60351512,4.40816327 8.66065797,3.08571429 10.7178008,3.08571429 L25.3261868,3.08571429 C27.3833296,3.08571429 29.1833296,4.40816327 30.2119011,6.25959184 L32.5261868,10.5795918 C32.7833296,11.3730612 33.0404725,12.1665306 33.0404725,13.2244898 C33.0404725,15.8693878 30.7261868,18.5142857 27.6404725,18.5142857 Z" id="Shape" fill="#0065FF" fill-rule="nonzero"></path>
                        <path d="M18.4571429,6.28571429 L18.5428571,6.28571429 C19.3712843,6.28571429 20.0428571,6.95728716 20.0428571,7.78571429 L20.0428571,12.7857143 C20.0428571,13.6141414 19.3712843,14.2857143 18.5428571,14.2857143 L18.4571429,14.2857143 C17.6287157,14.2857143 16.9571429,13.6141414 16.9571429,12.7857143 L16.9571429,7.78571429 C16.9571429,6.95728716 17.6287157,6.28571429 18.4571429,6.28571429 Z" id="Rectangle-4" fill="#0065FF" opacity="0.496859129" transform="translate(18.500000, 10.285714) rotate(-270.000000) translate(-18.500000, -10.285714) "></path>
                        <path d="M4.54574623,25.279283 L4.54574623,31.4482612 C4.54574623,33.6574002 6.33660723,35.4482612 8.54574623,35.4482612 L27.5279085,35.4482612 C29.7370475,35.4482612 31.5279085,33.6574002 31.5279085,31.4482612 L31.5279085,25.279283 L31.5279085,25.279283" id="Path-2" stroke="#0065FF" stroke-width="3" stroke-linecap="round" stroke-linejoin="round"></path>
                    </g>
                    <rect opacity="0.500365" x="0" y="0" width="48" height="48"></rect>
                </g>
            </g>
        </g>
    </g>
</svg>