<?xml version="1.0" encoding="UTF-8"?>
<svg width="48px" height="48px" viewBox="0 0 48 48" version="1.1" xmlns="http://www.w3.org/2000/svg" xmlns:xlink="http://www.w3.org/1999/xlink">
    <!-- Generator: Sketch 61.2 (89653) - https://sketch.com -->
    <title>ic_share_grey</title>
    <desc>Created with Sketch.</desc>
    <g id="🔪切图" stroke="none" stroke-width="1" fill="none" fill-rule="evenodd">
        <g id="icon" transform="translate(-1498.000000, -526.000000)">
            <g id="ic_share_grey" transform="translate(1498.000000, 526.000000)">
                <g id="cutting/ic_share_grey">
                    <g stroke-width="1" fill-rule="evenodd" transform="translate(4.000000, 4.000000)" id="share">
                        <g>
                            <path d="M29.2852679,7.54866071 C29.8678571,6.96607143 30.8040179,6.96205357 31.4026786,7.540625 L34.0383929,10.1763393 C34.8339286,10.971875 34.8339286,12.2575893 34.0383929,13.053125 L31.4026786,15.6888393 C30.8160714,16.2754464 29.8638393,16.2754464 29.2772321,15.6888393 C28.690625,15.1022321 28.690625,14.15 29.2772321,13.5633929 L29.7232143,13.1174107 L27.7825893,13.1174107 C22.5071429,13.1174107 20.7151786,15.3633929 20.7151786,22.1575893 C20.7151786,22.9892857 20.0441964,23.6602679 19.2125,23.6602679 C18.3808036,23.6602679 17.7098214,22.9892857 17.7098214,22.1575893 C17.7098214,13.75625 20.7754464,10.1120536 27.7825893,10.1120536 L29.7232143,10.1120536 L29.2651786,9.65401786 C28.6946429,9.06339286 28.7026786,8.12723214 29.2852679,7.54866071 Z" id="形状" fill="#A8A8B6" fill-rule="nonzero"></path>
                            <path d="M20,0 C8.954305,0 0,8.954305 0,20 C0,31.045695 8.954305,40 20,40 L20,40 C31.045695,40 40,31.045695 40,20" id="路径" stroke="#A8A8B6" stroke-width="3" stroke-linecap="round" stroke-linejoin="round"></path>
                        </g>
                    </g>
                    <rect x="0" y="0" width="48" height="48"></rect>
                </g>
            </g>
        </g>
    </g>
</svg>