<?xml version="1.0" encoding="UTF-8"?>
<svg width="32px" height="32px" viewBox="0 0 32 32" version="1.1" xmlns="http://www.w3.org/2000/svg" xmlns:xlink="http://www.w3.org/1999/xlink">
    <!-- Generator: Sketch 61.2 (89653) - https://sketch.com -->
    <title>ic_search_grey32</title>
    <desc>Created with Sketch.</desc>
    <g id="🔪切图" stroke="none" stroke-width="1" fill="none" fill-rule="evenodd">
        <g id="icon" transform="translate(-1271.000000, -261.000000)">
            <g id="ic_search_grey32" transform="translate(1271.000000, 261.000000)">
                <g id="cutting/ic_search_grey32">
                    <g>
                        <g id="icon" stroke="#A8A8B6" stroke-linecap="round" stroke-width="2">
                            <path d="M16,27.2340426 C22.2043904,27.2340426 27.2340426,22.2043904 27.2340426,16 C27.2340426,9.79560962 22.2043904,4.76595745 16,4.76595745 C9.79560962,4.76595745 4.76595745,9.79560962 4.76595745,16 C4.76595745,18.9471693 5.90083728,21.6292731 7.75742333,23.633138 C8.8200241,24.7800325 10.1190374,25.7047532 11.5769997,26.3298365" id="Oval-2" transform="translate(16.000000, 16.000000) rotate(-42.000000) translate(-16.000000, -16.000000) "></path>
                            <line x1="24.1654539" y1="23.8043682" x2="28.6943055" y2="30.5177505" id="Path-4" transform="translate(26.429880, 27.161059) rotate(-12.000000) translate(-26.429880, -27.161059) "></line>
                            <path d="M9.44355272,14.9071318 C10.221308,11.6978899 12.0320165,9.88381463 14.8756782,9.46490589" id="路径-2" opacity="0.496512277" stroke-linejoin="round"></path>
                        </g>
                        <rect id="Rectangle-23" x="0" y="0" width="32" height="32"></rect>
                    </g>
                </g>
            </g>
        </g>
    </g>
</svg>