<?xml version="1.0" encoding="UTF-8"?>
<svg width="52px" height="52px" viewBox="0 0 52 52" version="1.1" xmlns="http://www.w3.org/2000/svg" xmlns:xlink="http://www.w3.org/1999/xlink">
    <!-- Generator: Sketch 61.2 (89653) - https://sketch.com -->
    <title>ic_tab_mine_normal</title>
    <desc>Created with Sketch.</desc>
    <defs>
        <circle id="path-1" cx="16" cy="12" r="4"></circle>
        <filter x="-87.5%" y="-62.5%" width="275.0%" height="275.0%" filterUnits="objectBoundingBox" id="filter-2">
            <feOffset dx="0" dy="2" in="SourceAlpha" result="shadowOffsetOuter1"></feOffset>
            <feGaussianBlur stdDeviation="2" in="shadowOffsetOuter1" result="shadowBlurOuter1"></feGaussianBlur>
            <feColorMatrix values="0 0 0 0 0   0 0 0 0 0   0 0 0 0 0  0 0 0 0.198344624 0" type="matrix" in="shadowBlurOuter1"></feColorMatrix>
        </filter>
    </defs>
    <g id="🔪切图" stroke="none" stroke-width="1" fill="none" fill-rule="evenodd">
        <g id="icon" transform="translate(-679.000000, -621.000000)">
            <g id="ic_tab_mine_normal" transform="translate(679.000000, 621.000000)">
                <g id="cutting/ic_tab_mine_normal">
                    <g id="cutting/hometab_ic_mine_nomal" stroke-width="1" fill-rule="evenodd" transform="translate(10.000000, 5.000000)">
                        <path d="M11.5071692,27.8041358 C11.3425473,27.7733158 11.1755046,27.7466051 11.0108827,27.7137304 C10.3451324,27.5657943 9.68664495,27.4014209 9.04752473,27.2062275 C7.16405681,26.6329751 5.04576063,27.0644554 3.80625475,28.3917708 C3.64889561,28.5623083 3.51090374,28.743119 3.36322824,28.9198205 C3.18165999,29.1417246 2.99282902,29.3533554 2.82578623,29.5834782 C2.68053164,29.7786717 2.55706523,29.9903025 2.42391519,30.1937146 C2.27381877,30.4279467 2.11403872,30.6580695 1.97846776,30.8984657 C1.85742226,31.1121511 1.76058587,31.3361099 1.65406583,31.5559594 C1.53302033,31.8025196 1.40713302,32.0449704 1.30303389,32.2997492 C1.21103932,32.5257627 1.14083293,32.7620495 1.06336381,32.9942269 C0.976211053,33.2531151 0.881795566,33.5078939 0.811589178,33.7729461 C0.74864552,34.0112875 0.709910962,34.255793 0.663913673,34.4982438 C0.608232745,34.7674053 0.550130907,35.0345122 0.516238168,35.3098377 C0.487187249,35.5563978 0.482345429,35.8111766 0.46781997,36.0618461 C0.4508736,36.3186796 0.431506321,36.5755131 0.433721132,36.8364559 C0.577095563,40.4675626 8.28034113,41.9047386 16.0921706,41.9568914 C24.1316695,42.0105642 32.2861737,40.5733883 32.4337211,36.8364559 C32.4359355,36.5755131 32.4165682,36.3186796 32.4020427,36.0618461 C32.3875173,35.8111766 32.3826755,35.5563978 32.3512036,35.3098377 C32.3173109,35.0345122 32.2592091,34.7674053 32.205949,34.4982438 C32.1599518,34.255793 32.1187963,34.0112875 32.0582735,33.7729461 C31.9880671,33.5078939 31.8936517,33.2531151 31.8064989,32.9942269 C31.7290298,32.7620495 31.6588234,32.5257627 31.5668288,32.2997492 C31.4651506,32.0449704 31.3368424,31.8025196 31.2157969,31.5559594 C31.1068559,31.3361099 31.0100195,31.1121511 30.891395,30.8984657 C30.755824,30.6580695 30.5960439,30.4279467 30.4435266,30.1937146 C30.3103766,29.9903025 30.1869102,29.7786717 30.0440765,29.5834782 C29.8746128,29.3533554 29.6857818,29.1417246 29.5042136,28.9198205 C29.3565381,28.743119 29.2185462,28.5623083 29.0611871,28.3917708 C27.8241021,27.0644554 25.7058059,26.6329751 23.822338,27.2062275 C23.1832178,27.4014209 22.5223094,27.5657943 21.8565591,27.7137304 C21.6919373,27.7466051 21.5248945,27.7733158 21.3626935,27.8041358 C20.7502033,27.9253612 20.1304504,28.0239853 19.4985929,28.0979533 C19.2782901,28.124664 19.0628291,28.1513747 18.8425263,28.1719214 C18.0508887,28.2458894 17.2519885,28.2993108 16.4361418,28.2993108 C15.6202952,28.2993108 14.8213949,28.2458894 14.0273364,28.1719214 C13.8070336,28.1513747 13.5891517,28.124664 13.3688489,28.0979533 C12.7394124,28.0239853 12.1172385,27.9253612 11.5071692,27.8041358 Z" id="Path" fill="#A8A8B6" opacity="0.50125558"></path>
                        <circle id="Oval" fill="#A8A8B6" cx="16" cy="12" r="12"></circle>
                        <g id="Oval">
                            <use fill="black" fill-opacity="1" filter="url(#filter-2)" xlink:href="#path-1"></use>
                            <use fill="#FFFFFF" fill-rule="evenodd" xlink:href="#path-1"></use>
                        </g>
                    </g>
                    <rect x="0" y="0" width="52" height="52"></rect>
                </g>
            </g>
        </g>
    </g>
</svg>