<?xml version="1.0" encoding="UTF-8"?>
<svg width="52px" height="52px" viewBox="0 0 52 52" version="1.1" xmlns="http://www.w3.org/2000/svg" xmlns:xlink="http://www.w3.org/1999/xlink">
    <!-- Generator: Sketch 61.2 (89653) - https://sketch.com -->
    <title>cutting/ic_tab_home_selected@2x</title>
    <desc>Created with Sketch.</desc>
    <defs>
        <linearGradient x1="50%" y1="0%" x2="50%" y2="98.9548142%" id="linearGradient-1">
            <stop stop-color="#55C6FF" offset="0%"></stop>
            <stop stop-color="#0065FF" offset="100%"></stop>
        </linearGradient>
        <filter x="-42.9%" y="-40.0%" width="185.7%" height="180.0%" filterUnits="objectBoundingBox" id="filter-2">
            <feOffset dx="0" dy="2" in="SourceAlpha" result="shadowOffsetOuter1"></feOffset>
            <feGaussianBlur stdDeviation="2" in="shadowOffsetOuter1" result="shadowBlurOuter1"></feGaussianBlur>
            <feColorMatrix values="0 0 0 0 0   0 0 0 0 0   0 0 0 0 0  0 0 0 0.200803103 0" type="matrix" in="shadowBlurOuter1" result="shadowMatrixOuter1"></feColorMatrix>
            <feMerge>
                <feMergeNode in="shadowMatrixOuter1"></feMergeNode>
                <feMergeNode in="SourceGraphic"></feMergeNode>
            </feMerge>
        </filter>
    </defs>
    <g id="cutting/ic_tab_home_selected" stroke="none" stroke-width="1" fill="none" fill-rule="evenodd">
        <circle id="椭圆形" fill="url(#linearGradient-1)" cx="26" cy="26" r="26"></circle>
        <g id="编组" filter="url(#filter-2)" transform="translate(12.000000, 9.000000)" fill-rule="nonzero">
            <path d="M27.9403572,20.1852715 C27.6653513,14.0663904 22.8527481,9.11628427 16.733867,8.77252691 C16.3901096,8.15376364 15.7713464,7.7412548 15.0150801,7.7412548 L12.815033,7.7412548 C12.0587668,7.7412548 11.371252,8.15376364 11.0962461,8.77252691 C5.32112236,9.18503575 0.646022148,13.722633 0.0960103588,19.4977568 C0.0272588851,19.9102656 0.0272588851,20.3227745 0.0272588851,20.7352833 C0.0272588851,21.1477922 0.0272588851,21.560301 0.0960103588,21.9728099 L0.0960103588,25.2728806 C0.0960103588,27.4041763 1.67729425,29.1229631 3.73983846,29.397969 C3.87734141,29.397969 4.08359583,29.397969 4.22109878,29.397969 L5.66487973,29.397969 L6.76490331,29.397969 L23.8152688,29.397969 C23.9527717,29.397969 24.0902747,29.397969 24.2277776,29.397969 C26.2903218,29.1917146 27.9403572,27.4041763 27.9403572,25.2728806 L27.9403572,21.1477922 C27.9403572,21.0102892 27.9403572,20.8040348 27.9403572,20.6665319 C27.9403572,20.5290289 27.9403572,20.3227745 27.9403572,20.1852715 Z" id="路径" fill="#FFFFFF" opacity="0.683640253"></path>
            <path d="M21.2027128,29.3292175 L21.4777187,29.3292175 C21.4777187,29.3292175 21.4777187,29.2604661 21.4777187,29.2604661 C21.4089672,29.3292175 21.2714643,29.3292175 21.2027128,29.3292175 Z" id="路径" fill="#86B34D"></path>
            <path d="M11.0962461,8.70377543 C9.37745931,8.84127838 7.72742394,9.3225387 6.28364299,10.1475564 C7.72742394,9.39129017 9.30870783,8.84127838 11.0962461,8.70377543 C11.0274947,8.70377543 11.0962461,8.70377543 11.0962461,8.70377543 Z" id="路径" fill="#6FCFEB"></path>
            <path d="M16.8713699,8.77252691 C16.8026185,8.77252691 16.733867,8.77252691 16.6651155,8.77252691 C16.6651155,8.77252691 16.6651155,8.77252691 16.6651155,8.77252691 C16.733867,8.77252691 16.8026185,8.77252691 16.8713699,8.77252691 Z" id="路径" fill="#6FCFEB"></path>
            <g transform="translate(1.540194, 19.085248)">
                <circle id="椭圆形" fill="#FFFFFF" cx="2.68090463" cy="2.68130747" r="2.612556"></circle>
                <path d="M2.68090463,2.68130747 L0.824614844,0.825017684 C0.343354528,1.306278 0.068348633,1.92504126 0.068348633,2.68130747 C0.068348633,4.12508842 1.23712369,5.29386347 2.68090463,5.29386347 C4.12468558,5.29386347 5.29346063,4.12508842 5.29346063,2.68130747 C5.29346063,1.99379274 5.01845474,1.306278 4.53719442,0.825017684 L2.68090463,2.68130747 Z" id="路径" fill="#090103"></path>
            </g>
            <g transform="translate(21.230375, 19.085248)">
                <circle id="椭圆形" fill="#FFFFFF" cx="2.65364575" cy="2.68130747" r="2.612556"></circle>
                <path d="M2.65364575,2.68130747 L0.797355958,0.825017684 C0.316095643,1.306278 0.0410897479,1.92504126 0.0410897479,2.68130747 C0.0410897479,4.12508842 1.2098648,5.29386347 2.65364575,5.29386347 C4.0974267,5.29386347 5.26620175,4.12508842 5.26620175,2.68130747 C5.26620175,1.99379274 4.99119585,1.306278 4.50993554,0.825017684 L2.65364575,2.68130747 Z" id="路径" fill="#090103"></path>
            </g>
            <path d="M13.7775536,7.19124301 C13.0900389,5.54120764 11.9900153,4.99119585 11.0274947,4.71618996 C10.4774829,4.50993554 10.1337255,4.30368112 10.1337255,3.8224208 C10.1337255,3.34116048 10.4087314,2.92865164 10.8899917,2.92865164 C13.0212874,2.85990017 13.9150566,7.60375185 13.7775536,7.19124301 Z" id="路径" fill="#FFFFFF" opacity="0.683640253"></path>
            <path d="M14.1900625,4.92244438 C14.3963169,3.13490606 15.3588375,2.37863985 16.1838552,1.82862806 C16.6651155,1.4848707 16.9401214,1.2098648 16.8026185,0.728604485 C16.6651155,0.247344169 16.3213581,-0.0276617257 15.8400978,0.109841222 C13.7775536,0.591101537 14.121311,5.4037047 14.1900625,4.92244438 Z" id="路径" fill="#FFFFFF" opacity="0.683640253"></path>
            <g opacity="0.8" transform="translate(17.627636, 9.955536)" fill="#FFFFFF" id="路径">
                <g transform="translate(2.915224, 1.209865)" opacity="0.705287388">
                    <path d="M3.40991196,3.93226202 C3.20365754,3.93226202 2.99740312,3.86351055 2.92865164,3.65725613 C2.24113691,2.6947355 1.34736775,1.80096634 0.316095643,1.18220307 C0.0410897479,1.04470013 -0.0276617257,0.632191285 0.109841222,0.357185391 C0.247344169,0.0821794959 0.659853011,0.0134280222 0.934858906,0.15093097 C2.10363396,0.90719718 3.13490606,1.86971781 3.89117227,2.96974139 C4.0974267,3.24474729 4.02867522,3.58850465 3.75366933,3.79475907 C3.68491785,3.86351055 3.54741491,3.93226202 3.40991196,3.93226202 Z"></path>
                </g>
                <g opacity="0.705287388">
                    <path d="M1.58128389,1.42954724 C1.51253242,1.42954724 1.44378095,1.42954724 1.37502947,1.42954724 C1.10002358,1.36079577 0.825017684,1.2920443 0.550011789,1.22329282 C0.206254421,1.15454135 2.74780199e-14,0.810783981 0.0687514737,0.535778086 C0.137502947,0.192020718 0.481260316,-0.0142337035 0.756266211,0.0545177701 C1.03127211,0.123269244 1.37502947,0.192020718 1.65003537,0.329523665 C1.99379274,0.467026612 2.13129568,0.742032507 2.06254421,1.08578988 C2.06254421,1.2920443 1.85628979,1.42954724 1.58128389,1.42954724 Z"></path>
                </g>
            </g>
            <path d="M9.23995636,27.4041763 C8.82744752,27.4041763 8.41493867,27.4041763 8.07118131,27.3354248 C7.38366657,27.2666733 6.83365478,26.922916 6.35239446,26.7166615 C5.66487973,26.3729042 5.11486794,26.0291468 4.28985025,26.3041527 L4.15234731,25.8228924 C5.18361941,25.5478865 5.87113415,25.9603953 6.55864889,26.3041527 C7.0399092,26.5791586 7.52116952,26.8541645 8.13993278,26.922916 C9.17120489,27.0604189 10.4774829,26.922916 11.7837609,26.8541645 C12.5400271,26.785413 13.2962933,26.785413 13.9150566,26.7166615 L13.9150566,26.7166615 L14.0525595,26.7166615 C14.7400743,26.7166615 15.5650919,26.785413 16.3901096,26.785413 C17.6963876,26.8541645 19.0714171,26.922916 20.1026892,26.8541645 C20.7902039,26.785413 21.2027128,26.5104071 21.6152216,26.2354012 C22.1652334,25.8916439 22.7839967,25.479135 23.8152688,25.7541409 L23.6777658,26.2354012 C22.8527481,26.0291468 22.4402393,26.3041527 21.821476,26.6479101 C21.3402157,26.922916 20.8589554,27.2666733 20.1026892,27.3354248 C19.0714171,27.4041763 17.6963876,27.3354248 16.3213581,27.2666733 C15.427589,27.1979219 14.6025713,27.1979219 13.9150566,27.1979219 C13.2962933,27.1979219 12.5400271,27.2666733 11.7837609,27.3354248 C10.9587432,27.4041763 10.064974,27.4041763 9.23995636,27.4041763 Z" id="路径" fill="#090103"></path>
            <circle id="椭圆形" fill="#FEAEBB" cx="23.8840203" cy="26.0978983" r="1"></circle>
            <circle id="椭圆形" fill="#FEAEBB" cx="4.15234731" cy="26.0978983" r="1"></circle>
        </g>
        <rect x="0" y="0" width="52" height="52"></rect>
    </g>
</svg>