<?xml version="1.0" encoding="UTF-8"?>
<svg width="32px" height="32px" viewBox="0 0 32 32" version="1.1" xmlns="http://www.w3.org/2000/svg" xmlns:xlink="http://www.w3.org/1999/xlink">
    <!-- Generator: Sketch 61.2 (89653) - https://sketch.com -->
    <title>ic_time</title>
    <desc>Created with Sketch.</desc>
    <g id="🔪切图" stroke="none" stroke-width="1" fill="none" fill-rule="evenodd">
        <g id="icon" transform="translate(-1506.000000, -261.000000)">
            <g id="ic_time" transform="translate(1506.000000, 261.000000)">
                <g id="cutting/ic_time">
                    <g id="编组" stroke-width="1" fill-rule="evenodd" transform="translate(4.000000, 4.000000)" fill="#A8A8B6">
                        <path d="M12.5,0 C5.60675223,0 0,5.60675223 0,12.5 C0,19.3932478 5.60675223,25 12.5,25 C19.3932478,25 25,19.3932478 25,12.5 C25,5.60675223 19.3932478,0 12.5,0 Z M12.5,23.2094866 C6.59561942,23.2094866 1.79051339,18.4043806 1.79051339,12.5 C1.79051339,6.59561942 6.59084821,1.79051339 12.5,1.79051339 C18.4091797,1.79051339 23.2094866,6.59084821 23.2094866,12.5 C23.2094866,18.4091797 18.4043806,23.2094866 12.5,23.2094866 Z" id="形状" fill-rule="nonzero"></path>
                        <path d="M16.9690848,12.5 L12.5047991,12.5 L12.5047991,6.25482701 C12.5047991,5.76040737 12.1063616,5.35717076 11.611942,5.35717076 C11.1175223,5.35717076 10.7190848,5.76037946 10.7190848,6.25482701 L10.7190848,13.3976842 C10.7190848,13.8920759 11.1175223,14.2905134 11.611942,14.2905134 L16.9690848,14.2905134 C17.4635045,14.2905134 17.866769,13.8920759 17.866769,13.3976842 C17.861942,12.8984375 17.4587333,12.5 16.9690848,12.5 Z" id="路径" fill-rule="nonzero" opacity="0.502115885"></path>
                    </g>
                    <rect x="0" y="0" width="32" height="32"></rect>
                </g>
            </g>
        </g>
    </g>
</svg>