<?xml version="1.0" encoding="UTF-8"?>
<svg width="64px" height="64px" viewBox="0 0 64 64" version="1.1" xmlns="http://www.w3.org/2000/svg" xmlns:xlink="http://www.w3.org/1999/xlink">
    <!-- Generator: Sketch 61.2 (89653) - https://sketch.com -->
    <title>cutting/ic_tab_jingjingledao_normal@2x</title>
    <desc>Created with Sketch.</desc>
    <defs>
        <linearGradient x1="50%" y1="0%" x2="50%" y2="100%" id="linearGradient-1">
            <stop stop-color="#E6E6EF" offset="0%"></stop>
            <stop stop-color="#A8A8B6" offset="100%"></stop>
        </linearGradient>
        <circle id="path-2" cx="22" cy="22" r="22"></circle>
        <filter x="-15.9%" y="-11.4%" width="131.8%" height="131.8%" filterUnits="objectBoundingBox" id="filter-3">
            <feOffset dx="0" dy="2" in="SourceAlpha" result="shadowOffsetOuter1"></feOffset>
            <feGaussianBlur stdDeviation="2" in="shadowOffsetOuter1" result="shadowBlurOuter1"></feGaussianBlur>
            <feColorMatrix values="0 0 0 0 0   0 0 0 0 0   0 0 0 0 0  0 0 0 0.203698645 0" type="matrix" in="shadowBlurOuter1"></feColorMatrix>
        </filter>
        <path d="M31.163728,2.01263157 C31.1053838,1.95368422 31.0470395,1.89473683 30.9303511,1.89473683 C30.6386299,1.71789474 30.3469086,1.6 29.938499,1.6 C23.776922,0.533333333 19.1557393,0 16.0749508,0 C12.9453191,0 8.25087146,0.533333333 1.99160799,1.6 C1.75823102,1.6 1.46650984,1.65894735 1.2914771,1.77684209 C1.23313287,1.77684209 1.17478862,1.83578945 1.11644439,1.83578948 C0.999755908,1.89473683 0.941411683,1.95368422 0.82472317,2.01263157 C-0.108784654,2.77894735 -0.283817361,4.13473683 0.474657755,5.13684209 C4.20868911,9.97052631 9.8680804,12.8 15.9942256,12.8 C22.178715,12.8 27.7797621,10.088421 31.5721377,5.13684209 C32.2722686,4.13473683 32.0972358,2.77894735 31.163728,2.01263157 Z" id="path-4"></path>
    </defs>
    <g id="cutting/ic_tab_jingjingledao_normal" stroke="none" stroke-width="1" fill="none" fill-rule="evenodd">
        <circle id="椭圆形" fill="url(#linearGradient-1)" cx="32" cy="32" r="32"></circle>
        <g id="编组" transform="translate(10.000000, 10.000000)">
            <g id="椭圆形">
                <use fill="black" fill-opacity="1" filter="url(#filter-3)" xlink:href="#path-2"></use>
                <use fill="#FFFFFF" fill-rule="evenodd" xlink:href="#path-2"></use>
            </g>
            <ellipse id="椭圆形" fill="#F6F6F8" cx="9" cy="24" rx="3" ry="1"></ellipse>
            <ellipse id="椭圆形" fill="#F6F6F8" cx="35" cy="24" rx="3" ry="1"></ellipse>
            <g transform="translate(6.000000, 28.000000)" id="路径">
                <g transform="translate(0.000001, 0.000000)">
                    <mask id="mask-5" fill="white">
                        <use xlink:href="#path-4"></use>
                    </mask>
                    <use id="蒙版" fill="#A8A8B6" fill-rule="nonzero" xlink:href="#path-4"></use>
                    <path d="M20.3317073,5.6 C18.5756098,5.6 16.995122,6.54964029 16,8.0057554 C15.0634146,6.54964029 13.4829268,5.6 11.6682927,5.6 C8.91707317,5.6 6.63414634,7.87913669 6.4,10.7913669 C9.03414634,13.0705036 12.3707317,14.4 16,14.4 C19.6292683,14.4 22.9658537,13.0705036 25.6,10.7913669 C25.3658537,7.87913669 23.0829268,5.6 20.3317073,5.6 L20.3317073,5.6 Z" fill="#FFFFFF" fill-rule="nonzero" opacity="0.500976562" mask="url(#mask-5)"></path>
                </g>
            </g>
        </g>
        <circle id="椭圆形" fill="#A8A8B6" opacity="0.500186012" cx="23" cy="26" r="3"></circle>
        <circle id="椭圆形" fill="#A8A8B6" opacity="0.500186012" cx="41" cy="26" r="3"></circle>
    </g>
</svg>