<?xml version="1.0" encoding="UTF-8"?>
<svg width="44px" height="44px" viewBox="0 0 44 44" version="1.1" xmlns="http://www.w3.org/2000/svg" xmlns:xlink="http://www.w3.org/1999/xlink">
    <!-- Generator: Sketch 61.2 (89653) - https://sketch.com -->
    <title>ic_toast_warning</title>
    <desc>Created with Sketch.</desc>
    <g id="🔪切图" stroke="none" stroke-width="1" fill="none" fill-rule="evenodd">
        <g id="icon" transform="translate(-394.000000, -424.000000)">
            <g id="ic_toast_warning" transform="translate(394.000000, 424.000000)">
                <g id="cutting/ic_toast_warning">
                    <g stroke-width="1" fill-rule="evenodd" fill="#FFFFFF" id="Fill-3">
                        <path d="M21.7283951,0 C34.1505185,0 44,9.84948148 44,22.2716049 C44,34.1505185 34.1505185,44 21.7283951,44 C9.84948148,44 0,34.1505185 0,22.2716049 C0,9.84948148 9.84948148,0 21.7283951,0 Z M22,30.1 C20.5088312,30.1 19.3,31.3088312 19.3,32.8 C19.3,34.2911688 20.5088312,35.5 22,35.5 C23.4911688,35.5 24.7,34.2911688 24.7,32.8 C24.7,31.3088312 23.4911688,30.1 22,30.1 Z M23.7095568,8.5 L20.2904432,8.5 C19.7434365,8.5 19.3204888,8.94451554 19.3458685,9.49514323 L20.2,28.0260312 L23.8,28.0260312 L24.6541315,9.49514323 C24.679464,8.9455408 24.2580953,8.5 23.7095568,8.5 Z"></path>
                    </g>
                    <rect x="0" y="0" width="44" height="44"></rect>
                </g>
            </g>
        </g>
    </g>
</svg>