<?xml version="1.0" encoding="UTF-8"?>
<svg width="44px" height="44px" viewBox="0 0 44 44" version="1.1" xmlns="http://www.w3.org/2000/svg" xmlns:xlink="http://www.w3.org/1999/xlink">
    <!-- Generator: Sketch 61.2 (89653) - https://sketch.com -->
    <title>ic_tuichuquanping</title>
    <desc>Created with Sketch.</desc>
    <g id="🔪切图" stroke="none" stroke-width="1" fill="none" fill-rule="evenodd">
        <g id="icon" transform="translate(-1446.000000, -424.000000)" fill="#FFFFFF">
            <g id="ic_tuichuquanping" transform="translate(1446.000000, 424.000000)">
                <g id="cutting/ic_tuichuquanping">
                    <g id="cutting/ic_voice_on" transform="translate(6.000000, 6.000000)">
                        <g id="编组" fill-rule="nonzero">
                            <path d="M1.59600124,20.8580013 L9.13800124,20.8580013 L0.850001236,29.1380013 C0.254467217,29.7539541 0.262722439,30.7336212 0.868551876,31.3394507 C1.47438131,31.9452801 2.45404844,31.9535353 3.07000124,31.3580013 L11.4920012,22.9500013 L11.4920012,30.4200013 C11.4920012,31.2881929 12.1958096,31.9920013 13.0640012,31.9920013 C13.9321929,31.9920013 14.6360012,31.2881929 14.6360012,30.4200013 L14.6360012,19.2880013 C14.6360012,18.4220013 13.9320012,17.72 13.0640012,17.72 L1.60000124,17.72 C0.732914204,17.7188968 0.0291058711,18.4209143 0.028,19.2880013 C0.0268967322,20.1550883 0.728914204,20.8588967 1.59600124,20.8600013 L1.59600124,20.8580013 Z M18.9560013,14.297 L30.4220013,14.297 C31.2890883,14.297 31.9920013,13.5940819 31.9920013,12.7269949 C31.9920013,11.8599078 31.2890883,11.1569949 30.4220013,11.1569949 L22.8820013,11.1569949 L31.1720013,2.88099487 C31.6253025,2.43317291 31.7620607,1.75534198 31.5178565,1.16679225 C31.2736523,0.578242523 30.6971864,0.196346403 30.0600013,0.200994874 C29.6435119,0.20041653 29.2439937,0.365982621 28.9500013,0.660994874 L20.5320013,9.07099487 L20.5320013,1.59899487 C20.5320013,0.731355532 19.8286406,0.0279948743 18.9610013,0.0279948743 C18.0933619,0.0279948743 17.39,0.731355532 17.39,1.59899487 L17.39,12.7309949 C17.3894682,13.1468339 17.5545606,13.5457654 17.848791,13.8396205 C18.1430214,14.1334757 18.5421633,14.2980587 18.9580013,14.297 L18.9560013,14.297 Z" id="形状"></path>
                        </g>
                    </g>
                </g>
            </g>
        </g>
    </g>
</svg>