<?xml version="1.0" encoding="UTF-8"?>
<svg width="104px" height="104px" viewBox="0 0 104 104" version="1.1" xmlns="http://www.w3.org/2000/svg" xmlns:xlink="http://www.w3.org/1999/xlink">
    <!-- Generator: Sketch 61.2 (89653) - https://sketch.com -->
    <title>ic_taobao104</title>
    <desc>Created with Sketch.</desc>
    <defs>
        <linearGradient x1="50%" y1="0%" x2="50%" y2="100%" id="linearGradient-1">
            <stop stop-color="#FF7700" offset="0%"></stop>
            <stop stop-color="#FF4200" offset="100%"></stop>
        </linearGradient>
    </defs>
    <g id="🔪切图" stroke="none" stroke-width="1" fill="none" fill-rule="evenodd">
        <g id="icon" transform="translate(-259.000000, -1447.000000)">
            <g id="ic_taobao104" transform="translate(259.000000, 1447.000000)">
                <g id="cutting/ic_taobao104">
                    <g id="cutting/ic_taobao64">
                        <g id="cutting/ic_taobao">
                            <g fill-rule="nonzero" id="路径">
                                <path d="M52,0 C23.2808908,0 0,23.2814422 0,52 C0,80.7196607 23.2814422,104 52,104 C80.7196607,104 104,80.7191092 104,52 C104,23.2814422 80.7191092,0 52,0 Z" fill="url(#linearGradient-1)"></path>
                                <path d="M25.7645387,27.0256628 C29.4188759,27.0256628 32.3822694,29.6741888 32.3822694,32.9392153 C32.3822694,36.2069989 29.4188759,38.8527678 25.7645387,38.8527678 C22.1113043,38.8527678 19.1479109,36.2075504 19.1479109,32.9392153 C19.1484624,29.6741888 22.1113043,27.0256628 25.7645387,27.0256628 Z" fill="#FBE642"></path>
                                <path d="M31.2937434,62.5676352 C29.5418452,67.9672534 29.9813362,65.9600424 23.0454295,80.9799364 L12.9911771,74.7327678 C12.9911771,74.7327678 24.1940615,64.5709862 26.5045599,59.9273807 C28.9380276,55.0317709 23.8135737,52.411368 23.8135737,52.411368 L16.1117285,47.6354189 L20.2684199,41.2415695 C26.0882291,45.5399788 26.51228,45.9022694 30.4290986,49.8157794 C33.4630753,52.8481018 33.0836903,57.0527678 31.2937434,62.5676352 Z" fill="#FFFFFF"></path>
                                <path d="M85.908632,69.5669565 C83.9543584,87.8910286 60.0398727,81.0819512 60.0398727,81.0819512 L61.3423542,75.8422481 L66.8715589,77.0283775 C77.1237752,77.6768611 76.1163097,68.7580064 76.1163097,68.7580064 L76.1163097,42.8142524 C76.2056416,32.9794698 66.82579,31.9455355 50.0032662,37.9484199 L53.9184305,39.0055143 C53.5798515,40.1591092 52.3049417,41.9611877 50.6853871,43.9226299 L73.1981336,43.9226299 L73.1981336,48.4620148 L60.5278897,48.4620148 L60.5278897,54.136246 L73.1451962,54.136246 L73.1451962,58.6767338 L60.5278897,58.6767338 L60.5278897,68.1938918 C62.4115801,67.568017 64.1783669,66.7160551 65.7141039,65.5861718 L64.5963521,61.4322375 L70.555122,59.5893531 L75.5064263,71.6993425 L68.176246,74.7289077 L66.8759703,69.9005726 C63.6081866,72.4084836 56.7980064,76.0225663 44.9107953,75.7016331 C32.2190456,76.0275292 35.4741463,61.432789 35.4741463,61.432789 L35.8011453,61.2706681 L44.7139343,61.2706681 C44.6576882,63.1411241 43.8845811,66.204878 44.9427784,67.8668929 C45.8118346,69.2311347 48.0346554,69.466596 49.4639661,69.5393849 C49.6255355,69.5504136 49.7898621,69.550965 49.9525345,69.5570308 L49.9525345,58.6767338 L37.0120891,58.6767338 L37.0120891,54.1367975 L49.9525345,54.1367975 L49.9525345,48.4625663 L46.6340191,48.4625663 C43.724666,51.5417603 41.0640085,54.0849629 41.0640085,54.0849629 L37.1582185,50.6809756 C39.9280594,47.7738282 42.7067232,43.1660657 44.4167126,40.0879745 C42.9771202,40.6753653 41.5447615,41.2803309 40.1199576,41.9027359 C38.5724171,43.8413237 36.914843,45.6894553 35.1554189,47.4380064 C35.230965,47.5471898 28.7797667,43.8377094 28.7797667,43.8377094 C35.4493319,38.1629268 39.1907953,26.0022057 39.1907953,26.0022057 L48.4642206,28.5944857 C48.4642206,28.5944857 47.6960764,30.3888441 46.1074019,33.1421421 C83.2584517,22.6566702 85.4189608,39.5696288 85.4189608,39.5696288 C85.4189608,39.5696288 87.8623542,51.2439873 85.908632,69.5669565 Z" fill="#FFFFFF"></path>
                            </g>
                        </g>
                    </g>
                </g>
            </g>
        </g>
    </g>
</svg>