<?xml version="1.0" encoding="UTF-8"?>
<svg width="44px" height="44px" viewBox="0 0 44 44" version="1.1" xmlns="http://www.w3.org/2000/svg" xmlns:xlink="http://www.w3.org/1999/xlink">
    <!-- Generator: Sketch 61.2 (89653) - https://sketch.com -->
    <title>ic_toast_clean</title>
    <desc>Created with Sketch.</desc>
    <g id="🔪切图" stroke="none" stroke-width="1" fill="none" fill-rule="evenodd">
        <g id="icon" transform="translate(-263.000000, -424.000000)">
            <g id="ic_toast_clean" transform="translate(263.000000, 424.000000)">
                <g id="cutting/ic_toast_clean">
                    <g id="编组" stroke-width="1" fill-rule="evenodd" fill="#FFFFFF">
                        <path d="M44,22.275 C44,34.1913846 34.1913846,44 21.725,44 C9.80861539,44 0,34.1913846 0,22.275 C0,9.80861539 9.80861539,0 21.725,0 C34.1913846,0 44,9.80861539 44,22.275 Z M22,18.8836154 L15.4,12.2836154 C15.2163846,12.1 15.0336154,12.0086154 14.6663846,12.0086154 C14.3913846,12.0086154 14.2086154,12.1 13.9336154,12.2836154 L12.1913846,14.025 C11.825,14.3913846 11.825,15.0336154 12.1913846,15.3086154 L18.7913846,21.9086154 L12.1913846,28.5086154 C11.825,28.875 11.825,29.5163846 12.1913846,29.7913846 L14.025,31.625 C14.3913846,31.9913846 15.0336154,31.9913846 15.3086154,31.625 L21.9086154,25.025 L28.5086154,31.625 C28.875,31.9913846 29.5163846,31.9913846 29.7913846,31.625 L31.625,29.7913846 C31.9913846,29.425 31.9913846,28.7836154 31.625,28.5086154 L25.1163846,22 L31.7163846,15.4 C31.9,15.2163846 31.9913846,15.0336154 31.9913846,14.6663846 C31.9913846,14.3913846 31.9,14.2086154 31.7163846,13.9336154 L29.975,12.1913846 C29.6086154,11.825 28.9663846,11.825 28.6913846,12.1913846 L22,18.8836154 Z" id="形状" fill-rule="nonzero"></path>
                    </g>
                    <rect x="0" y="0" width="44" height="44"></rect>
                </g>
            </g>
        </g>
    </g>
</svg>