<?xml version="1.0" encoding="UTF-8"?>
<svg width="64px" height="64px" viewBox="0 0 64 64" version="1.1" xmlns="http://www.w3.org/2000/svg" xmlns:xlink="http://www.w3.org/1999/xlink">
    <!-- Generator: Sketch 61.2 (89653) - https://sketch.com -->
    <title>ic_taobao64</title>
    <desc>Created with Sketch.</desc>
    <defs>
        <linearGradient x1="50%" y1="0%" x2="50%" y2="100%" id="linearGradient-1">
            <stop stop-color="#FF7700" offset="0%"></stop>
            <stop stop-color="#FF4200" offset="100%"></stop>
        </linearGradient>
    </defs>
    <g id="🔪切图" stroke="none" stroke-width="1" fill="none" fill-rule="evenodd">
        <g id="icon" transform="translate(-1572.000000, -719.000000)">
            <g id="ic_taobao64" transform="translate(1572.000000, 719.000000)">
                <g id="cutting/ic_taobao64">
                    <g id="cutting/ic_taobao">
                        <g fill-rule="nonzero" id="路径">
                            <path d="M32,0 C14.326702,0 0,14.3270414 0,32 C0,49.6736373 14.3270414,64 32,64 C49.6736373,64 64,49.673298 64,32 C64,14.3270414 49.673298,0 32,0 Z" fill="url(#linearGradient-1)"></path>
                            <path d="M15.8551007,16.6311771 C18.1039236,16.6311771 19.9275504,18.2610392 19.9275504,20.2702863 C19.9275504,22.2812301 18.1039236,23.9093955 15.8551007,23.9093955 C13.6069565,23.9093955 11.7833298,22.2815695 11.7833298,20.2702863 C11.7836691,18.2610392 13.6069565,16.6311771 15.8551007,16.6311771 Z" fill="#FBE642"></path>
                            <path d="M19.2576882,38.5031601 C18.179597,41.8260021 18.450053,40.5907953 14.1818028,49.833807 L7.99457052,45.9893955 C7.99457052,45.9893955 14.8886532,39.7359915 16.3104984,36.8783881 C17.808017,33.8657052 14.6545069,32.2531495 14.6545069,32.2531495 L9.91490986,29.3141039 L12.4728738,25.3794274 C16.0542948,28.0246023 16.3152492,28.2475504 18.7255992,30.6558643 C20.5926617,32.5219088 20.3591941,35.1093955 19.2576882,38.5031601 Z" fill="#FFFFFF"></path>
                            <path d="M52.8668505,42.8104348 C51.6642206,54.0867869 36.947614,49.8965854 36.947614,49.8965854 L37.749141,46.6721527 L41.1517285,47.4020785 C47.4607847,47.8011453 46.8408059,42.3126193 46.8408059,42.3126193 L46.8408059,26.3472322 C46.8957794,20.2950583 41.1235631,19.6587911 30.7712407,23.3528738 L33.1805726,24.0033934 C32.9722163,24.713298 32.1876564,25.8222694 31.1910074,27.0293107 L45.0450053,27.0293107 L45.0450053,29.8227784 L37.2479321,29.8227784 L37.2479321,33.3146129 L45.0124284,33.3146129 L45.0124284,36.1087593 L37.2479321,36.1087593 L37.2479321,41.9654719 C38.4071262,41.5803181 39.4943796,41.0560339 40.4394486,40.3607211 L39.7516013,37.8044539 L43.4185366,36.6703712 L46.4654931,44.1226723 L41.9546129,45.9870201 L41.1544433,43.015737 C39.1434995,44.5590668 34.9526193,46.7831177 27.6374125,46.5856204 C19.827105,46.7861718 21.8302439,37.8047932 21.8302439,37.8047932 L22.031474,37.7050265 L27.5162672,37.7050265 C27.4816543,38.8560764 27.0058961,40.7414634 27.6570944,41.7642418 C28.1918982,42.6037752 29.5597879,42.7486744 30.4393637,42.7934677 C30.5387911,42.8002545 30.6399152,42.8005938 30.7400212,42.8043266 L30.7400212,36.1087593 L22.7766702,36.1087593 L22.7766702,33.3149523 L30.7400212,33.3149523 L30.7400212,29.8231177 L28.6978579,29.8231177 C26.9074867,31.7180064 25.2701591,33.2830541 25.2701591,33.2830541 L22.866596,31.1882927 C24.5711135,29.3992789 26.2810604,26.5637328 27.3333616,24.6695228 C26.4474586,25.030994 25.5660071,25.4032806 24.6892047,25.786299 C23.7368721,26.9792761 22.7168265,28.1165879 21.6341039,29.1926193 C21.6805938,29.2598091 17.7106257,26.977052 17.7106257,26.977052 C21.8149735,23.484878 24.1174125,16.0013574 24.1174125,16.0013574 L29.8241357,17.5966066 C29.8241357,17.5966066 29.3514316,18.7008271 28.3737858,20.3951644 C51.2359703,13.9425663 52.5655143,24.3505408 52.5655143,24.3505408 C52.5655143,24.3505408 54.069141,31.5347614 52.8668505,42.8104348 Z" fill="#FFFFFF"></path>
                        </g>
                    </g>
                </g>
            </g>
        </g>
    </g>
</svg>