<?xml version="1.0" encoding="UTF-8"?>
<svg width="44px" height="44px" viewBox="0 0 44 44" version="1.1" xmlns="http://www.w3.org/2000/svg" xmlns:xlink="http://www.w3.org/1999/xlink">
    <!-- Generator: Sketch 61.2 (89653) - https://sketch.com -->
    <title>ic_toast_success</title>
    <desc>Created with Sketch.</desc>
    <g id="🔪切图" stroke="none" stroke-width="1" fill="none" fill-rule="evenodd">
        <g id="icon" transform="translate(-329.000000, -424.000000)">
            <g id="ic_toast_success" transform="translate(329.000000, 424.000000)">
                <g id="cutting/ic_toast_success">
                    <g id="cutting/ic_dialog_warning" stroke-width="1" fill-rule="evenodd" fill="#FFFFFF">
                        <g id="icon_success">
                            <path d="M21.7283951,0 C34.1505185,0 44,9.84948148 44,22.2716049 C44,34.1505185 34.1505185,44 21.7283951,44 C9.84948148,44 0,34.1505185 0,22.2716049 C0,9.84948148 9.84948148,0 21.7283951,0 Z M35.0952523,12.2881466 C34.70726,11.9097932 34.0593348,11.8966432 33.6591214,12.2695514 L33.6591214,12.2695514 L18.7354927,26.1749909 C18.3378977,26.5454592 17.6880033,26.545081 17.2897612,26.1686966 L17.2897612,26.1686966 L10.918304,20.1469394 C10.5230165,19.7733475 9.89755087,19.7920388 9.52788671,20.1949247 L9.52788671,20.1949247 L8.26744608,21.5686413 C7.89626121,21.9731846 7.91123183,22.6203585 8.2974873,23.0178465 L8.2974873,23.0178465 L17.3114649,32.2939551 C17.6992099,32.6929759 18.3275656,32.6969223 18.7182635,32.3061933 L18.7182635,32.3061933 L36.2305269,14.7925415 C36.6252243,14.3978128 36.6194075,13.774437 36.2264677,13.391259 L36.2264677,13.391259 Z"></path>
                        </g>
                    </g>
                    <rect x="0" y="0" width="44" height="44"></rect>
                </g>
            </g>
        </g>
    </g>
</svg>