<?xml version="1.0" encoding="UTF-8"?>
<svg width="64px" height="64px" viewBox="0 0 64 64" version="1.1" xmlns="http://www.w3.org/2000/svg" xmlns:xlink="http://www.w3.org/1999/xlink">
    <!-- Generator: Sketch 61.2 (89653) - https://sketch.com -->
    <title>ic_tuikuan</title>
    <desc>Created with Sketch.</desc>
    <defs>
        <linearGradient x1="50%" y1="0%" x2="50%" y2="98.9548142%" id="linearGradient-1">
            <stop stop-color="#55C6FF" offset="0%"></stop>
            <stop stop-color="#0065FF" offset="100%"></stop>
        </linearGradient>
    </defs>
    <g id="🔪切图" stroke="none" stroke-width="1" fill="none" fill-rule="evenodd">
        <g id="icon" transform="translate(-728.000000, -720.000000)">
            <g id="ic_tuikuan" transform="translate(728.000000, 720.000000)">
                <g id="cutting/ic_tuikuan">
                    <g>
                        <rect id="矩形" x="0" y="0" width="64" height="64"></rect>
                        <path d="M26.8960197,14.8180056 L36.5760309,14.8180056 C37.6980322,14.8180056 38.6220333,13.7620044 38.6220333,12.4200028 C38.6220333,11.0780013 37.6760322,10.022 36.5100308,10.022 L26.8960197,10.022 C25.7300183,10.022 24.7840172,11.0780013 24.7840172,12.4200028 C24.7840172,13.7620044 25.7300183,14.8180056 26.8960197,14.8180056 L26.8960197,14.8180056 Z M21.2640131,11.8260021 C21.2640131,12.0680024 21.198013,12.3540027 21.198013,12.596003 C21.198013,14.5980054 22.6060147,16.5340076 24.4320168,16.5340076 L24.4320168,16.5340076 L39.2820341,16.5340076 C40.976036,16.5340076 42.4500378,14.5980054 42.4500378,12.596003 C42.4500378,12.3540027 42.4500378,12.0680024 42.3840377,11.8260021 L42.3840377,11.8260021 L47.2020433,11.8260021 C50.7660474,11.8260021 52.5260495,13.9820046 52.4820494,17.2160084 L52.4820494,48.654045 C52.4820494,52.4820494 50.6560473,54.0000512 46.8500429,54.0000512 L46.8500429,54.0000512 L16.6440077,54.0000512 C12.8820034,54.0000512 11.4740017,52.0640489 11.4740017,48.7200451 L11.4740017,48.7200451 L11.4740017,17.2160084 C11.4740017,14.0040047 12.3980028,11.8260021 16.3360074,11.8260021 L16.3360074,11.8260021 Z M30.5071429,24 L21,28.8321429 L30.5071429,33.6642857 L30.5071429,30.05 L35.1821429,30.05 C38.875,30.05 40.7214286,31.6607143 40.7214286,34.8428571 C40.7214286,38.1428571 38.7964286,39.7535714 34.9464286,39.7535714 L25.3410714,39.7535714 C24.6359221,39.7535714 24.0642857,40.3252079 24.0642857,41.0303571 C24.0642857,41.7355064 24.6359221,42.3071429 25.3410714,42.3071429 L35.1428571,42.3071429 C40.3678571,42.3071429 43,39.8714286 43,35.0785714 C43,30.0892857 40.2892857,27.6142857 34.8285714,27.6142857 L30.5071429,27.6142857 L30.5071429,24 Z" id="形状" fill="url(#linearGradient-1)" fill-rule="nonzero"></path>
                    </g>
                </g>
            </g>
        </g>
    </g>
</svg>