<?xml version="1.0" encoding="UTF-8"?>
<svg width="80px" height="80px" viewBox="0 0 80 80" version="1.1" xmlns="http://www.w3.org/2000/svg" xmlns:xlink="http://www.w3.org/1999/xlink">
    <!-- Generator: Sketch 61.2 (89653) - https://sketch.com -->
    <title>ic_top</title>
    <desc>Created with Sketch.</desc>
    <g id="ðŸ”ªåˆ‡å›¾" stroke="none" stroke-width="1" fill="none" fill-rule="evenodd">
        <g id="icon" transform="translate(-375.000000, -967.000000)">
            <g id="ic_top" transform="translate(375.000000, 967.000000)">
                <g id="cutting/ic_top">
                    <g>
                        <circle id="æ¤­åœ†å½¢" stroke-opacity="0.2" stroke="#FFFFFF" stroke-width="2" fill-opacity="0.5" fill="#000000" cx="40" cy="40" r="39"></circle>
                        <path d="M40.2229355,29.8300498 C40.7075226,29.8495219 41.1863788,30.0442432 41.5563492,30.4142136 L41.5563492,30.4142136 L52.8700577,41.7279221 C53.6511063,42.5089706 53.6511063,43.7753006 52.8700577,44.5563492 C52.0890091,45.3373978 50.8226791,45.3373978 50.0416306,44.5563492 L50.0416306,44.5563492 L42,36.515 L42,56 C42,57.1045695 41.1045695,58 40,58 C38.8954305,58 38,57.1045695 38,56 L38,36.798 L30.2426407,44.5563492 C29.4615921,45.3373978 28.1952621,45.3373978 27.4142136,44.5563492 C26.633165,43.7753006 26.633165,42.5089706 27.4142136,41.7279221 L38.7279221,30.4142136 C39.0978924,30.0442432 39.5767487,29.8495219 40.0613357,29.8300498 Z M52,22 C53.1045695,22 54,22.8954305 54,24 C54,25.1045695 53.1045695,26 52,26 L28,26 C26.8954305,26 26,25.1045695 26,24 C26,22.8954305 26.8954305,22 28,22 L52,22 Z" id="å½¢çŠ¶ç»“åˆ" fill="#FFFFFF" opacity="0.900712"></path>
                    </g>
                </g>
            </g>
        </g>
    </g>
</svg>