<?xml version="1.0" encoding="UTF-8"?>
<svg width="44px" height="44px" viewBox="0 0 44 44" version="1.1" xmlns="http://www.w3.org/2000/svg" xmlns:xlink="http://www.w3.org/1999/xlink">
    <!-- Generator: Sketch 61.2 (89653) - https://sketch.com -->
    <title>ic_voice_off</title>
    <desc>Created with Sketch.</desc>
    <g id="ðŸ”ªåˆ‡å›¾" stroke="none" stroke-width="1" fill="none" fill-rule="evenodd">
        <g id="icon" transform="translate(-1577.000000, -424.000000)">
            <g id="ic_voice_off" transform="translate(1577.000000, 424.000000)">
                <g id="cutting/ic_voice_off">
                    <g id="cutting/ic_voice_on">
                        <rect id="çŸ©å½¢" fill-opacity="0.3" fill="#000000" x="0" y="0" width="44" height="44" rx="22"></rect>
                        <path d="M36.5,22.5 C36.5,27.3849896 33.9765704,31.8384616 29.9110637,34.3795252 C29.2085684,34.8186059 28.2831382,34.6050661 27.8440576,33.9025708 C27.4049769,33.2000755 27.6185167,32.2746453 28.321012,31.8355646 C31.5183094,29.8371579 33.5,26.3397733 33.5,22.5 C33.5,19.7577838 32.4893339,17.1900098 30.746502,15.2180775 L32.3096827,12.5099406 C34.9453128,15.0967692 36.5,18.6656203 36.5,22.5 Z M24,26.901 L24,32.6545328 C24.0002896,33.1591249 23.7135599,33.6214082 23.2574389,33.851734 C22.8013179,34.0820597 22.2525843,34.0416573 21.8363526,33.7471015 L20.588,32.811 L24,26.901 Z M31.5,22.5035947 C31.5,25.3380043 30.0674602,27.9190748 27.7825272,29.2869943 C27.0717399,29.7125209 26.1505754,29.4812714 25.7250488,28.7704841 C25.2995222,28.0596968 25.5307717,27.1385323 26.241559,26.7130057 C27.6125206,25.892253 28.5,24.2932419 28.5,22.5035947 C28.5,21.638378 28.2925638,20.8177638 27.9234085,20.1081219 L29.5798629,17.2374755 C30.7927822,18.6457882 31.5,20.5120891 31.5,22.5035947 Z M23.2102824,10.1255814 C23.6918646,10.3461897 24,10.8215595 24,11.3444002 L24,12.901 L14.883,28.692 L12.5615389,28.6927106 C11.14684,28.6927106 10,27.5638805 10,26.1713981 L10,18.2040509 C10,16.8115685 11.14684,15.6827384 12.5615389,15.6827384 L15.6695395,15.6827384 L21.7543833,10.3157047 C22.1608631,9.97912599 22.7287002,9.90497315 23.2102824,10.1255814 Z" id="å½¢çŠ¶ç»“åˆ" fill="#FFFFFF" fill-rule="nonzero"></path>
                        <rect id="Rectangle-2å¤‡ä»½" fill="#FFFFFF" transform="translate(22.500000, 22.500000) rotate(30.000000) translate(-22.500000, -22.500000) " x="21" y="6" width="3" height="33" rx="1.5"></rect>
                    </g>
                </g>
            </g>
        </g>
    </g>
</svg>