<?xml version="1.0" encoding="UTF-8"?>
<svg width="32px" height="32px" viewBox="0 0 32 32" version="1.1" xmlns="http://www.w3.org/2000/svg" xmlns:xlink="http://www.w3.org/1999/xlink">
    <!-- Generator: Sketch 61.2 (89653) - https://sketch.com -->
    <title>ic_warning</title>
    <desc>Created with Sketch.</desc>
    <g id="🔪切图" stroke="none" stroke-width="1" fill="none" fill-rule="evenodd">
        <g id="icon" transform="translate(-1802.000000, -261.000000)">
            <g id="ic_warning" transform="translate(1802.000000, 261.000000)">
                <g id="cutting/ic_warning">
                    <g stroke-width="1" fill-rule="evenodd" transform="translate(2.000000, 2.000000)" fill="#FFA700" id="形状">
                        <path d="M27.1551724,13.7454546 C27.1551724,21.0761168 21.0761168,27.1551724 13.4097179,27.1551724 C6.07905565,27.1551724 0,21.0761168 0,13.7454546 C0,6.07843848 6.07905565,0 13.4097179,0 C21.0767339,0 27.1551724,6.07905565 27.1551724,13.7454546 Z M12.5222375,5.24587066 C12.3618253,5.24474563 12.2081166,5.31014867 12.0977068,5.42652334 C11.9872971,5.542898 11.9300646,5.69983229 11.9396356,5.85996276 L12.4666928,17.2966105 L14.6884796,17.2966105 L15.2155368,5.86057993 C15.2252856,5.70034596 15.1681326,5.54324676 15.0577028,5.42673398 C14.947273,5.31022121 14.7934611,5.24473451 14.632935,5.24587066 L12.5222375,5.24587066 L12.5222375,5.24587066 Z M13.5775862,21.9092868 C14.1729623,21.909362 14.7231446,21.5917758 15.0208544,21.0761775 C15.3185641,20.5605792 15.3185641,19.9253142 15.0208544,19.4097159 C14.7231446,18.8941176 14.1729623,18.5765314 13.5775862,18.5766066 C12.6573741,18.5767227 11.9114564,19.3227346 11.9114564,20.2429467 C11.9114564,21.1631588 12.6573741,21.9091707 13.5775862,21.9092868 L13.5775862,21.9092868 Z" fill-rule="nonzero"></path>
                    </g>
                    <rect x="0" y="0" width="32" height="32"></rect>
                </g>
            </g>
        </g>
    </g>
</svg>