<?xml version="1.0" encoding="UTF-8"?>
<svg width="104px" height="104px" viewBox="0 0 104 104" version="1.1" xmlns="http://www.w3.org/2000/svg" xmlns:xlink="http://www.w3.org/1999/xlink">
    <!-- Generator: Sketch 61.2 (89653) - https://sketch.com -->
    <title>ic_weixin104</title>
    <desc>Created with Sketch.</desc>
    <g id="🔪切图" stroke="none" stroke-width="1" fill="none" fill-rule="evenodd">
        <g id="icon" transform="translate(-395.000000, -1447.000000)">
            <g id="ic_weixin104" transform="translate(395.000000, 1447.000000)">
                <g id="cutting/ic_weixin104">
                    <g id="cutting/ic_weixin64">
                        <g id="cutting/ic_weixin">
                            <path d="M0,52 C0,70.5778109 9.91114367,87.7444161 26,97.0333216 C42.0888559,106.322227 61.9111441,106.322227 78,97.0333216 C94.0888563,87.7444161 104,70.5778109 104,52 C104,23.281193 80.718807,0 52,0 C23.281193,0 0,23.281193 0,52 Z" id="路径" fill="#3FCF56" fill-rule="nonzero"></path>
                            <path d="M64.5596756,41.57868 C65.3352845,41.57868 66.1016489,41.6359956 66.8633911,41.72012 C64.79356,32.0818623 54.4897022,24.92204 42.72892,24.92204 C29.5805467,24.92204 18.80892,33.8845289 18.80892,45.26444 C18.80892,51.8335423 22.3920667,57.2276756 28.3815423,61.4107867 L25.98908,68.6066623 L34.3488311,64.4133823 C37.3431067,65.0059512 39.74204,65.6142356 42.7279956,65.6142356 C43.4786445,65.6142356 44.2228223,65.5772578 44.9623777,65.5190177 C44.4784834,63.892309 44.2297542,62.2047487 44.2237467,60.5076044 C44.2237467,50.0586088 53.1964044,41.57868 64.5596756,41.57868 Z M51.69788,35.0927777 C53.4977733,35.0927777 54.6912311,36.2769911 54.6912311,38.0778089 C54.6912311,39.8703067 53.4977733,41.07116 51.69788,41.07116 C49.9053823,41.07116 48.1064133,39.8703067 48.1064133,38.0778089 C48.1064133,36.2779156 49.9053823,35.0927777 51.69788,35.0927777 L51.69788,35.0927777 Z M34.95804,41.07116 C33.1655423,41.07116 31.35548,39.8703067 31.35548,38.0778089 C31.35548,36.2779156 33.1655423,35.0927777 34.95804,35.0927777 C36.7505377,35.0927777 37.9439956,36.2769911 37.9439956,38.0778089 C37.9439956,39.8703067 36.7514623,41.07116 34.95804,41.07116 L34.95804,41.07116 Z" id="形状" fill="#FFFFFF" fill-rule="nonzero"></path>
                            <path d="M86.3895067,60.2210267 C86.3895067,50.6585733 76.8205823,42.8636577 66.0720667,42.8636577 C54.6903067,42.8636577 45.7278177,50.6594977 45.7278177,60.2210267 C45.7278177,69.80012 54.6912311,77.5783956 66.0720667,77.5783956 C68.45436,77.5783956 70.85884,76.9765823 73.2503777,76.3775423 L79.81116,79.9708577 L78.0121911,73.9934 C82.8137555,70.3917644 86.3895067,65.61516 86.3895067,60.2210267 L86.3895067,60.2210267 Z M59.4780044,57.2276756 C58.2863955,57.2276756 57.0836933,56.0434623 57.0836933,54.8342889 C57.0836933,53.64268 58.2863956,52.4427511 59.4780044,52.4427511 C61.2862177,52.4427511 62.4713556,53.64268 62.4713556,54.8342889 C62.4713556,56.0434623 61.2862178,57.2276756 59.4780044,57.2276756 Z M72.6337733,57.2276756 C71.4504844,57.2276756 70.2570267,56.0434623 70.2570267,54.8342889 C70.2570267,53.64268 71.4504844,52.4427511 72.6337733,52.4427511 C74.4262711,52.4427511 75.6271244,53.64268 75.6271244,54.8342889 C75.6271244,56.0434623 74.4271955,57.2276756 72.6337733,57.2276756 Z" id="形状" fill="#FFFFFF" fill-rule="nonzero"></path>
                        </g>
                    </g>
                </g>
            </g>
        </g>
    </g>
</svg>