<?xml version="1.0" encoding="UTF-8"?>
<svg width="64px" height="64px" viewBox="0 0 64 64" version="1.1" xmlns="http://www.w3.org/2000/svg" xmlns:xlink="http://www.w3.org/1999/xlink">
    <!-- Generator: Sketch 61.2 (89653) - https://sketch.com -->
    <title>ic_weixin64</title>
    <desc>Created with Sketch.</desc>
    <g id="🔪切图" stroke="none" stroke-width="1" fill="none" fill-rule="evenodd">
        <g id="icon" transform="translate(-1665.000000, -719.000000)">
            <g id="ic_weixin64" transform="translate(1665.000000, 719.000000)">
                <g id="cutting/ic_weixin64">
                    <g id="cutting/ic_weixin">
                        <path d="M0,32 C0,43.432499 6.09916534,53.9965638 16,59.7128133 C25.9008344,65.4290629 38.0991656,65.4290629 48,59.7128133 C57.9008347,53.9965638 64,43.432499 64,32 C64,14.326888 49.673112,0 32,0 C14.326888,0 0,14.326888 0,32 Z" id="路径" fill="#3FCF56" fill-rule="nonzero"></path>
                        <path d="M39.7290311,25.58688 C40.2063289,25.58688 40.6779378,25.6221511 41.1467022,25.67392 C39.87296,19.7426845 33.5321244,15.33664 26.29472,15.33664 C18.2034133,15.33664 11.57472,20.8520178 11.57472,27.85504 C11.57472,31.8975645 13.7797333,35.2170311 17.4655645,37.7912533 L15.99328,42.2194845 L21.1377422,39.6390045 C22.9803733,40.0036623 24.45664,40.3779911 26.2941511,40.3779911 C26.7560889,40.3779911 27.2140445,40.3552356 27.6691555,40.3193955 C27.3713744,39.318344 27.2183103,38.2798454 27.2146133,37.2354489 C27.2146133,30.8052977 32.7362489,25.58688 39.7290311,25.58688 Z M31.81408,21.5955555 C32.9217067,21.5955555 33.6561422,22.3243022 33.6561422,23.4324978 C33.6561422,24.5355733 32.9217067,25.27456 31.81408,25.27456 C30.7110045,25.27456 29.6039467,24.5355733 29.6039467,23.4324978 C29.6039467,22.3248711 30.7110045,21.5955555 31.81408,21.5955555 L31.81408,21.5955555 Z M21.51264,25.27456 C20.4095645,25.27456 19.29568,24.5355733 19.29568,23.4324978 C19.29568,22.3248711 20.4095645,21.5955555 21.51264,21.5955555 C22.6157155,21.5955555 23.3501511,22.3243022 23.3501511,23.4324978 C23.3501511,24.5355733 22.6162845,25.27456 21.51264,25.27456 L21.51264,25.27456 Z" id="形状" fill="#FFFFFF" fill-rule="nonzero"></path>
                        <path d="M53.1627733,37.0590933 C53.1627733,31.1745067 47.2742045,26.3776355 40.6597333,26.3776355 C33.6555733,26.3776355 28.1401955,31.1750755 28.1401955,37.0590933 C28.1401955,42.95392 33.6561422,47.7405511 40.6597333,47.7405511 C42.12576,47.7405511 43.60544,47.3702045 45.0771555,47.0015645 L49.11456,49.2128355 L48.0075022,45.5344 C50.9623111,43.3180089 53.1627733,40.37856 53.1627733,37.0590933 L53.1627733,37.0590933 Z M36.6018489,35.2170311 C35.8685511,35.2170311 35.1284267,34.4882845 35.1284267,33.7441778 C35.1284267,33.01088 35.8685511,32.2724622 36.6018489,32.2724622 C37.7145955,32.2724622 38.4439111,33.01088 38.4439111,33.7441778 C38.4439111,34.4882845 37.7145956,35.2170311 36.6018489,35.2170311 Z M44.6977067,35.2170311 C43.9695289,35.2170311 43.2350933,34.4882845 43.2350933,33.7441778 C43.2350933,33.01088 43.9695289,32.2724622 44.6977067,32.2724622 C45.8007822,32.2724622 46.5397689,33.01088 46.5397689,33.7441778 C46.5397689,34.4882845 45.8013511,35.2170311 44.6977067,35.2170311 Z" id="形状" fill="#FFFFFF" fill-rule="nonzero"></path>
                    </g>
                </g>
            </g>
        </g>
    </g>
</svg>