<?xml version="1.0" encoding="UTF-8"?>
<svg width="32px" height="32px" viewBox="0 0 32 32" version="1.1" xmlns="http://www.w3.org/2000/svg" xmlns:xlink="http://www.w3.org/1999/xlink">
    <!-- Generator: Sketch 61.2 (89653) - https://sketch.com -->
    <title>ic_xiadanlisong</title>
    <desc>Created with Sketch.</desc>
    <g id="🔪切图" stroke="none" stroke-width="1" fill="none" fill-rule="evenodd">
        <g id="icon" transform="translate(-1861.000000, -261.000000)" stroke="#FFA700">
            <g id="ic_xiadanlisong" transform="translate(1861.000000, 261.000000)">
                <g id="cutting/ic_xiadanlisong">
                    <g transform="translate(4.000000, 2.000000)">
                        <path d="M22.5370696,21.5902685 L12.9993557,27.2240926 C12.4579038,27.5367 11.7908075,27.5367 11.2493557,27.2240926 L0.875,21.2344555 C0.333548116,20.9218482 -7.99360578e-14,20.3441259 -7.99360578e-14,19.7189111 L-7.99360578e-14,7.73963703 C-7.99360578e-14,7.11442225 0.333548116,6.53669996 0.875,6.22409257 L11.2493557,0.234455543 C11.7908075,-0.0781518478 12.4579038,-0.0781518478 12.9993557,0.234455543 L23.3737113,6.22409257 C23.9151632,6.53669996 24.2487113,7.11442225 24.2487113,7.73963703 L24.2487113,15.6279158" id="路径" stroke-width="2" stroke-linecap="round" stroke-linejoin="round"></path>
                        <path d="M12.5736506,5.68723197 L6.03164871,11.8049958 C5.8299564,11.9936086 5.81935344,12.3100135 6.00796633,12.5117058 C6.08808269,12.5973779 6.19576871,12.6521565 6.31218921,12.6664603 L11.9852826,13.3634775 C12.259364,13.3971521 12.4542522,13.6466377 12.4205775,13.9207192 C12.4162892,13.9556222 12.4083307,13.9899754 12.3968343,14.0232086 L10.0584597,20.7827938 C9.9681817,21.0437622 10.1065536,21.3285037 10.367522,21.4187817 C10.5596,21.4852281 10.7727873,21.4287922 10.9068311,21.2760134 L18.6985051,12.3953094 C18.8806247,12.1877352 18.8599897,11.8718259 18.6524155,11.6897063 C18.5940706,11.6385161 18.5246091,11.6016123 18.4495314,11.5819171 L12.7058013,10.0751576 C12.4386967,10.0050877 12.2789686,9.73175387 12.3490384,9.46464934 C12.3512856,9.45608305 12.35376,9.44757798 12.356459,9.43914313 L13.3913794,6.20480709 C13.4755359,5.94180084 13.3305496,5.6603698 13.0675433,5.57621326 C12.8949581,5.52098956 12.7060015,5.56346381 12.5736506,5.68723197 Z" id="路径-2" stroke-width="2" opacity="0.497395833"></path>
                    </g>
                </g>
            </g>
        </g>
    </g>
</svg>