<?xml version="1.0" encoding="UTF-8"?>
<svg width="48px" height="48px" viewBox="0 0 48 48" version="1.1" xmlns="http://www.w3.org/2000/svg" xmlns:xlink="http://www.w3.org/1999/xlink">
    <!-- Generator: Sketch 61.2 (89653) - https://sketch.com -->
    <title>ic_xiaoxi</title>
    <desc>Created with Sketch.</desc>
    <g id="🔪切图" stroke="none" stroke-width="1" fill="none" fill-rule="evenodd">
        <g id="icon" transform="translate(-1963.000000, -525.000000)">
            <g id="ic_xiaoxi" transform="translate(1963.000000, 525.000000)">
                <g id="cutting/ic_xiaoxi">
                    <g>
                        <rect id="Rectangle-23" x="0" y="0" width="48" height="48"></rect>
                        <path d="M36.6673753,10.6272823 C33.2728893,7.63918461 28.7744019,6 23.9999243,6 C19.2194371,6 14.7209565,7.64518215 11.3324733,10.6272823 C9.70442649,12.0402235 8.37964451,13.7700114 7.43850275,15.7117056 C6.49105089,17.6699514 5.99920062,19.8182083 6.00000098,21.9946796 C6.00000098,24.5511802 6.69600842,27.0911533 8.00700249,29.3483792 C9.15449833,31.3183872 10.7789912,33.0808569 12.7289986,34.4764153 L12.7289986,39.7743818 C12.7306459,40.4796506 13.3005135,41.0509747 14.0039898,41.0526316 C14.2274801,41.0515205 14.4469576,40.9930159 14.6414871,40.8826995 L20.2334729,37.6449677 C21.4664688,37.8795641 22.7354606,37.9968612 23.9999453,37.9968612 C28.7789301,37.9968612 33.2789131,36.3501728 36.6673963,33.3695789 C38.2942728,31.9553053 39.6184129,30.2251785 40.5598653,28.2836486 C41.5153618,26.2925876 41.9999867,24.1782073 41.9999867,22.0006747 C42.0029548,19.8215633 41.5104282,17.6707219 40.5597394,15.7114218 C39.6185964,13.7704741 38.2944086,12.0408128 36.6673753,10.6272823 Z M20.3911175,34.6584963 C20.0917886,34.5942984 19.7792654,34.6441159 19.5147603,34.7981915 L15.5361984,37.0958894 L15.5361984,33.4579922 C15.5344598,33.0414074 15.3254431,32.6529927 14.9786597,32.4219241 C11.1806343,29.9335995 8.99991447,26.1458026 8.99991447,22.0291527 C8.99991447,14.8566744 15.7269183,9.0243921 23.9999145,9.0243921 C32.2670784,9.0243921 38.9999145,14.8566744 38.9999145,22.0291527 C38.9999145,29.2016311 32.2670784,35.0397433 23.9999145,35.0397433 C22.7829205,35.0397494 21.5659167,34.9102401 20.3911175,34.6584963 Z" id="形状" fill="#FFFFFF" fill-rule="nonzero"></path>
                        <path d="M13,23.5 L13,23.5 C13,24.8807117 14.1192883,26 15.5,26 C16.8807117,26 18,24.8807117 18,23.5 L18,23.5 C18,22.1192883 16.8807117,21 15.5,21 C14.1192883,21 13,22.1192883 13,23.5 C13,24.8820863 13,23.5 13,23.5 L13,23.5 Z" id="路径" fill="#D3D3DA" fill-rule="nonzero"></path>
                        <path d="M22,23.5 L22,23.5 C22,24.8807117 23.1192883,26 24.5,26 C25.8807117,26 27,24.8807117 27,23.5 L27,23.5 C27,22.1192883 25.8807117,21 24.5,21 C23.1192883,21 22,22.1192883 22,23.5 C22,24.8820863 22,23.5 22,23.5 L22,23.5 Z" id="路径" fill="#D3D3DA" fill-rule="nonzero"></path>
                        <path d="M31,23.4991492 L31,23.4991247 C30.9995233,24.8798428 32.1184254,25.9995224 33.4991368,26 C34.8798483,26.0004767 35.9995224,24.8815692 36,23.5008511 L36,23.5008753 C36.0004766,22.1201572 34.8815746,21.0004776 33.5008632,21 C32.1201517,20.9995234 31.0004776,22.1184308 31,23.4991489 L31,23.4991492 Z" id="路径" fill="#D3D3DA" fill-rule="nonzero"></path>
                    </g>
                </g>
            </g>
        </g>
    </g>
</svg>