<?xml version="1.0" encoding="UTF-8"?>
<svg width="48px" height="48px" viewBox="0 0 48 48" version="1.1" xmlns="http://www.w3.org/2000/svg" xmlns:xlink="http://www.w3.org/1999/xlink">
    <!-- Generator: Sketch 61.2 (89653) - https://sketch.com -->
    <title>ic_yushou</title>
    <desc>Created with Sketch.</desc>
    <defs>
        <linearGradient x1="50%" y1="0%" x2="50%" y2="100%" id="linearGradient-1">
            <stop stop-color="#FFFCF5" offset="0%"></stop>
            <stop stop-color="#FFE3AC" offset="100%"></stop>
        </linearGradient>
    </defs>
    <g id="🔪切图" stroke="none" stroke-width="1" fill="none" fill-rule="evenodd">
        <g id="icon" transform="translate(-2041.000000, -525.000000)" fill="url(#linearGradient-1)" fill-rule="nonzero">
            <g id="ic_yushou" transform="translate(2041.000000, 525.000000)">
                <g id="cutting/ic_yushou">
                    <path d="M11.2465509,13.7396576 C1.6094229,23.6353101 0.332262566,39.5766038 15.1395325,47.4155129 C16.3551923,48.0588834 17.3699506,47.6626488 18.1325567,46.8681372 C20.6540771,44.2456361 21.748786,40.3976672 21.4207833,35.3283154 C21.3285326,33.9312821 21.9537876,33.5677266 23.1919977,34.5235916 C26.7036762,37.2318754 28.9955947,41.4045933 28.9955947,45.8898055 C28.9955947,47.4155129 29.6085497,48.2222791 31.0374112,47.9465489 C40.4797877,46.1226444 51.9865309,32.6343288 39.5859805,12.8838726 C38.8438744,11.878989 37.7471156,11.878989 37.7655657,13.2596828 C37.7860659,14.9549132 37.5913143,16.6460588 37.183361,18.2922705 C36.9025087,19.4360405 35.8221499,19.4197009 35.5679479,18.2922705 C34.0222354,11.4316933 29.7254006,5.60050899 22.6753935,0.788505431 C20.7729781,-0.508447985 20.0821225,-0.110170943 19.6413689,1.28890476 C18.8869628,3.69082169 16.8328462,8.01059567 11.2465509,13.7396576 Z" id="路径"></path>
                </g>
            </g>
        </g>
    </g>
</svg>