<?xml version="1.0" encoding="UTF-8"?>
<svg width="64px" height="64px" viewBox="0 0 64 64" version="1.1" xmlns="http://www.w3.org/2000/svg" xmlns:xlink="http://www.w3.org/1999/xlink">
    <!-- Generator: Sketch 61.2 (89653) - https://sketch.com -->
    <title>ic_yiwancheng</title>
    <desc>Created with Sketch.</desc>
    <defs>
        <linearGradient x1="50%" y1="0%" x2="50%" y2="98.9548142%" id="linearGradient-1">
            <stop stop-color="#55C6FF" offset="0%"></stop>
            <stop stop-color="#0065FF" offset="100%"></stop>
        </linearGradient>
    </defs>
    <g id="🔪切图" stroke="none" stroke-width="1" fill="none" fill-rule="evenodd">
        <g id="icon" transform="translate(-822.000000, -720.000000)">
            <g id="ic_yiwancheng" transform="translate(822.000000, 720.000000)">
                <g id="cutting/ic_yiwancheng">
                    <g>
                        <rect id="矩形" x="-5.68434189e-14" y="0" width="64" height="64"></rect>
                        <path d="M10,32 C10,44.1513477 19.8486523,54 32,54 C44.1513477,54 54,44.1513477 54,32 C54,19.8486523 44.1513477,10 32,10 C19.8486523,10 10,19.8486523 10,32 Z M26.9214375,37.2467852 L40.9928008,23.1305625 L40.9928008,23.1305625 C41.5897699,22.5291074 42.5612891,22.5254723 43.1627441,23.1224426 C43.1671823,23.1268477 43.1715936,23.1312799 43.1759776,23.135739 L43.1759777,23.135739 C43.7799293,23.7391191 43.7814718,24.7175175 43.1794286,25.3227968 L27.7160067,40.8336562 L27.7160067,40.8336562 C27.424438,41.1473336 27.0149286,41.3247159 26.586672,41.3228487 C26.0302009,41.3228487 25.5168661,41.0251868 25.2407876,40.5420488 L18.3142251,33.5344042 L18.314225,33.5344041 C17.8906305,32.7946799 18.1469056,31.851619 18.8866332,31.4280244 C18.8876473,31.4274437 18.8886621,31.4268642 18.8896775,31.4262858 L18.8896774,31.4262858 C19.628654,31.0013841 20.5721618,31.255992 20.9970669,31.9949686 C20.9980324,31.9966477 20.9989947,31.9983287 20.9999538,32.0000114 L26.9213913,37.2467966 L26.9214375,37.2467852 Z" id="形状" fill="url(#linearGradient-1)" fill-rule="nonzero"></path>
                    </g>
                </g>
            </g>
        </g>
    </g>
</svg>