<?xml version="1.0" encoding="UTF-8"?>
<svg width="44px" height="44px" viewBox="0 0 44 44" version="1.1" xmlns="http://www.w3.org/2000/svg" xmlns:xlink="http://www.w3.org/1999/xlink">
    <!-- Generator: Sketch 61.2 (89653) - https://sketch.com -->
    <title>ic_yanzhengma_normal</title>
    <desc>Created with Sketch.</desc>
    <g id="ðŸ”ªåˆ‡å›¾" stroke="none" stroke-width="1" fill="none" fill-rule="evenodd">
        <g id="icon" transform="translate(-1249.000000, -424.000000)">
            <g id="ic_yanzhengma_normal" transform="translate(1249.000000, 424.000000)">
                <g id="cutting/ic_yanzhengma_normal">
                    <g id="éªŒè¯ç " stroke-width="1" fill-rule="evenodd" transform="translate(6.000000, 4.000000)">
                        <path d="M15.5,36 C14.4005356,36 13.3010713,35.6302952 12.3848509,35.0757381 L7.32976246,31.0089859 C2.74866093,27.8664955 0,22.690629 0,17.1450578 L0,8.45699616 C0,5.86906293 1.64919655,3.65083441 4.03136936,3.09627726 L14.0340475,0.138639267 C14.9502678,-0.0462130891 15.8664881,-0.0462130891 16.7827084,0.138639267 L26.7853866,3.09627726 C29.3508034,3.65083437 31,5.86906289 31,8.45699616 L31,17.1450578 C31,22.690629 28.2513391,27.8664955 23.6702375,31.0089859 L18.6151491,35.0757381 C17.6989288,35.6302952 16.5994644,36 15.5,36 Z M2.98635427,7.97253733 L2.98635427,17.1048831 C2.98635427,21.7682087 5.21292443,25.8486185 8.73832723,28.3745865 L14.3878666,32.7259338 C14.9445092,33.1145442 15.8722468,33.1145442 16.4288893,32.7259338 L22.2457061,28.3745865 C25.9566564,25.8486185 27.9976791,21.5739034 27.9976791,17.1048831 L27.9976791,7.97253733 C27.9976791,7.00101119 27.4410365,6.22379026 26.6988465,6.02948501 L15.8722468,2.92060134 L14.9445092,2.92060134 L4.28518686,6.02948501 C3.5429968,6.22379022 2.98635427,7.00101115 2.98635427,7.97253733 Z" id="å½¢çŠ¶" fill="#A8A8B6" fill-rule="nonzero"></path>
                        <polyline id="è·¯å¾„-2" stroke="#A8A8B6" stroke-width="3" opacity="0.5" stroke-linecap="round" stroke-linejoin="round" points="10 17.9392046 14.551242 21.8373536 22.134905 14"></polyline>
                    </g>
                    <rect id="cutting/ic_yanzhengma" x="0" y="0" width="44" height="44"></rect>
                </g>
            </g>
        </g>
    </g>
</svg>