<?xml version="1.0" encoding="UTF-8"?>
<svg width="120px" height="120px" viewBox="0 0 120 120" version="1.1" xmlns="http://www.w3.org/2000/svg" xmlns:xlink="http://www.w3.org/1999/xlink">
    <!-- Generator: Sketch 61.2 (89653) - https://sketch.com -->
    <title>ic_yiqiangguan</title>
    <desc>Created with Sketch.</desc>
    <g id="🔪切图" stroke="none" stroke-width="1" fill="none" fill-rule="evenodd">
        <g id="icon" transform="translate(-506.000000, -1966.000000)">
            <g id="ic_yiqiangguan" transform="translate(506.000000, 1966.000000)">
                <g id="ic_yiqiangguang">
                    <g id="已抢光">
                        <rect id="矩形" x="0" y="0" width="120" height="120"></rect>
                        <path d="M76.4529562,31.8508461 L77.0649914,29.6187176 L79.213115,28.4306492 L77.0889928,27.1945781 L76.5129596,24.9504489 L74.5928491,26.4145332 L72.1087061,26.1985208 L73.0327593,28.3346437 L72.0607034,30.458766 L74.5448463,30.3147577 L76.4529562,31.8508461 Z M81.9132704,75.3893285 C79.7651468,78.2094908 76.9569852,80.6696324 73.6087925,82.5417401 C65.8203442,86.8859901 56.7358682,87.0900019 49.0914048,83.8618161 L45.6112045,84.7618679 C54.4077108,89.4781393 65.4603938,89.7421545 74.7969077,84.5338548 C79.3091674,82.0137097 82.8853733,78.5215087 85.4055183,74.4892767 L81.9133173,75.3893285 L81.9132704,75.3893285 Z M79.9811592,87.0660005 L78.8050915,85.0618852 L77.4730149,87.0900019 L75.1208795,87.666035 L76.6089651,89.4661386 L76.3329493,91.8422754 L78.5770784,90.9182222 L80.7732048,91.8062733 L80.6771993,89.4421373 L82.3092932,87.6180323 L79.9811592,87.0660005 L79.9811592,87.0660005 Z M81.3132359,95.4784847 C64.1882268,105.031034 43.0790822,101.802849 29.7583156,88.8541034 L27.1301643,89.5381428 C41.1229228,103.962996 64.0082634,107.767239 82.501398,97.4585986 C93.7100431,91.2062388 101.078444,81.0056986 103.862627,69.7129783 L101.246477,70.3970177 C98.4023132,80.6096055 91.5379181,89.7781332 81.3133765,95.4784612 L81.3132359,95.4784847 Z M29.7702694,42.5194601 L31.5343709,44.0915506 L32.1824082,41.7394152 L34.2705284,40.4913434 L32.2784137,39.2072695 L31.8103868,36.8551341 L29.9142777,38.4152239 L27.5381409,38.2232128 L28.3661886,40.4553413 L27.3701312,42.6874698 L29.7702694,42.5194601 L29.7702694,42.5194601 Z M38.6747819,23.8103364 C55.7997909,14.2577867 76.9210065,17.4859724 90.2417732,30.4347177 L92.8699245,29.7506783 C78.877166,15.3258247 55.9918254,11.5215823 37.4986907,21.8302225 C26.278045,28.0825823 18.909574,38.2831225 16.1255075,49.5758428 L18.7416581,48.8918034 C21.5978225,38.6792156 28.4622175,29.510688 38.6747584,23.8103599 L38.6747819,23.8103364 Z M61.6680584,22.8622819 L59.9999624,21.2061866 L59.1239119,23.4143136 L56.8677821,24.4583737 L58.7878926,25.8384532 L59.0519078,28.1425858 L61.1280273,26.7985084 L63.5401661,27.1705298 L62.8921288,24.9384014 L64.1282,22.8622819 L61.6680584,22.8622819 L61.6680584,22.8622819 Z M34.5945002,44.811592 L38.0747473,43.9115402 C40.2348717,41.0673765 43.0430333,38.6192356 46.391226,36.7591286 C54.1796742,32.4148785 63.2641502,32.2108668 70.9086136,35.4390526 L74.3888139,34.5390008 C65.5923077,29.8227294 54.5396247,29.5587142 45.2031107,34.7670139 C40.6788503,37.287159 37.1026445,40.77936 34.5945002,44.811592 L34.5945002,44.811592 Z M42.7310153,30.6147984 L43.9190837,32.6309144 L45.2631611,30.590797 L47.6392978,30.0027632 L46.1512122,28.2026595 L46.4272281,25.8265228 L44.1590975,26.7625767 L41.9509704,25.8745256 L42.046976,28.2506623 L40.4028813,30.0747673 L42.7310153,30.6147984 L42.7310153,30.6147984 Z M119.835453,58.4564008 L112.503031,31.8268213 C111.830992,29.3786804 109.226842,27.9145961 106.694697,28.5746341 L3.52473541,55.2042136 C0.992589673,55.8642516 -0.519497354,58.3843966 0.164542015,60.8205368 L7.49696403,87.4501164 C8.1690027,89.8982573 10.7731526,91.3623415 13.3052983,90.7023035 L116.487213,64.072724 C119.007358,63.4246867 120.519445,60.9045417 119.835406,58.4564008 L119.835453,58.4564008 Z M114.723159,62.1526135 L13.8453997,88.1941123 C11.9492906,88.6861406 9.99317801,87.5820771 9.489149,85.7579721 L2.75676152,61.3485204 C2.25273251,59.5124147 3.39279813,57.6163056 5.27690657,57.1362779 L106.166737,31.0947791 C108.062846,30.6027508 110.006958,31.7068144 110.510987,33.54292 L117.243374,57.9403008 C117.747403,59.7644057 116.607338,61.6725156 114.723229,62.1525432 L114.723159,62.1526135 Z M61.788159,95.7305226 L63.456255,97.3866179 L64.3323054,95.1904915 L66.5764346,94.1464314 L64.6563241,92.766352 L64.3923089,90.4622194 L62.3161894,91.8062968 L59.9160513,91.4342754 L60.5640886,93.6664038 L59.3520188,95.7305226 L61.788159,95.7305226 Z M43.7030947,87.3540405 L42.9470512,89.5381662 L40.7389241,90.5702256 L42.7430395,91.9263037 L43.1390623,94.1944342 L45.1551783,92.8743582 L47.6153199,93.2463796 L46.8472757,91.0502533 L47.9633399,89.0101358 L45.4791969,88.9861345 L43.7030947,87.3540405 L43.7030947,87.3540405 Z M91.9698961,75.8333775 L90.2057946,74.261287 L89.5817587,76.589421 L87.5056392,77.8254921 L89.4857531,79.0975653 L89.9777815,81.4377 L91.8378885,79.9016116 L94.2020246,80.0936227 L93.3739769,77.8734949 L94.3460329,75.6653678 L91.9698961,75.8333775 L91.9698961,75.8333775 Z M40.3669261,66.8328594 C40.6789441,69.0769886 40.8589545,70.5410729 40.9069572,71.2131115 C40.95496,71.8971509 40.7629489,72.4251813 40.3309241,72.8092034 C39.8988992,73.1932255 39.2748633,73.4932428 38.4588163,73.6972545 L28.7022548,76.2414009 C27.0461595,76.6734258 25.9900987,76.0133878 25.5220718,74.261287 L24.2860006,69.5810176 L40.8469538,65.260769 L37.5227624,52.6360189 L16.389593,58.1443359 L17.3256469,61.7085411 L34.5585918,57.2202828 L36.0106754,62.7165991 L23.3499467,66.016789 L22.6899088,63.496644 L18.8136857,64.504702 L21.7538549,75.641343 C22.7739136,79.5295668 25.1500503,80.9816503 28.8942658,80.0095944 L40.2469192,77.0454238 C41.8430111,76.6253996 43.0430802,76.0373658 43.8351258,75.2573209 C44.6271713,74.477276 45.0231941,73.50522 45.0114582,72.341153 C44.9991927,71.177086 44.9151879,69.4969893 44.7831803,67.3008629 C43.5471092,67.2528602 42.0710242,67.0968512 40.3669261,66.832836 L40.3669261,66.8328594 Z M71.9767923,62.1285887 C70.8367267,62.116588 69.6246569,62.0565845 68.3285823,61.9725797 C68.4605899,62.6806205 68.6045982,63.7486819 68.7486065,65.1767641 C68.8926148,66.268827 68.3165816,66.9888684 67.020507,67.3248878 L62.2562328,68.5609589 C60.9961603,68.8849775 60.2281161,68.5129561 59.9521002,67.432894 L57.7559738,59.0804133 L63.9603309,57.46032 C64.1283406,58.1923621 64.2963503,58.9244043 64.4523592,59.6444457 C64.7043737,60.952521 64.2843496,61.7445666 63.180286,62.0325832 C62.4962466,62.2125935 61.3921831,62.4406066 59.844094,62.7406239 C60.5401341,64.0366985 61.0441631,65.0447565 61.3321797,65.7407966 C62.3162363,65.5247842 63.5043047,65.2127662 64.8843841,64.8167434 C67.5365367,64.0486992 68.496592,62.0325832 67.7885512,58.7443939 C67.6565436,58.1443594 67.3805278,56.9682917 66.9725043,55.2041902 C67.5005347,55.4322033 68.0285651,55.6482157 68.5565954,55.8162254 C68.7846086,54.5681536 69.0846258,53.3320824 69.4566472,52.108012 C66.1924594,51.0519512 62.988275,49.1918441 59.8200926,46.5276908 C59.8800961,46.1916715 59.9400995,45.8796535 59.9881023,45.5916369 L56.2438868,46.5636929 C55.1518239,50.8479394 53.327719,54.7001612 50.7595712,58.120358 C51.659623,58.6843905 52.3916651,59.1884195 52.9676982,59.632445 C52.199654,60.0404685 51.4796126,60.4124899 50.8075739,60.7485093 L49.7035104,56.5602682 L52.0796471,55.9362323 L51.191596,52.5520375 L48.8154593,53.1760734 L47.6393916,48.7238172 L44.2671975,49.5998676 L45.4432652,54.0521239 L42.6231029,54.784166 L43.511154,58.1683608 L46.3313163,57.4363186 L47.6273909,62.3566018 C46.4273218,62.968637 45.4072631,63.4606654 44.5552141,63.8566881 L45.8992914,67.4808967 C46.8593467,66.928865 47.7473978,66.424836 48.5754455,65.9448083 L49.7875152,70.5530736 C50.0035276,71.3811212 49.835518,71.8851502 49.2594848,72.0531599 C48.7194537,72.1971682 48.011413,72.3531772 47.1473633,72.5211868 C47.9634102,73.9012663 48.5634448,75.0053298 48.9714682,75.8333775 C50.0515304,75.5333602 51.0715891,75.1853402 52.0436451,74.7773167 C53.51973,74.1292794 53.9997576,72.8812075 53.51973,71.0211005 L51.7196264,64.1807068 C52.5356734,63.7246806 53.2437141,63.3406584 53.86775,63.0046391 C53.6517376,62.2605963 53.3997231,61.1685334 53.0877051,59.7284506 C53.2557148,59.8484575 53.3997231,59.9684644 53.5437314,60.0764706 C53.7477431,59.8004547 53.9637556,59.5124381 54.179768,59.2124209 L56.855922,69.3890066 C57.4919586,71.8131461 59.1000512,72.7011972 61.6922004,72.0291585 L68.2565782,70.3130597 C71.0287377,69.5930183 72.3608144,68.0449292 72.2408075,65.6807931 C72.180804,64.3847185 72.0847985,63.1966502 71.9767923,62.1285887 L71.9767923,62.1285887 Z M55.9078206,56.4402613 C57.0358855,54.4001439 57.9959408,52.2760216 58.8119877,50.0678945 C60.624092,51.639985 62.604206,52.9960631 64.7523296,54.1361287 L55.9078206,56.4402613 Z M94.1540452,53.3920859 C94.6580743,56.3202544 94.8740867,58.120358 94.7780812,58.7923967 C94.6820756,59.4644354 94.2860528,59.8964602 93.5660114,60.0764706 L92.9419755,60.2444803 C92.0059216,60.4844941 91.3818857,60.0524692 91.0938691,58.9484057 L89.3777704,52.4200299 L97.0942145,50.4039139 L96.1461599,46.791706 L85.4175424,49.5878669 L82.7773905,39.5672902 L78.8051619,40.5993496 L81.4453138,50.6199263 L70.9207081,53.3560838 L71.8687626,56.9802924 L78.2891322,55.3001957 C79.5132026,59.4884367 78.0131163,63.0766433 73.7888731,66.0768159 C74.9049374,66.6528491 76.1290078,67.4448947 77.4610845,68.4289513 C82.369367,65.1287614 84.0134616,60.4004892 82.4053691,54.2321577 L85.5015473,53.4281114 L87.4336585,60.7725341 C88.1777013,63.6166978 89.9658042,64.6727586 92.7739658,63.9407164 L95.3061116,63.2806784 C96.8662013,62.872655 97.9102614,62.2006163 98.4262911,61.2525617 C98.9423208,60.3045071 98.9063188,57.7603607 98.2942835,53.596121 C97.1662186,53.5721197 95.7861392,53.5001155 94.1540452,53.3921093 L94.1540452,53.3920859 Z M93.4340038,40.8633179 L89.4857766,39.3392302 C88.3337103,42.1593925 87.2056453,44.4635251 86.1135825,46.251628 L89.6297849,47.9437254 C90.6018408,46.4196377 91.873914,44.0555016 93.4340038,40.8633179 L93.4340038,40.8633179 Z M79.2131853,47.7997171 C77.521088,46.6236494 75.3609636,45.2675714 72.708811,43.7074816 L70.3926777,46.6836529 C72.2647854,47.8477199 74.3649063,49.2878028 76.6810396,51.0279029 L79.2131853,47.7997171 Z" id="形状" fill="#FFFFFF" fill-rule="nonzero"></path>
                    </g>
                </g>
            </g>
        </g>
    </g>
</svg>