<?xml version="1.0" encoding="UTF-8"?>
<svg width="36px" height="36px" viewBox="0 0 36 36" version="1.1" xmlns="http://www.w3.org/2000/svg" xmlns:xlink="http://www.w3.org/1999/xlink">
    <!-- Generator: Sketch 61.2 (89653) - https://sketch.com -->
    <title>ic_zhaungshi_right</title>
    <desc>Created with Sketch.</desc>
    <g id="🔪切图" stroke="none" stroke-width="1" fill="none" fill-rule="evenodd">
        <g id="icon" transform="translate(-453.000000, -332.000000)">
            <g id="ic_zhaungshi_right" transform="translate(453.000000, 332.000000)">
                <g id="cutting/ic_zhaungshi_right">
                    <g id="cutting/ic_zhaungshi" stroke-width="1" fill-rule="evenodd" transform="translate(0.000000, 6.000000)" fill="#FFA700">
                        <path d="M24.7071068,0.707106781 L35.2928932,11.2928932 C35.6834175,11.6834175 35.6834175,12.3165825 35.2928932,12.7071068 L24.7071068,23.2928932 C24.3165825,23.6834175 23.6834175,23.6834175 23.2928932,23.2928932 L12.7071068,12.7071068 C12.3165825,12.3165825 12.3165825,11.6834175 12.7071068,11.2928932 L23.2928932,0.707106781 C23.6834175,0.316582489 24.3165825,0.316582489 24.7071068,0.707106781 Z" id="多边形" opacity="0.501046317"></path>
                        <path d="M12.7071068,0.707106781 L23.2928932,11.2928932 C23.6834175,11.6834175 23.6834175,12.3165825 23.2928932,12.7071068 L12.7071068,23.2928932 C12.3165825,23.6834175 11.6834175,23.6834175 11.2928932,23.2928932 L0.707106781,12.7071068 C0.316582489,12.3165825 0.316582489,11.6834175 0.707106781,11.2928932 L11.2928932,0.707106781 C11.6834175,0.316582489 12.3165825,0.316582489 12.7071068,0.707106781 Z" id="多边形备份"></path>
                    </g>
                    <rect x="0" y="0" width="36" height="36"></rect>
                </g>
            </g>
        </g>
    </g>
</svg>