<?xml version="1.0" encoding="UTF-8"?>
<svg width="24px" height="24px" viewBox="0 0 24 24" version="1.1" xmlns="http://www.w3.org/2000/svg" xmlns:xlink="http://www.w3.org/1999/xlink">
    <!-- Generator: Sketch 61.2 (89653) - https://sketch.com -->
    <title>ic_zhekou</title>
    <desc>Created with Sketch.</desc>
    <g id="🔪切图" stroke="none" stroke-width="1" fill="none" fill-rule="evenodd">
        <g id="icon" transform="translate(-538.000000, -113.000000)">
            <g id="ic_zhekou" transform="translate(538.000000, 113.000000)">
                <g id="cutting/ic_zhekou">
                    <g stroke-width="1" fill-rule="evenodd" transform="translate(4.000000, 4.000000)" fill="#FF5230" id="形状">
                        <path d="M15.8118621,4.01062069 C15.8118621,4.78303448 15.8096552,5.55324138 15.8118621,6.32565517 C15.814069,6.76041379 15.6662069,7.12675862 15.4102069,7.48206897 C15.1652414,7.82193103 14.8673103,8.10441379 14.576,8.39572414 C12.2830345,10.6953103 9.98565517,12.9926897 7.68827586,15.290069 C7.15641379,15.821931 6.36413793,15.9609655 5.69986207,15.6255172 C5.54096552,15.546069 5.38868966,15.4357241 5.26289655,15.309931 C3.67172414,13.7275862 2.08496552,12.1408276 0.498206897,10.5518621 C-0.157241379,9.89641379 -0.161655172,8.81062069 0.493793103,8.15737931 C2.97434483,5.6702069 5.45489655,3.18524138 7.94427586,0.711310345 C8.24662069,0.408965517 8.59531034,0.141931034 9.03668966,0.0470344828 C9.15806897,0.0205517241 9.28386207,0.00510344828 9.40965517,0.00510344828 C11.0052414,0.00289655172 12.5986207,0.00289655172 14.1942069,0.00289655172 C15.0946207,0.00289655172 15.8008276,0.693655172 15.8096552,1.59406897 C15.8184828,2.4017931 15.8118621,3.20731034 15.8118621,4.01062069 C15.8118621,4.01062069 15.8118621,4.01062069 15.8118621,4.01062069 L15.8118621,4.01062069 L15.8118621,4.01062069 Z M14.7415172,4.00841379 L14.7415172,3.67517241 C14.7415172,2.99544828 14.7437241,2.31572414 14.7415172,1.6382069 C14.7393103,1.30055172 14.5208276,1.07103448 14.1942069,1.07103448 C12.5986207,1.06882759 11.0052414,1.06882759 9.40965517,1.07324138 C9.32137931,1.07324138 9.21986207,1.09310345 9.14703448,1.13944828 C8.97489655,1.2497931 8.79834483,1.36455172 8.65489655,1.508 C6.19862069,3.95765517 3.74455172,6.41172414 1.29268966,8.8657931 C0.999172414,9.15931034 1.00137931,9.54331034 1.29489655,9.83682759 C2.85296552,11.3948966 4.41544828,12.9485517 5.96468966,14.5154483 C6.22951724,14.7846897 6.69296552,14.7846897 6.9577931,14.5176552 C8.98593103,12.474069 11.0295172,10.445931 13.0576552,8.40234483 C13.5674483,7.88813793 14.1302069,7.42248276 14.5583448,6.82662069 C14.6731034,6.66772414 14.7437241,6.51765517 14.7437241,6.32344828 C14.7393103,5.55103448 14.7415172,4.78082759 14.7415172,4.00841379 L14.7415172,4.00841379 L14.7415172,4.00841379 Z" fill-rule="nonzero"></path>
                        <path d="M9.39860546,4.27324138 C9.40303448,3.09255172 10.3674483,2.13255172 11.545931,2.13695036 C12.7222069,2.14137931 13.6755862,3.10137931 13.6733831,4.27765517 C13.6711724,5.46717241 12.7133793,6.41613793 11.5194483,6.40955167 C10.3497931,6.40510345 9.3942069,5.44068966 9.39860546,4.27324138 L9.39860546,4.27324138 L9.39860546,4.27324138 Z M10.4711648,4.27103448 C10.4689655,4.86027586 10.9478621,5.34358621 11.5371034,5.34358621 C12.1197241,5.34358621 12.6008276,4.86689655 12.6052491,4.28427586 C12.6074483,3.69282759 12.1351724,3.21172414 11.5437241,3.20510345 C10.9566897,3.20068966 10.4733793,3.6817931 10.4711648,4.27103448 L10.4711648,4.27103448 L10.4711648,4.27103448 Z" fill-rule="nonzero"></path>
                    </g>
                    <rect x="0" y="0" width="24" height="24"></rect>
                </g>
            </g>
        </g>
    </g>
</svg>