<?xml version="1.0" encoding="UTF-8"?>
<svg width="120px" height="120px" viewBox="0 0 120 120" version="1.1" xmlns="http://www.w3.org/2000/svg" xmlns:xlink="http://www.w3.org/1999/xlink">
    <!-- Generator: Sketch 61.2 (89653) - https://sketch.com -->
    <title>img_touxiang_default</title>
    <desc>Created with Sketch.</desc>
    <defs>
        <linearGradient x1="50%" y1="100%" x2="50%" y2="0%" id="linearGradient-1">
            <stop stop-color="#D5D8E2" offset="0%"></stop>
            <stop stop-color="#F1F3F6" offset="100%"></stop>
        </linearGradient>
    </defs>
    <g id="ðŸ”ªåˆ‡å›¾" stroke="none" stroke-width="1" fill="none" fill-rule="evenodd">
        <g id="icon" transform="translate(-691.000000, -1966.000000)">
            <g id="img_touxiang_default" transform="translate(691.000000, 1966.000000)">
                <g>
                    <g fill="#F7F8FA" id="æ¤­åœ†å½¢">
                        <circle cx="60" cy="60" r="60"></circle>
                    </g>
                    <g id="ç¼–ç»„" transform="translate(26.000000, 20.000000)">
                        <path d="M36.4711706,18.8032712 C38.3081181,18.8032712 39.8110751,19.8052426 40.6460513,21.3081996 C55.5086265,22.1431758 67.1982924,34.1668321 67.8662734,49.0294074 L67.8662734,49.0294074 L67.8662734,61.3870542 C67.8662734,66.5639063 63.8583879,70.9057822 58.8485311,71.4067679 L58.8485311,71.4067679 L9.08395328,71.4067679 C4.07409646,70.738787 0.233206226,66.5639063 0.233206226,61.3870542 L0.233206226,61.3870542 L0.233206226,53.3712833 C0.0662109984,52.3693119 0.0662109984,51.3673406 0.0662109984,50.3653692 L0.0669841244,49.8643835 C0.0708497547,49.0294074 0.0940435363,48.1944313 0.233206226,47.3594551 C1.56916805,33.331856 12.9248435,22.310171 26.9524426,21.3081996 C27.6204235,19.8052426 29.2903758,18.8032712 31.1273233,18.8032712 L31.1273233,18.8032712 Z M26.4514569,7.1136053 C31.628309,6.94661007 33.7992469,18.4692808 33.4652565,17.4673094 C31.7953042,13.4594239 29.1233806,12.1234621 26.7854474,11.4554812 C25.4494856,10.9544955 24.6145094,10.4535098 24.6145094,9.28454325 C24.6145094,8.11557666 25.2824903,7.1136053 26.4514569,7.1136053 Z M38.4751133,0.266800969 C39.6440799,-0.0671894861 40.479056,0.600791424 40.8130465,1.76975802 C41.147037,2.93872461 40.479056,3.60670552 39.3100895,4.44168166 C37.3061467,5.77764348 34.9682135,7.61459098 34.4672279,11.9564669 C34.3002326,13.1254335 33.4652565,1.43576756 38.4751133,0.266800969 Z" id="å½¢çŠ¶ç»“åˆ" fill="url(#linearGradient-1)" fill-rule="nonzero"></path>
                        <path d="M51.5007411,71.2397726 L52.168722,71.2397726 C52.168722,71.2397726 52.168722,71.0727774 52.168722,71.0727774 C52.0017267,71.2397726 51.6677363,71.2397726 51.5007411,71.2397726 Z" id="è·¯å¾„" fill="#86B34D" fill-rule="nonzero"></path>
                        <path d="M26.9524426,21.1412044 C22.7775619,21.4751949 18.7696765,22.6441615 15.2627767,24.6481042 C18.7696765,22.8111567 22.6105667,21.4751949 26.9524426,21.1412044 C26.7854474,21.1412044 26.9524426,21.1412044 26.9524426,21.1412044 Z" id="è·¯å¾„" fill="#6FCFEB" fill-rule="nonzero"></path>
                        <path d="M40.9800417,21.3081996 C40.8130465,21.3081996 40.6460513,21.3081996 40.479056,21.3081996 C40.479056,21.3081996 40.479056,21.3081996 40.479056,21.3081996 C40.6460513,21.3081996 40.8130465,21.3081996 40.9800417,21.3081996 Z" id="è·¯å¾„" fill="#6FCFEB" fill-rule="nonzero"></path>
                        <g transform="translate(3.741084, 46.357484)" fill-rule="nonzero">
                            <circle id="æ¤­åœ†å½¢" fill="#FFFFFF" cx="6.51183538" cy="6.51281387" r="6.34581864"></circle>
                            <path d="M6.51183538,6.51281387 L2.00296424,2.00394273 C0.83399765,3.17290932 0.16601674,4.67586637 0.16601674,6.51281387 C0.16601674,10.0197136 3.00493561,12.8586325 6.51183538,12.8586325 C10.0187352,12.8586325 12.857654,10.0197136 12.857654,6.51281387 C12.857654,4.8428616 12.1896731,3.17290932 11.0207065,2.00394273 L6.51183538,6.51281387 Z" id="è·¯å¾„" fill="#535050"></path>
                        </g>
                        <g transform="translate(51.567931, 46.357484)" fill-rule="nonzero">
                            <circle id="æ¤­åœ†å½¢" fill="#FFFFFF" cx="6.44562439" cy="6.51281387" r="6.34581864"></circle>
                            <path d="M6.44562439,6.51281387 L1.93675324,2.00394273 C0.767786651,3.17290932 0.0998057414,4.67586637 0.0998057414,6.51281387 C0.0998057414,10.0197136 2.93872461,12.8586325 6.44562439,12.8586325 C9.95252416,12.8586325 12.791443,10.0197136 12.791443,6.51281387 C12.791443,4.8428616 12.1234621,3.17290932 10.9544955,2.00394273 L6.44562439,6.51281387 Z" id="è·¯å¾„" fill="#535050"></path>
                        </g>
                        <g opacity="0.8" transform="translate(42.816989, 24.181692)" fill="#FFFFFF" fill-rule="nonzero" id="è·¯å¾„">
                            <g transform="translate(7.080989, 2.938725)">
                                <path d="M8.28257189,9.55134422 C7.78158621,9.55134422 7.28060052,9.38434899 7.1136053,8.88336331 C5.44365302,6.54543013 3.27271506,4.37449217 0.767786651,2.87153512 C0.0998057414,2.53754467 -0.0671894861,1.5355733 0.266800969,0.867592393 C0.600791424,0.199611483 1.60276279,0.0326162554 2.2707437,0.36660671 C5.10966257,2.20355421 7.61459098,4.5414874 9.45153848,7.21341104 C9.95252416,7.88139195 9.78552893,8.71636808 9.11754803,9.21735377 C8.9505528,9.38434899 8.61656234,9.55134422 8.28257189,9.55134422 Z"></path>
                            </g>
                            <g>
                                <path d="M3.84089023,3.47232655 C3.673895,3.47232655 3.50689978,3.47232655 3.33990455,3.47232655 C2.67192364,3.30533132 2.00394273,3.13833609 1.33596182,2.97134086 C0.500985682,2.80434564 6.66688926e-14,1.9693695 0.166995227,1.30138859 C0.333990455,0.466412452 1.16896659,-0.0345732307 1.8369475,0.132421997 C2.50492841,0.299417224 3.33990455,0.466412452 4.00788546,0.800402907 C4.8428616,1.13439336 5.17685205,1.80237427 5.00985682,2.63735041 C5.00985682,3.13833609 4.50887114,3.47232655 3.84089023,3.47232655 Z"></path>
                            </g>
                        </g>
                        <path d="M22.4435715,66.5639063 C21.4416001,66.5639063 20.4396288,66.5639063 19.6046526,66.396911 C17.9347003,66.2299158 16.5987385,65.3949397 15.4297719,64.893954 C13.7598197,64.0589779 12.4238578,63.2240017 10.4199151,63.8919826 L10.0859246,62.723016 C12.5908531,62.0550351 14.2608053,63.0570065 15.9307576,63.8919826 C17.0997242,64.5599635 18.2686908,65.2279445 19.7716478,65.3949397 C22.2765763,65.7289301 25.4494856,65.3949397 28.6223949,65.2279445 C30.4593424,65.0609492 32.2962899,65.0609492 33.7992469,64.893954 L33.7992469,64.893954 L34.1332374,64.893954 C35.8031897,64.893954 37.8071324,65.0609492 39.8110751,65.0609492 C42.9839845,65.2279445 46.323889,65.3949397 48.8288174,65.2279445 C50.4987697,65.0609492 51.5007411,64.3929683 52.5027124,63.7249874 C53.8386742,62.8900113 55.3416313,61.8880399 57.8465597,62.5560208 L57.5125692,63.7249874 C55.5086265,63.2240017 54.5066552,63.8919826 53.0036981,64.7269588 C51.8347315,65.3949397 50.6657649,66.2299158 48.8288174,66.396911 C46.323889,66.5639063 42.9839845,66.396911 39.6440799,66.2299158 C37.473142,66.0629206 35.4691992,66.0629206 33.7992469,66.0629206 C32.2962899,66.0629206 30.4593424,66.2299158 28.6223949,66.396911 C26.6184522,66.5639063 24.4475142,66.5639063 22.4435715,66.5639063 Z" id="è·¯å¾„" fill="#535050" fill-rule="nonzero"></path>
                        <circle id="æ¤­åœ†å½¢" fill="#FFFFFF" fill-rule="nonzero" cx="58.0135549" cy="63.390997" r="2.17093796"></circle>
                        <circle id="æ¤­åœ†å½¢" fill="#FFFFFF" fill-rule="nonzero" cx="10.0859246" cy="63.390997" r="2.17093796"></circle>
                    </g>
                </g>
            </g>
        </g>
    </g>
</svg>