<?xml version="1.0" encoding="UTF-8"?>
<svg width="160px" height="160px" viewBox="0 0 160 160" version="1.1" xmlns="http://www.w3.org/2000/svg" xmlns:xlink="http://www.w3.org/1999/xlink">
    <!-- Generator: Sketch 61.2 (89653) - https://sketch.com -->
    <title>img_yishixiao</title>
    <desc>Created with Sketch.</desc>
    <defs>
        <rect id="path-1" x="0" y="0" width="160" height="149.333333"></rect>
    </defs>
    <g id="🔪切图" stroke="none" stroke-width="1" fill="none" fill-rule="evenodd">
        <g id="icon" transform="translate(-255.000000, -1966.000000)">
            <g id="ic_yishixiao" transform="translate(255.000000, 1966.000000)">
                <g id="cutting/ic_yishixiao">
                    <g id="cutting/img_couponbg_canuse" transform="translate(0.000000, 5.000000)">
                        <mask id="mask-2" fill="white">
                            <use xlink:href="#path-1"></use>
                        </mask>
                        <g id="Rectangle"></g>
                        <path d="M144.487689,82.4484386 L147.998546,81.4732005 C145.072832,108.389772 125.763118,132.380629 97.8713081,139.792439 C69.9794987,147.204248 41.3074987,136.281581 25.3135939,114.436248 L28.8244511,113.46101 C44.2332129,133.550915 70.9547368,143.693391 97.0911177,136.671677 C123.032451,129.649962 141.366927,107.609581 144.487689,82.4484386 M141.366927,83.228629 C137.85607,106.634343 120.69188,127.114343 96.1158796,133.550915 C71.7349272,140.182534 46.768832,131.015296 31.9452129,112.485772 L31.9452129,112.485772 L33.5055939,112.095677 C47.9391177,129.84501 72.1250225,138.427105 95.920832,131.990534 C119.521594,125.74901 136.100641,106.244248 139.806546,83.6187244 L139.806546,83.6187244 Z M123.227499,88.2998672 C118.546356,102.343296 107.233594,113.851105 91.824832,117.947105 C76.41607,122.043105 60.8122605,117.752058 49.8895939,107.804629 L49.8895939,107.804629 L51.8400701,107.219486 C62.3726416,116.191677 77.0012129,120.092629 91.4347368,116.386724 C105.868261,112.68082 116.59588,101.953201 121.277023,88.8850101 L121.277023,88.8850101 Z M140.391689,37.5874862 C141.95207,38.5627244 143.122356,39.9280577 143.512451,41.6834862 L151.314356,70.5505338 C152.289594,74.061391 150.14407,77.7672957 146.633213,78.7425338 L25.1185463,111.315486 C24.5334035,111.510534 23.9482605,111.510534 23.3631177,111.510534 C20.4374035,111.510534 17.7067368,109.560058 16.9265463,106.634343 L9.12464146,77.7672957 C8.14940333,74.2564385 10.2949272,70.5505338 13.8057844,69.5752957 L135.320451,37.0023434 C137.07588,36.6122482 138.831308,36.8072958 140.391689,37.5874862 Z M86.7535939,100.587867 L89.2892129,103.123486 L92.8000701,102.733391 L91.0446415,105.854153 L92.4099748,109.169962 L88.8991177,108.58482 L86.1684511,110.925391 L85.7783559,107.414534 L82.8526415,105.464058 L85.9734035,104.098724 L86.7535939,100.587867 Z M72.3200701,102.343296 L73.6854035,104.098724 L75.8309272,103.903677 L74.8556892,105.659105 L75.6358796,107.609581 L73.4903559,107.219486 L71.9299748,108.58482 L71.7349272,106.439296 L69.7844511,105.464058 L71.7349272,104.48882 L72.3200701,102.343296 Z M137.270927,39.9280577 C136.880832,39.9280577 136.685784,39.9280577 136.295689,40.1231053 L14.7810225,72.6960577 C12.8305464,73.2812005 11.6602607,75.2316768 12.2454035,76.9871053 L20.0473081,105.854153 C20.6324509,107.804629 22.5829272,108.779867 24.3383559,108.389772 L145.853023,75.8168196 C147.803499,75.2316768 148.973784,73.2812005 148.388641,71.525772 L140.586737,42.6587244 C140.391689,41.6834862 139.806546,40.9032958 139.026356,40.5132005 C138.441213,40.1231053 137.85607,39.9280577 137.270927,39.9280577 Z M101.187118,94.7364386 L102.747499,96.2968196 L104.893023,96.101772 L103.722737,97.8572005 L104.697975,99.8076768 L102.552451,99.4175814 L100.99207,100.977962 L100.601975,98.8324386 L98.8465463,97.6621529 L100.797023,96.6869148 L101.187118,94.7364386 Z M62.9577844,9.50062903 C90.8495939,1.89377196 119.521594,13.0114862 135.515499,34.8568196 L135.515499,34.8568196 L132.004641,35.8320577 C116.59588,15.5471053 89.8743557,5.59967676 63.7379748,12.621391 C37.601594,19.6431052 19.4621653,41.6834862 16.1463559,66.844629 L16.1463559,66.844629 L12.6354987,67.8198672 C15.5612129,40.7082481 34.8709272,16.9124386 62.9577844,9.50062903 Z M64.5181653,15.5471053 C89.0941653,8.91548623 114.060261,18.0827244 128.688832,36.6122481 L128.688832,36.6122481 L127.128451,37.0023434 C112.694927,19.2530101 88.5090225,10.6709148 64.9082605,17.1074862 C41.3074987,23.3490101 24.7284511,42.853772 21.0225463,65.4792957 L21.0225463,65.4792957 L19.4621653,65.869391 C22.9730225,42.4636768 40.1372129,22.1787244 64.5181653,15.5471053 Z M68.8092129,31.3459624 C84.2179749,27.2499625 99.8217844,31.5410101 110.744451,41.4884386 L110.744451,41.4884386 L108.793975,42.0735814 C98.2614033,32.9063434 83.6328319,29.3954862 69.1993081,33.101391 C54.7657844,36.8072958 44.0381653,47.5349148 39.3570225,60.6031053 L39.3570225,60.6031053 L37.4065463,61.1882481 C42.0876892,47.1448196 53.4004511,35.4419624 68.8092129,31.3459624 Z M57.8865463,48.1200577 L59.2518796,49.8754862 L61.3974035,49.8754862 L60.0320701,51.6309148 L60.8122605,53.7764386 L58.6667368,53.1912957 L56.9113081,54.3615814 L56.9113081,52.2160577 L55.1558796,51.045772 L57.3014035,50.2655814 L57.8865463,48.1200577 Z M69.9794987,38.5627244 L72.3200701,41.0983434 L75.8309272,40.9032957 L74.0754987,44.0240577 L75.440832,47.3398672 L72.1250225,46.5596768 L69.3943559,48.9002481 L69.0042605,45.389391 L65.8834987,43.6339624 L69.1993081,42.0735814 L69.9794987,38.5627244 Z M86.9486415,40.5132005 L88.1189272,42.0735814 L90.4594987,42.268629 L89.0941653,44.0240577 L89.6793081,45.9745338 L87.728832,45.389391 L85.9734035,46.5596768 L85.9734035,44.4141529 L84.2179748,43.2438672 L86.1684511,42.4636768 L86.9486415,40.5132005 Z" id="Combined-Shape" fill="#E5E5E5" fill-rule="nonzero" mask="url(#mask-2)"></path>
                        <text id="已失效" mask="url(#mask-2)" transform="translate(80.457179, 73.720851) rotate(-15.000000) translate(-80.457179, -73.720851) " font-family="PingFangSC-Semibold, PingFang SC" font-size="32" font-weight="500" fill="#E5E5E5">
                            <tspan x="32.4571795" y="85.220851">已失效</tspan>
                        </text>
                    </g>
                </g>
            </g>
        </g>
    </g>
</svg>