<?xml version="1.0" encoding="UTF-8"?>
<svg width="72px" height="72px" viewBox="0 0 72 72" version="1.1" xmlns="http://www.w3.org/2000/svg" xmlns:xlink="http://www.w3.org/1999/xlink">
    <!-- Generator: Sketch 61.2 (89653) - https://sketch.com -->
    <title>logo_72</title>
    <desc>Created with Sketch.</desc>
    <g id="🔪切图" stroke="none" stroke-width="1" fill="none" fill-rule="evenodd">
        <g id="icon" transform="translate(-263.000000, -841.000000)">
            <g id="logo_72" transform="translate(263.000000, 841.000000)">
                <g id="cutting/ic_72">
                    <g>
                        <rect id="矩形" fill="#FFFFFF" x="0" y="0" width="72" height="72" rx="16"></rect>
                        <g id="编组" transform="translate(11.000000, 10.000000)" fill-rule="nonzero">
                            <path d="M48.8451187,35.2877372 C48.3643554,24.590756 39.9509994,15.9370184 29.2540182,15.3360644 C28.6530642,14.2543472 27.571347,13.5332024 26.2492482,13.5332024 L22.4031426,13.5332024 C21.0810438,13.5332024 19.8791358,14.2543472 19.3983726,15.3360644 C9.30234539,16.0572092 1.12937098,23.989802 0.167844574,34.0858292 C0.0476537743,34.806974 0.0476537743,35.5281188 0.0476537743,36.2492636 C0.0476537743,36.9704084 0.0476537743,37.6915532 0.167844574,38.412698 L0.167844574,44.1818565 C0.167844574,47.9077713 2.93223298,50.9125413 6.53795698,51.3933045 C6.77833858,51.3933045 7.13891099,51.3933045 7.37929259,51.3933045 L9.90329939,51.3933045 L11.8263522,51.3933045 L41.6336706,51.3933045 C41.8740522,51.3933045 42.1144338,51.3933045 42.3548154,51.3933045 C45.9605394,51.0327321 48.8451187,47.9077713 48.8451187,44.1818565 L48.8451187,36.9704084 C48.8451187,36.7300268 48.8451187,36.3694544 48.8451187,36.1290728 C48.8451187,35.8886912 48.8451187,35.5281188 48.8451187,35.2877372 Z" id="路径" fill="#6FCFEB"></path>
                            <path d="M37.0664202,51.2731137 L37.5471834,51.2731137 C37.5471834,51.2731137 37.5471834,51.1529229 37.5471834,51.1529229 C37.4269926,51.2731137 37.186611,51.2731137 37.0664202,51.2731137 Z" id="路径" fill="#86B34D"></path>
                            <path d="M19.3983726,15.2158736 C16.3936026,15.4562552 13.5090234,16.2975908 10.9850166,17.7398804 C13.5090234,16.4177816 16.2734118,15.4562552 19.3983726,15.2158736 C19.2781818,15.2158736 19.3983726,15.2158736 19.3983726,15.2158736 Z" id="路径" fill="#6FCFEB"></path>
                            <path d="M29.4943998,15.3360644 C29.374209,15.3360644 29.2540182,15.3360644 29.1338274,15.3360644 C29.1338274,15.3360644 29.1338274,15.3360644 29.1338274,15.3360644 C29.2540182,15.3360644 29.374209,15.3360644 29.4943998,15.3360644 Z" id="路径" fill="#6FCFEB"></path>
                            <g transform="translate(2.692556, 33.364684)">
                                <circle id="椭圆形" fill="#FFFFFF" cx="4.68673696" cy="4.68744121" r="4.56725041"></circle>
                                <path d="M4.68673696,4.68744121 L1.44158536,1.4422896 C0.600249758,2.2836252 0.119486557,3.36534241 0.119486557,4.68744121 C0.119486557,7.21144801 2.16273016,9.25469161 4.68673696,9.25469161 C7.21074377,9.25469161 9.25398737,7.21144801 9.25398737,4.68744121 C9.25398737,3.48553321 8.77322417,2.2836252 7.93188857,1.4422896 L4.68673696,4.68744121 Z" id="路径" fill="#090103"></path>
                            </g>
                            <g transform="translate(37.114778, 33.364684)">
                                <circle id="椭圆形" fill="#FFFFFF" cx="4.63908319" cy="4.68744121" r="4.56725041"></circle>
                                <path d="M4.63908319,4.68744121 L1.39393158,1.4422896 C0.552595984,2.2836252 0.0718327829,3.36534241 0.0718327829,4.68744121 C0.0718327829,7.21144801 2.11507639,9.25469161 4.63908319,9.25469161 C7.16308999,9.25469161 9.2063336,7.21144801 9.2063336,4.68744121 C9.2063336,3.48553321 8.7255704,2.2836252 7.8842348,1.4422896 L4.63908319,4.68744121 Z" id="路径" fill="#090103"></path>
                            </g>
                            <path d="M24.0858138,12.571676 C22.8839058,9.6870968 20.960853,8.7255704 19.2781818,8.2448072 C18.3166554,7.8842348 17.7157014,7.52366239 17.7157014,6.68232679 C17.7157014,5.84099119 18.1964646,5.11984639 19.0378002,5.11984639 C22.763715,4.99965559 24.3261954,13.2928208 24.0858138,12.571676 Z" id="路径" fill="#6FCFEB"></path>
                            <path d="M24.8069586,8.6053796 C25.167531,5.48041879 26.8502022,4.15831999 28.2924918,3.19679359 C29.1338274,2.59583959 29.6145906,2.11507639 29.374209,1.27374078 C29.1338274,0.432405183 28.5328734,-0.0483580173 27.6915378,0.192023583 C24.0858138,1.03335918 24.6867678,9.4467152 24.8069586,8.6053796 Z" id="路径" fill="#6FCFEB"></path>
                            <g opacity="0.8" transform="translate(30.816499, 17.404191)" fill="#FFFFFF" id="路径">
                                <g transform="translate(5.096372, 2.115076)">
                                    <path d="M5.96118199,6.87435038 C5.60060959,6.87435038 5.24003719,6.75415958 5.11984639,6.39358718 C3.91793839,4.71091597 2.35545799,3.14843557 0.552595984,2.06671837 C0.0718327829,1.82633677 -0.0483580173,1.10519197 0.192023583,0.624428767 C0.432405183,0.143665566 1.15354998,0.0234747657 1.63431319,0.263856366 C3.67755679,1.58595517 5.48041879,3.26862637 6.80251759,5.19167917 C7.16308999,5.67244237 7.04289919,6.27339638 6.56213599,6.63396878 C6.44194519,6.75415958 6.20156359,6.87435038 5.96118199,6.87435038 Z"></path>
                                </g>
                                <g>
                                    <path d="M2.7643884,2.49912355 C2.6441976,2.49912355 2.5240068,2.49912355 2.403816,2.49912355 C1.9230528,2.37893275 1.4422896,2.25874195 0.961526401,2.13855115 C0.360572401,2.01836035 4.8003268e-14,1.41740635 0.1201908,0.93664315 C0.2403816,0.335689149 0.841335601,-0.0248832516 1.3220988,0.0953075486 C1.802862,0.215498349 2.403816,0.335689149 2.8845792,0.576070749 C3.48553321,0.81645235 3.72591481,1.29721555 3.60572401,1.89816955 C3.60572401,2.25874195 3.24515161,2.49912355 2.7643884,2.49912355 Z"></path>
                                </g>
                            </g>
                            <path d="M16.153221,47.9077713 C15.4320762,47.9077713 14.7109314,47.9077713 14.1099774,47.7875805 C12.9080694,47.6673897 11.946543,47.0664357 11.1052074,46.7058633 C9.90329939,46.1049093 8.94177299,45.5039553 7.49948339,45.9847185 L7.25910179,45.1433829 C9.06196379,44.6626197 10.2638718,45.3837645 11.4657798,45.9847185 C12.3071154,46.4654817 13.148451,46.9462449 14.2301682,47.0664357 C16.0330302,47.3068173 18.3166554,47.0664357 20.6002806,46.9462449 C21.9223794,46.8260541 23.2444782,46.8260541 24.3261954,46.7058633 L24.3261954,46.7058633 L24.566577,46.7058633 C25.768485,46.7058633 27.2107746,46.8260541 28.6530642,46.8260541 C30.9366894,46.9462449 33.3405054,47.0664357 35.1433674,46.9462449 C36.3452754,46.8260541 37.0664202,46.3452909 37.787565,45.8645277 C38.7490914,45.2635737 39.8308086,44.5424289 41.6336706,45.0231921 L41.393289,45.8645277 C39.9509994,45.5039553 39.2298546,45.9847185 38.1481374,46.5856725 C37.3068018,47.0664357 36.4654662,47.6673897 35.1433674,47.7875805 C33.3405054,47.9077713 30.9366894,47.7875805 28.5328734,47.6673897 C26.970393,47.5471989 25.5281034,47.5471989 24.3261954,47.5471989 C23.2444782,47.5471989 21.9223794,47.6673897 20.6002806,47.7875805 C19.157991,47.9077713 17.5955106,47.9077713 16.153221,47.9077713 Z" id="路径" fill="#090103"></path>
                            <circle id="椭圆形" fill="#FEAEBB" cx="41.7538614" cy="45.6241461" r="1.5624804"></circle>
                            <circle id="椭圆形" fill="#FEAEBB" cx="7.25910179" cy="45.6241461" r="1.5624804"></circle>
                        </g>
                    </g>
                </g>
            </g>
        </g>
    </g>
</svg>