<?xml version="1.0" encoding="UTF-8"?>
<svg width="104px" height="104px" viewBox="0 0 104 104" version="1.1" xmlns="http://www.w3.org/2000/svg" xmlns:xlink="http://www.w3.org/1999/xlink">
    <!-- Generator: Sketch 61.2 (89653) - https://sketch.com -->
    <title>logo_104</title>
    <desc>Created with Sketch.</desc>
    <g id="🔪切图" stroke="none" stroke-width="1" fill="none" fill-rule="evenodd">
        <g id="icon" transform="translate(-553.000000, -1444.000000)">
            <g id="logo_104" transform="translate(553.000000, 1444.000000)">
                <g id="鲸选logo">
                    <g>
                        <circle id="椭圆形" fill="#FFFFFF" cx="52" cy="52" r="52"></circle>
                        <g id="编组" transform="translate(22.000000, 16.000000)" fill-rule="nonzero">
                            <path d="M59.6474045,43.091756 C59.0603187,30.0290963 48.7863166,19.4615513 35.7236569,18.727694 C34.9897996,17.4067509 33.6688565,16.5261222 32.0543704,16.5261222 L27.3576838,16.5261222 C25.7431977,16.5261222 24.2754831,17.4067509 23.6883973,18.727694 C11.3595948,19.6083228 1.37913571,29.295239 0.204964048,41.6240415 C0.0581925898,42.5046702 0.0581925898,43.385299 0.0581925898,44.2659277 C0.0581925898,45.1465565 0.0581925898,46.0271852 0.204964048,46.907814 L0.204964048,53.9528439 C0.204964048,58.5027591 3.58070758,62.1720456 7.98385132,62.7591314 C8.27739423,62.7591314 8.71770861,62.7591314 9.01125152,62.7591314 L12.0934521,62.7591314 L14.4417955,62.7591314 L50.841117,62.7591314 C51.1346599,62.7591314 51.4282029,62.7591314 51.7217458,62.7591314 C56.1248895,62.318817 59.6474045,58.5027591 59.6474045,53.9528439 L59.6474045,45.1465565 C59.6474045,44.8530135 59.6474045,44.4126992 59.6474045,44.1191563 C59.6474045,43.8256133 59.6474045,43.385299 59.6474045,43.091756 Z" id="路径" fill="#6FCFEB"></path>
                            <path d="M45.2638016,62.61236 L45.8508875,62.61236 C45.8508875,62.61236 45.8508875,62.4655885 45.8508875,62.4655885 C45.704116,62.61236 45.4105731,62.61236 45.2638016,62.61236 Z" id="路径" fill="#86B34D"></path>
                            <path d="M23.6883973,18.5809226 C20.0191109,18.8744655 16.4965959,19.9018657 13.4143953,21.6631232 C16.4965959,20.0486372 19.8723394,18.8744655 23.6883973,18.5809226 C23.5416259,18.5809226 23.6883973,18.5809226 23.6883973,18.5809226 Z" id="路径" fill="#6FCFEB"></path>
                            <path d="M36.0171998,18.727694 C35.8704283,18.727694 35.7236569,18.727694 35.5768854,18.727694 C35.5768854,18.727694 35.5768854,18.727694 35.5768854,18.727694 C35.7236569,18.727694 35.8704283,18.727694 36.0171998,18.727694 Z" id="路径" fill="#6FCFEB"></path>
                            <g transform="translate(3.288025, 40.743413)">
                                <circle id="椭圆形" fill="#FFFFFF" cx="5.72322687" cy="5.72408686" r="5.5773154"></circle>
                                <path d="M5.72322687,5.72408686 L1.76039751,1.7612575 C0.732997301,2.7886577 0.145911469,4.10960082 0.145911469,5.72408686 C0.145911469,8.80628748 2.64102625,11.3014023 5.72322687,11.3014023 C8.80542749,11.3014023 11.3005423,8.80628748 11.3005423,5.72408686 C11.3005423,4.25637228 10.7134564,2.7886577 9.68605623,1.7612575 L5.72322687,5.72408686 Z" id="路径" fill="#090103"></path>
                            </g>
                            <g transform="translate(45.322854, 40.743413)">
                                <circle id="椭圆形" fill="#FFFFFF" cx="5.66503428" cy="5.72408686" r="5.5773154"></circle>
                                <path d="M5.66503428,5.72408686 L1.70220492,1.7612575 C0.674804711,2.7886577 0.0877188791,4.10960082 0.0877188791,5.72408686 C0.0877188791,8.80628748 2.58283366,11.3014023 5.66503428,11.3014023 C8.7472349,11.3014023 11.2423497,8.80628748 11.2423497,5.72408686 C11.2423497,4.25637228 10.6552638,2.7886577 9.62786364,1.7612575 L5.66503428,5.72408686 Z" id="路径" fill="#090103"></path>
                            </g>
                            <path d="M29.4124842,15.3519505 C27.9447696,11.8294355 25.5964263,10.6552638 23.5416259,10.068178 C22.3674542,9.62786364 21.6335969,9.18754927 21.6335969,8.16014906 C21.6335969,7.13274886 22.2206827,6.25212011 23.2480829,6.25212011 C27.7979981,6.10534865 29.7060271,16.2325793 29.4124842,15.3519505 Z" id="路径" fill="#6FCFEB"></path>
                            <path d="M30.2931129,10.5084924 C30.7334273,6.69243449 32.7882277,5.07794845 34.5494852,3.90377679 C35.5768854,3.1699195 36.1639712,2.58283366 35.8704283,1.55543346 C35.5768854,0.528033253 34.8430281,-0.0590525788 33.8156279,0.234490337 C29.4124842,1.26189054 30.1463415,11.5358926 30.2931129,10.5084924 Z" id="路径" fill="#6FCFEB"></path>
                            <g opacity="0.8" transform="translate(37.631686, 21.253195)" fill="#FFFFFF" id="路径">
                                <g transform="translate(6.223454, 2.582834)">
                                    <path d="M7.27952032,8.3946394 C6.83920594,8.3946394 6.39889157,8.24786794 6.25212011,7.80755357 C4.78440553,5.75275316 2.87637658,3.84472421 0.674804711,2.52378109 C0.0877188791,2.23023817 -0.0590525788,1.34960942 0.234490337,0.76252359 C0.528033253,0.175437758 1.408662,0.0286663004 1.99574783,0.322209216 C4.49086262,1.93669525 6.69243449,3.99149566 8.30692052,6.33983899 C8.7472349,6.92692482 8.60046344,7.66078211 8.01337761,8.10109649 C7.86660615,8.24786794 7.57306323,8.3946394 7.27952032,8.3946394 Z"></path>
                                </g>
                                <g>
                                    <path d="M3.37574353,3.05181434 C3.22897207,3.05181434 3.08220062,3.05181434 2.93542916,3.05181434 C2.34834333,2.90504288 1.7612575,2.75827142 1.17417166,2.61149996 C0.440314374,2.46472851 5.8536509e-14,1.73087122 0.146771458,1.14378538 C0.293542916,0.409928095 1.02740021,-0.0303862784 1.61448604,0.11638518 C2.20157187,0.263156637 2.93542916,0.409928095 3.52251499,0.703471011 C4.25637228,0.997013927 4.5499152,1.58409976 4.40314374,2.31795705 C4.40314374,2.75827142 3.96282936,3.05181434 3.37574353,3.05181434 Z"></path>
                                </g>
                            </g>
                            <path d="M19.725568,58.5027591 C18.8449392,58.5027591 17.9643105,58.5027591 17.2304532,58.3559877 C15.7627386,58.2092162 14.5885669,57.4753589 13.5611667,57.0350446 C12.0934521,56.3011873 10.9192805,55.56733 9.15802298,56.1544158 L8.86448006,55.1270156 C11.0660519,54.5399298 12.5337665,55.4205585 14.0014811,56.1544158 C15.0288813,56.7415016 16.0562815,57.3285875 17.3772246,57.4753589 C19.5787965,57.7689018 22.3674542,57.4753589 25.1561119,57.3285875 C26.7705979,57.181816 28.385084,57.181816 29.7060271,57.0350446 L29.7060271,57.0350446 L29.99957,57.0350446 C31.4672846,57.0350446 33.2285421,57.181816 34.9897996,57.181816 C37.7784573,57.3285875 40.7138864,57.4753589 42.9154583,57.3285875 C44.3831729,57.181816 45.2638016,56.5947302 46.1444304,56.0076443 C47.318602,55.2737871 48.6395452,54.3931583 50.841117,54.9802441 L50.5475741,56.0076443 C48.7863166,55.56733 47.9056879,56.1544158 46.5847448,56.8882731 C45.5573445,57.4753589 44.5299443,58.2092162 42.9154583,58.3559877 C40.7138864,58.5027591 37.7784573,58.3559877 34.8430281,58.2092162 C32.9349992,58.0624448 31.1737417,58.0624448 29.7060271,58.0624448 C28.385084,58.0624448 26.7705979,58.2092162 25.1561119,58.3559877 C23.3948544,58.5027591 21.4868254,58.5027591 19.725568,58.5027591 Z" id="路径" fill="#090103"></path>
                            <circle id="椭圆形" fill="#FEAEBB" cx="50.9878885" cy="55.7141014" r="1.90802895"></circle>
                            <circle id="椭圆形" fill="#FEAEBB" cx="8.86448006" cy="55.7141014" r="1.90802895"></circle>
                        </g>
                    </g>
                </g>
            </g>
        </g>
    </g>
</svg>