<?xml version="1.0" encoding="UTF-8"?>
<svg width="239px" height="68px" viewBox="0 0 239 68" version="1.1" xmlns="http://www.w3.org/2000/svg" xmlns:xlink="http://www.w3.org/1999/xlink">
    <!-- Generator: Sketch 61.2 (89653) - https://sketch.com -->
    <title>bg_coupon239_68</title>
    <desc>Created with Sketch.</desc>
    <defs>
        <linearGradient x1="49.9656883%" y1="100%" x2="49.9656883%" y2="0.308409646%" id="linearGradient-1">
            <stop stop-color="#EED19C" offset="0%"></stop>
            <stop stop-color="#FFF2D8" offset="99.9313767%"></stop>
        </linearGradient>
    </defs>
    <g id="🔪切图" stroke="none" stroke-width="1" fill="none" fill-rule="evenodd">
        <g id="背景" transform="translate(-312.000000, -1401.000000)" fill="url(#linearGradient-1)">
            <g id="bg_coupon239_68" transform="translate(312.000000, 1401.000000)">
                <path d="M231,0 C235.418278,-8.11624501e-16 239,3.581722 239,8 L239,24 L239,24 C233.477153,24 229,28.4771525 229,34 C229,39.5228475 233.477153,44 239,44 L239,60 C239,64.418278 235.418278,68 231,68 L8,68 C3.581722,68 5.41083001e-16,64.418278 0,60 L0,44 L0,44 C5.5228475,44 10,39.5228475 10,34 C10,28.4771525 5.5228475,24 0,24 L0,8 C-1.42926142e-15,3.581722 3.581722,8.11624501e-16 8,0 L231,0 Z"></path>
            </g>
        </g>
    </g>
</svg>