<?xml version="1.0" encoding="UTF-8"?>
<svg width="702px" height="160px" viewBox="0 0 702 160" version="1.1" xmlns="http://www.w3.org/2000/svg" xmlns:xlink="http://www.w3.org/1999/xlink">
    <!-- Generator: Sketch 61.2 (89653) - https://sketch.com -->
    <title>bg_coupon_kaikalibao_gold</title>
    <desc>Created with Sketch.</desc>
    <defs>
        <linearGradient x1="49.9656883%" y1="100%" x2="49.9656883%" y2="0.239950998%" id="linearGradient-1">
            <stop stop-color="#EED19C" offset="0%"></stop>
            <stop stop-color="#FFF2D8" offset="99.9313767%"></stop>
        </linearGradient>
    </defs>
    <g id="ðŸ”ªåˆ‡å›¾" stroke="none" stroke-width="1" fill="none" fill-rule="evenodd">
        <g id="èƒŒæ™¯" transform="translate(-947.000000, -1897.000000)">
            <g id="bg_coupon_kaikalibao_gold" transform="translate(947.000000, 1897.000000)">
                <g id="å½¢çŠ¶ç»“åˆ">
                    <path d="M516,0 C516,8.836556 523.163444,16 532,16 L532,144 L532,144 C523.163444,144 516,151.163444 516,160 L0,160 L0,0 L516,0 L516,0 Z" fill="#FFF7E7" transform="translate(266.000000, 80.000000) scale(-1, 1) translate(-266.000000, -80.000000) "></path>
                    <path d="M685,0 C685,8.836556 692.163444,16 701,16 C701.335613,16 701.668812,15.9896669 701.999297,15.9693014 L701.999297,15.9693014 L701.999297,144.030699 C701.668812,144.010333 701.335613,144 701,144 C692.163444,144 685,151.163444 685,160 L685,160 L526,160 L526.19964,159.995105 C528.316032,159.891079 530,158.142195 530,156 C530,153.790861 528.209139,152 526,152 L526,152 L526.19964,151.995105 C528.316032,151.891079 530,150.142195 530,148 C530,145.790861 528.209139,144 526,144 L526,144 L526.19964,143.995105 C528.316032,143.891079 530,142.142195 530,140 C530,137.790861 528.209139,136 526,136 L526,136 L526.19964,135.995105 C528.316032,135.891079 530,134.142195 530,132 C530,129.790861 528.209139,128 526,128 L526,128 L526.19964,127.995105 C528.316032,127.891079 530,126.142195 530,124 C530,121.790861 528.209139,120 526,120 L526,120 L526.19964,119.995105 C528.316032,119.891079 530,118.142195 530,116 C530,113.790861 528.209139,112 526,112 L526,112 L526.19964,111.995105 C528.316032,111.891079 530,110.142195 530,108 C530,105.790861 528.209139,104 526,104 L526,104 L526.19964,103.995105 C528.316032,103.891079 530,102.142195 530,100 C530,97.790861 528.209139,96 526,96 L526,96 L526.19964,95.9951047 C528.316032,95.8910789 530,94.1421954 530,92 C530,89.790861 528.209139,88 526,88 L526,88 L526.19964,87.9951047 C528.316032,87.8910789 530,86.1421954 530,84 C530,81.790861 528.209139,80 526,80 L526,80 L526.19964,79.9951047 C528.316032,79.8910789 530,78.1421954 530,76 C530,73.790861 528.209139,72 526,72 L526,72 L526.19964,71.9951047 C528.316032,71.8910789 530,70.1421954 530,68 C530,65.790861 528.209139,64 526,64 L526,64 L526.19964,63.9951047 C528.316032,63.8910789 530,62.1421954 530,60 C530,57.790861 528.209139,56 526,56 L526,56 L526.19964,55.9951047 C528.316032,55.8910789 530,54.1421954 530,52 C530,49.790861 528.209139,48 526,48 L526,48 L526.19964,47.9951047 C528.316032,47.8910789 530,46.1421954 530,44 C530,41.790861 528.209139,40 526,40 L526,40 L526.19964,39.9951047 C528.316032,39.8910789 530,38.1421954 530,36 C530,33.790861 528.209139,32 526,32 L526,32 L526.19964,31.9951047 C528.316032,31.8910789 530,30.1421954 530,28 C530,25.790861 528.209139,24 526,24 L526,24 L526.19964,23.9951047 C528.316032,23.8910789 530,22.1421954 530,20 C530,17.790861 528.209139,16 526,16 L526,16 L526.19964,15.9951047 C528.316032,15.8910789 530,14.1421954 530,12 C530,9.790861 528.209139,8 526,8 L526,8 L526.19964,7.99510469 C528.316032,7.89107888 530,6.14219539 530,4 C530,1.790861 528.209139,0 526,0 L526,0 Z" fill="url(#linearGradient-1)"></path>
                </g>
            </g>
        </g>
    </g>
</svg>