<?xml version="1.0" encoding="UTF-8"?>
<svg width="344px" height="240px" viewBox="0 0 344 240" version="1.1" xmlns="http://www.w3.org/2000/svg" xmlns:xlink="http://www.w3.org/1999/xlink">
    <!-- Generator: Sketch 61.2 (89653) - https://sketch.com -->
    <title>bg_coupon2_gold_zujian</title>
    <desc>Created with Sketch.</desc>
    <g id="ðŸ”ªåˆ‡å›¾" stroke="none" stroke-width="1" fill="none" fill-rule="evenodd">
        <g id="èƒŒæ™¯" transform="translate(-1800.000000, -645.000000)">
            <g id="bg_coupon2_gold_zujian" transform="translate(1800.000000, 645.000000)">
                <g id="å½¢çŠ¶ç»“åˆ">
                    <path d="M259.499631,-27.5000362 C259.838967,-27.5000362 260.173368,-27.4789089 260.50159,-27.437898 C260.533512,-25.8096031 261.86365,-24.5000455 263.499651,-24.5000455 C264.152362,-24.5000455 264.756387,-24.7084941 265.248788,-25.0624524 C266.642374,-23.6228886 267.499631,-21.661574 267.499631,-19.5000362 L267.499964,247.50935 C261.104577,247.771611 256.000282,253.039255 256.000282,259.499074 C256.000282,262.572924 257.156022,265.376835 259.056659,267.499964 L38.943845,267.499964 C40.8444822,265.376835 42.0002226,262.572924 42.0002226,259.499074 C42.0002226,252.871678 36.6276661,247.499111 30.0002817,247.499111 C29.1428928,247.499111 28.3065057,247.589031 27.5000362,247.759953 L27.5008138,-19.5000362 C27.5008138,-22.1983887 28.8367422,-24.5847184 30.8832742,-26.0337007 C31.397383,-25.118049 32.3769125,-24.5000455 33.5007842,-24.5000455 C35.1576303,-24.5000455 36.5007695,-25.8431871 36.5007695,-27.5000269 L36.5007695,-27.5000269 L40.5007498,-27.5000269 C40.5007498,-25.8431871 41.8438889,-24.5000455 43.500735,-24.5000455 C45.1575811,-24.5000455 46.5007202,-25.8431871 46.5007202,-27.5000269 L46.5007202,-27.5000269 L50.5007005,-27.5000269 C50.5007005,-25.8431871 51.8438396,-24.5000455 53.5006857,-24.5000455 C55.1575318,-24.5000455 56.5006709,-25.8431871 56.5006709,-27.5000269 L56.5006709,-27.5000269 L60.5006512,-27.5000269 C60.5006512,-25.8431871 61.8437904,-24.5000455 63.5006364,-24.5000455 C65.1574825,-24.5000455 66.5006217,-25.8431871 66.5006217,-27.5000269 L66.5006217,-27.5000269 L70.500602,-27.5000269 C70.500602,-25.8431871 71.8437411,-24.5000455 73.5005872,-24.5000455 C75.1574333,-24.5000455 76.5005724,-25.8431871 76.5005724,-27.5000269 L76.5005724,-27.5000269 L80.5005527,-27.5000269 C80.5005527,-25.8431871 81.8436918,-24.5000455 83.5005379,-24.5000455 C85.157384,-24.5000455 86.5005231,-25.8431871 86.5005231,-27.5000269 L86.5005231,-27.5000269 L90.5005034,-27.5000269 C90.5005034,-25.8431871 91.8436426,-24.5000455 93.5004886,-24.5000455 C95.1573347,-24.5000455 96.5004739,-25.8431871 96.5004739,-27.5000269 L96.5004739,-27.5000269 L100.500454,-27.5000269 C100.500454,-25.8431871 101.843593,-24.5000455 103.500439,-24.5000455 C105.157285,-24.5000455 106.500425,-25.8431871 106.500425,-27.5000269 L106.500425,-27.5000269 L110.500405,-27.5000269 C110.500405,-25.8431871 111.843544,-24.5000455 113.50039,-24.5000455 C115.157236,-24.5000455 116.500375,-25.8431871 116.500375,-27.5000269 L116.500375,-27.5000269 L120.500356,-27.5000269 C120.500356,-25.8431871 121.843495,-24.5000455 123.500341,-24.5000455 C125.157187,-24.5000455 126.500326,-25.8431871 126.500326,-27.5000269 L126.500326,-27.5000269 L130.500306,-27.5000269 C130.500306,-25.8431871 131.843445,-24.5000455 133.500292,-24.5000455 C135.157138,-24.5000455 136.500277,-25.8431871 136.500277,-27.5000269 L136.500277,-27.5000269 L140.500257,-27.5000269 C140.500257,-25.8431871 141.843396,-24.5000455 143.500242,-24.5000455 C145.157088,-24.5000455 146.500228,-25.8431871 146.500228,-27.5000269 L146.500228,-27.5000269 L150.500208,-27.5000269 C150.500208,-25.8431871 151.843347,-24.5000455 153.500193,-24.5000455 C155.157039,-24.5000455 156.500178,-25.8431871 156.500178,-27.5000269 L156.500178,-27.5000269 L160.500159,-27.5000269 C160.500159,-25.8431871 161.843298,-24.5000455 163.500144,-24.5000455 C165.15699,-24.5000455 166.500129,-25.8431871 166.500129,-27.5000269 L166.500129,-27.5000269 L170.500109,-27.5000269 C170.500109,-25.8431871 171.843248,-24.5000455 173.500095,-24.5000455 C175.156941,-24.5000455 176.50008,-25.8431871 176.50008,-27.5000269 L176.50008,-27.5000269 L180.50006,-27.5000269 C180.50006,-25.8431871 181.843199,-24.5000455 183.500045,-24.5000455 C185.156891,-24.5000455 186.50003,-25.8431871 186.50003,-27.5000269 L186.50003,-27.5000269 L190.500011,-27.5000269 C190.500011,-25.8431871 191.84315,-24.5000455 193.499996,-24.5000455 C195.156842,-24.5000455 196.499981,-25.8431871 196.499981,-27.5000269 L196.499981,-27.5000269 L200.499961,-27.5000269 C200.499961,-25.8431871 201.843101,-24.5000455 203.499947,-24.5000455 C205.156793,-24.5000455 206.499932,-25.8431871 206.499932,-27.5000269 L206.499932,-27.5000269 L210.499912,-27.5000269 C210.499912,-25.8431871 211.843051,-24.5000455 213.499897,-24.5000455 C215.156744,-24.5000455 216.499883,-25.8431871 216.499883,-27.5000269 L216.499883,-27.5000269 L220.499863,-27.5000269 C220.499863,-25.8431871 221.843002,-24.5000455 223.499848,-24.5000455 C225.156694,-24.5000455 226.499833,-25.8431871 226.499833,-27.5000269 L226.499833,-27.5000269 L230.499814,-27.5000269 C230.499814,-25.8431871 231.842953,-24.5000455 233.499799,-24.5000455 C235.156645,-24.5000455 236.499784,-25.8431871 236.499784,-27.5000269 L236.499784,-27.5000269 L240.499764,-27.5000269 C240.499764,-25.8431871 241.842904,-24.5000455 243.49975,-24.5000455 C245.156596,-24.5000455 246.499735,-25.8431871 246.499735,-27.5000269 L246.499735,-27.5000269 L250.499715,-27.5000269 C250.499715,-25.8431871 251.842854,-24.5000455 253.4997,-24.5000455 C255.156546,-24.5000455 256.499686,-25.8431871 256.499686,-27.5000269 L256.499686,-27.5000269 L259.499631,-27.5000362 Z" fill="#FFFFFF" transform="translate(147.500000, 119.999964) rotate(-90.000000) translate(-147.500000, -119.999964) "></path>
                    <path d="M436.000545,103.03208 L436.000744,140.000413 C436.000744,144.418691 432.419022,148.000413 428.000744,148.000413 L204.000744,148.000413 C199.582466,148.000413 196.000744,144.418691 196.000744,140.000413 L195.999902,102.610342 C196.782357,102.770744 197.592573,102.854988 198.422466,102.854988 C204.663597,102.854988 209.79191,98.090446 210.368525,92.0002409 L424.56535,91.9999837 C425.039092,98.0070408 429.936325,102.769907 436.000545,103.03208 Z" fill="#EED19C" transform="translate(316.000323, 120.000198) scale(-1, -1) rotate(-270.000000) translate(-316.000323, -120.000198) "></path>
                </g>
            </g>
        </g>
    </g>
</svg>