<?xml version="1.0" encoding="UTF-8"?>
<svg width="262px" height="240px" viewBox="0 0 262 240" version="1.1" xmlns="http://www.w3.org/2000/svg" xmlns:xlink="http://www.w3.org/1999/xlink">
    <!-- Generator: Sketch 61.2 (89653) - https://sketch.com -->
    <title>bg_coupon702_240left</title>
    <desc>Created with Sketch.</desc>
    <g id="🔪切图" stroke="none" stroke-width="1" fill="none" fill-rule="evenodd">
        <g id="背景" transform="translate(-883.000000, -737.000000)">
            <g id="bg_coupon702_240left" transform="translate(883.000000, 737.000000)">
                <path d="M238,0 C238,6.627417 243.372583,12 250,12 C256.525457,12 261.834393,6.79145563 261.9962,0.304974784 L262,0 L262,240 C262,233.372583 256.627417,228 250,228 C243.372583,228 238,233.372583 238,240 L8,240 C3.581722,240 5.41083001e-16,236.418278 0,232 L0,224 L0,224 C4.418278,224 8,220.418278 8,216 C8,211.581722 4.418278,208 0,208 L0,192 L0,192 C4.418278,192 8,188.418278 8,184 C8,179.581722 4.418278,176 0,176 L0,160 L0,160 C4.418278,160 8,156.418278 8,152 C8,147.581722 4.418278,144 0,144 L0,128 L0,128 C4.418278,128 8,124.418278 8,120 C8,115.581722 4.418278,112 0,112 L0,96 L0,96 C4.418278,96 8,92.418278 8,88 C8,83.581722 4.418278,80 0,80 L0,64 L0,64 C4.418278,64 8,60.418278 8,56 C8,51.581722 4.418278,48 0,48 L0,32 L0,32 C4.418278,32 8,28.418278 8,24 C8,19.581722 4.418278,16 0,16 L0,8 C-5.41083001e-16,3.581722 3.581722,8.11624501e-16 8,0 L238,0 L238,0 Z" fill="#FFFFFF"></path>
                <line x1="250" y1="20" x2="250" y2="220" id="直线" stroke="#E5E5E5" stroke-linecap="round" stroke-dasharray="4,4"></line>
            </g>
        </g>
    </g>
</svg>