<?xml version="1.0" encoding="UTF-8"?>
<svg width="84px" height="84px" viewBox="0 0 84 84" version="1.1" xmlns="http://www.w3.org/2000/svg" xmlns:xlink="http://www.w3.org/1999/xlink">
    <!-- Generator: Sketch 61.2 (89653) - https://sketch.com -->
    <title>cutting/ic_shopuhuodizhi</title>
    <desc>Created with Sketch.</desc>
    <defs>
        <linearGradient x1="50%" y1="0%" x2="50%" y2="100%" id="linearGradient-1">
            <stop stop-color="#FE5E5E" offset="0%"></stop>
            <stop stop-color="#FEC1BC" offset="100%"></stop>
        </linearGradient>
        <path d="M61.6602639,6 C49.989133,6 40.4864466,15.8197048 40.4864466,27.8849198 C40.4864466,37.1268963 46.2815182,47.487016 51.1407774,54.5589476 C54.9921453,60.1672727 58.8346046,64.5933091 60.7783083,66.7260406 C61.003454,66.9780107 61.3269997,67.1176214 61.6602639,67.1176214 C61.9935281,67.1176214 62.3174787,66.9780107 62.5511281,66.7260406 C64.4948318,64.5836663 68.337291,60.1580492 72.1975676,54.5400813 C77.0568268,47.4689882 82.8429898,37.118092 82.8429898,27.8849198 C82.8340811,15.8197048 73.3313947,6 61.6602639,6 Z M61.9102166,41.9089968 C54.783303,41.9089968 48.9886364,35.9090909 48.9886364,28.5394909 C48.9886364,21.1698909 54.783708,15.169985 61.9102166,15.169985 C69.0367253,15.169985 74.8415154,21.1698909 74.8415154,28.5394909 C74.8411104,35.9090909 69.0367253,41.9089968 61.9102166,41.9089968 Z M42.0175407,63.481215 L7.37777778,59.5252036 L12.3205379,41.6564523 C12.6093006,40.6191149 13.515447,39.9038802 14.547945,39.8983273 L39.3568116,39.8983273 C40.5485425,43.3533972 43.0334353,47.6575625 44.7333333,50.8163916 L42.0175407,63.481215 Z M37.864615,84.2341561 L3.32814782,84.2341561 C2.5929728,84.2341561 1.90719167,83.8650777 1.46617486,83.241872 C1.02515805,82.6186663 0.888001825,81.7959587 1.09351566,81.0464018 L6.73936249,62.5603594 L41.0888889,66.7090476 L37.864615,84.2341561 Z M76.1861855,54.9913754 L80.2666667,69.141108 L66.6,67.6475155 C69.0387025,64.7379648 71.7973295,61.2363071 74.5559565,57.3476364 C75.0826192,56.5880942 75.6346911,55.8030601 76.1861855,54.9913754 L76.1861855,54.9913754 Z M80.7780262,71.5365224 L82.8661151,81.0257618 C82.9519388,81.2781825 83,81.5501248 83,81.8429509 C83,82.47883 82.7604346,83.0884855 82.3345524,83.5371818 C81.9086701,83.9858781 81.3314265,84.236672 80.7303941,84.2342987 L41.0888889,84.2342987 L44.0832753,67.2993968 L80.7780262,71.5365224 Z" id="path-2"></path>
        <filter x="-19.5%" y="-23.0%" width="139.0%" height="140.9%" filterUnits="objectBoundingBox" id="filter-3">
            <feMorphology radius="2" operator="dilate" in="SourceAlpha" result="shadowSpreadOuter1"></feMorphology>
            <feOffset dx="0" dy="-2" in="shadowSpreadOuter1" result="shadowOffsetOuter1"></feOffset>
            <feGaussianBlur stdDeviation="3" in="shadowOffsetOuter1" result="shadowBlurOuter1"></feGaussianBlur>
            <feColorMatrix values="0 0 0 0 0.996078431   0 0 0 0 0.368627451   0 0 0 0 0.368627451  0 0 0 0.2 0" type="matrix" in="shadowBlurOuter1"></feColorMatrix>
        </filter>
    </defs>
    <g id="🔪切图" stroke="none" stroke-width="1" fill="none" fill-rule="evenodd">
        <g id="背景" transform="translate(-6003.000000, -921.000000)">
            <g id="bg_mysite" transform="translate(5766.000000, 855.000000)">
                <g id="cutting/ic_shopuhuodizhi">
                    <g>
                        <g transform="translate(237.000000, 66.000000)">
                            <g>
                                <rect id="矩形" x="0" y="0" width="84" height="84"></rect>
                                <g id="形状" fill-rule="nonzero">
                                    <use fill="black" fill-opacity="1" filter="url(#filter-3)" xlink:href="#path-2"></use>
                                    <use fill="url(#linearGradient-1)" xlink:href="#path-2"></use>
                                </g>
                            </g>
                        </g>
                    </g>
                </g>
            </g>
        </g>
    </g>
</svg>