<?xml version="1.0" encoding="UTF-8"?>
<svg width="84px" height="85px" viewBox="0 0 84 85" version="1.1" xmlns="http://www.w3.org/2000/svg" xmlns:xlink="http://www.w3.org/1999/xlink">
    <!-- Generator: Sketch 61.2 (89653) - https://sketch.com -->
    <title>cutting/ic_jifenshangcheng</title>
    <desc>Created with Sketch.</desc>
    <defs>
        <linearGradient x1="50%" y1="0%" x2="50%" y2="100%" id="linearGradient-1">
            <stop stop-color="#FFA325" offset="0%"></stop>
            <stop stop-color="#FEE2A4" offset="100%"></stop>
        </linearGradient>
        <path d="M28.0814914,51.5475425 C28.6656134,51.0114408 29.5628201,51.0114408 30.1469421,51.5475425 C33.2374302,54.7610351 37.3632062,56.3652188 42.001501,56.3652188 C46.1221519,56.3652188 50.2479279,54.7610351 53.8611852,51.5475425 C54.4445567,51.0145695 55.3381391,51.0145695 55.9215106,51.5475425 C61.0774494,55.8321993 68.2937136,57.4415082 74.997459,54.7610351 L74.997459,54.7610351 L74.997459,76.1945698 C74.997459,81.0173713 70.871683,84.230864 66.2333882,84.230864 L66.2333882,84.230864 L17.2570952,84.230864 C12.6188004,84.230864 9.01066827,81.0122462 9.01066827,76.1945698 L9.01066827,76.1945698 L9.01,54.9 L9.01188313,54.9470787 C9.01917228,55.2673642 9.07019637,55.2920015 9.427365,55.2938967 L9.52318703,55.2940546 C16.2269324,57.4415082 22.9255527,55.8321993 28.0814914,51.5475425 Z M27.5689727,56.370344 C26.5336848,56.370344 25.5035221,56.9084887 25.5035221,57.9796529 L25.5035221,57.9796529 L25.5035221,79.4080624 C25.5035221,79.9410819 26.5336848,81.0173713 27.5689727,81.0173713 C28.5991354,81.0173713 29.6292981,80.4843518 29.6292981,79.4080624 L29.6292981,79.4080624 L29.6292981,57.9796529 C29.6292981,57.4466334 28.5940102,56.370344 27.5689727,56.370344 Z M65.4441093,6 C68.0169535,6 70.5949228,7.60930892 71.6302107,9.75163735 L71.6302107,9.75163735 L82.454607,33.3275004 C82.9671258,34.3986647 82.9671258,35.4698289 82.9671258,36.5409931 C83.4847697,43.5061231 77.8163122,51.0093978 71.1125668,52.6187067 C65.4389841,53.6898709 59.7705266,51.0093978 56.6749132,46.7247409 C56.4340461,46.2325411 55.9339045,45.920477 55.3859285,45.920477 C54.8379526,45.920477 54.337811,46.2325411 54.0969438,46.7247409 C51.0064557,50.4712531 47.3983236,52.6187067 42.2423849,52.6187067 C37.0864461,52.6187067 32.9606701,50.4712531 30.3878259,46.7247409 C30.1469588,46.2325411 29.6468171,45.920477 29.0988412,45.920477 C28.5508653,45.920477 28.0507236,46.2325411 27.8098565,46.7247409 C24.1965992,51.5424173 18.0104977,53.6898709 11.8243963,52.080562 C5.12577604,49.9331084 1,44.0391426 1,37.084263 C1,36.0079736 1,34.9368094 1.51251876,33.86052 L1.51251876,33.86052 L1.51251876,33.3275004 L12.3420402,10.2846569 C13.3722029,7.60930892 15.9501723,6 18.5281417,6 L18.5281417,6 Z" id="path-2"></path>
        <filter x="-19.5%" y="-23.0%" width="139.0%" height="140.9%" filterUnits="objectBoundingBox" id="filter-3">
            <feMorphology radius="2" operator="dilate" in="SourceAlpha" result="shadowSpreadOuter1"></feMorphology>
            <feOffset dx="0" dy="-2" in="shadowSpreadOuter1" result="shadowOffsetOuter1"></feOffset>
            <feGaussianBlur stdDeviation="3" in="shadowOffsetOuter1" result="shadowBlurOuter1"></feGaussianBlur>
            <feColorMatrix values="0 0 0 0 1   0 0 0 0 0.639215686   0 0 0 0 0.145098039  0 0 0 0.2 0" type="matrix" in="shadowBlurOuter1"></feColorMatrix>
        </filter>
    </defs>
    <g id="ðŸ”ªåˆ‡å›¾" stroke="none" stroke-width="1" fill="none" fill-rule="evenodd">
        <g id="èƒŒæ™¯" transform="translate(-6003.000000, -1170.000000)">
            <g id="bg_jifenshangcheng" transform="translate(5766.000000, 1105.000000)">
                <g id="cutting/ic_jifenshangcheng">
                    <g>
                        <g transform="translate(237.000000, 65.999437)">
                            <g>
                                <rect id="çŸ©å½¢" x="0" y="0" width="84" height="84"></rect>
                                <g id="å½¢çŠ¶ç»“åˆ" fill-rule="nonzero">
                                    <use fill="black" fill-opacity="1" filter="url(#filter-3)" xlink:href="#path-2"></use>
                                    <use fill="url(#linearGradient-1)" xlink:href="#path-2"></use>
                                </g>
                            </g>
                        </g>
                    </g>
                </g>
            </g>
        </g>
    </g>
</svg>