<?xml version="1.0" encoding="UTF-8"?>
<svg width="176px" height="160px" viewBox="0 0 176 160" version="1.1" xmlns="http://www.w3.org/2000/svg" xmlns:xlink="http://www.w3.org/1999/xlink">
    <!-- Generator: Sketch 61.2 (89653) - https://sketch.com -->
    <title>bg_youhuiquan702_106left_normal</title>
    <desc>Created with Sketch.</desc>
    <defs>
        <linearGradient x1="50%" y1="0%" x2="50%" y2="98.9548142%" id="linearGradient-1">
            <stop stop-color="#55C6FF" offset="0%"></stop>
            <stop stop-color="#0065FF" offset="100%"></stop>
        </linearGradient>
    </defs>
    <g id="ðŸ”ªåˆ‡å›¾" stroke="none" stroke-width="1" fill="none" fill-rule="evenodd">
        <g id="èƒŒæ™¯" transform="translate(-951.000000, -475.000000)" fill="url(#linearGradient-1)">
            <g id="bg_youhuiquan702_106left_normal" transform="translate(951.000000, 475.000000)">
                <g id="å½¢çŠ¶ç»“åˆ">
                    <path d="M175.80036,8.00489531 C173.683968,8.10892112 172,9.85780461 172,12 C172,14.209139 173.790861,16 176,16 L176,16 L175.80036,16.0048953 C173.683968,16.1089211 172,17.8578046 172,20 C172,22.209139 173.790861,24 176,24 L176,24 L175.80036,24.0048953 C173.683968,24.1089211 172,25.8578046 172,28 C172,30.209139 173.790861,32 176,32 L176,32 L175.80036,32.0048953 C173.683968,32.1089211 172,33.8578046 172,36 C172,38.209139 173.790861,40 176,40 L176,40 L175.80036,40.0048953 C173.683968,40.1089211 172,41.8578046 172,44 C172,46.209139 173.790861,48 176,48 L176,48 L175.80036,48.0048953 C173.683968,48.1089211 172,49.8578046 172,52 C172,54.209139 173.790861,56 176,56 L176,56 L175.80036,56.0048953 C173.683968,56.1089211 172,57.8578046 172,60 C172,62.209139 173.790861,64 176,64 L176,64 L175.80036,64.0048953 C173.683968,64.1089211 172,65.8578046 172,68 C172,70.209139 173.790861,72 176,72 L176,72 L175.80036,72.0048953 C173.683968,72.1089211 172,73.8578046 172,76 C172,78.209139 173.790861,80 176,80 L176,80 L175.80036,80.0048953 C173.683968,80.1089211 172,81.8578046 172,84 C172,86.209139 173.790861,88 176,88 L176,88 L175.80036,88.0048953 C173.683968,88.1089211 172,89.8578046 172,92 C172,94.209139 173.790861,96 176,96 L176,96 L175.80036,96.0048953 C173.683968,96.1089211 172,97.8578046 172,100 C172,102.209139 173.790861,104 176,104 L176,104 L175.80036,104.004895 C173.683968,104.108921 172,105.857805 172,108 C172,110.209139 173.790861,112 176,112 L176,112 L175.80036,112.004895 C173.683968,112.108921 172,113.857805 172,116 C172,118.209139 173.790861,120 176,120 L176,120 L175.80036,120.004895 C173.683968,120.108921 172,121.857805 172,124 C172,126.209139 173.790861,128 176,128 L176,128 L175.80036,128.004895 C173.683968,128.108921 172,129.857805 172,132 C172,134.209139 173.790861,136 176,136 L176,136 L175.80036,136.004895 C173.683968,136.108921 172,137.857805 172,140 C172,142.209139 173.790861,144 176,144 L176,144 L175.80036,144.004895 C173.683968,144.108921 172,145.857805 172,148 C172,150.209139 173.790861,152 176,152 L176,152 L175.80036,152.004895 C173.683968,152.108921 172,153.857805 172,156 C172,158.209139 173.790861,160 176,160 L176,160 L17,160 C17,151.163444 9.836556,144 1,144 C0.664387332,144 0.331188099,144.010333 0.000703091577,144.030699 L0.000703091577,15.9693014 C0.331188099,15.9896669 0.664387332,16 1,16 C9.836556,16 17,8.836556 17,0 L176,0 C173.790861,0 172,1.790861 172,4 C172,6.209139 173.790861,8 176,8 L176,8 Z"></path>
                </g>
            </g>
        </g>
    </g>
</svg>